<svg width="76" height="75" viewBox="0 0 76 75" fill="none" xmlns="http://www.w3.org/2000/svg">
<path d="M68.0283 75C67.5214 74.5929 66.9734 74.2269 66.5154 73.7689C61.9471 69.2222 57.3926 64.6618 52.8361 60.1034C51.6266 58.8938 51.5561 58.1559 52.4701 56.8289C51.1744 55.5312 49.8885 54.2434 48.5576 52.9105C44.7175 55.954 40.296 57.9484 35.3716 58.8742C35.3716 61.1094 35.3716 63.28 35.3716 65.4506C35.3716 65.6952 35.3814 65.9399 35.3657 66.1826C35.3207 66.8696 34.8823 67.2943 34.2501 67.2786C33.6355 67.263 33.1971 66.8207 33.1834 66.12C33.1599 64.9241 33.1756 63.7282 33.1756 62.5323C33.1756 61.4382 33.1756 60.3461 33.1756 59.1796C32.4612 59.2324 31.8172 59.2813 31.0794 59.3361C31.0794 59.6219 31.0794 59.8802 31.0794 60.1406C31.0794 63.7047 31.0813 67.2689 31.0754 70.833C31.0754 71.1227 31.0676 71.4241 30.9874 71.7001C30.8308 72.2364 30.4158 72.5025 29.8756 72.4536C29.3413 72.4027 28.9753 72.0896 28.9029 71.5239C28.8735 71.2832 28.8814 71.0366 28.8814 70.7919C28.8794 67.2513 28.8814 63.7125 28.8814 60.1719C28.8814 59.9076 28.8814 59.6434 28.8814 59.3205C28.167 59.2598 27.5172 59.203 26.7754 59.1404C26.7617 59.4497 26.7401 59.7041 26.7401 59.9605C26.7382 61.9373 26.7421 63.9161 26.7362 65.8929C26.7343 66.8187 26.3389 67.3021 25.6186 67.2845C24.9414 67.2689 24.5461 66.7756 24.5421 65.9066C24.5343 63.8065 24.5402 61.7083 24.5402 59.6082C24.5402 59.3459 24.5402 59.0817 24.5402 58.7959C21.663 58.2107 18.9522 57.3319 16.443 55.9442C7.13436 50.7927 1.81652 42.9461 0.61868 32.3457C0.591278 32.1069 0.532561 31.874 0.489502 31.6371C0.489502 30.3179 0.489502 29.0007 0.489502 27.6815C0.736115 26.1451 0.906396 24.593 1.24304 23.0761C3.82074 11.4501 13.4387 2.3195 25.2056 0.428794C34.4497 -1.05676 42.6487 1.32913 49.773 7.40835C49.865 7.48664 49.9629 7.56297 50.0471 7.65105C50.5325 8.14036 50.5873 8.76276 50.1899 9.22272C49.7907 9.68267 49.1585 9.72964 48.6144 9.30688C47.7688 8.64533 46.9663 7.92702 46.0973 7.3007C29.9344 -4.34494 6.7938 4.95591 3.15723 24.5499C0.624552 38.2057 8.49074 51.4288 21.755 55.8053C37.415 60.9743 54.4998 50.6636 57.1949 34.3988C58.4985 26.5307 56.7643 19.3867 51.9887 12.9885C51.8575 12.8123 51.7166 12.6401 51.6148 12.4483C51.3349 11.9178 51.4504 11.4403 51.9064 11.0782C52.3703 10.7102 52.8694 10.7474 53.3039 11.1428C53.5173 11.3365 53.6836 11.5851 53.8598 11.82C56.7154 15.6092 58.5689 19.8349 59.3655 24.5128C59.4536 25.0275 59.663 25.1332 60.1288 25.1293C62.18 25.1097 64.2312 25.1215 66.2824 25.1215C66.4782 25.1215 66.6739 25.1136 66.8677 25.1273C67.5155 25.1763 67.9618 25.5912 67.9892 26.1627C68.0185 26.7538 67.5723 27.2744 66.8911 27.292C65.4036 27.3331 63.9122 27.3155 62.4247 27.3175C61.5537 27.3194 60.6828 27.3175 59.8235 27.3175C59.8235 28.0612 59.8235 28.7071 59.8235 29.4274C60.1504 29.4274 60.4127 29.4274 60.673 29.4274C64.3839 29.4274 68.0949 29.4313 71.8058 29.4215C72.3558 29.4196 72.8392 29.5155 73.1035 30.0478C73.4969 30.8386 72.9116 31.6176 71.9095 31.6215C69.4199 31.6313 66.9283 31.6254 64.4387 31.6254C62.9023 31.6254 61.3658 31.6254 59.7707 31.6254C59.6983 32.3163 59.6297 32.9642 59.5515 33.6942C59.8333 33.7079 60.0917 33.7294 60.352 33.7294C62.3053 33.7333 64.2586 33.7314 66.212 33.7314C66.4312 33.7314 66.6524 33.7216 66.8696 33.7451C67.5507 33.8156 68.0029 34.2794 67.9852 34.8705C67.9676 35.4694 67.5057 35.9098 66.8109 35.9196C65.5661 35.9392 64.3213 35.9274 63.0745 35.9274C61.951 35.9274 60.8276 35.9353 59.7061 35.9235C59.3557 35.9196 59.1365 35.9646 59.0367 36.3893C58.0229 40.7051 56.1361 44.6039 53.4331 48.0154C54.7425 49.3189 56.0323 50.599 57.3789 51.9397C57.3319 51.971 57.4298 51.9123 57.5238 51.8457C58.4965 51.1431 59.434 51.1803 60.2952 52.0356C63.6715 55.3923 67.036 58.7607 70.3985 62.133C70.9583 62.6948 70.9857 63.3544 70.5199 63.8143C70.0384 64.2899 69.4277 64.2567 68.8445 63.6812C67.6662 62.5167 66.5056 61.3364 65.386 60.211C63.8085 61.7866 62.2779 63.3172 60.7689 64.8262C63.3348 67.3824 65.9438 69.9816 68.5078 72.5378C69.9875 71.0522 71.5122 69.5236 73.1661 67.8639C72.9508 67.6858 72.6063 67.4528 72.3303 67.1573C71.8547 66.6484 71.8645 66.0241 72.3029 65.5876C72.7296 65.1629 73.3618 65.1766 73.8824 65.6228C73.9001 65.6385 73.9177 65.6561 73.9372 65.6717C75.6068 67.2043 76.3721 68.2181 74.0625 70.33C72.8216 71.4652 71.6844 72.7159 70.4729 73.8863C70.0423 74.3013 69.5276 74.632 69.0519 75C68.7114 75 68.3689 75 68.0283 75ZM54.2669 58.2753C54.8462 58.8781 55.408 59.4653 55.8894 59.9683C57.4278 58.4201 58.9506 56.8896 60.3461 55.4862C59.8431 54.9656 59.2755 54.3804 58.7314 53.8167C57.2732 55.2729 55.774 56.7702 54.2669 58.2753ZM57.6451 61.6985C58.1148 62.18 58.5865 62.6615 59.0113 63.098C60.5438 61.5654 62.0665 60.0407 63.5208 58.5865C63.0843 58.1363 62.6028 57.6392 62.1585 57.1812C60.6749 58.6668 59.1659 60.1758 57.6451 61.6985ZM51.8282 49.9746C51.3858 50.4091 50.9024 50.8828 50.4757 51.3016C51.7342 52.568 52.9829 53.8206 54.2395 55.085C54.6779 54.6505 55.1633 54.1729 55.6017 53.7384C54.3413 52.4838 53.1023 51.2468 51.8282 49.9746Z" fill="white"/>
<path d="M4.88191 29.9087C4.85255 17.7894 13.3372 7.322 25.1786 4.86957C38.9009 2.02764 52.6036 11.3442 55.009 25.1545C57.3851 38.7867 48.7478 51.6185 35.186 54.3997C27.8678 55.9009 21.1486 54.249 15.0753 49.9313C14.3648 49.4264 14.2219 48.8118 14.6349 48.25C15.04 47.6981 15.6664 47.655 16.371 48.1639C20.7337 51.3131 25.6053 52.832 30.9779 52.7165C41.4883 52.4934 50.9066 44.3297 52.8228 34.0248C55.1363 21.5708 47.1213 9.75878 34.9746 7.07343C24.2998 4.71299 12.9145 10.62 8.86492 20.9679C5.49649 29.574 6.74913 37.5654 12.662 44.7505C13.2061 45.412 13.2844 45.9816 12.8714 46.4474C12.3801 47.0013 11.6873 46.9543 11.106 46.2987C9.02345 43.9578 7.44787 41.3077 6.37334 38.3659C5.37905 35.6375 4.88778 32.8132 4.88191 29.9087Z" fill="white"/>
<path d="M36.0173 28.9969C36.9705 28.9969 37.8199 28.9969 38.6694 28.9969C40.0355 28.9969 41.4017 28.991 42.7698 28.9988C44.2162 29.0067 44.7975 29.5919 44.8053 31.0559C44.8151 32.7156 44.8073 34.3754 44.8073 36.0332C44.8073 36.2955 44.8073 36.5597 44.8073 36.914C45.3553 36.914 45.8153 36.8924 46.2713 36.9198C46.929 36.959 47.3498 37.3798 47.3674 37.965C47.385 38.5541 46.9877 38.9945 46.334 39.0767C46.0697 39.11 45.7977 39.1041 45.5295 39.1041C35.5241 39.1061 25.5206 39.1061 15.5151 39.1041C15.2235 39.1041 14.926 39.11 14.6402 39.0669C14.0217 38.9749 13.6694 38.5933 13.6851 37.9709C13.7007 37.3485 14.0707 36.9746 14.6931 36.9277C15.1726 36.8905 15.658 36.9198 16.2354 36.9198C16.2354 36.5382 16.2354 36.2524 16.2354 35.9647C16.2354 32.7431 16.2354 29.5234 16.2354 26.3017C16.2354 23.7299 16.5329 23.4285 19.0695 23.4285C20.7527 23.4285 22.4379 23.4285 24.1211 23.4285C24.3854 23.4285 24.6496 23.4285 25.0254 23.4285C25.0254 22.4401 25.0234 21.5202 25.0254 20.6022C25.0254 20.2362 25.0136 19.8683 25.041 19.5042C25.1174 18.5178 25.7006 17.8895 26.6734 17.8777C29.2354 17.8464 31.7975 17.8445 34.3595 17.8777C35.4282 17.8914 36.0016 18.5902 36.0095 19.79C36.0251 22.5223 36.0153 25.2566 36.0153 27.9889C36.0173 28.2825 36.0173 28.5702 36.0173 28.9969ZM33.7469 36.8572C33.7469 31.2399 33.7469 25.6735 33.7469 20.1227C31.545 20.1227 29.4135 20.1227 27.2801 20.1227C27.2801 25.7341 27.2801 31.2829 27.2801 36.8572C29.4683 36.8572 31.6017 36.8572 33.7469 36.8572ZM18.4823 36.865C20.6627 36.865 22.798 36.865 24.9647 36.865C24.9647 33.111 24.9647 29.4001 24.9647 25.6833C22.7706 25.6833 20.6392 25.6833 18.4823 25.6833C18.4823 29.4333 18.4823 33.1286 18.4823 36.865ZM36.0643 36.867C38.2446 36.867 40.38 36.867 42.5447 36.867C42.5447 34.9684 42.5447 33.111 42.5447 31.2516C40.3506 31.2516 38.2212 31.2516 36.0643 31.2516C36.0643 33.1443 36.0643 34.9841 36.0643 36.867Z" fill="white"/>
</svg>
