<svg width="80" height="75" viewBox="0 0 80 75" fill="none" xmlns="http://www.w3.org/2000/svg">
<path d="M79.997 59.9992C78.8795 61.2478 77.8893 62.649 76.6133 63.7058C75.0614 64.9935 74.4195 66.3204 75.1064 68.3048C75.4763 69.3714 75.5213 70.5495 75.715 71.6787C75.9088 72.802 75.6094 73.7688 74.6876 74.4459C73.7991 75.0996 72.8089 75.1661 71.8147 74.6495C70.1767 73.7962 68.5386 72.9449 66.9182 72.0603C66.4857 71.8235 66.1432 71.8059 65.701 72.0486C64.1745 72.8881 62.6186 73.6749 61.0863 74.5027C60.0178 75.0781 58.9551 75.2072 57.9277 74.4635C56.863 73.6944 56.7123 72.5965 56.9257 71.3891C57.229 69.6728 57.5441 67.9584 57.7907 66.2343C57.8357 65.9192 57.6654 65.4945 57.4521 65.2381C57.0059 64.7 56.4481 64.2557 55.9687 63.743C55.4912 63.2302 55.4794 62.5805 55.8884 62.1245C56.3366 61.6255 56.9981 61.5668 57.5578 62.0717C58.3876 62.8212 59.2271 63.5786 59.9375 64.4338C60.2193 64.7724 60.3094 65.4084 60.2428 65.8722C59.9649 67.8018 59.5872 69.7178 59.2663 71.6415C59.2173 71.9331 59.2858 72.2423 59.2995 72.5437C59.5833 72.4752 59.8925 72.4615 60.145 72.3324C61.7654 71.5026 63.3995 70.6943 64.9749 69.7824C65.8888 69.254 66.6579 69.2305 67.5836 69.7628C69.2275 70.71 70.9321 71.5535 72.6171 72.4243C72.8069 72.5222 73.0457 72.5261 73.2609 72.5731C73.2962 72.3343 73.394 72.0838 73.3568 71.8568C73.0457 69.9585 72.7286 68.0582 72.3705 66.1677C72.2002 65.2734 72.3685 64.5786 73.0731 63.9348C74.4743 62.6529 75.807 61.2947 77.1632 59.962C77.357 59.7722 77.5175 59.5491 77.8384 59.1714C76.9989 59.0187 76.353 58.8837 75.7033 58.7878C74.1338 58.553 72.5642 58.3201 70.9888 58.1224C70.2452 58.0285 69.7637 57.6762 69.4389 56.9971C68.5778 55.1908 67.6815 53.4001 66.7812 51.6114C66.6756 51.402 66.4583 51.2493 66.292 51.0693C66.1276 51.2533 65.9143 51.4118 65.8066 51.6251C65.0571 53.1105 64.3291 54.6076 63.5893 56.0988C63.4739 56.3317 63.3604 56.5705 63.2057 56.776C62.8241 57.2848 62.2938 57.4061 61.7517 57.1243C61.2135 56.8464 60.961 56.3552 61.1998 55.7466C61.4072 55.2162 61.6636 54.7015 61.9141 54.1888C62.4621 53.0674 63.0453 51.9617 63.5678 50.8305C64.1138 49.6485 64.8379 48.7267 66.2724 48.713C67.7519 48.6993 68.476 49.6583 69.0396 50.8579C69.7148 52.2924 70.4624 53.6937 71.1199 55.1379C71.3724 55.6918 71.7266 55.8816 72.2981 55.9501C73.8989 56.1439 75.488 56.4315 77.0908 56.6175C78.5547 56.7858 79.5704 57.4551 79.9911 58.9091C79.997 59.2712 79.997 59.6352 79.997 59.9992Z" fill="white"/>
<path d="M57.6439 42.6914C56.2916 42.9576 55.0489 43.2022 53.7045 43.4664C53.7045 44.2707 53.7045 45.0692 53.7045 45.8696C53.7045 46.6466 53.7045 47.4235 53.7045 48.2494C54.7612 48.4118 55.7554 48.5782 56.7535 48.7151C58.2271 48.9167 59.2976 49.6643 59.7595 51.0851C60.235 52.5431 59.7458 53.7838 58.6675 54.8289C56.593 56.8427 54.5381 58.874 52.45 60.8722C52.0625 61.242 51.9549 61.5982 52.0449 62.1051C52.5498 64.9467 53.0352 67.7922 53.5283 70.6377C53.7886 72.1446 53.4403 73.4421 52.1584 74.3639C50.949 75.2348 49.6691 75.1487 48.399 74.4852C45.7961 73.1231 43.1933 71.7571 40.6041 70.3696C40.1638 70.1328 39.8194 70.1348 39.379 70.3716C36.8114 71.7473 34.236 73.1055 31.6508 74.448C29.6566 75.4833 27.5899 74.9412 26.7562 73.0507C26.4412 72.3384 26.3785 71.4166 26.492 70.6318C26.9069 67.7765 27.4373 64.9369 27.9442 62.0953C28.0361 61.5826 27.9089 61.2323 27.5254 60.8663C25.4196 58.8486 23.3275 56.8172 21.259 54.7623C19.6933 53.2065 19.5994 51.1145 21.1083 49.725C21.6288 49.2455 22.394 48.95 23.0966 48.768C24.0986 48.5077 25.1456 48.4294 26.2768 48.2592C26.2768 46.7053 26.2826 45.1514 26.267 43.5975C26.265 43.4723 26.1574 43.2805 26.0498 43.2355C24.8599 42.7384 23.6602 42.2628 22.3588 41.7403C22.3588 42.8421 22.3686 43.8011 22.3569 44.758C22.3451 45.6544 21.9478 46.1397 21.2414 46.1651C20.5133 46.1886 20.026 45.6661 20.0241 44.76C20.0123 41.3235 19.9654 37.885 20.0417 34.4504C20.1004 31.7908 21.4292 29.871 23.8579 28.7574C26.7406 27.4345 29.6233 26.1096 32.5255 24.8336C33.4297 24.4363 33.7859 23.8649 33.8328 22.8668C33.9092 21.2503 33.6352 19.9586 32.3729 18.7198C30.7075 17.0838 30.0793 14.8449 30.0577 12.5063C30.0382 10.3223 30.048 8.13235 30.1536 5.95027C30.2652 3.62728 31.8836 1.81704 34.1518 1.2358C34.6685 1.10272 35.1421 0.813082 35.6548 0.662391C36.4944 0.415806 37.3457 0.061585 38.199 0.0400577C41.1912 -0.0362662 44.1875 0.0244007 47.1817 0.000916387C48.0154 -0.00691171 48.4772 0.370795 48.7571 1.11642C49.4969 3.08519 49.9215 5.12049 49.9176 7.21646C49.9117 9.58055 49.9352 11.9583 49.6984 14.3068C49.4773 16.5006 48.2678 18.2815 46.6866 19.8119C46.4263 20.0643 46.2423 20.4929 46.2051 20.8589C46.1308 21.581 46.2032 22.3149 46.1777 23.0429C46.1484 23.8766 46.5026 24.3933 47.2717 24.7357C50.1211 26.0039 52.9412 27.3405 55.7965 28.595C58.6479 29.8494 59.9963 32.008 59.9728 35.0982C59.9474 38.1961 59.9689 41.2961 59.963 44.394C59.963 44.7032 59.9474 45.0222 59.875 45.3197C59.7301 45.9029 59.3074 46.1906 58.7223 46.1593C58.098 46.126 57.687 45.7659 57.6518 45.1299C57.6126 44.3471 57.6439 43.5701 57.6439 42.6914ZM28.7328 71.3129C28.7074 72.4675 29.5098 72.9157 30.502 72.399C33.3162 70.9332 36.1304 69.4655 38.925 67.9644C39.6648 67.5671 40.3028 67.5515 41.0484 67.9546C43.796 69.4361 46.5672 70.8706 49.3286 72.3266C49.8276 72.5889 50.3168 72.8237 50.855 72.4245C51.3619 72.0468 51.3051 71.5203 51.2171 70.9998C50.6828 67.8724 50.1505 64.7432 49.5888 61.6198C49.4616 60.9094 49.6123 60.3594 50.1368 59.8604C51.3639 58.694 52.5635 57.5002 53.7769 56.3201C54.8963 55.2301 56.047 54.1694 57.1155 53.0323C57.3856 52.7447 57.5754 52.1712 57.4835 51.8111C57.4032 51.498 56.8807 51.2867 56.5343 51.0616C56.413 50.9833 56.2329 50.9872 56.0783 50.9657C53.0391 50.5313 50.0018 50.0851 46.9606 49.6702C46.164 49.5606 45.6533 49.1927 45.299 48.4568C43.9448 45.6446 42.5455 42.8558 41.1678 40.0573C40.9212 39.5563 40.6824 39.0611 40.0092 39.0572C39.336 39.0533 39.0894 39.5367 38.8389 40.0416C37.4709 42.8167 36.0736 45.578 34.7429 48.3707C34.3475 49.1985 33.7859 49.5723 32.9013 49.6897C29.8581 50.0948 26.8228 50.5489 23.7835 50.9872C23.2082 51.0694 22.6367 51.1634 22.4391 51.8522C22.2512 52.5059 22.6758 52.8699 23.0673 53.2535C25.3041 55.4356 27.5371 57.6216 29.7877 59.7899C30.2945 60.2772 30.5666 60.7958 30.4276 61.5199C30.181 62.7959 29.9697 64.0797 29.7505 65.3616C29.3982 67.3871 29.0557 69.4126 28.7328 71.3129ZM48.2639 27.7476C46.714 31.4679 44.025 33.605 40.0053 33.6128C35.9543 33.6206 33.2653 31.4425 31.6997 27.7456C29.228 28.8807 26.7993 29.9414 24.4215 31.1078C23.1084 31.7517 22.4449 32.9454 22.3843 34.3936C22.3216 35.8497 22.3588 37.3096 22.3745 38.7676C22.3764 38.9437 22.4704 39.2236 22.5976 39.2784C23.7816 39.7852 24.9832 40.2549 26.2846 40.7755C26.2846 40.2765 26.2807 39.9164 26.2846 39.5563C26.2963 38.8283 26.2689 38.0963 26.3414 37.3742C26.4059 36.7186 26.8326 36.3428 27.5117 36.3722C28.1829 36.4016 28.5508 36.793 28.6095 37.4603C28.633 37.7186 28.6272 37.9809 28.6272 38.2411C28.6291 41.1571 28.6272 44.0731 28.6272 46.989C28.6272 47.2669 28.6272 47.5448 28.6272 47.9069C29.7838 47.7503 30.8327 47.584 31.8876 47.4724C32.4434 47.4137 32.731 47.1495 32.9698 46.6505C34.1968 44.0966 35.465 41.5622 36.7155 39.02C37.1148 38.2098 37.6158 37.4975 38.4534 37.0865C40.2715 36.1961 42.2069 36.9182 43.1972 38.8928C44.5123 41.5192 45.7922 44.1631 47.1054 46.7914C47.2189 47.0184 47.4381 47.3139 47.6494 47.3531C48.8432 47.5742 50.0507 47.7268 51.356 47.9186C51.356 47.537 51.356 47.2572 51.356 46.9793C51.356 44.0379 51.3541 41.0945 51.358 38.1531C51.358 37.8419 51.2777 37.4544 51.4284 37.2352C51.6672 36.8889 52.0292 36.5248 52.4148 36.4035C52.9295 36.2411 53.3952 36.5503 53.5675 37.0846C53.6771 37.4212 53.6888 37.8008 53.6947 38.1609C53.7103 39.114 53.7005 40.0671 53.7005 41.0808C55.0822 40.8009 56.3425 40.5446 57.6087 40.2882C57.6087 38.2392 57.7046 36.2822 57.5637 34.3428C57.503 33.5228 57.051 32.6636 56.5656 31.9689C56.2055 31.4542 55.548 31.0921 54.953 30.8103C52.7573 29.7575 50.5263 28.7731 48.2639 27.7476ZM47.5868 9.15783C47.3794 9.1774 47.2776 9.17544 47.1817 9.19893C43.9467 9.99935 40.747 9.88584 37.5649 8.89559C37.3574 8.83101 36.9817 8.99735 36.8095 9.17544C35.6764 10.3516 34.3925 11.291 32.8778 11.9251C32.6567 12.017 32.3827 12.4456 32.4316 12.6452C32.7291 13.8684 32.9111 15.1815 33.5099 16.256C34.8896 18.7335 37.1422 20.0037 39.9896 20.0076C42.8391 20.0115 45.0074 18.6944 46.5144 16.2873C47.8862 14.0954 47.5927 11.653 47.5868 9.15783ZM43.8567 21.6221C41.2343 22.6085 38.745 22.6026 36.1441 21.6319C36.2635 23.7964 36.0854 25.7514 33.9307 26.7397C34.9386 29.826 37.4455 31.4914 40.6648 31.2546C43.526 31.0452 45.7492 28.6106 45.9957 26.6869C43.8919 25.6966 43.7373 23.7905 43.8567 21.6221ZM47.6553 6.60783C47.4146 5.41209 47.1621 4.27897 46.9625 3.13607C46.8529 2.51374 46.5789 2.31216 45.9214 2.3239C43.5299 2.37283 41.1365 2.37283 38.745 2.33173C37.3124 2.30629 36.238 2.74466 35.5785 4.10871C35.1577 4.97958 34.3906 5.06374 33.6548 4.4414C33.5667 4.36704 33.4747 4.3005 33.3495 4.2046C31.9267 5.80349 32.5412 7.67441 32.3553 9.54141C33.6117 9.03062 34.4767 8.26151 35.2341 7.37302C36.1891 6.25165 36.0423 5.82698 38.195 6.57847C41.2637 7.65092 44.3538 7.64309 47.6553 6.60783Z" fill="white"/>
<path d="M4.231 72.0054C4.53239 70.2285 4.88856 68.2323 5.18995 66.2264C5.23496 65.9328 5.10775 65.5081 4.90226 65.2968C3.64781 64.011 2.35226 62.7663 1.05867 61.5178C0.209322 60.6978 -0.242751 59.7545 0.140826 58.5705C0.518531 57.4021 1.38941 56.8444 2.57536 56.682C4.30146 56.4452 6.02168 56.1594 7.75169 55.9402C8.30357 55.8698 8.61865 55.6506 8.85741 55.1418C9.58346 53.5879 10.3682 52.0595 11.1197 50.5173C11.6481 49.4292 12.4251 48.7032 13.705 48.711C14.9829 48.7188 15.7461 49.4488 16.2726 50.5428C17.0495 52.1593 17.8558 53.764 18.6543 55.3688C18.9498 55.9637 18.9909 56.5234 18.4429 56.9931C17.8401 57.5098 17.0045 57.2847 16.5818 56.4569C15.8264 54.9754 15.116 53.4685 14.3625 51.9851C14.1962 51.6563 13.932 51.3745 13.7128 51.0712C13.474 51.3863 13.1844 51.6739 13.0083 52.0203C12.1726 53.6662 11.3487 55.3199 10.56 56.9873C10.2234 57.7016 9.70871 58.0323 8.93764 58.1302C6.97671 58.3826 5.02164 58.6781 3.06658 58.9756C2.82978 59.0128 2.60863 59.1674 2.38162 59.2691C2.50882 59.4805 2.59689 59.729 2.76715 59.8973C4.15468 61.2712 5.53047 62.6587 6.96692 63.9836C7.62253 64.5883 7.79279 65.242 7.63818 66.0796C7.28983 67.972 6.96888 69.8703 6.65967 71.7706C6.61857 72.027 6.69881 72.3029 6.7223 72.5691C6.98258 72.5006 7.26831 72.4771 7.50119 72.3577C9.25664 71.4516 11.0101 70.5377 12.7499 69.5964C13.4075 69.2402 13.9985 69.246 14.658 69.6042C16.3939 70.5475 18.1513 71.4555 19.9087 72.3597C20.1396 72.479 20.4254 72.4927 20.6857 72.5554C20.7072 72.2814 20.7835 71.9976 20.7405 71.7334C20.4215 69.8097 20.0946 67.8859 19.7385 65.968C19.5976 65.2087 19.7502 64.6059 20.3432 64.0776C21.0242 63.4728 21.6407 62.7977 22.31 62.1773C22.9441 61.5902 23.6153 61.5843 24.1026 62.1166C24.5508 62.6059 24.4882 63.2576 23.9343 63.8525C23.9167 63.8721 23.901 63.8955 23.8795 63.9073C22.1358 64.9758 21.9636 66.4964 22.5057 68.3125C22.809 69.3282 22.903 70.4066 23.085 71.4555C23.2885 72.6356 23.1163 73.7081 22.081 74.4596C21.0555 75.2032 19.9948 75.0838 18.9243 74.5085C17.3665 73.6709 15.8068 72.8352 14.2216 72.0524C13.9359 71.9115 13.4623 71.9115 13.1766 72.0524C11.4994 72.8842 9.86919 73.8118 8.19006 74.6376C6.25065 75.5868 4.18599 74.3069 4.231 72.0054Z" fill="white"/>
</svg>
