<svg width="76" height="75" viewBox="0 0 76 75" fill="none" xmlns="http://www.w3.org/2000/svg">
<path d="M16.3024 74.9939C16.3055 74.6137 16.3101 74.2319 16.3131 73.8517C16.3238 72.7537 16.336 71.6192 16.3253 70.5029C16.3162 69.4996 15.7344 68.9224 14.7296 68.9209H13.5125C10.602 68.9209 7.69304 68.927 4.78405 68.9331C3.35475 68.9362 1.92393 68.9392 0.494629 68.9423V57.3796C0.531278 57.3262 0.574034 57.2559 0.595413 57.1643C1.11155 54.7486 2.59887 53.2215 5.14138 52.4947C6.86081 52.0029 8.59857 51.4731 10.2798 50.9615C10.8036 50.8027 11.3274 50.6424 11.8527 50.4836L11.897 50.4698C12.1245 50.4026 12.4085 50.3171 12.578 50.1003C12.972 49.5948 12.6315 47.9747 12.1565 47.5868C10.4035 46.1529 9.41248 44.4686 9.20938 42.5781C9.04141 41.0206 8.9956 39.2782 9.07195 37.2488C9.19564 33.897 10.7975 31.4782 13.8302 30.0611C14.9968 29.5159 16.1696 29.2395 17.3164 29.2395C19.0022 29.2395 20.6743 29.8351 22.2853 31.0094C22.5037 31.1682 22.7129 31.3484 22.916 31.524C23.0122 31.6064 23.1069 31.6874 23.2 31.7652L23.5558 32.06L23.6871 31.6171C23.8001 31.2354 23.9055 30.8506 24.0048 30.478C24.2353 29.6259 24.4522 28.8227 24.7744 28.053C25.1057 27.2666 25.5348 26.5291 25.9899 25.7488C26.1884 25.4067 26.3946 25.054 26.5915 24.6951L26.7733 24.3637L26.4114 24.2553C26.0372 24.1438 25.6631 24.0324 25.289 23.9209C24.2521 23.614 23.1786 23.2948 22.1326 22.9573C21.9646 22.9039 21.8165 22.8764 21.6776 22.8764C21.2637 22.8764 20.9889 23.1131 20.7965 23.3192C19.7657 24.4233 18.5411 25.0066 17.2538 25.0066C15.9711 25.0066 14.7555 24.4263 13.7385 23.3269C13.4606 23.0276 13.1797 22.8886 12.8498 22.8886C12.7002 22.8886 12.5368 22.9176 12.3367 22.9787C10.9975 23.3925 9.63237 23.7987 8.31149 24.1927C7.39527 24.466 6.47753 24.7394 5.56284 25.0173C3.30436 25.7014 2.33775 27.0009 2.33164 29.3632C2.32706 31.3087 2.32706 33.2526 2.32859 35.198C2.32859 36.0592 2.33012 38.3773 2.33012 38.3773H0.497683V28.1233C0.49921 28.1202 0.500737 28.1172 0.502264 28.1126C0.54044 28.0408 0.586251 27.9523 0.609156 27.8469C1.12835 25.4724 2.60346 23.9621 5.11847 23.2307C7.25784 22.6107 9.42622 21.9541 11.5228 21.3204L11.8313 21.2272C12.1291 21.1371 12.4589 21.0195 12.6162 20.7584C12.9918 20.1385 12.5963 18.6847 12.0649 18.2404C10.3913 16.8492 9.43538 15.2229 9.22771 13.4058C9.03072 11.6833 9.03683 9.96997 9.06431 8.07187C9.12234 3.84658 12.3627 0.389393 16.6002 0.0290139C16.8308 0.00916254 17.0644 0 17.2935 0C21.279 0 24.6446 2.8082 25.2936 6.67769C25.5242 8.05202 25.4997 9.50728 25.4753 10.9152C25.4692 11.3015 25.4615 11.6879 25.46 12.0712C25.4509 14.4503 24.5423 16.4247 22.7602 17.9426C21.9967 18.5946 21.7219 19.3276 21.873 20.3202C21.9204 20.6302 22.2029 21.0486 22.5312 21.1539C24.2124 21.6914 25.996 22.2259 27.8361 22.7436C27.9231 22.768 28.0224 22.7817 28.1277 22.7817C28.4133 22.7817 28.705 22.6901 28.8897 22.5451C31.3223 20.5966 34.387 19.5231 37.5205 19.5231C40.7578 19.5231 43.8958 20.6592 46.3605 22.7222C46.5559 22.8856 46.8827 22.9925 47.1942 22.9925C47.3011 22.9925 47.4004 22.9802 47.4889 22.9558C49.2404 22.4595 51.0072 21.922 52.7175 21.4013L53.4275 21.1845C53.6184 21.1264 53.8765 21.0486 54.0231 20.8485C54.4125 20.3156 54.0552 18.6878 53.5711 18.2816C51.844 16.8431 50.908 15.2672 50.7079 13.4623C50.5308 11.8711 50.4819 10.1364 50.5491 7.83823C50.659 4.11686 53.3222 0.968136 57.0252 0.181717C57.5765 0.0641356 58.143 0.00457624 58.708 0.00457624C61.8125 0.00457624 64.7062 1.78815 66.0805 4.54901C67.2945 6.98921 67.0853 9.64166 66.8837 12.2071C66.8593 12.5277 66.8333 12.8469 66.8104 13.166C66.6699 15.1496 65.6545 16.892 63.793 18.3427C63.1486 18.8451 63.2341 19.4788 63.3013 19.9873C63.3227 20.143 63.3425 20.2912 63.341 20.4255C63.3364 20.9371 64.3061 21.2486 64.3473 21.2608C65.7003 21.6838 67.0807 22.0992 68.4138 22.5008C69.2918 22.7649 70.1714 23.0291 71.0495 23.2979C73.9966 24.1973 75.4946 26.2145 75.5023 29.2899C75.5069 31.2842 75.5053 33.2801 75.5053 35.2744L75.5038 38.3391H73.6683V37.7833C73.6683 36.9358 73.6698 36.0867 73.6698 35.2392C73.6729 33.2663 73.6744 31.2247 73.6637 29.2182C73.6515 27.0253 72.6712 25.7075 70.5791 25.0677C69.6599 24.7867 68.7391 24.5119 67.8183 24.237C66.4562 23.8293 65.0467 23.4093 63.6693 22.9757C63.4846 22.9176 63.3212 22.8886 63.1715 22.8886C62.7241 22.8886 62.4263 23.1497 62.2156 23.3773C61.2261 24.4447 59.98 25.0326 58.708 25.0326C57.6864 25.0326 56.7244 24.6462 55.9242 23.9163C55.2554 23.304 54.6247 23.0184 53.9391 23.0184C53.5283 23.0184 53.0947 23.1177 52.5724 23.3315C52.0257 23.5544 51.4332 23.7178 50.8591 23.8766C50.5751 23.9545 50.2803 24.0354 49.9933 24.124C49.8406 24.1713 49.6955 24.2278 49.529 24.2935C49.442 24.3271 49.3473 24.3637 49.2435 24.4034L48.6693 24.6187L49.187 24.9486C51.4699 26.4008 52.4961 28.5386 52.3266 31.4812L52.2853 32.1913L53.1252 31.4812C53.2397 31.3835 53.3268 31.3102 53.4138 31.2369C54.95 29.9557 56.7962 29.2777 58.7523 29.2777C62.5882 29.2777 65.8499 31.8798 66.6852 35.6057C67.0028 37.0243 66.9753 38.5682 66.9479 40.0601C66.9402 40.48 66.9326 40.9152 66.9326 41.3397C66.9311 43.7188 66.0042 45.7116 64.1809 47.2615C63.4097 47.9151 63.2631 48.5855 63.2815 49.3902C63.2937 50.001 63.535 50.3217 64.1152 50.4912C66.2072 51.0989 68.3268 51.7403 70.376 52.3603L71.0327 52.5588C73.9508 53.4399 75.4962 55.5075 75.5023 58.5371C75.5069 61.0888 75.5053 63.6404 75.5038 66.1921L75.5023 68.4292C75.5023 68.5819 75.4931 68.7377 75.4839 68.9163H70.5791L65.7018 68.9148C64.2756 68.9148 62.8478 68.9163 61.4215 68.9209C60.2763 68.924 59.6884 69.4569 59.6761 70.506C59.6639 71.6314 59.6761 72.7751 59.6868 73.8822C59.6914 74.2548 59.6945 74.6274 59.6975 75H16.3024V74.9939ZM51.1187 73.1248H57.8086V72.8194C57.8086 72.5812 57.8071 72.346 57.8055 72.1139C57.8025 71.5917 57.801 71.0984 57.8116 70.5991C57.8544 68.501 59.2348 67.1129 61.3299 67.064C61.6964 67.0564 62.0873 67.0518 62.5607 67.0518C62.8951 67.0518 63.2295 67.0534 63.564 67.0564C63.8999 67.0579 64.2343 67.0595 64.5703 67.0595H66.392V58.5783H68.1924V67.0167H73.511L73.5736 66.7938C73.5828 66.7617 73.592 66.7342 73.6011 66.7082C73.624 66.641 73.65 66.5647 73.653 66.4731C73.653 65.6744 73.6561 64.8834 73.6591 64.0924C73.6668 62.1119 73.6744 60.0641 73.6332 58.0485C73.595 56.2435 72.5658 54.9379 70.7318 54.3729C69.6049 54.0247 68.455 53.6827 67.3449 53.3529C66.0958 52.9803 64.8039 52.5954 63.538 52.203C63.4006 52.1602 63.2738 52.1389 63.1532 52.1389C62.7653 52.1389 62.5042 52.3649 62.295 52.5466L62.1606 52.6626C61.6307 53.1238 61.0825 53.5987 60.4794 53.8781C59.9113 54.1408 59.3188 54.2736 58.7172 54.2736C57.462 54.2736 56.2128 53.6857 55.2004 52.6183C55.1531 52.5695 54.7347 52.1404 54.3346 52.1404C54.2888 52.1404 54.243 52.1465 54.2002 52.1572C53.1649 52.4321 52.1265 52.7497 51.1217 53.0581C50.798 53.1574 50.4727 53.2566 50.1475 53.3544L49.1778 53.6476L50.1475 53.9392C50.6529 54.0919 51.1675 54.2294 51.6654 54.3607C53.7574 54.9181 55.7334 55.4449 57.2726 57.0589C58.9997 58.8715 59.7754 61.1346 59.6364 63.9703H57.804C57.804 63.897 57.804 63.8252 57.8055 63.755C57.8071 63.4022 57.8086 63.0678 57.8025 62.7319C57.7597 60.8399 57.0939 59.3312 55.8235 58.247C54.9821 57.5277 54.0216 56.9857 53.1206 56.7215C51.5768 56.2679 50.0391 55.9213 48.4128 55.5548C47.7684 55.4098 47.1209 55.2632 46.4689 55.1089L46.1619 55.0372L46.0993 55.3456C45.6367 57.6362 45.1892 59.8442 44.7311 62.1088L44.5952 62.0279C43.8974 61.6156 43.2499 61.2323 42.5734 60.8322L42.2512 60.6414L42.1291 60.9956C42.0665 61.1773 42.0008 61.3545 41.9351 61.5301C41.5748 62.5028 41.2342 63.4236 41.5137 64.5154C41.5946 64.8346 41.6175 65.1751 41.6419 65.534C41.6542 65.7141 41.6664 65.9004 41.6862 66.0852C41.8695 67.7268 42.0542 69.3668 42.239 71.0206L42.4742 73.1141H49.2924V63.4496H51.1187V73.1248ZM36.3416 64.3429C36.0301 67.1572 35.7216 69.9471 35.4086 72.7858L35.372 73.1248H40.631L39.6217 64.0711H36.3722L36.3416 64.3429ZM12.8575 67.0564C13.4087 67.0564 13.9569 67.0579 14.5051 67.061C16.788 67.0778 18.1639 68.4475 18.1853 70.7243C18.1898 71.1977 18.1883 71.6726 18.1883 72.1597L18.1868 73.1141H24.8996V63.448H26.7412V73.0989H33.5273L33.5578 72.827C33.6388 72.091 33.7167 71.3596 33.793 70.6312C33.9839 68.8247 34.1641 67.1175 34.4008 65.3797C34.5794 64.0543 34.6924 62.5104 33.7777 60.9727L33.622 60.7101L31.2612 62.1088L31.194 61.7744C30.994 60.7849 30.8046 59.8458 30.6153 58.9051C30.4122 57.9034 30.2075 56.9017 29.9953 55.8648L29.8258 55.0372L29.5189 55.1089C28.8164 55.2739 28.1125 55.4327 27.4329 55.5869C25.8876 55.935 24.4277 56.2649 22.9603 56.6726C19.9627 57.5079 18.2234 59.8183 18.1898 63.0128C18.1868 63.2862 18.1883 63.5595 18.1883 63.8435C18.1883 63.8893 18.1883 63.9367 18.1883 63.9825H16.3482C16.2734 61.7332 16.6445 60.0611 17.5378 58.5906C18.8144 56.4924 20.7507 55.1975 23.4596 54.634C24.02 54.5164 24.585 54.3805 25.1302 54.2507C25.3699 54.1927 25.6097 54.1347 25.8509 54.0782L26.787 53.8583L25.8952 53.4979C24.6461 52.9925 23.3573 52.5664 21.9555 52.1954C21.8944 52.1801 21.8287 52.1709 21.76 52.1709C21.45 52.1709 21.0729 52.3297 20.8637 52.5496C19.7825 53.6766 18.5426 54.2721 17.2797 54.2721C16.0092 54.2721 14.7662 53.6689 13.6851 52.5283C13.4331 52.2626 13.1766 52.1389 12.8788 52.1389C12.7414 52.1389 12.5917 52.1648 12.41 52.2213C11.0052 52.6565 9.57129 53.0856 8.18474 53.501C7.31281 53.7621 6.44088 54.0232 5.57047 54.2874C3.27993 54.9837 2.34233 56.2389 2.33623 58.6241C2.33012 60.8154 2.33164 63.0418 2.3347 65.1965L2.33623 66.0058C2.33623 66.1753 2.34997 66.3402 2.36524 66.5006C2.37135 66.5754 2.37898 66.6502 2.38356 66.725L2.40189 67.0106H7.84422V58.5676H9.64764V67.0595H9.95304C10.4539 67.0595 10.9487 67.0579 11.4373 67.0579C11.9137 67.0564 12.3871 67.0564 12.8575 67.0564ZM38.0458 58.334C37.5129 58.334 37.0349 58.6318 36.0836 59.2258L36.0698 59.2334C36.053 59.2441 36.0332 59.2533 36.0133 59.2624C35.9293 59.3021 35.8026 59.3632 35.7247 59.4946C35.6148 59.6793 35.5002 59.8962 35.5384 60.1252C35.824 61.8752 36.1889 62.1837 37.9786 62.1837C39.724 62.1837 39.84 62.1012 40.3653 60.4245C40.3852 60.3787 40.4249 60.281 40.3882 60.1619C40.3684 60.1008 40.3531 60.0275 40.3379 59.9511C40.2905 59.7206 40.2386 59.461 40.0263 59.3144C39.1101 58.6822 38.6047 58.334 38.0458 58.334ZM44.0012 54.3637C42.7811 54.4737 42.0008 55.1089 41.248 55.7228C40.8387 56.0572 40.4509 56.3718 40.0019 56.6008L39.5087 56.8513L43.4667 59.2197L44.4059 54.3286L44.0012 54.3637ZM32.634 54.437C32.379 54.437 32.1224 54.5195 31.8461 54.6859L31.6643 54.7974L32.5439 59.2151L32.9165 58.9922C33.964 58.3646 34.9261 57.7889 35.9736 57.1628L36.3645 56.9291L35.9996 56.6558C35.7415 56.4619 35.4865 56.2741 35.2345 56.0893C34.6497 55.6602 34.0984 55.254 33.564 54.8173C33.2494 54.5607 32.9455 54.437 32.634 54.437ZM34.0755 51.5509C33.8663 52.4183 34.1213 53.0658 34.8543 53.533C35.7247 54.0874 36.5432 54.7409 37.3067 55.3624C37.551 55.5609 37.7709 55.6541 37.9954 55.6541C38.2886 55.6541 38.5268 55.4922 38.7024 55.3517C39.5087 54.6997 40.3043 54.069 41.1579 53.5224C41.9046 53.0444 42.1504 52.3939 41.9107 51.5342L41.8389 51.2761L41.5732 51.3143C41.193 51.3677 40.8143 51.4349 40.4478 51.499C39.611 51.6456 38.82 51.7831 38.0259 51.7831C37.212 51.7831 36.4027 51.6456 35.546 51.5021C35.1765 51.4395 34.7947 51.3753 34.413 51.3219L34.1396 51.2837L34.0755 51.5509ZM25.1225 44.2273C24.8797 44.5404 24.6461 44.8626 24.4186 45.1741C23.8841 45.9086 23.3787 46.6034 22.7648 47.1898C22.067 47.8555 21.7967 48.4877 21.8287 49.3704C21.8532 50.0102 22.1006 50.3263 22.7098 50.5034C23.794 50.818 24.895 51.1493 25.9609 51.4715C27.2298 51.8548 28.5431 52.2503 29.8411 52.6199C30.2747 52.7451 30.7237 52.7848 31.2001 52.826C31.4185 52.8443 31.643 52.8642 31.8751 52.8932L32.2186 52.936V52.5909C32.2186 52.3053 32.2217 52.0472 32.2232 51.8075C32.2278 51.2486 32.2324 50.7661 32.2034 50.2927C32.182 49.9705 31.9758 49.6498 31.7804 49.4757C30.7787 48.5778 29.9816 47.5028 29.4104 46.2827C29.3478 46.1483 29.1142 45.707 28.763 45.6566C27.5673 45.4902 26.4633 44.9817 25.5684 44.1876L25.3241 43.9708L25.1225 44.2273ZM50.5796 44.0395C49.61 44.9221 48.5456 45.4459 47.3286 45.6414C47.0186 45.6917 46.7224 45.9972 46.5987 46.2598C46.0138 47.5104 45.2213 48.5717 44.1783 49.5063C43.9951 49.6697 43.8042 49.9705 43.7905 50.2698C43.766 50.7706 43.7691 51.2746 43.7737 51.809C43.7752 52.0152 43.7767 52.229 43.7767 52.4504V52.739L44.0653 52.7558C44.2257 52.7649 44.3921 52.7878 44.5509 52.8092C44.7586 52.8367 44.9754 52.8672 45.1831 52.8672C45.3541 52.8672 45.5053 52.8474 45.6443 52.8077C47.1056 52.3878 48.5823 51.9342 50.0101 51.496C51.0271 51.1829 52.0792 50.8592 53.116 50.5523L53.1496 50.5416C53.6215 50.4011 54.3361 50.1904 54.1361 49.2512C54.1086 49.1199 54.0964 48.9642 54.0842 48.7977C54.0552 48.3992 54.0231 47.9853 53.7436 47.741C52.5006 46.6477 51.6486 45.5054 51.0652 44.1479L50.8957 43.7539L50.5796 44.0395ZM14.557 49.4513C14.2623 50.3889 14.6593 51.2211 15.7374 51.9235C16.2704 52.2702 16.7728 52.4382 17.2736 52.4382C17.7943 52.4382 18.3181 52.2549 18.8739 51.8793C20.1368 51.0226 20.1566 50.085 19.952 49.4498L19.8833 49.2375H14.6242L14.557 49.4513ZM56.0464 49.5017C55.8784 50.7416 56.1716 51.3082 57.3535 52.0213C57.8055 52.2946 58.2682 52.4336 58.7279 52.4336C59.2883 52.4336 59.8594 52.2274 60.4259 51.8182C61.4063 51.1112 61.6537 50.5187 61.4078 49.4727L61.3528 49.2375H56.083L56.0464 49.5017ZM30.4076 36.2837C30.4076 36.9968 30.3969 37.7054 30.3862 38.391C30.3618 39.9242 30.3404 41.3718 30.432 42.8393C30.6855 46.9057 33.961 49.972 38.0504 49.972C38.3237 49.972 38.6001 49.9583 38.875 49.9308C42.7185 49.549 45.5572 46.2812 45.6244 42.1597C45.6412 41.1045 45.6366 40.0326 45.6321 38.9973C45.6305 38.5254 45.6275 38.052 45.6275 37.5802V35.989H45.3221C45.1785 35.989 45.0472 35.9844 44.922 35.9814C44.8044 35.9783 44.6929 35.9753 44.5845 35.9753C44.4196 35.9753 44.2822 35.9829 44.1554 35.9997C44.0776 36.0104 44.0058 36.015 43.9416 36.015C43.6439 36.015 43.4148 35.9218 43.2621 35.4668C43.1598 35.1614 43.0056 34.885 42.8422 34.5933C42.7689 34.4604 42.691 34.3245 42.6162 34.1764L42.4681 33.8878L42.1886 34.0543C39.4644 35.6729 36.5554 36.0043 33.028 36.0043C32.3698 36.0043 31.6964 35.9936 31.0444 35.9829L30.4076 35.9722V36.2837ZM10.883 39.9257C10.6799 42.9217 11.6022 45.055 13.7065 46.4446C14.8579 47.2035 16.052 47.5898 17.2583 47.5898C18.4265 47.5898 19.5871 47.2279 20.7094 46.5133C22.8717 45.1359 23.8643 42.992 23.6566 40.141L23.6413 39.9242L23.4306 39.8677C23.1069 39.7821 22.7923 39.6966 22.4808 39.6126C21.7081 39.4034 20.9782 39.2065 20.2345 39.0308C20.0772 38.9942 19.9077 38.9743 19.7291 38.9743C19.5413 38.9743 19.3458 38.9957 19.1626 39.037C18.8846 39.0996 18.6113 39.1897 18.3486 39.2767C17.9379 39.4126 17.5515 39.5409 17.1652 39.5638C16.0321 39.631 14.8716 39.631 13.7492 39.6325C13.2942 39.6325 12.8391 39.6325 12.3856 39.6371C12.2207 39.6386 12.0558 39.6401 11.8893 39.6401L10.8998 39.6386L10.883 39.9257ZM56.2602 38.8339C56.2052 38.8339 56.1518 38.8415 56.1029 38.8552C55.1668 39.1286 54.2415 39.4126 53.2611 39.7119L52.3479 39.9914L52.3342 40.2006C52.1403 43.0408 53.1466 45.1726 55.3241 46.5377C56.4358 47.234 57.5841 47.5883 58.7386 47.5883C59.9342 47.5883 61.1192 47.2096 62.2614 46.4614C64.3809 45.0733 65.3139 42.9355 65.1108 39.9257L65.0925 39.6401L61.8552 39.6386C61.2154 39.6386 60.5801 39.6386 59.9434 39.6417H59.8731C58.8928 39.6417 57.7551 39.5623 56.7473 38.9789C56.6725 38.9362 56.4724 38.8339 56.2602 38.8339ZM47.4706 43.6761L47.8661 43.5539C49.468 43.0591 50.4682 41.6772 50.4743 39.9486C50.4804 38.2795 49.4573 36.8777 47.8676 36.3753L47.4706 36.2501V43.6761ZM28.1567 36.3479C26.2953 37.0228 25.3012 38.6247 25.5623 40.5258C25.7746 42.0773 26.9367 43.3829 28.2071 43.4989L28.5003 43.5249L28.537 43.2332L28.5446 43.1798C28.5538 43.1202 28.5645 43.0515 28.5645 42.9767C28.566 40.8862 28.566 38.7957 28.566 36.6349V36.1997L28.1567 36.3479ZM13.8943 37.7833C14.5372 37.7833 15.0671 37.797 15.5588 37.826C15.7237 37.8352 15.8855 37.8413 16.0398 37.8413C17.6172 37.8413 18.8159 37.316 19.7001 36.2349C20.9767 37.3649 21.5921 37.797 22.5999 37.797C22.8091 37.797 23.0458 37.7802 23.3695 37.742L23.6535 37.7084L23.6383 37.4214C23.4367 33.7748 20.772 31.1285 17.3011 31.1285C17.2141 31.1285 17.1285 31.13 17.04 31.1331C13.5492 31.2674 10.8677 34.068 10.9349 37.5099L10.941 37.8092H11.2403C11.6832 37.8092 12.126 37.8031 12.5688 37.797C13.0117 37.7894 13.453 37.7833 13.8943 37.7833ZM58.7202 31.13C58.5874 31.13 58.453 31.1346 58.3201 31.1422C56.6145 31.2415 54.9698 32.0813 53.8062 33.448C52.774 34.6605 52.2838 36.0928 52.4258 37.484L52.4487 37.71L52.6717 37.7527C52.8885 37.794 53.1053 37.8153 53.313 37.8153C54.5973 37.8153 55.5425 37.0182 56.3258 36.189C56.3304 36.1952 56.335 36.1997 56.3381 36.2058C56.4984 36.4166 56.6511 36.6166 56.8679 36.7541C56.9947 36.835 57.123 36.9236 57.2512 37.0136C57.7353 37.3511 58.2377 37.6993 58.7966 37.7329C59.5631 37.7787 60.4 37.8001 61.4307 37.8001C61.9881 37.8001 62.5454 37.7939 63.1028 37.7878C63.6586 37.7817 64.213 37.7756 64.7673 37.7756H65.0757L65.0727 37.4672C65.0375 33.9122 62.2461 31.13 58.7202 31.13ZM37.5251 21.3418C35.5751 21.3418 33.6266 21.8335 31.8888 22.7634C27.4207 25.1563 25.0569 29.7969 25.5639 35.1736L25.6158 35.7202L26.0525 35.3874C27.5215 34.2711 29.1493 34.1276 30.4045 34.1276C30.4992 34.1276 30.5939 34.1291 30.6886 34.1306C31.0352 34.1367 31.4063 34.1398 31.8537 34.1398C32.1683 34.1398 32.4828 34.1382 32.7974 34.1367C33.1104 34.1352 33.4235 34.1337 33.7365 34.1337C33.9518 34.1337 34.1671 34.1337 34.3824 34.1367H34.5351C36.757 34.1367 38.6734 33.7366 40.3928 32.9151C41.1304 32.5624 41.8221 32.1638 42.5536 31.7408C42.7842 31.608 43.0163 31.4736 43.2514 31.3392C43.3217 31.4782 43.3934 31.6171 43.4652 31.7561C43.7416 32.2951 44.0287 32.854 44.2791 33.4114C44.5082 33.9199 44.8441 34.1459 45.3725 34.1459C45.403 34.1459 45.4351 34.1459 45.4671 34.1444C45.6214 34.1367 45.7756 34.1337 45.9237 34.1337C47.1408 34.1337 48.1807 34.3658 49.1045 34.8453C49.2939 34.943 49.4786 35.0514 49.6741 35.1675C49.7718 35.224 49.8696 35.282 49.9719 35.34L50.4285 35.6011V35.0743C50.4285 34.5185 50.4346 33.9718 50.4422 33.4312C50.4575 32.1607 50.4712 30.9605 50.404 29.7404C50.3292 28.3737 49.5855 27.2315 48.4174 26.6879C47.492 26.2572 46.7957 25.6052 46.0581 24.9135C45.91 24.7745 45.7619 24.6371 45.6122 24.4996C43.3797 22.4626 40.5074 21.3418 37.5251 21.3418ZM56.0678 20.0789C55.7532 21.1157 56.135 21.9862 57.2039 22.6642C57.7445 23.0077 58.2469 23.1757 58.7401 23.1757C59.2608 23.1757 59.7861 22.9879 60.345 22.6031C61.3849 21.8884 61.73 21.0577 61.4002 20.0636L61.3223 19.83L61.078 19.8559C60.8367 19.8819 60.5954 19.9124 60.3557 19.9445C59.8075 20.0163 59.2883 20.0835 58.766 20.085C58.2285 20.085 57.6956 20.0193 57.1306 19.9491C56.8847 19.9186 56.6374 19.888 56.39 19.8636L56.1396 19.8392L56.0678 20.0789ZM14.557 20.172C14.2608 21.1112 14.6425 21.9235 15.7222 22.655C16.2276 22.9955 16.7437 23.1681 17.2583 23.1681C17.7913 23.1681 18.3349 22.9818 18.8709 22.6153C20.1276 21.7571 20.1521 20.8134 19.952 20.1736L19.8848 19.9598H19.6604C18.0402 19.9583 16.4643 19.9583 14.8472 19.9583H14.6227L14.557 20.172ZM14.7861 9.60959C14.6945 9.60959 14.6074 9.62027 14.528 9.64318C13.679 9.87987 12.8208 10.1379 11.9107 10.4098L10.8754 10.7182L10.8616 10.9289C10.6753 13.673 11.6419 15.7864 13.7355 17.2127C14.7571 17.909 15.9741 18.2755 17.2538 18.277C18.5411 18.277 19.7749 17.9075 20.8194 17.2081C22.9068 15.8124 24.0368 13.0958 23.5665 10.6052L23.5192 10.3563H23.2657C22.7786 10.3563 22.2899 10.3548 21.7997 10.3548C21.308 10.3533 20.8148 10.3533 20.3216 10.3533C19.5306 10.3533 18.8831 10.3563 18.2815 10.3624H18.1532C16.9636 10.3624 16.0841 10.1685 15.3007 9.73481C15.1572 9.65387 14.9693 9.60959 14.7861 9.60959ZM52.3739 10.6357C52.0975 13.8257 53.2962 16.2247 55.8418 17.5761C56.6908 18.0266 57.6818 18.2648 58.708 18.2648C60.1709 18.2648 61.5636 17.7945 62.6294 16.9424C64.4817 15.4627 65.32 13.4363 65.1231 10.9198L65.1063 10.7106C65.1063 10.7106 64.271 10.4617 63.9671 10.3716C63.1043 10.1135 62.2889 9.87071 61.478 9.64318C61.3941 9.62027 61.3009 9.60806 61.2032 9.60806C61.0184 9.60806 60.8413 9.65082 60.7038 9.72717C59.9189 10.1639 59.0348 10.3594 57.8376 10.3594H57.7246C57.0909 10.3532 56.4572 10.3517 55.8219 10.3517C55.3058 10.3517 54.7881 10.3533 54.2674 10.3548C53.7421 10.3563 53.2138 10.3578 52.6808 10.3578H52.4014L52.3739 10.6357ZM55.2676 8.52692C55.8738 8.52692 56.3732 8.54067 56.8374 8.57121C57.0283 8.58343 57.2146 8.58954 57.3932 8.58954C59.0119 8.58954 60.2549 8.06118 61.1879 6.97394C61.9239 7.77868 62.86 8.54677 64.2038 8.54677C64.4023 8.54677 64.6069 8.52998 64.8146 8.49639L65.0604 8.45669L65.0711 8.20778C65.1368 6.65021 64.5061 5.06057 63.3425 3.84659C62.1118 2.56235 60.4549 1.85533 58.679 1.85533C58.453 1.85533 58.2224 1.86756 57.9949 1.89046C56.3946 2.05233 54.7774 2.98992 53.6673 4.39937C52.7022 5.62405 52.2685 7.006 52.4441 8.28871L52.4808 8.55289H52.748C53.1679 8.55289 53.5879 8.54678 54.0093 8.53914C54.4277 8.53303 54.8477 8.52692 55.2676 8.52692ZM17.1942 1.85686C16.9499 1.85686 16.701 1.87061 16.4551 1.89657C14.867 2.06759 13.2621 3.01588 12.1642 4.43449C11.2235 5.65 10.8051 7.00295 10.9884 8.24595L11.0204 8.46279L11.2373 8.50097C11.4404 8.53761 11.6419 8.55594 11.8359 8.55594C13.088 8.55594 13.9859 7.82754 14.8426 6.96325C15.574 7.74203 16.3559 8.48875 17.521 8.51471C18.2021 8.52998 18.9335 8.53761 19.8253 8.53761C20.3994 8.53761 20.9751 8.53456 21.5539 8.53151C22.1372 8.52845 22.7251 8.52539 23.3161 8.52539H23.6169L23.6215 8.22457C23.6474 6.59829 22.9862 4.97658 21.8058 3.77634C20.5842 2.53945 18.9472 1.85686 17.1942 1.85686Z" fill="white"/>
<path d="M30.3283 4.92139H28.6104V17.6415H30.3283V4.92139Z" fill="white"/>
<path d="M47.4096 4.91992H45.6855V17.6553H47.4096V4.91992Z" fill="white"/>
<path d="M35.2115 4.92627H33.4829V12.7706H35.2115V4.92627Z" fill="white"/>
<path d="M42.5338 4.9292H40.7915V12.7644H42.5338V4.9292Z" fill="white"/>
<path d="M30.3373 0.0625H28.5903V1.77277H30.3373V0.0625Z" fill="white"/>
<path d="M47.4248 0.0673828H45.6748V1.77918H47.4248V0.0673828Z" fill="white"/>
<path d="M35.1947 15.8857H33.4707V17.6571H35.1947V15.8857Z" fill="white"/>
<path d="M42.5277 15.8872H40.7991V17.6586H42.5277V15.8872Z" fill="white"/>
</svg>
