<svg width="21" height="23" viewBox="0 0 21 23" fill="none" xmlns="http://www.w3.org/2000/svg">
<path fill-rule="evenodd" clip-rule="evenodd" d="M10.5 1.95117C7.65729 1.95117 4.75 4.3809 4.75 8.09772C4.75 10.8796 5.88582 13.5888 7.22797 15.8085C8.43645 17.8072 9.77928 19.3552 10.5 20.1265C11.2207 19.3552 12.5636 17.8072 13.772 15.8085C15.1142 13.5888 16.25 10.8796 16.25 8.09772C16.25 4.3809 13.3427 1.95117 10.5 1.95117ZM3.25 8.09772C3.25 3.53869 6.84271 0.451172 10.5 0.451172C14.1573 0.451172 17.75 3.53869 17.75 8.09772C17.75 11.2674 16.4655 14.2529 15.0556 16.5846C13.6405 18.9251 12.0581 20.674 11.3731 21.3858C10.8928 21.8849 10.1072 21.8849 9.62688 21.3858C8.94188 20.674 7.3595 18.9251 5.94436 16.5846C4.53452 14.2529 3.25 11.2674 3.25 8.09772Z" fill="url(#paint0_linear_32_1557)"/>
<path fill-rule="evenodd" clip-rule="evenodd" d="M10.5 6.42969C9.5335 6.42969 8.75 7.21319 8.75 8.17969C8.75 9.14619 9.5335 9.92969 10.5 9.92969C11.4665 9.92969 12.25 9.14619 12.25 8.17969C12.25 7.21319 11.4665 6.42969 10.5 6.42969ZM7.25 8.17969C7.25 6.38476 8.70507 4.92969 10.5 4.92969C12.2949 4.92969 13.75 6.38476 13.75 8.17969C13.75 9.97461 12.2949 11.4297 10.5 11.4297C8.70507 11.4297 7.25 9.97461 7.25 8.17969Z" fill="url(#paint1_linear_32_1557)"/>
<defs>
<linearGradient id="paint0_linear_32_1557" x1="3.25" y1="21.7601" x2="18.4374" y2="21.2584" gradientUnits="userSpaceOnUse">
<stop stop-color="#9914B3"/>
<stop offset="1" stop-color="#7023BC"/>
</linearGradient>
<linearGradient id="paint1_linear_32_1557" x1="7.25" y1="11.4297" x2="14.0495" y2="11.0996" gradientUnits="userSpaceOnUse">
<stop stop-color="#9914B3"/>
<stop offset="1" stop-color="#7023BC"/>
</linearGradient>
</defs>
</svg>
