<svg width="22" height="18" viewBox="0 0 22 18" fill="none" xmlns="http://www.w3.org/2000/svg">
<path fill-rule="evenodd" clip-rule="evenodd" d="M2.75 2.30273C2.05964 2.30273 1.5 2.86238 1.5 3.55273V14.5527C1.5 15.2431 2.05964 15.8027 2.75 15.8027H18.75C19.4404 15.8027 20 15.2431 20 14.5527V3.55273C20 2.86238 19.4404 2.30273 18.75 2.30273H2.75ZM0 3.55273C0 2.03395 1.23122 0.802734 2.75 0.802734H18.75C20.2688 0.802734 21.5 2.03395 21.5 3.55273V14.5527C21.5 16.0715 20.2688 17.3027 18.75 17.3027H2.75C1.23122 17.3027 0 16.0715 0 14.5527V3.55273Z" fill="url(#paint0_linear_32_1573)"/>
<path fill-rule="evenodd" clip-rule="evenodd" d="M0.577003 4.77691C0.759631 4.40513 1.20907 4.2518 1.58085 4.43442L10.6399 8.88451C10.7095 8.91865 10.7909 8.91865 10.8604 8.88451L19.9195 4.43442C20.2913 4.2518 20.7407 4.40513 20.9233 4.77691C21.106 5.14869 20.9526 5.59813 20.5808 5.78076L11.5217 10.2308C11.0351 10.4699 10.4652 10.4699 9.97859 10.2308L0.91949 5.78076C0.547711 5.59813 0.394374 5.14869 0.577003 4.77691Z" fill="url(#paint1_linear_32_1573)"/>
<path fill-rule="evenodd" clip-rule="evenodd" d="M14.3679 9.17953C14.293 9.12515 14.1942 9.11661 14.1111 9.15735L11.5201 10.4269C11.0343 10.6649 10.4658 10.6649 9.98003 10.4269L7.38905 9.15735C7.30593 9.11662 7.2071 9.12515 7.13218 9.17953L1.19065 13.4926C0.855443 13.736 0.386446 13.6615 0.143113 13.3263C-0.100221 12.9911 -0.0257446 12.5221 0.30946 12.2788L6.251 7.96565C6.77538 7.58498 7.46719 7.52524 8.04908 7.81036L10.64 9.07994C10.7094 9.11394 10.7907 9.11394 10.8601 9.07994L13.451 7.81036C14.0329 7.52524 14.7247 7.58498 15.2491 7.96565L21.1906 12.2788C21.5259 12.5221 21.6003 12.9911 21.357 13.3263C21.1137 13.6615 20.6447 13.736 20.3095 13.4926L14.3679 9.17953Z" fill="url(#paint2_linear_32_1573)"/>
<defs>
<linearGradient id="paint0_linear_32_1573" x1="-1.60187e-07" y1="17.3027" x2="22.4539" y2="15.8823" gradientUnits="userSpaceOnUse">
<stop stop-color="#9914B3"/>
<stop offset="1" stop-color="#7023BC"/>
</linearGradient>
<linearGradient id="paint1_linear_32_1573" x1="0.5" y1="10.4101" x2="21.4297" y2="6.96854" gradientUnits="userSpaceOnUse">
<stop stop-color="#9914B3"/>
<stop offset="1" stop-color="#7023BC"/>
</linearGradient>
<linearGradient id="paint2_linear_32_1573" x1="-1.60188e-07" y1="13.6358" x2="21.8825" y2="9.83137" gradientUnits="userSpaceOnUse">
<stop stop-color="#9914B3"/>
<stop offset="1" stop-color="#7023BC"/>
</linearGradient>
</defs>
</svg>
