<svg width="22" height="22" viewBox="0 0 22 22" fill="none" xmlns="http://www.w3.org/2000/svg">
<path fill-rule="evenodd" clip-rule="evenodd" d="M3.94627 0.395901C4.77857 -0.151237 5.8345 0.164262 6.31172 0.959633L8.44468 4.51457C8.92542 5.3158 8.6919 6.35337 7.91425 6.87139L6.41784 7.86818C6.3 7.94668 6.28165 8.09004 6.34899 8.18654C7.05987 9.20538 8.29248 10.8918 9.34113 11.9404C10.3899 12.9892 12.0765 14.2219 13.0953 14.9328C13.1918 15.0001 13.3351 14.9818 13.4136 14.864L14.4112 13.3676C14.9294 12.5903 15.9667 12.3571 16.7677 12.8377L20.3227 14.9707C21.1182 15.448 21.4337 16.5043 20.8862 17.3366C20.514 17.9024 19.9542 18.6774 19.2754 19.3719C18.6097 20.0531 17.7597 20.7297 16.7973 20.9876C15.4454 21.3498 13.8451 20.8889 12.6931 20.4303C11.4976 19.9542 10.5768 19.3932 10.4994 19.3457L10.495 19.3429L10.4838 19.3359L10.4743 19.3297L10.4727 19.3286C10.3664 19.2585 7.3486 17.2641 5.6829 15.5984C4.01723 13.9327 2.02345 10.9157 1.95341 10.8096L1.95184 10.8073L1.94565 10.7978L1.93863 10.7866L1.93591 10.7822C1.88842 10.705 1.32735 9.78414 0.851247 8.58854C0.392513 7.43655 -0.0684456 5.8361 0.294017 4.48416C0.552065 3.52167 1.22897 2.67176 1.91034 2.00615C2.60509 1.32748 3.38036 0.767924 3.94627 0.395901ZM4.89377 1.62839C4.85079 1.6175 4.80999 1.62319 4.77025 1.64932C4.24699 1.9933 3.55837 2.49317 2.95852 3.07915C2.34529 3.67819 1.89686 4.29816 1.74285 4.8726C1.51709 5.71466 1.79698 6.90896 2.24482 8.03361C2.66142 9.0798 3.15366 9.8981 3.20964 9.98992C3.34218 10.1902 5.22451 13.0187 6.74356 14.5378C8.26262 16.0568 11.091 17.9392 11.2916 18.0719C11.3835 18.1279 12.2018 18.6201 13.248 19.0367C14.3726 19.4845 15.5669 19.7643 16.409 19.5387C16.9835 19.3847 17.6035 18.9365 18.2027 18.3235C18.7888 17.7238 19.2888 17.0354 19.633 16.5122C19.6591 16.4725 19.6648 16.4317 19.6539 16.3887C19.6423 16.3428 19.6102 16.2925 19.551 16.2569L15.996 14.1239C15.8815 14.0553 15.7333 14.0886 15.6593 14.1996L14.6617 15.696C14.1301 16.4935 13.0426 16.725 12.237 16.1629C11.2194 15.4529 9.43303 14.1536 8.28047 13.0011C7.12803 11.8486 5.82887 10.0625 5.11884 9.04487C4.55657 8.23904 4.7884 7.15127 5.58626 6.61979L7.08267 5.623C7.19376 5.549 7.22712 5.40077 7.15844 5.28631L5.02548 1.73138C4.98995 1.67216 4.93966 1.64001 4.89377 1.62839Z" fill="url(#paint0_linear_41_22)"/>
<defs>
<linearGradient id="paint0_linear_41_22" x1="-3" y1="6.91552" x2="16.9698" y2="22.93" gradientUnits="userSpaceOnUse">
<stop stop-color="#9914B3"/>
<stop offset="1" stop-color="#7023BC"/>
</linearGradient>
</defs>
</svg>
