<svg width="72" height="66" viewBox="0 0 72 66" fill="none" xmlns="http://www.w3.org/2000/svg">
<path d="M0 59.4378C0.501106 58.3985 1.20637 57.6561 2.56121 57.619C2.56121 57.2849 2.56121 56.988 2.56121 56.6725C2.56121 44.6645 2.56121 32.6379 2.56121 20.6299C2.56121 20.333 2.56121 20.036 2.57977 19.7205C2.67257 18.31 3.65622 17.3635 5.06674 17.3635C7.331 17.3449 9.59526 17.3635 11.8781 17.3635C12.1194 17.3635 12.3792 17.3635 12.7133 17.3635C12.7133 17.0294 12.7133 16.7696 12.7133 16.4912C12.7133 12.2039 12.7133 7.91667 12.7133 3.64799C12.7133 1.56932 13.5856 0.697028 15.6642 0.697028C19.042 0.697028 22.4199 0.697028 25.7977 0.697028C26.0019 0.697028 26.2246 0.678468 26.4287 0.715587C26.9855 0.826944 27.301 1.17957 27.301 1.73636C27.301 2.27459 26.9855 2.64577 26.4473 2.75713C26.2246 2.79425 25.9833 2.77569 25.7606 2.77569C22.3828 2.77569 19.0049 2.79425 15.6271 2.75713C14.959 2.75713 14.7919 2.97985 14.7919 3.59231C14.829 5.37402 14.8105 7.15573 14.8105 8.97456C28.6559 8.97456 42.4456 8.97456 56.291 8.97456C56.3095 8.75185 56.3281 8.52914 56.3281 8.32498C56.3281 6.76598 56.3281 5.22555 56.3281 3.66655C56.3281 2.77569 56.3095 2.77569 55.4372 2.77569C47.5123 2.77569 39.606 2.77569 31.6811 2.77569C31.4583 2.77569 31.2171 2.79425 30.9944 2.75713C30.419 2.64577 30.1035 2.29314 30.1221 1.68068C30.1406 1.10534 30.4933 0.808385 31.0315 0.697028C31.2356 0.659909 31.4398 0.678467 31.6625 0.678467C39.6245 0.678467 47.5865 0.678467 55.5486 0.678467C57.5159 0.678467 58.4253 1.58788 58.4253 3.57375C58.4253 7.86099 58.4253 12.1482 58.4253 16.4169C58.4253 16.6953 58.4253 16.9737 58.4253 17.3449C58.7222 17.3449 58.9635 17.3449 59.2048 17.3449C61.3391 17.3449 63.4735 17.3449 65.5893 17.3449C67.6679 17.3449 68.5588 18.2172 68.5588 20.2959C68.5588 32.3781 68.5588 44.4603 68.5588 56.5426C68.5588 56.8581 68.5588 57.1921 68.5588 57.5448C68.7258 57.5819 68.8929 57.619 69.0413 57.6376C70.3219 57.8788 71.1014 58.8254 71.1385 60.106C71.2128 63.3353 68.9485 65.6553 65.7192 65.6738C45.6192 65.6738 25.5193 65.6738 5.43793 65.6738C2.76537 65.6738 0.835178 64.1705 0.148477 61.5536C0.111358 61.4423 0.0742377 61.3495 0.0185592 61.2381C-2.83472e-07 60.6442 0 60.0503 0 59.4378ZM4.67699 57.6376C5.02962 57.6376 5.32658 57.6376 5.62353 57.6376C21.065 57.6376 36.5065 57.6376 51.948 57.6376C52.2079 57.6376 52.4677 57.619 52.709 57.6561C53.2472 57.7489 53.5813 58.083 53.5998 58.6398C53.6184 59.2337 53.2658 59.5863 52.6904 59.6977C52.4677 59.7348 52.2264 59.7162 52.0037 59.7162C41.8702 59.7162 31.7182 59.7162 21.5847 59.7162C15.3858 59.7162 9.16839 59.7162 2.96952 59.7162C2.07866 59.7162 2.02298 59.7905 2.07866 60.6628C2.19002 62.4259 3.58198 63.5952 5.54929 63.5952C25.5564 63.5952 45.5636 63.5952 65.5521 63.5952C65.7192 63.5952 65.8677 63.5952 66.0347 63.5952C67.7607 63.5024 69.0784 62.0547 69.0413 60.3101C69.0228 59.8647 68.8557 59.6791 68.4103 59.6977C67.9463 59.7162 67.4823 59.6977 67.0183 59.6977C63.9189 59.6977 60.8195 59.6977 57.72 59.6977C56.9405 59.6977 56.5137 59.4007 56.4023 58.8254C56.2724 58.1387 56.7921 57.619 57.6272 57.619C60.3184 57.619 62.9909 57.619 65.6821 57.619C65.9233 57.619 66.1646 57.6004 66.3873 57.5819C66.3873 46.2049 66.3873 34.9207 66.3873 23.618C63.7148 23.618 61.0793 23.618 58.3882 23.618C58.3882 23.9521 58.3882 24.249 58.3882 24.546C58.3882 33.9 58.3882 43.254 58.3882 52.6079C58.3882 54.6495 57.4973 55.5403 55.4743 55.5403C42.1857 55.5403 28.8971 55.5403 15.6085 55.5403C13.5856 55.5403 12.6761 54.6495 12.6761 52.6265C12.6761 46.7431 12.6761 40.8598 12.6761 34.9764C12.6761 33.8814 12.9731 33.4174 13.6969 33.3989C14.4393 33.3803 14.7734 33.8629 14.7734 34.995C14.7734 40.8227 14.7734 46.6689 14.7734 52.4966C14.7734 53.4431 14.7734 53.4431 15.7385 53.4431C28.9343 53.4431 42.1301 53.4431 55.3259 53.4431C56.291 53.4431 56.3095 53.4431 56.3095 52.4966C56.3095 38.9482 56.3095 25.3997 56.3095 11.8698C56.3095 11.6286 56.291 11.3873 56.2724 11.1275C42.427 11.1275 28.6373 11.1275 14.7734 11.1275C14.7734 11.4615 14.7734 11.7585 14.7734 12.0554C14.7734 17.6604 14.7734 23.2654 14.7734 28.8703C14.7734 29.1487 14.7734 29.4271 14.7362 29.7055C14.662 30.2623 14.3279 30.5778 13.7526 30.5964C13.1587 30.6149 12.7689 30.2994 12.7133 29.7055C12.6576 29.1302 12.6761 28.5548 12.6761 27.9795C12.6761 26.5504 12.6761 25.1213 12.6761 23.6737C9.94789 23.6737 7.31244 23.6737 4.63987 23.6737C4.67699 34.9764 4.67699 46.2606 4.67699 57.6376ZM4.69555 21.4651C7.38668 21.4651 10.0221 21.4651 12.6576 21.4651C12.6576 20.7784 12.6576 20.1288 12.6576 19.4421C10.5604 19.4421 8.50025 19.4421 6.45871 19.4421C4.4914 19.4421 4.4914 19.4421 4.69555 21.4651ZM66.4801 21.4837C66.4801 21.0197 66.4616 20.6114 66.4801 20.1845C66.5172 19.6277 66.3131 19.405 65.7192 19.4236C63.4735 19.4607 61.2278 19.4421 59.0006 19.4421C58.815 19.4421 58.648 19.4607 58.4624 19.4792C58.4624 20.1659 58.4624 20.797 58.4624 21.4837C61.1164 21.4837 63.7333 21.4837 66.4801 21.4837Z" fill="url(#paint0_linear_32_974)"/>
<path d="M49.0155 6.93316C47.7164 6.93316 46.4172 6.93316 45.1366 6.93316C44.32 6.93316 43.856 6.56197 43.8374 5.91238C43.8189 5.2628 44.3014 4.85449 45.0995 4.85449C47.7349 4.85449 50.3704 4.85449 53.0058 4.85449C53.7668 4.85449 54.2307 5.24424 54.2307 5.87526C54.2493 6.52485 53.7853 6.93316 52.9687 6.93316C51.651 6.93316 50.3333 6.93316 49.0155 6.93316Z" fill="url(#paint1_linear_32_974)"/>
<path d="M18.9865 5.85683C19.0051 6.43218 18.5225 6.93329 17.9472 6.93329C17.3904 6.93329 16.9449 6.48786 16.9264 5.93107C16.9078 5.35573 17.3161 4.89174 17.8729 4.85462C18.4483 4.8175 18.9679 5.28149 18.9865 5.85683Z" fill="url(#paint2_linear_32_974)"/>
<path d="M22.1415 4.85456C22.6797 4.87312 23.1437 5.33711 23.1622 5.87534C23.1622 6.45068 22.6611 6.93323 22.1043 6.91467C21.529 6.89611 21.0836 6.41356 21.1021 5.81966C21.1207 5.28143 21.5847 4.836 22.1415 4.85456Z" fill="url(#paint3_linear_32_974)"/>
<path d="M27.3195 5.85683C27.3381 6.43218 26.8555 6.93329 26.2802 6.93329C25.7234 6.93329 25.278 6.48786 25.2594 5.93107C25.2408 5.35573 25.6491 4.89174 26.2059 4.85462C26.7813 4.8175 27.3009 5.28149 27.3195 5.85683Z" fill="url(#paint4_linear_32_974)"/>
<path d="M19.0235 40.9529C30.0664 40.9529 41.0536 40.9529 52.1337 40.9529C52.1522 40.6931 52.1708 40.4518 52.1708 40.2105C52.1708 38.7814 52.1708 37.3338 52.1708 35.9047C52.1708 35.1252 52.5605 34.6798 53.173 34.6612C53.8226 34.6427 54.2309 35.1066 54.2494 35.9233C54.268 37.8906 54.268 39.8579 54.2494 41.8252C54.2494 42.716 53.8597 43.0687 52.9503 43.0687C41.3506 43.0687 29.7509 43.0687 18.1512 43.0687C17.2604 43.0687 16.8706 42.6975 16.8706 41.8066C16.8706 34.0673 16.8706 26.3466 16.8706 18.6073C16.8706 17.7164 17.2604 17.3638 18.1698 17.3638C29.7695 17.3638 41.3691 17.3638 52.9688 17.3638C53.8597 17.3638 54.2309 17.735 54.2309 18.6258C54.2494 22.6161 54.2309 26.5878 54.2309 30.5781C54.2309 31.4133 53.8411 31.8587 53.1915 31.8402C52.542 31.8402 52.1708 31.3947 52.1522 30.5596C52.1522 27.1632 52.1522 23.7482 52.1522 20.3518C52.1522 20.0735 52.1522 19.7951 52.1522 19.4796C41.0908 19.4796 30.085 19.4796 19.0049 19.4796C19.0235 26.625 19.0235 33.7518 19.0235 40.9529Z" fill="url(#paint5_linear_32_974)"/>
<path d="M35.5601 47.2259C29.8438 47.2259 24.1274 47.2259 18.4111 47.2259C18.1884 47.2259 17.9471 47.2444 17.7244 47.1888C17.1862 47.0589 16.8892 46.7062 16.9078 46.1309C16.9264 45.5927 17.2233 45.2771 17.743 45.1472C17.9657 45.0915 18.207 45.1101 18.4297 45.1101C29.8623 45.1101 41.295 45.1101 52.7276 45.1101C52.9318 45.1101 53.1545 45.0915 53.3587 45.1287C53.8969 45.2215 54.2309 45.5555 54.2495 46.1123C54.2681 46.7062 53.934 47.0589 53.3587 47.1702C53.1359 47.2073 52.8947 47.1888 52.6719 47.1888C46.9556 47.2259 41.2579 47.2259 35.5601 47.2259Z" fill="url(#paint6_linear_32_974)"/>
<path d="M35.5601 51.3828C29.8438 51.3828 24.1274 51.3828 18.4111 51.3828C18.1884 51.3828 17.9471 51.4013 17.7244 51.3457C17.1862 51.2157 16.8892 50.8631 16.9078 50.2878C16.9264 49.7495 17.2419 49.434 17.743 49.3227C17.9657 49.267 18.207 49.3041 18.4297 49.3041C29.8623 49.3041 41.295 49.3041 52.7276 49.3041C52.9318 49.3041 53.1545 49.2856 53.3587 49.3227C53.8969 49.4155 54.2309 49.7495 54.2495 50.3249C54.2681 50.9188 53.934 51.2714 53.3587 51.3828C53.1359 51.4199 52.8947 51.4013 52.6719 51.4013C46.9371 51.3828 41.2579 51.3828 35.5601 51.3828Z" fill="url(#paint7_linear_32_974)"/>
<path d="M32.6648 30.1879C32.6648 28.8887 32.6648 27.5895 32.6648 26.3089C32.6648 25.3624 33.036 25.0098 33.964 24.9912C34.6135 24.9912 35.2631 24.9912 35.9127 24.9912C38.0656 25.0098 39.5689 26.1048 40.1814 28.1649C40.6639 29.7981 40.6268 31.4128 39.8473 32.9532C39.0493 34.5308 37.7687 35.3845 35.9684 35.3845C35.3188 35.3845 34.6692 35.3845 34.0196 35.3845C33.036 35.3845 32.6648 35.0319 32.6648 34.0482C32.6648 32.7862 32.6648 31.487 32.6648 30.1879ZM34.7991 27.1256C34.7991 29.2042 34.7991 31.2643 34.7991 33.2873C37.3047 33.4915 38.4182 32.5264 38.3811 30.1508C38.3254 28.0535 37.5645 26.7544 34.7991 27.1256Z" fill="url(#paint8_linear_32_974)"/>
<path d="M30.8088 34.4569C30.5304 34.7539 30.2891 35.1993 29.9551 35.2921C29.6396 35.3849 29.1941 35.1622 28.8415 34.9952C28.7116 34.9395 28.6559 34.6982 28.5817 34.5126C28.0806 33.3062 28.0806 33.3062 26.7999 33.3062C26.6144 33.3062 26.4288 33.3248 26.2432 33.3062C25.0739 33.1392 24.1459 33.2877 23.8861 34.7168C23.7748 35.3292 23.0695 35.5334 22.5498 35.2921C21.993 35.0323 21.7889 34.5312 22.0487 33.8259C22.8097 31.7658 23.6077 29.7243 24.3872 27.6827C24.6285 27.0517 24.8698 26.4392 25.111 25.8082C25.3152 25.2885 25.7235 24.9916 26.2803 24.9916C26.8371 24.973 27.2825 25.2514 27.4867 25.7711C28.5445 28.5365 29.5839 31.3018 30.6232 34.0672C30.6603 34.16 30.6789 34.2528 30.6974 34.327C30.7346 34.3827 30.7717 34.4198 30.8088 34.4569ZM26.2988 28.5179C25.9277 29.5016 25.6121 30.3367 25.2781 31.209C25.9833 31.209 26.6144 31.209 27.3196 31.209C26.9855 30.3182 26.67 29.483 26.2988 28.5179Z" fill="url(#paint9_linear_32_974)"/>
<path d="M45.3781 35.403C44.3016 35.3473 43.1509 34.939 42.2044 34.0296C41.6476 33.4914 41.5734 32.916 42.0002 32.4335C42.4271 31.9509 43.0025 31.9509 43.5778 32.4706C44.2459 33.0831 45.0254 33.3986 45.9163 33.2872C46.4731 33.213 46.9742 32.9717 47.0856 32.3592C47.1784 31.7653 46.6772 31.5241 46.2318 31.3385C45.5637 31.0601 44.877 30.8559 44.2274 30.5775C42.7241 29.9465 42.0002 28.7958 42.2415 27.3853C42.4642 26.0861 43.652 25.1025 45.1925 24.9911C46.3803 24.8983 47.4382 25.2881 48.3847 25.9562C48.9601 26.3645 49.09 26.9584 48.7559 27.4595C48.4033 27.9606 47.865 27.9792 47.2155 27.7008C46.603 27.4224 45.9349 27.1997 45.2667 27.1255C44.9698 27.1069 44.4872 27.4595 44.3573 27.775C44.1532 28.2576 44.6171 28.4989 45.0254 28.6659C45.6936 28.9257 46.3803 29.1299 47.0299 29.4268C48.2734 29.9651 49.1828 30.8002 49.2013 32.2664C49.2013 34.0481 47.6052 35.4401 45.3781 35.403Z" fill="url(#paint10_linear_32_974)"/>
<path d="M35.5601 13.1875C38.0285 13.1875 40.5154 13.1875 42.9839 13.1875C43.7634 13.1875 44.2088 13.5587 44.2273 14.1897C44.2459 14.8207 43.8005 15.2476 43.0581 15.2661C41.3692 15.2847 39.6803 15.2661 37.9913 15.2661C34.762 15.2661 31.5141 15.2661 28.2847 15.2476C27.9507 15.2476 27.5052 15.2104 27.3196 15.0063C27.0784 14.7465 26.8742 14.2082 26.9856 13.9298C27.1155 13.6143 27.5795 13.2617 27.9321 13.2246C28.8415 13.1318 29.7695 13.1875 30.6975 13.1875C32.3307 13.1875 33.9454 13.1875 35.5601 13.1875Z" fill="url(#paint11_linear_32_974)"/>
<defs>
<linearGradient id="paint0_linear_32_974" x1="-5.30037e-07" y1="65.6738" x2="74.3841" y2="61.7214" gradientUnits="userSpaceOnUse">
<stop stop-color="#9914B3"/>
<stop offset="1" stop-color="#7023BC"/>
</linearGradient>
<linearGradient id="paint1_linear_32_974" x1="43.8369" y1="6.93316" x2="54.1293" y2="4.43446" gradientUnits="userSpaceOnUse">
<stop stop-color="#9914B3"/>
<stop offset="1" stop-color="#7023BC"/>
</linearGradient>
<linearGradient id="paint2_linear_32_974" x1="16.9258" y1="6.93329" x2="19.0821" y2="6.82958" gradientUnits="userSpaceOnUse">
<stop stop-color="#9914B3"/>
<stop offset="1" stop-color="#7023BC"/>
</linearGradient>
<linearGradient id="paint3_linear_32_974" x1="21.1016" y1="6.91519" x2="23.2572" y2="6.81056" gradientUnits="userSpaceOnUse">
<stop stop-color="#9914B3"/>
<stop offset="1" stop-color="#7023BC"/>
</linearGradient>
<linearGradient id="paint4_linear_32_974" x1="25.2588" y1="6.93329" x2="27.4151" y2="6.82958" gradientUnits="userSpaceOnUse">
<stop stop-color="#9914B3"/>
<stop offset="1" stop-color="#7023BC"/>
</linearGradient>
<linearGradient id="paint5_linear_32_974" x1="16.8706" y1="43.0687" x2="55.8841" y2="40.3134" gradientUnits="userSpaceOnUse">
<stop stop-color="#9914B3"/>
<stop offset="1" stop-color="#7023BC"/>
</linearGradient>
<linearGradient id="paint6_linear_32_974" x1="16.907" y1="47.2289" x2="39.5537" y2="27.8927" gradientUnits="userSpaceOnUse">
<stop stop-color="#9914B3"/>
<stop offset="1" stop-color="#7023BC"/>
</linearGradient>
<linearGradient id="paint7_linear_32_974" x1="16.907" y1="51.406" x2="39.4688" y2="32.0565" gradientUnits="userSpaceOnUse">
<stop stop-color="#9914B3"/>
<stop offset="1" stop-color="#7023BC"/>
</linearGradient>
<linearGradient id="paint8_linear_32_974" x1="32.6648" y1="35.3845" x2="40.8673" y2="35.0844" gradientUnits="userSpaceOnUse">
<stop stop-color="#9914B3"/>
<stop offset="1" stop-color="#7023BC"/>
</linearGradient>
<linearGradient id="paint9_linear_32_974" x1="21.937" y1="35.3909" x2="31.2236" y2="35.0063" gradientUnits="userSpaceOnUse">
<stop stop-color="#9914B3"/>
<stop offset="1" stop-color="#7023BC"/>
</linearGradient>
<linearGradient id="paint10_linear_32_974" x1="41.7261" y1="35.4037" x2="49.5548" y2="35.1312" gradientUnits="userSpaceOnUse">
<stop stop-color="#9914B3"/>
<stop offset="1" stop-color="#7023BC"/>
</linearGradient>
<linearGradient id="paint11_linear_32_974" x1="26.9543" y1="15.2744" x2="42.5825" y2="9.04373" gradientUnits="userSpaceOnUse">
<stop stop-color="#9914B3"/>
<stop offset="1" stop-color="#7023BC"/>
</linearGradient>
</defs>
</svg>
