<svg width="65" height="64" viewBox="0 0 65 64" fill="none" xmlns="http://www.w3.org/2000/svg">
<path d="M65 50.6612C64.7949 51.1207 64.6502 51.6216 64.372 52.0318C62.836 54.2975 59.6862 54.2133 58.2505 51.8553C57.2074 50.1413 56.2328 48.3859 55.2295 46.648C54.4901 45.3681 53.7428 44.0913 53.0194 42.8002C52.8476 42.4934 52.6807 42.4218 52.3198 42.4838C46.106 43.5507 40.5617 40.4089 38.2832 34.5481C35.938 28.5189 39.1291 21.2112 45.1552 18.8119C51.8571 16.1423 59.0948 19.2444 61.6133 26.0083C63.216 30.314 62.4512 34.3621 59.6815 38.0255C59.4907 38.2767 59.284 38.5168 59.0645 38.7839C59.2331 39.0876 59.3905 39.3817 59.5574 39.6711C60.9614 42.1054 62.3829 44.5302 63.7646 46.9756C64.2273 47.7944 64.5898 48.6689 64.9984 49.518C65 49.8996 65 50.2796 65 50.6612ZM49.9459 19.7516C44.0804 19.7532 39.428 24.4803 39.4392 30.4285C39.4487 36.1922 44.198 40.8175 50.1033 40.8159C55.848 40.8143 60.4781 36.0618 60.5003 30.1454C60.521 24.5105 55.6858 19.7484 49.9459 19.7516ZM54.6761 41.8669C55.1039 42.6094 55.5236 43.3393 55.945 44.0691C57.2217 46.2823 58.4953 48.4972 59.7769 50.7073C60.2618 51.5437 60.9376 51.8998 61.6912 51.7392C62.9441 51.4737 63.4418 50.224 62.747 49.0092C61.1745 46.2601 59.5845 43.5205 58.0008 40.7778C57.8752 40.5615 57.7433 40.3485 57.6288 40.1577C56.6446 40.7285 55.6985 41.2754 54.6761 41.8669Z" fill="url(#paint0_linear_32_948)"/>
<path d="M35.779 53.5265C35.9253 53.8254 36.0222 54.0289 36.1256 54.2293C37.4246 56.7685 38.7253 59.3077 40.0227 61.847C40.1276 62.0537 40.3153 62.289 40.2819 62.4782C40.2167 62.836 40.107 63.27 39.8557 63.491C39.5187 63.7868 39.0464 63.712 38.7205 63.3463C38.5551 63.1603 38.4438 62.9234 38.3293 62.6992C36.8618 59.8436 35.3862 56.9895 33.9425 54.1212C33.7231 53.6855 33.491 53.5074 32.9853 53.5122C29.896 53.5376 26.8066 53.5345 23.7188 53.5154C23.2545 53.5122 23.0129 53.6553 22.7998 54.0782C21.3481 56.9657 19.8631 59.8388 18.3876 62.7135C18.281 62.9202 18.1777 63.1333 18.033 63.3114C17.7213 63.6946 17.3016 63.7407 16.8882 63.5324C16.4668 63.3193 16.2903 62.9361 16.4191 62.4671C16.4796 62.2461 16.5972 62.0394 16.7037 61.8327C18.0012 59.2918 19.3018 56.7542 20.5992 54.215C20.6931 54.0305 20.7789 53.8413 20.9284 53.5281C20.6199 53.5281 20.4021 53.5281 20.1858 53.5281C17.4351 53.5281 14.6844 53.5297 11.9337 53.5281C10.0512 53.5265 9.26573 52.7426 9.26413 50.876C9.26413 50.3704 9.26413 49.8647 9.26413 49.2653C9.00814 49.2653 8.78555 49.2653 8.56295 49.2653C6.70106 49.2653 4.83916 49.2701 2.97727 49.2637C1.11538 49.2574 0.003975 48.1603 0.002385 46.3111C-0.000795 33.3828 -0.000795 20.4561 0.002385 7.52781C0.002385 5.71202 1.1138 4.60379 2.93117 4.59107C4.28585 4.57994 5.63893 4.57835 6.99361 4.59425C7.75999 4.60379 8.24654 5.10941 8.09867 5.72633C7.96511 6.28442 7.56602 6.49749 7.01111 6.49431C5.69936 6.48795 4.3876 6.48954 3.07585 6.49431C2.15524 6.49749 1.90561 6.74393 1.90561 7.65659C1.90402 20.499 1.90402 33.343 1.90561 46.1855C1.90561 47.1458 2.14252 47.3605 3.18874 47.3605C19.6293 47.3605 36.0684 47.3605 52.509 47.3605C52.7411 47.3605 52.9764 47.343 53.207 47.3732C53.7301 47.44 54.064 47.7198 54.0926 48.2747C54.1196 48.7947 53.7714 49.1938 53.2133 49.2462C52.8142 49.2844 52.4104 49.2621 52.0081 49.2637C50.5294 49.2653 49.0491 49.2637 47.4671 49.2637C47.4671 49.8711 47.4702 50.453 47.4671 51.035C47.4575 52.6488 46.6196 53.5138 45.0057 53.5217C42.1914 53.536 39.3771 53.5265 36.5644 53.5265C36.3355 53.5265 36.1081 53.5265 35.779 53.5265ZM45.5607 49.3051C34.0411 49.3051 22.6265 49.3051 11.223 49.3051C11.1992 49.3846 11.1785 49.4243 11.1785 49.4625C11.1737 49.8854 11.1705 50.3083 11.1705 50.7313C11.1705 51.6185 11.1705 51.6201 12.0896 51.6201C22.9429 51.6201 33.7962 51.6201 44.648 51.6201C44.7959 51.6201 44.9755 51.671 45.0852 51.6042C45.2681 51.4945 45.5241 51.3212 45.54 51.1558C45.5925 50.5532 45.5607 49.9426 45.5607 49.3051Z" fill="url(#paint1_linear_32_948)"/>
<path d="M29.57 25.3264C29.7338 24.8717 29.4508 24.6316 29.0294 24.409C28.1883 23.967 27.3822 23.4582 26.5363 23.0241C26.3487 22.9287 26.0053 22.9446 25.824 23.0559C24.5774 23.8286 23.3659 23.8255 22.1288 23.0384C21.9635 22.9335 21.6423 22.916 21.4706 23.0066C20.5722 23.4772 19.7104 24.0147 18.8121 24.4853C18.448 24.6761 18.3828 24.9098 18.3971 25.2898C18.4591 26.988 17.211 28.4285 15.5971 28.5668C13.8386 28.7179 12.3678 27.5922 12.123 25.8559C11.9401 24.5632 12.4346 23.509 13.5079 22.7967C14.632 22.0494 15.8356 22.0526 16.9661 22.7888C17.3286 23.0241 17.5576 23.0464 17.9106 22.8317C18.7405 22.3277 19.5896 21.8507 20.4434 21.388C20.736 21.229 20.8568 21.062 20.8425 20.7027C20.7662 18.7867 22.1543 17.2969 23.9812 17.2921C25.8272 17.2858 27.1834 18.7804 27.1564 20.7536C27.1532 20.9491 27.3091 21.2306 27.476 21.3323C28.3775 21.8825 29.2981 22.404 30.2331 22.8937C30.3984 22.9812 30.7117 22.9494 30.8786 22.846C31.6275 22.3786 32.4066 22.1687 33.2938 22.3022C33.5037 22.334 33.8392 22.2084 33.9616 22.0399C35.5453 19.8711 37.1082 17.6881 38.6505 15.4891C38.7698 15.319 38.7873 14.9692 38.695 14.7784C37.9954 13.3426 38.2673 11.7892 39.4312 10.8034C40.5394 9.86366 42.1501 9.80006 43.3108 10.6475C44.5033 11.5189 44.9533 13.0961 44.392 14.4365C43.8101 15.8278 42.4109 16.5528 40.8145 16.327C40.6412 16.3032 40.3645 16.4176 40.2612 16.5607C38.6585 18.7677 37.0844 20.9953 35.4769 23.199C35.232 23.5345 35.4133 23.7253 35.5437 23.9813C36.1495 25.169 35.9507 26.5825 35.0476 27.5794C34.1938 28.5207 32.7564 28.8435 31.5544 28.3649C30.3444 27.8847 29.5589 26.7049 29.57 25.3264ZM24.0003 19.2049C23.3372 19.197 22.7394 19.7853 22.7314 20.4531C22.7235 21.1256 23.3007 21.7108 23.9764 21.7171C24.6522 21.7235 25.2421 21.1495 25.2484 20.4769C25.2564 19.8107 24.6697 19.2129 24.0003 19.2049ZM41.4505 11.9545C40.7764 11.9641 40.2167 12.5476 40.2246 13.2329C40.231 13.9198 40.8034 14.4858 41.4823 14.4747C42.1597 14.4651 42.7273 13.88 42.7177 13.2027C42.7066 12.5269 42.1167 11.945 41.4505 11.9545ZM33.9902 25.4457C34.003 24.789 33.4115 24.18 32.7469 24.1657C32.0806 24.1514 31.4892 24.7318 31.4796 25.4075C31.4701 26.1007 32.0155 26.6652 32.7087 26.6747C33.3876 26.6843 33.9775 26.1182 33.9902 25.4457ZM16.5034 25.4377C16.5098 24.7699 15.9247 24.1721 15.26 24.1641C14.6018 24.1578 13.996 24.7524 13.988 25.4155C13.9801 26.0864 14.5573 26.6668 15.2378 26.6731C15.9278 26.6795 16.4986 26.1214 16.5034 25.4377Z" fill="url(#paint2_linear_32_948)"/>
<path d="M23.086 4.58638C23.086 3.92971 23.0733 3.343 23.0892 2.75629C23.1257 1.35709 24.0289 0.390371 25.4328 0.358571C27.379 0.315641 29.3267 0.315641 31.2713 0.356981C32.688 0.387191 33.6118 1.38571 33.6404 2.80717C33.6515 3.3748 33.642 3.94243 33.642 4.58638C33.9362 4.58638 34.1826 4.58638 34.4275 4.58638C40.7954 4.58638 47.165 4.58638 53.5329 4.58638C55.6731 4.58638 56.724 5.64055 56.7256 7.78387C56.7272 10.471 56.7288 13.1581 56.7225 15.8452C56.7225 16.1171 56.7606 16.4685 56.6143 16.6418C56.3822 16.9152 56.0276 17.1983 55.6921 17.2412C55.2358 17.3016 54.921 16.9518 54.8447 16.4732C54.8129 16.2665 54.8224 16.0519 54.8224 15.8404C54.8208 13.1533 54.8224 10.4662 54.8208 7.7791C54.8208 6.70903 54.5966 6.4912 53.5091 6.4912C39.5441 6.4912 25.5807 6.4912 11.6157 6.48961C11.3613 6.48961 11.1038 6.50551 10.8557 6.46576C10.3787 6.38944 10.0925 6.0778 10.0575 5.60875C10.021 5.13652 10.2658 4.78831 10.7317 4.65952C10.9718 4.59274 11.2325 4.58797 11.4838 4.58797C15.101 4.5832 18.7199 4.58479 22.3371 4.58479C22.5645 4.58638 22.7903 4.58638 23.086 4.58638ZM31.7372 4.5514C31.7372 3.93766 31.7372 3.38911 31.7372 2.84056C31.7372 2.4526 31.54 2.24908 31.1553 2.24908C29.2965 2.2459 27.4378 2.23159 25.5807 2.26975C25.382 2.27452 25.0465 2.57026 25.021 2.76424C24.9463 3.33982 24.994 3.93289 24.994 4.5514C27.2582 4.5514 29.4635 4.5514 31.7372 4.5514Z" fill="url(#paint3_linear_32_948)"/>
<path d="M21.0954 36.1895C21.0954 34.1162 21.0923 32.0428 21.097 29.971C21.0986 28.9185 21.415 28.5989 22.4549 28.5941C23.5122 28.5893 24.5696 28.5846 25.6285 28.5957C26.5157 28.6052 26.8767 28.9455 26.8783 29.8232C26.8878 34.0748 26.8878 38.3265 26.8783 42.5781C26.8767 43.432 26.5189 43.7818 25.681 43.7913C24.56 43.804 23.4391 43.804 22.3181 43.7913C21.4468 43.7818 21.1034 43.4304 21.1002 42.5352C21.0907 40.4205 21.0954 38.3058 21.0954 36.1895ZM24.9369 41.8674C24.9369 38.0657 24.9369 34.3165 24.9369 30.5482C24.2786 30.5482 23.6617 30.5482 23.0495 30.5482C23.0495 34.3483 23.0495 38.0975 23.0495 41.8674C23.6855 41.8674 24.2738 41.8674 24.9369 41.8674Z" fill="url(#paint4_linear_32_948)"/>
<path d="M29.8387 38.6172C29.8387 37.3277 29.834 36.0382 29.8403 34.7487C29.8451 33.8106 30.1599 33.4847 31.0885 33.4751C32.1872 33.464 33.2875 33.464 34.3861 33.4751C35.2909 33.4847 35.6041 33.7931 35.6073 34.7058C35.6168 37.3261 35.6184 39.948 35.6073 42.5684C35.6041 43.4556 35.2575 43.7831 34.3655 43.7895C33.2668 43.799 32.1681 43.799 31.0678 43.7895C30.1885 43.7815 29.8467 43.4333 29.8419 42.5461C29.8324 41.2391 29.8387 39.929 29.8387 38.6172ZM33.6643 41.8672C33.6643 39.692 33.6643 37.5726 33.6643 35.434C33.0092 35.434 32.3955 35.434 31.7881 35.434C31.7881 37.6076 31.7881 39.727 31.7881 41.8672C32.4161 41.8672 33.0013 41.8672 33.6643 41.8672Z" fill="url(#paint5_linear_32_948)"/>
<path d="M18.1426 38.6014C18.1426 39.9115 18.1489 41.2217 18.141 42.5335C18.1346 43.4255 17.7928 43.7832 16.9262 43.7927C15.8053 43.8055 14.6859 43.8055 13.565 43.7927C12.7207 43.7832 12.3661 43.4445 12.3629 42.5891C12.3502 39.9465 12.3486 37.3039 12.3629 34.663C12.3677 33.8059 12.7064 33.4879 13.5729 33.4784C14.6923 33.4657 15.8132 33.4641 16.9342 33.4784C17.815 33.4895 18.1346 33.8282 18.141 34.7329C18.1489 36.0224 18.1426 37.3119 18.1426 38.6014ZM14.3075 35.4055C14.3075 37.5949 14.3075 39.716 14.3075 41.8354C14.9721 41.8354 15.5906 41.8354 16.1853 41.8354C16.1853 39.6619 16.1853 37.5424 16.1853 35.4055C15.5445 35.4055 14.9578 35.4055 14.3075 35.4055Z" fill="url(#paint6_linear_32_948)"/>
<path d="M40.4901 41.8897C41.4187 41.8897 42.2773 41.885 43.1374 41.8913C43.9038 41.8977 44.3125 42.2204 44.3236 42.8135C44.3363 43.4129 43.9229 43.7818 43.1788 43.7898C42.0403 43.8025 40.9003 43.8041 39.7603 43.7898C38.9462 43.7802 38.5996 43.432 38.59 42.6323C38.5789 41.8102 38.5773 40.9866 38.5916 40.1646C38.6044 39.5127 38.9685 39.1136 39.5202 39.1056C40.0719 39.0961 40.4583 39.4888 40.4853 40.1344C40.5092 40.6988 40.4901 41.2633 40.4901 41.8897Z" fill="url(#paint7_linear_32_948)"/>
<path d="M57.1024 30.0264C57.0197 29.6146 56.8687 28.8116 56.6922 28.0135C56.6333 27.7479 56.4998 27.4983 56.4219 27.236C56.247 26.6445 56.4489 26.1707 56.9434 25.9719C57.4283 25.7779 57.9196 25.9894 58.1804 26.5507C58.7957 27.8783 59.0978 29.2839 58.9818 30.7403C58.6304 35.1462 55.8304 38.288 51.5119 39.18C46.6275 40.1897 41.46 36.3594 40.9957 31.3859C40.5568 26.6858 43.1422 22.8332 47.6928 21.5644C50.4466 20.7965 53.0097 21.3816 55.3311 23.0256C55.8113 23.3659 55.9067 23.9288 55.611 24.3628C55.3136 24.8001 54.7873 24.9161 54.2674 24.5743C53.2101 23.8811 52.1018 23.3659 50.8267 23.2148C47.0488 22.7665 43.5429 25.3121 42.9434 29.0645C42.4887 31.9153 43.422 34.321 45.7657 36.0239C48.1237 37.7379 50.7169 37.9351 53.2991 36.5565C55.7032 35.2734 56.9338 33.1714 57.1024 30.0264Z" fill="url(#paint8_linear_32_948)"/>
<defs>
<linearGradient id="paint0_linear_32_948" x1="37.5103" y1="53.6788" x2="66.2947" y2="52.6064" gradientUnits="userSpaceOnUse">
<stop stop-color="#9914B3"/>
<stop offset="1" stop-color="#7023BC"/>
</linearGradient>
<linearGradient id="paint1_linear_32_948" x1="-4.03032e-07" y1="63.6735" x2="56.6085" y2="61.1576" gradientUnits="userSpaceOnUse">
<stop stop-color="#9914B3"/>
<stop offset="1" stop-color="#7023BC"/>
</linearGradient>
<linearGradient id="paint2_linear_32_948" x1="12.0857" y1="28.5844" x2="45.9655" y2="25.6957" gradientUnits="userSpaceOnUse">
<stop stop-color="#9914B3"/>
<stop offset="1" stop-color="#7023BC"/>
</linearGradient>
<linearGradient id="paint3_linear_32_948" x1="10.054" y1="17.248" x2="58.1309" y2="10.8101" gradientUnits="userSpaceOnUse">
<stop stop-color="#9914B3"/>
<stop offset="1" stop-color="#7023BC"/>
</linearGradient>
<linearGradient id="paint4_linear_32_948" x1="21.0942" y1="43.8009" x2="27.1645" y2="43.6887" gradientUnits="userSpaceOnUse">
<stop stop-color="#9914B3"/>
<stop offset="1" stop-color="#7023BC"/>
</linearGradient>
<linearGradient id="paint5_linear_32_948" x1="29.8367" y1="43.7966" x2="35.8911" y2="43.6322" gradientUnits="userSpaceOnUse">
<stop stop-color="#9914B3"/>
<stop offset="1" stop-color="#7023BC"/>
</linearGradient>
<linearGradient id="paint6_linear_32_948" x1="12.3528" y1="43.8023" x2="18.4217" y2="43.6371" gradientUnits="userSpaceOnUse">
<stop stop-color="#9914B3"/>
<stop offset="1" stop-color="#7023BC"/>
</linearGradient>
<linearGradient id="paint7_linear_32_948" x1="38.5813" y1="43.7999" x2="44.5815" y2="43.4436" gradientUnits="userSpaceOnUse">
<stop stop-color="#9914B3"/>
<stop offset="1" stop-color="#7023BC"/>
</linearGradient>
<linearGradient id="paint8_linear_32_948" x1="40.9475" y1="39.3425" x2="59.8387" y2="38.428" gradientUnits="userSpaceOnUse">
<stop stop-color="#9914B3"/>
<stop offset="1" stop-color="#7023BC"/>
</linearGradient>
</defs>
</svg>
