<svg width="65" height="59" viewBox="0 0 65 59" fill="none" xmlns="http://www.w3.org/2000/svg">
<path d="M0 3.65282C0.150919 3.28655 0.269619 2.90162 0.457844 2.55569C1.14292 1.29577 2.19935 0.571694 3.64072 0.44621C3.89338 0.424166 4.14774 0.424166 4.40209 0.424166C17.5406 0.42247 30.679 0.42247 43.8158 0.424166C44.0057 0.424166 44.1973 0.420775 44.3872 0.436036C44.9349 0.480125 45.2334 0.802312 45.291 1.32629C45.3453 1.81296 44.957 2.2335 44.4093 2.30303C44.138 2.33694 43.8599 2.32846 43.5851 2.32846C30.5739 2.33016 17.5626 2.34881 4.55132 2.30642C2.75216 2.30133 1.87208 3.25094 1.87886 5.00601C1.92464 16.5793 1.9026 28.1543 1.9026 39.7293C1.9026 39.9803 1.9026 40.2312 1.9026 40.5263C22.3072 40.5263 42.6661 40.5263 63.0927 40.5263C63.0927 40.2753 63.0927 40.0481 63.0927 39.8226C63.0927 28.1424 63.0927 16.4623 63.0927 4.78217C63.0927 3.09493 62.3381 2.33016 60.6645 2.33016C56.9407 2.32846 53.2169 2.33016 49.4947 2.32846C49.3048 2.32846 49.1132 2.33525 48.9233 2.32507C48.2179 2.28437 47.8329 1.92827 47.8499 1.33816C47.8668 0.771789 48.2382 0.430949 48.9233 0.429253C52.9845 0.42247 57.0475 0.393644 61.1087 0.439428C63.3556 0.464864 64.9919 2.1945 64.9936 4.45151C65.0021 17.4645 65.0021 30.4774 64.9936 43.4904C64.9919 45.8712 63.2555 47.5466 60.812 47.55C54.6548 47.5568 48.4994 47.5517 42.3422 47.5517C42.0929 47.5517 41.8436 47.5517 41.5316 47.5517C41.8335 49.3084 42.1133 50.9923 42.427 52.6677C42.4507 52.7915 42.7118 52.9441 42.8746 52.9576C43.4207 53.0051 43.9769 52.961 44.5212 53.017C45.9812 53.1662 47.0834 54.4177 47.0648 55.8624C47.0461 57.3207 45.9252 58.5315 44.4686 58.6654C44.3211 58.679 44.1736 58.6841 44.0243 58.6841C36.3444 58.6858 28.6645 58.6875 20.9846 58.6824C19.355 58.6807 18.2273 57.7548 17.9747 56.2558C17.7203 54.7449 18.8056 53.234 20.33 53.0373C20.9133 52.961 21.5136 53.0136 22.102 52.9559C22.275 52.939 22.5463 52.7626 22.5735 52.6219C22.8872 50.9635 23.1636 49.2983 23.4637 47.5517C22.6158 47.5517 21.8172 47.5517 21.0185 47.5517C19.9603 47.5517 18.9022 47.5534 17.8458 47.5517C16.9962 47.55 16.5333 47.2159 16.5231 46.6072C16.5129 46.0001 16.9759 45.6508 17.8203 45.6491C24.1878 45.6474 30.5569 45.6474 36.9244 45.6474C44.7315 45.6474 52.5369 45.6474 60.344 45.6474C62.5348 45.6474 63.2894 44.7843 63.0402 42.5171C42.6864 42.5171 22.3293 42.5171 1.78899 42.5171C1.92804 43.2496 1.94499 43.9839 2.21631 44.6079C2.55715 45.3913 3.32361 45.6508 4.16978 45.6491C6.96263 45.644 9.75549 45.6457 12.5483 45.6474C12.7807 45.6474 13.0164 45.6372 13.2453 45.6762C13.6963 45.7508 13.9575 46.0391 14.0016 46.4902C14.0474 46.9667 13.8439 47.3244 13.3792 47.4703C13.1435 47.5432 12.8807 47.5483 12.6297 47.5483C9.90132 47.5534 7.17121 47.5517 4.44279 47.5517C2.07726 47.5517 0.798685 46.619 0.0780031 44.3773C0.066133 44.34 0.0271316 44.3128 0 44.2806C0 30.7403 0 17.1966 0 3.65282ZM24.4676 52.9729C24.8067 52.9729 25.0356 52.9729 25.2646 52.9729C27.8455 52.9729 30.4263 52.9712 33.0089 52.9763C33.2616 52.9763 33.5227 52.9763 33.7635 53.0407C34.2349 53.1662 34.4537 53.5104 34.4266 53.992C34.4011 54.4465 34.1569 54.7483 33.7076 54.8348C33.4617 54.8823 33.2022 54.8755 32.9496 54.8755C29.0986 54.8772 25.2476 54.8772 21.3966 54.8789C21.1643 54.8789 20.9303 54.8772 20.6997 54.9077C20.1571 54.9789 19.8484 55.3198 19.8552 55.8472C19.862 56.3711 20.1723 56.7086 20.72 56.7679C20.8879 56.7866 21.0575 56.7832 21.227 56.7832C28.7374 56.7832 36.2495 56.7832 43.7598 56.7832C43.9701 56.7832 44.1854 56.7866 44.3923 56.7493C44.8773 56.6594 45.1316 56.3236 45.1435 55.859C45.1554 55.3927 44.9095 55.0451 44.4313 54.9382C44.1871 54.884 43.9277 54.8823 43.675 54.8823C41.8131 54.8772 39.9512 54.8857 38.0893 54.8755C37.4263 54.8721 37.021 54.5177 36.9956 53.9768C36.9684 53.4138 37.3873 53.0187 38.069 52.9814C38.3437 52.9661 38.6184 52.9763 38.8948 52.9763C39.4171 52.9763 39.9376 52.9763 40.5328 52.9763C40.2107 51.1195 39.9054 49.361 39.6002 47.5958C34.8352 47.5958 30.1262 47.5958 25.3985 47.5958C25.0899 49.3746 24.7864 51.1212 24.4676 52.9729Z" fill="url(#paint0_linear_32_1009)"/>
<path d="M46.173 33.8417C46.9768 32.2664 47.7263 30.803 48.4724 29.3362C49.1626 27.9813 49.8544 26.6281 50.5361 25.2681C50.748 24.8442 51.0465 24.4304 51.5281 24.5474C51.8791 24.6322 52.2742 24.951 52.4506 25.2749C53.2984 26.8316 54.0886 28.4222 54.8771 30.0111C55.0399 30.3383 55.2282 30.4706 55.6012 30.4587C56.4677 30.4299 57.3342 30.4435 58.2024 30.452C58.9028 30.4587 59.3165 30.8081 59.3301 31.3795C59.3437 31.9832 58.9265 32.3478 58.1889 32.3512C57.0477 32.3579 55.9047 32.3376 54.7635 32.3596C54.1802 32.3715 53.8173 32.1256 53.563 31.6135C52.9084 30.2943 52.2301 28.9852 51.5162 27.5862C51.2958 28.0016 51.1177 28.3255 50.9498 28.6545C49.6967 31.1201 48.4436 33.5873 47.1938 36.0546C46.9768 36.4819 46.7445 36.8923 46.1933 36.9059C45.6083 36.9211 45.3641 36.4989 45.1369 36.0478C44.0618 33.918 42.9766 31.7916 41.893 29.6651C41.7912 29.465 41.6776 29.2717 41.5131 28.9733C41.0604 29.8618 40.628 30.6504 40.2515 31.466C39.9599 32.1002 39.5359 32.3919 38.8186 32.363C37.7419 32.3189 36.6617 32.3546 35.5832 32.3495C34.8286 32.3461 34.4081 32.0103 34.3996 31.4168C34.3894 30.7962 34.8167 30.452 35.6137 30.4469C36.4379 30.4418 37.2637 30.4248 38.0878 30.4553C38.4778 30.4689 38.6932 30.3502 38.8661 29.989C39.3867 28.9038 39.9548 27.8422 40.4923 26.7655C40.7179 26.3127 40.9654 25.8854 41.5454 25.8972C42.0897 25.9091 42.3288 26.3127 42.5475 26.7451C43.6328 28.8936 44.7282 31.037 45.822 33.1821C45.9169 33.3703 46.0187 33.5534 46.173 33.8417Z" fill="url(#paint1_linear_32_1009)"/>
<path d="M59.3435 14.4984C59.3435 16.4637 59.3469 18.4291 59.3418 20.3944C59.3384 21.3915 59.0433 21.6849 58.0632 21.6866C56.6269 21.6899 55.1906 21.6899 53.7527 21.6866C52.8336 21.6849 52.5097 21.3847 52.508 20.4928C52.5012 16.4773 52.5012 12.4635 52.508 8.44805C52.5097 7.55101 52.8336 7.24578 53.751 7.24239C55.2093 7.23561 56.6659 7.23561 58.1242 7.24239C59.0196 7.24748 59.3367 7.56628 59.3401 8.47688C59.3486 10.4846 59.3435 12.4907 59.3435 14.4984ZM54.4411 19.7365C55.4264 19.7365 56.4048 19.7365 57.3934 19.7365C57.3934 16.2077 57.3934 12.7094 57.3934 9.19078C56.3878 9.19078 55.4297 9.19078 54.4411 9.19078C54.4411 12.723 54.4411 16.206 54.4411 19.7365Z" fill="url(#paint2_linear_32_1009)"/>
<path d="M34.3943 15.7313C34.3943 14.1255 34.3892 12.5196 34.396 10.9138C34.3993 10.0964 34.7334 9.76408 35.5524 9.75899C37.0515 9.75221 38.5522 9.75221 40.0512 9.75899C40.8923 9.76238 41.2348 10.1083 41.2365 10.9647C41.2433 14.134 41.2416 17.3033 41.2365 20.4726C41.2348 21.3594 40.8974 21.6833 40.0003 21.6867C38.542 21.6918 37.0854 21.6901 35.6271 21.6867C34.6927 21.685 34.3943 21.3764 34.3926 20.4217C34.3909 18.8582 34.3943 17.2948 34.3943 15.7313ZM39.283 19.7638C39.283 17.0286 39.283 14.3612 39.283 11.704C38.2673 11.704 37.3041 11.704 36.3477 11.704C36.3477 14.4171 36.3477 17.0845 36.3477 19.7638C37.3465 19.7638 38.2944 19.7638 39.283 19.7638Z" fill="url(#paint3_linear_32_1009)"/>
<path d="M50.3139 17.1184C50.3139 18.2189 50.319 19.3194 50.3123 20.4199C50.3072 21.3797 50.0087 21.6849 49.0744 21.6866C47.6144 21.69 46.1543 21.6917 44.6943 21.6866C43.8193 21.6832 43.4819 21.3746 43.4785 20.5183C43.4666 18.2324 43.4683 15.9466 43.4785 13.6625C43.4819 12.8163 43.7939 12.4992 44.6265 12.4907C46.1493 12.4755 47.6737 12.4755 49.1965 12.4924C49.9935 12.5009 50.3004 12.8248 50.3089 13.6269C50.3224 14.7901 50.3139 15.9534 50.3139 17.1184ZM48.3707 19.7603C48.3707 17.9544 48.3707 16.2111 48.3707 14.4289C47.3736 14.4289 46.4138 14.4289 45.4269 14.4289C45.4269 16.2247 45.4269 17.9849 45.4269 19.7603C46.4223 19.7603 47.3685 19.7603 48.3707 19.7603Z" fill="url(#paint4_linear_32_1009)"/>
<path d="M17.3948 19.915C13.9491 19.915 10.5017 19.915 7.05601 19.915C6.86609 19.915 6.67277 19.9285 6.48624 19.9031C5.97583 19.8353 5.68247 19.5216 5.65364 19.0196C5.62482 18.5448 5.8707 18.2006 6.33363 18.0734C6.57273 18.0073 6.83387 18.0124 7.08653 18.0124C13.9372 18.009 20.7863 18.0107 27.637 18.0107C28.6561 18.0107 29.1123 18.3142 29.1038 18.9857C29.0936 19.6403 28.6714 19.915 27.6726 19.915C24.2455 19.915 20.8202 19.915 17.3948 19.915Z" fill="url(#paint5_linear_32_1009)"/>
<path d="M17.3658 29.9669C13.9405 29.9669 10.5168 29.9669 7.09146 29.9669C6.8795 29.9669 6.66753 29.9754 6.45896 29.9483C5.97059 29.8872 5.69758 29.5803 5.65518 29.1089C5.61449 28.6375 5.83324 28.2797 6.30125 28.144C6.53866 28.0745 6.80149 28.066 7.05246 28.066C13.9439 28.0626 20.8353 28.0626 27.7267 28.066C27.9573 28.066 28.1964 28.0694 28.4169 28.1305C28.9137 28.2678 29.1443 28.6239 29.0918 29.1326C29.0426 29.6159 28.756 29.8957 28.2744 29.9517C28.0658 29.9754 27.8522 29.9669 27.6402 29.9669C24.2166 29.9669 20.7912 29.9669 17.3658 29.9669Z" fill="url(#paint6_linear_32_1009)"/>
<path d="M17.3286 9.1436C13.9253 9.1436 10.522 9.1436 7.11698 9.1419C6.88466 9.1419 6.64896 9.15208 6.42173 9.11477C5.93845 9.03507 5.60948 8.69762 5.67731 8.24656C5.72818 7.9125 6.02663 7.58014 6.29286 7.33087C6.42682 7.20539 6.73544 7.241 6.96436 7.241C13.8982 7.2376 20.832 7.2376 27.7658 7.241C28.0151 7.241 28.2796 7.25287 28.5119 7.33257C28.9426 7.48009 29.1308 7.82602 29.0952 8.27708C29.0596 8.73323 28.8036 9.02151 28.3593 9.10799C28.1338 9.15208 27.8964 9.1402 27.664 9.1402C24.22 9.14529 20.7743 9.1436 17.3286 9.1436Z" fill="url(#paint7_linear_32_1009)"/>
<path d="M13.2657 14.2002C11.1325 14.2002 8.99761 14.2019 6.86439 14.1985C6.0691 14.1968 5.6316 13.8492 5.64178 13.2404C5.65195 12.6452 6.10301 12.2959 6.89492 12.2959C11.141 12.2925 15.3888 12.2942 19.6349 12.2959C20.4624 12.2959 20.9355 12.6605 20.9236 13.2709C20.9135 13.8661 20.4675 14.1985 19.6654 14.1985C17.5339 14.2019 15.399 14.2002 13.2657 14.2002Z" fill="url(#paint8_linear_32_1009)"/>
<path d="M21.461 24.9833C19.3057 24.9833 17.1505 24.99 14.9935 24.9799C14.1185 24.9765 13.581 24.2829 13.9879 23.6369C14.1575 23.3672 14.5814 23.1044 14.8918 23.1027C19.2871 23.0688 23.6824 23.0756 28.0794 23.084C28.7187 23.0857 29.1121 23.4791 29.1053 24.0421C29.0985 24.6017 28.7051 24.9765 28.0556 24.9799C25.8563 24.99 23.6586 24.9833 21.461 24.9833Z" fill="url(#paint9_linear_32_1009)"/>
<path d="M11.6396 35.0155C10.0338 35.0155 8.42795 35.0189 6.8221 35.0138C6.08446 35.0104 5.64527 34.6509 5.64018 34.0676C5.63509 33.4809 6.07259 33.1129 6.80853 33.1129C10.0406 33.1095 13.2743 33.1095 16.5064 33.1129C17.261 33.1129 17.673 33.4537 17.6781 34.054C17.6815 34.6543 17.2644 35.0104 16.5216 35.0138C14.8937 35.0189 13.2675 35.0155 11.6396 35.0155Z" fill="url(#paint10_linear_32_1009)"/>
<path d="M8.52605 24.9831C7.91389 24.9831 7.30173 24.995 6.69127 24.9797C6.05707 24.9645 5.64501 24.5812 5.64162 24.0352C5.63823 23.4892 6.05199 23.0907 6.6811 23.0839C7.90372 23.0703 9.12803 23.0703 10.3506 23.0839C10.9798 23.0907 11.402 23.4858 11.4054 24.025C11.4088 24.566 10.9899 24.9628 10.3608 24.9797C9.74866 24.995 9.13651 24.9831 8.52605 24.9831Z" fill="url(#paint11_linear_32_1009)"/>
<path d="M26.2177 14.1998C25.6055 14.1998 24.9934 14.2134 24.3829 14.1965C23.7945 14.1812 23.3909 13.7946 23.3825 13.2723C23.374 12.7585 23.7725 12.321 24.3524 12.3091C25.6174 12.2837 26.8841 12.2837 28.1491 12.3091C28.7426 12.321 29.1106 12.7364 29.1021 13.274C29.0936 13.8183 28.7223 14.1812 28.1152 14.1965C27.4827 14.2117 26.8502 14.1998 26.2177 14.1998Z" fill="url(#paint12_linear_32_1009)"/>
<path d="M24.4679 52.9728C24.7884 51.1211 25.0903 49.3745 25.3989 47.5923C30.1266 47.5923 34.8356 47.5923 39.6006 47.5923C39.9058 49.3558 40.211 51.116 40.5332 52.9728C39.9397 52.9728 39.4174 52.9728 38.8951 52.9728C38.6204 52.9728 38.344 52.9626 38.0693 52.9779C37.3877 53.0152 36.9688 53.4086 36.9959 53.9733C37.0214 54.5142 37.4267 54.8686 38.0897 54.872C39.9516 54.8839 41.8135 54.8754 43.6754 54.8788C43.9281 54.8788 44.1875 54.8805 44.4317 54.9348C44.9099 55.0399 45.1558 55.3892 45.1439 55.8555C45.132 56.3202 44.876 56.6559 44.3927 56.7458C44.1875 56.7831 43.9721 56.7797 43.7602 56.7797C36.2498 56.7814 28.7378 56.7814 21.2274 56.7797C21.0578 56.7797 20.8883 56.7831 20.7204 56.7645C20.1727 56.7051 19.8624 56.3693 19.8556 55.8437C19.8488 55.3163 20.1557 54.9755 20.7001 54.9042C20.929 54.8737 21.1647 54.8771 21.397 54.8754C25.248 54.8737 29.099 54.8754 32.9499 54.872C33.2026 54.872 33.4621 54.8788 33.7079 54.8313C34.1573 54.7431 34.4032 54.443 34.4269 53.9885C34.4524 53.507 34.2336 53.1627 33.7639 53.0373C33.5231 52.9728 33.262 52.9728 33.0093 52.9728C30.4284 52.9677 27.8475 52.9694 25.2649 52.9694C25.0343 52.9728 24.8071 52.9728 24.4679 52.9728Z" fill="white"/>
<defs>
<linearGradient id="paint0_linear_32_1009" x1="-4.84288e-07" y1="58.6858" x2="67.9564" y2="55.0056" gradientUnits="userSpaceOnUse">
<stop stop-color="#9914B3"/>
<stop offset="1" stop-color="#7023BC"/>
</linearGradient>
<linearGradient id="paint1_linear_32_1009" x1="34.3994" y1="36.9063" x2="60.2932" y2="34.3744" gradientUnits="userSpaceOnUse">
<stop stop-color="#9914B3"/>
<stop offset="1" stop-color="#7023BC"/>
</linearGradient>
<linearGradient id="paint2_linear_32_1009" x1="52.5029" y1="21.6891" x2="59.6734" y2="21.5243" gradientUnits="userSpaceOnUse">
<stop stop-color="#9914B3"/>
<stop offset="1" stop-color="#7023BC"/>
</linearGradient>
<linearGradient id="paint3_linear_32_1009" x1="34.3921" y1="21.6899" x2="41.5679" y2="21.49" gradientUnits="userSpaceOnUse">
<stop stop-color="#9914B3"/>
<stop offset="1" stop-color="#7023BC"/>
</linearGradient>
<linearGradient id="paint4_linear_32_1009" x1="43.4702" y1="21.6898" x2="50.6396" y2="21.4311" gradientUnits="userSpaceOnUse">
<stop stop-color="#9914B3"/>
<stop offset="1" stop-color="#7023BC"/>
</linearGradient>
<linearGradient id="paint5_linear_32_1009" x1="5.65137" y1="19.9186" x2="23.7866" y2="9.09825" gradientUnits="userSpaceOnUse">
<stop stop-color="#9914B3"/>
<stop offset="1" stop-color="#7023BC"/>
</linearGradient>
<linearGradient id="paint6_linear_32_1009" x1="5.65039" y1="29.9684" x2="23.7671" y2="19.1415" gradientUnits="userSpaceOnUse">
<stop stop-color="#9914B3"/>
<stop offset="1" stop-color="#7023BC"/>
</linearGradient>
<linearGradient id="paint7_linear_32_1009" x1="5.66846" y1="9.14387" x2="23.7918" y2="-1.66396" gradientUnits="userSpaceOnUse">
<stop stop-color="#9914B3"/>
<stop offset="1" stop-color="#7023BC"/>
</linearGradient>
<linearGradient id="paint8_linear_32_1009" x1="5.6416" y1="14.2006" x2="19.5585" y2="8.78518" gradientUnits="userSpaceOnUse">
<stop stop-color="#9914B3"/>
<stop offset="1" stop-color="#7023BC"/>
</linearGradient>
<linearGradient id="paint9_linear_32_1009" x1="13.8496" y1="24.9855" x2="27.7518" y2="19.5897" gradientUnits="userSpaceOnUse">
<stop stop-color="#9914B3"/>
<stop offset="1" stop-color="#7023BC"/>
</linearGradient>
<linearGradient id="paint10_linear_32_1009" x1="5.64014" y1="35.0166" x2="17.178" y2="31.4792" gradientUnits="userSpaceOnUse">
<stop stop-color="#9914B3"/>
<stop offset="1" stop-color="#7023BC"/>
</linearGradient>
<linearGradient id="paint11_linear_32_1009" x1="5.6416" y1="24.9875" x2="11.5587" y2="24.1223" gradientUnits="userSpaceOnUse">
<stop stop-color="#9914B3"/>
<stop offset="1" stop-color="#7023BC"/>
</linearGradient>
<linearGradient id="paint12_linear_32_1009" x1="23.3823" y1="14.205" x2="29.2564" y2="13.3531" gradientUnits="userSpaceOnUse">
<stop stop-color="#9914B3"/>
<stop offset="1" stop-color="#7023BC"/>
</linearGradient>
</defs>
</svg>
