<svg width="65" height="66" viewBox="0 0 65 66" fill="none" xmlns="http://www.w3.org/2000/svg">
<path d="M0 13.8738C0.338895 12.891 1.03363 12.1624 1.74531 11.4507C4.94786 8.28201 8.13347 5.0964 11.3021 1.89385C12.1324 1.06356 13.0644 0.673828 14.2336 0.673828C23.4346 0.690773 32.6356 0.690774 41.8196 0.690774C44.1241 0.690774 45.4119 1.99552 45.4119 4.31695C45.4119 9.51898 45.4119 14.721 45.3949 19.923C45.3949 20.4314 45.5305 20.6686 46.005 20.9228C52.6303 24.1931 56.426 29.4799 57.2054 36.8339C57.6799 41.392 56.5107 45.5774 53.9859 49.4069C53.9012 49.5255 53.8334 49.6611 53.6979 49.8644C54.4265 50.5761 55.1551 51.3047 55.9176 52.0164C56.0193 52.1011 56.2226 52.118 56.3751 52.1011C57.0699 52.0503 57.6629 52.2705 58.1543 52.7619C60.0183 54.6089 61.8991 56.4389 63.7122 58.3368C65.9828 60.709 64.9661 64.5046 61.8483 65.4874C61.6958 65.5383 61.5433 65.606 61.3908 65.6738C60.8824 65.6738 60.3741 65.6738 59.8657 65.6738C59.1202 65.2672 58.2391 64.996 57.646 64.4369C55.7312 62.6577 53.9181 60.7599 52.0712 58.9129C51.5628 58.4045 51.3425 57.7945 51.4103 57.0659C51.4273 56.9134 51.3934 56.7101 51.2917 56.6084C50.597 55.8798 49.8853 55.1681 49.1567 54.4395C48.9364 54.575 48.7839 54.6767 48.6314 54.7614C41.7349 59.0146 34.7706 59.1501 27.7046 55.185C27.298 54.9478 26.7727 54.7953 26.2982 54.7953C18.7748 54.7784 11.2513 54.7784 3.72784 54.7614C3.18561 54.7614 2.62643 54.7106 2.11809 54.5581C0.982795 54.1853 0.406673 53.2703 0.0169445 52.2028C-2.58809e-07 39.4095 0 26.6332 0 13.8738ZM24.1971 52.5586C17.9275 45.4249 16.2331 37.4778 20.9437 29.0901C25.8068 20.4483 33.6692 17.805 43.2599 19.7028C43.2599 19.5333 43.2599 19.2961 43.2599 19.0589C43.2599 14.1788 43.2599 9.2987 43.2599 4.41862C43.2599 3.14776 42.9549 2.84275 41.701 2.84275C32.7372 2.84275 23.7735 2.84275 14.8097 2.84275C14.5894 2.84275 14.3522 2.84275 14.0641 2.84275C14.0641 3.13082 14.0641 3.3511 14.0641 3.58832C14.0641 6.13003 14.0641 8.6548 14.0641 11.1965C14.0641 13.3993 12.7086 14.7549 10.5057 14.7549C7.96403 14.7549 5.43926 14.7549 2.89755 14.7549C2.67727 14.7549 2.44004 14.7549 2.15198 14.7549C2.15198 15.026 2.15198 15.2294 2.15198 15.4327C2.15198 27.311 2.15198 39.1892 2.15198 51.0675C2.15198 52.2875 2.45699 52.5925 3.69395 52.5925C10.3363 52.5925 16.9617 52.5925 23.604 52.5925C23.8243 52.5756 24.0276 52.5586 24.1971 52.5586ZM37.8715 55.8798C47.3775 55.8798 55.1721 48.0852 55.1721 38.5623C55.1721 28.9885 47.3944 21.2278 37.8206 21.2447C28.3147 21.2617 20.554 29.0224 20.554 38.5284C20.554 48.0852 28.3316 55.8798 37.8715 55.8798ZM53.6301 57.3201C55.4432 59.1501 57.2563 60.9971 59.1032 62.7932C59.9505 63.6235 61.3399 63.5388 62.1363 62.7254C62.9497 61.8952 62.9497 60.5735 62.0855 59.6923C60.3233 57.8962 58.5271 56.1339 56.7479 54.3547C56.714 54.3209 56.6462 54.3039 56.6462 54.3039C55.6296 55.3206 54.6468 56.3203 53.6301 57.3201ZM3.89729 12.586C4.0159 12.586 4.15146 12.586 4.30396 12.586C6.37122 12.586 8.43848 12.586 10.5057 12.586C11.5224 12.586 11.9121 12.1962 11.9121 11.1626C11.9121 9.11231 11.9121 7.06199 11.9121 5.02863C11.9121 4.87612 11.8952 4.70668 11.8952 4.60501C9.23488 7.24839 6.5915 9.89176 3.89729 12.586ZM54.2062 53.5753C53.5284 52.8975 52.9015 52.2536 52.3931 51.7453C51.9356 52.1689 51.4442 52.6264 51.0375 52.9992C51.6476 53.6092 52.2745 54.2361 52.9015 54.8631C53.3081 54.4395 53.7995 53.965 54.2062 53.5753Z" fill="url(#paint0_linear_32_960)"/>
<path d="M28.6365 11.4844C25.3153 11.4844 22.0111 11.5013 18.6899 11.4674C18.3002 11.4674 17.7918 11.281 17.5377 10.993C17.0293 10.4507 17.4021 9.55266 18.1646 9.36626C18.4018 9.31543 18.673 9.31543 18.9271 9.31543C25.4339 9.31543 31.9407 9.31543 38.4475 9.31543C38.6 9.31543 38.7355 9.31543 38.888 9.31543C39.5997 9.36626 40.0233 9.78988 40.0233 10.4168C40.0064 11.0438 39.5658 11.4674 38.8541 11.4674C35.4313 11.4844 32.0254 11.4844 28.6365 11.4844Z" fill="url(#paint1_linear_32_960)"/>
<path d="M28.6706 14.7549C32.0087 14.7549 35.3468 14.7549 38.6849 14.7549C39.1763 14.7549 39.6169 14.8396 39.8711 15.3141C40.2269 15.958 39.8711 16.7374 39.1424 16.8899C38.9391 16.9408 38.7188 16.9238 38.5155 16.9238C31.9409 16.9238 25.3833 16.9238 18.8088 16.9238C18.724 16.9238 18.6393 16.9238 18.5546 16.9238C17.809 16.9069 17.3346 16.4832 17.3176 15.8393C17.3176 15.1954 17.7921 14.7718 18.5376 14.7718C21.0285 14.7718 23.5194 14.7718 26.0103 14.7718C26.9083 14.7549 27.7895 14.7549 28.6706 14.7549Z" fill="url(#paint2_linear_32_960)"/>
<path d="M14.0132 20.1433C16.4024 20.1433 18.7916 20.1433 21.1809 20.1433C21.435 20.1433 21.6892 20.1433 21.9264 20.2111C22.4348 20.3466 22.6889 20.7194 22.6889 21.2447C22.6889 21.7361 22.4178 22.075 21.9603 22.2444C21.8417 22.2783 21.7061 22.3122 21.5875 22.3122C16.5549 22.3122 11.5224 22.3291 6.48977 22.2953C5.7442 22.2953 5.32058 21.7022 5.43919 21.0244C5.54086 20.4822 5.94753 20.1602 6.65921 20.1433C7.70979 20.1263 8.7773 20.1433 9.82788 20.1433C11.2343 20.1433 12.6238 20.1433 14.0132 20.1433Z" fill="url(#paint3_linear_32_960)"/>
<path d="M11.9122 27.7007C10.1838 27.7007 8.45547 27.7007 6.71016 27.7007C5.87987 27.7007 5.42236 27.3109 5.42236 26.6331C5.42236 25.9554 5.87987 25.5487 6.69322 25.5317C10.1499 25.5317 13.6236 25.5317 17.0803 25.5317C17.8767 25.5317 18.3851 25.9554 18.3851 26.5993C18.3851 27.2432 17.8937 27.6837 17.0973 27.6837C15.3689 27.7176 13.6406 27.7007 11.9122 27.7007Z" fill="url(#paint4_linear_32_960)"/>
<path d="M10.8276 30.9707C12.2002 30.9707 13.5727 30.9707 14.9452 30.9707C15.7416 30.9707 16.233 31.3943 16.233 32.0382C16.233 32.6821 15.7247 33.1227 14.9452 33.1227C12.2002 33.1227 9.45511 33.1227 6.71006 33.1227C5.89672 33.1227 5.43921 32.6991 5.43921 32.0382C5.43921 31.3604 5.89672 30.9707 6.71006 30.9707C8.08259 30.9707 9.45511 30.9707 10.8276 30.9707Z" fill="url(#paint5_linear_32_960)"/>
<path d="M10.8106 47.187C12.2509 47.187 13.6743 47.187 15.1146 47.187C15.606 47.187 16.0296 47.3903 16.1143 47.8817C16.1821 48.2206 16.1143 48.6612 15.928 48.9154C15.7755 49.1526 15.3688 49.322 15.0638 49.322C12.234 49.3559 9.40423 49.3559 6.57446 49.339C5.84584 49.339 5.42222 48.8984 5.40527 48.2715C5.40527 47.6106 5.82889 47.204 6.60835 47.187C8.01476 47.187 9.42118 47.187 10.8106 47.187Z" fill="url(#paint6_linear_32_960)"/>
<path d="M10.3363 41.7816C11.5224 41.7816 12.6916 41.7816 13.8778 41.7816C14.6742 41.7816 15.1317 42.2052 15.1147 42.8999C15.0978 43.5608 14.6572 43.9505 13.8778 43.9505C11.4716 43.9505 9.06545 43.9505 6.6593 43.9505C5.86289 43.9505 5.40538 43.5269 5.42233 42.8491C5.43927 42.1883 5.87984 41.8155 6.6593 41.7985C7.89626 41.7646 9.11628 41.7816 10.3363 41.7816Z" fill="url(#paint7_linear_32_960)"/>
<path d="M10.2177 38.5285C9.03156 38.5285 7.84543 38.5285 6.6593 38.5285C5.86289 38.5285 5.42233 38.1387 5.42233 37.4779C5.40538 36.8001 5.86289 36.3765 6.67624 36.3765C9.06545 36.3595 11.4547 36.3595 13.8439 36.3765C14.6572 36.3765 15.1147 36.7832 15.1147 37.4609C15.1147 38.1387 14.6572 38.5115 13.8269 38.5285C12.6238 38.5285 11.4208 38.5285 10.2177 38.5285Z" fill="url(#paint8_linear_32_960)"/>
<path d="M37.8547 23.3965C46.2254 23.3965 53.0202 30.2083 53.0033 38.5621C52.9863 46.9158 46.1576 53.6937 37.7869 53.6768C29.467 53.6598 22.6891 46.848 22.7061 38.4943C22.723 30.1744 29.5348 23.3796 37.8547 23.3965ZM24.875 38.5112C24.875 45.6619 30.6871 51.4909 37.8547 51.5248C44.9884 51.5417 50.8513 45.6619 50.8513 38.5282C50.8513 31.4114 45.0223 25.5654 37.8886 25.5654C30.7209 25.5485 24.875 31.3605 24.875 38.5112Z" fill="url(#paint9_linear_32_960)"/>
<path d="M38.9391 28.7854C38.956 29.3446 38.5155 29.8529 37.9224 29.8699C35.5162 29.9377 33.449 30.751 31.7037 32.4455C31.2292 32.903 30.5853 32.8521 30.1787 32.4116C29.772 31.988 29.7889 31.3441 30.2464 30.8866C32.3306 28.8362 34.8385 27.8026 37.7529 27.7518C38.4477 27.7009 38.9221 28.1754 38.9391 28.7854Z" fill="url(#paint10_linear_32_960)"/>
<defs>
<linearGradient id="paint0_linear_32_960" x1="-4.8386e-07" y1="65.6738" x2="67.9356" y2="62.3785" gradientUnits="userSpaceOnUse">
<stop stop-color="#9914B3"/>
<stop offset="1" stop-color="#7023BC"/>
</linearGradient>
<linearGradient id="paint1_linear_32_960" x1="17.3042" y1="11.4886" x2="36.2466" y2="1.87432" gradientUnits="userSpaceOnUse">
<stop stop-color="#9914B3"/>
<stop offset="1" stop-color="#7023BC"/>
</linearGradient>
<linearGradient id="paint2_linear_32_960" x1="17.3176" y1="16.9265" x2="36.2415" y2="7.32604" gradientUnits="userSpaceOnUse">
<stop stop-color="#9914B3"/>
<stop offset="1" stop-color="#7023BC"/>
</linearGradient>
<linearGradient id="paint3_linear_32_960" x1="5.41943" y1="22.3164" x2="21.1953" y2="16.251" gradientUnits="userSpaceOnUse">
<stop stop-color="#9914B3"/>
<stop offset="1" stop-color="#7023BC"/>
</linearGradient>
<linearGradient id="paint4_linear_32_960" x1="5.42236" y1="27.7049" x2="17.9627" y2="24.0733" gradientUnits="userSpaceOnUse">
<stop stop-color="#9914B3"/>
<stop offset="1" stop-color="#7023BC"/>
</linearGradient>
<linearGradient id="paint5_linear_32_960" x1="5.43921" y1="33.1227" x2="16.1235" y2="30.521" gradientUnits="userSpaceOnUse">
<stop stop-color="#9914B3"/>
<stop offset="1" stop-color="#7023BC"/>
</linearGradient>
<linearGradient id="paint6_linear_32_960" x1="5.40527" y1="49.3501" x2="16.0437" y2="46.787" gradientUnits="userSpaceOnUse">
<stop stop-color="#9914B3"/>
<stop offset="1" stop-color="#7023BC"/>
</linearGradient>
<linearGradient id="paint7_linear_32_960" x1="5.42187" y1="43.9505" x2="15.1305" y2="41.8481" gradientUnits="userSpaceOnUse">
<stop stop-color="#9914B3"/>
<stop offset="1" stop-color="#7023BC"/>
</linearGradient>
<linearGradient id="paint8_linear_32_960" x1="5.42187" y1="38.5285" x2="15.1267" y2="36.4187" gradientUnits="userSpaceOnUse">
<stop stop-color="#9914B3"/>
<stop offset="1" stop-color="#7023BC"/>
</linearGradient>
<linearGradient id="paint9_linear_32_960" x1="22.7061" y1="53.6768" x2="54.3994" y2="52.1372" gradientUnits="userSpaceOnUse">
<stop stop-color="#9914B3"/>
<stop offset="1" stop-color="#7023BC"/>
</linearGradient>
<linearGradient id="paint10_linear_32_960" x1="29.8877" y1="32.7661" x2="39.3068" y2="31.9412" gradientUnits="userSpaceOnUse">
<stop stop-color="#9914B3"/>
<stop offset="1" stop-color="#7023BC"/>
</linearGradient>
</defs>
</svg>
