<svg width="65" height="66" viewBox="0 0 65 66" fill="none" xmlns="http://www.w3.org/2000/svg">
<path d="M0 32.4403C0.814132 31.5821 1.64353 30.7408 2.43052 29.8588C2.65271 29.6095 2.84437 29.2601 2.88847 28.9328C3.85865 21.8803 6.94557 15.9219 12.0882 11.0151C12.6241 10.5029 13.1771 10.4672 13.5875 10.9014C13.9912 11.3272 13.9335 11.8835 13.3925 12.3957C9.44224 16.1424 6.76917 20.6422 5.40719 25.9171C5.32917 26.219 5.26642 26.526 5.21045 26.7668C5.799 26.2275 6.43164 25.6847 7.02189 25.0996C7.92252 24.2057 8.33129 24.2108 9.11489 25.1827C9.64577 25.8408 10.1834 26.4938 10.7211 27.1468C10.7432 27.1739 10.7957 27.1739 10.8381 27.1875C11.1655 26.258 11.4555 25.315 11.8219 24.4025C15.0682 16.312 23.1383 10.6555 31.6647 10.4791C33.3353 10.4452 33.4099 10.5113 33.5338 12.3126C35.2044 10.9642 36.8106 9.66667 38.4745 8.32166C36.814 6.72392 35.2078 5.17538 33.5779 3.60478C33.298 4.69707 33.1386 4.82767 32.0276 4.84803C26.4423 4.9481 21.3472 6.58823 16.727 9.72095C16.6388 9.78031 16.5557 9.84476 16.4641 9.89904C15.9078 10.2281 15.3803 10.1331 15.0767 9.6531C14.7985 9.21381 14.8986 8.64731 15.4024 8.33183C16.6371 7.55671 17.8583 6.74936 19.1542 6.09127C22.8771 4.19842 26.8409 3.16549 31.0184 2.97383C31.183 2.96704 31.3458 2.93821 31.5849 2.91277C31.5849 2.44973 31.5968 2.01213 31.5815 1.57454C31.5646 1.07927 31.6341 0.648461 32.1548 0.41779C32.7095 0.171854 33.0741 0.460192 33.4388 0.819767C34.0562 1.42867 34.7075 2.00535 35.3045 2.63291C35.6488 2.99418 36.0355 3.15531 36.5155 3.21637C40.6201 3.73538 44.4618 5.05326 47.9677 7.23954C55.9054 12.1922 60.6461 19.2989 62.0945 28.5613C62.2642 29.6434 62.3337 30.7391 62.4592 31.9111C62.9019 31.9111 63.3395 31.9247 63.7754 31.9077C64.2774 31.8891 64.7082 31.9875 64.922 32.5031C65.1374 33.0238 64.866 33.3884 64.5234 33.7378C63.8721 34.4027 63.2123 35.0625 62.5932 35.7562C62.3981 35.9733 62.2387 36.2837 62.1997 36.572C61.2431 43.4973 58.2919 49.415 53.3019 54.3133C53.1968 54.4168 53.095 54.5271 52.9796 54.6186C52.5302 54.9748 52.0315 54.9613 51.6635 54.5932C51.309 54.2387 51.2954 53.6926 51.6516 53.2753C51.8297 53.0667 52.04 52.8852 52.2334 52.6902C56.0954 48.8213 58.648 44.2283 59.8421 38.8889C59.8557 38.8313 59.8557 38.7702 59.8438 38.8754C59.2315 39.4266 58.5174 40.0389 57.8373 40.6902C57.1165 41.3805 56.6246 41.3737 55.997 40.602C55.4254 39.8981 54.8572 39.1925 54.2093 38.3937C54.1076 38.7193 54.0312 38.9483 53.9634 39.179C51.2174 48.4719 42.6079 55.0562 33.047 55.1716C31.7529 55.1868 31.5459 54.9901 31.5035 53.6926C31.5001 53.6128 31.4849 53.5314 31.4628 53.3364C29.8006 54.678 28.1995 55.9721 26.5271 57.3222C28.1673 58.903 29.7735 60.4499 31.3644 61.9831C31.5561 61.6388 31.6596 61.2233 31.9242 61.0401C32.2057 60.8451 32.6365 60.8094 33.0046 60.8027C38.7052 60.6958 43.8885 59.0014 48.5732 55.7601C49.2228 55.3107 49.7299 55.3056 50.0997 55.7347C50.5101 56.2113 50.3609 56.8304 49.718 57.2849C47.2824 59.0014 44.6484 60.3294 41.8159 61.2504C39.27 62.0781 36.6597 62.5666 33.9815 62.6735C33.817 62.6802 33.6542 62.7091 33.4981 62.7277C33.1895 63.6012 33.8849 64.7258 32.7586 65.3262C32.5466 65.3262 32.3346 65.3262 32.1243 65.3262C31.3136 64.5561 30.5283 63.7573 29.6802 63.0296C29.3529 62.7481 28.9068 62.5513 28.4828 62.4411C26.4237 61.9051 24.2662 61.6338 22.3004 60.8671C11.542 56.6709 5.11038 48.8366 3.01907 37.4744C2.79519 36.2583 2.72565 35.015 2.57978 33.7328C2.14897 33.7328 1.72664 33.7022 1.31109 33.7395C0.720847 33.7921 0.28325 33.5988 0 33.0747C0 32.8627 0 32.6523 0 32.4403ZM31.5866 12.3618C30.8149 12.4534 30.1246 12.5195 29.4394 12.6179C21.0419 13.8391 14.1625 20.3793 12.502 28.7445C12.446 29.0227 12.5665 29.4094 12.7395 29.6451C13.3535 30.4779 14.0251 31.27 14.6815 32.0723C14.958 32.4098 15.0818 32.7643 14.8766 33.1815C14.6764 33.592 14.3457 33.7497 13.8979 33.7361C13.3145 33.7192 12.731 33.7328 11.966 33.7328C12.2663 35.3254 12.4087 36.8315 12.8395 38.2529C15.2005 46.0618 20.4025 50.9008 28.3182 52.8411C28.7219 52.9395 29.0323 52.8717 29.3563 52.5884C30.0907 51.9507 30.8692 51.3655 31.6172 50.7447C31.9954 50.4293 32.3702 50.1986 32.8774 50.4496C33.3845 50.7006 33.4269 51.145 33.4133 51.6318C33.3981 52.1542 33.41 52.6766 33.41 53.2278C33.6338 53.2278 33.7797 53.238 33.9239 53.2261C36.2391 53.0463 38.4847 52.5545 40.6031 51.5979C46.9653 48.7247 50.9189 43.8568 52.5387 37.0758C52.6387 36.6552 52.5845 36.3261 52.2842 35.9818C51.6296 35.2338 51.0342 34.4366 50.3999 33.6717C50.098 33.3087 49.8893 32.9458 50.1132 32.4641C50.3354 31.9875 50.7323 31.8857 51.2157 31.9027C51.7788 31.923 52.3436 31.9077 52.9152 31.9077C52.9152 31.5889 52.9339 31.3548 52.9118 31.1258C52.6828 28.6631 52.0994 26.2885 51.002 24.0683C48.0338 18.0641 43.266 14.3191 36.7445 12.7994C36.3256 12.701 35.9914 12.7417 35.6437 13.0453C34.8635 13.7255 34.0646 14.3937 33.2183 14.9874C32.9418 15.1807 32.4703 15.2367 32.1277 15.1638C31.6935 15.0722 31.568 14.6481 31.5798 14.2038C31.5985 13.6203 31.5866 13.0334 31.5866 12.3618ZM38.461 5.38908C39.1292 6.12859 39.6889 6.79177 40.2945 7.41085C41.0815 8.2165 41.0764 8.67614 40.2063 9.37833C39.5108 9.94144 38.8154 10.5062 38.0403 11.1355C38.2744 11.2033 38.3711 11.2322 38.4677 11.2593C41.882 12.2227 44.9384 13.8544 47.5419 16.2679C52.2995 20.6744 54.7487 26.1342 54.8691 32.6269C54.8844 33.4749 54.5503 33.7921 53.6768 33.8159C53.4851 33.821 53.2934 33.8396 53.0068 33.8566C54.3823 35.5561 55.6782 37.1589 57.0011 38.7939C58.609 37.125 60.1508 35.5222 61.7299 33.882C60.6902 33.6446 60.5901 33.4749 60.5087 32.4776C60.3747 30.8358 60.3425 29.1651 59.9998 27.564C57.8661 17.5858 52.0502 10.625 42.6181 6.72731C41.285 6.17438 39.8636 5.83516 38.461 5.38908ZM26.9766 54.4982C26.6543 54.3998 26.4593 54.3388 26.2625 54.2811C17.0679 51.6318 10.4735 43.1597 10.18 33.6208C10.1326 32.0553 10.2241 31.9501 11.788 31.8145C11.8219 31.8111 11.8507 31.7771 11.9423 31.7195C10.6329 30.0997 9.3286 28.4884 8.00224 26.8466C6.39094 28.5206 4.85596 30.1167 3.29893 31.7347C4.41497 32.0282 4.49978 32.1995 4.57271 33.3138C4.67278 34.8301 4.70161 36.3736 5.01709 37.8509C7.37129 48.8926 13.9488 56.1706 24.6801 59.6849C25.2788 59.88 25.903 59.9953 26.4423 60.131C25.8199 59.4509 25.2008 58.7588 24.563 58.0855C23.9626 57.4528 23.9779 56.9355 24.6563 56.3758C25.3907 55.772 26.1336 55.1801 26.9766 54.4982Z" fill="url(#paint0_linear_32_990)"/>
<path d="M41.0252 44.7575C40.7114 44.5641 40.1127 44.2656 39.6005 43.8585C39.1137 43.4718 38.7406 43.3836 38.1622 43.7313C37.5194 44.118 36.7816 44.3656 36.0624 44.5963C35.652 44.7286 35.4026 44.8592 35.3908 45.3426C35.3806 45.7819 35.2771 46.2229 35.1787 46.6537C34.9803 47.5221 34.3561 48.0394 33.4691 48.07C32.8568 48.0903 32.2428 48.0903 31.6288 48.0716C30.6993 48.0445 29.8954 47.4712 29.8801 46.5672C29.8564 45.1628 29.2627 44.4216 27.894 44.213C27.5734 44.1638 27.2376 43.9959 26.9798 43.7924C26.3878 43.3259 25.8993 43.4243 25.3939 43.9213C25.17 44.1418 24.8952 44.3148 24.6272 44.481C23.903 44.9305 23.0872 44.8813 22.4562 44.3165C21.9678 43.8806 21.5047 43.4124 21.0637 42.9273C20.4463 42.2455 20.3107 41.3483 20.9365 40.6783C21.8813 39.6674 22.0322 38.7295 21.2062 37.605C20.9908 37.3115 20.8772 36.9113 20.8144 36.5415C20.7092 35.919 20.387 35.6426 19.7645 35.6324C19.4507 35.6273 19.1353 35.5578 18.8249 35.4984C17.8683 35.3169 17.2933 34.6622 17.2661 33.7039C17.2492 33.112 17.2492 32.5183 17.2661 31.9281C17.2933 30.9952 17.8598 30.2133 18.774 30.1811C20.1495 30.1319 20.9382 29.5858 21.135 28.1966C21.1808 27.8761 21.3538 27.5436 21.5539 27.2807C22.0254 26.6634 21.922 26.1562 21.3962 25.6406C21.174 25.4218 21.0027 25.142 20.8415 24.8706C20.4158 24.1565 20.4718 23.378 21.0281 22.7572C21.4793 22.2535 21.9593 21.7718 22.463 21.3223C23.1092 20.7456 23.9386 20.7134 24.6883 21.2036C25.1988 21.5377 25.6704 22.1246 26.2012 22.1772C26.6999 22.2263 27.2477 21.709 27.7854 21.4682C28.1501 21.3054 28.5283 21.1188 28.9167 21.0696C29.5154 20.9933 29.6698 20.6388 29.6969 20.1317C29.7054 19.9841 29.7241 19.8365 29.7495 19.6907C30.0378 17.9471 30.4924 17.5637 32.2716 17.5637C32.5464 17.5637 32.8212 17.562 33.0959 17.5637C34.4749 17.5705 35.1499 18.1065 35.2602 19.4939C35.3365 20.4641 35.618 21.0628 36.6679 21.2663C37.3124 21.3919 37.8942 21.8193 38.5235 22.0567C38.7287 22.1348 39.0374 22.1161 39.229 22.0126C39.6158 21.8023 39.9465 21.4936 40.3129 21.2426C41.127 20.688 41.97 20.7338 42.6891 21.3919C43.125 21.7904 43.5439 22.2128 43.9442 22.6487C44.6006 23.361 44.7584 24.3176 44.0935 25.0063C43.1182 26.0155 43.0979 26.9432 43.8526 28.0338C44.0511 28.3188 44.1783 28.6902 44.2241 29.0379C44.314 29.7316 44.7041 29.9877 45.352 30.0115C45.6454 30.0217 45.9389 30.0895 46.2289 30.1438C47.1567 30.3185 47.7113 30.8884 47.7706 31.8111C47.8147 32.4844 47.8131 33.1662 47.769 33.8396C47.7113 34.7301 47.1601 35.4339 46.2832 35.4662C44.9161 35.5171 44.1291 36.0717 43.9188 37.4472C43.8696 37.7695 43.7068 38.107 43.5049 38.3648C43.0385 38.9585 43.1233 39.4537 43.6288 39.9609C43.8357 40.1678 44.0239 40.4154 44.1461 40.6783C44.2936 40.9955 44.4412 41.3466 44.4548 41.6875C44.5073 42.8544 42.5314 44.7897 41.0252 44.7575ZM23.6571 42.8375C24.2439 42.4049 24.8121 42.0064 25.3583 41.5756C25.8603 41.1787 26.2996 41.2431 26.8678 41.5162C28.0195 42.0708 29.2135 42.5457 30.4178 42.9782C30.9775 43.1801 31.3286 43.4345 31.3998 44.0553C31.4795 44.7574 31.6203 45.4546 31.7322 46.1313C32.3174 46.1313 32.8161 46.1313 33.3435 46.1313C33.4487 45.4308 33.5674 44.7676 33.6438 44.0994C33.7167 43.4667 34.0644 43.1801 34.658 42.9731C35.8453 42.5593 37.0258 42.0979 38.1503 41.5382C38.7677 41.2312 39.2324 41.1888 39.7667 41.623C40.2874 42.0454 40.8454 42.4253 41.322 42.7764C41.7647 42.3829 42.1514 42.0369 42.5415 41.6892C42.0768 41.0582 41.6545 40.4765 41.222 39.9015C40.9048 39.4792 40.876 39.0484 41.1677 38.6108C41.9242 37.4693 42.45 36.2345 42.7162 34.8912C42.8299 34.3179 43.1606 34.0109 43.7475 33.9532C44.1681 33.9125 44.5837 33.8362 45.0009 33.765C45.8897 33.6157 45.888 33.6123 45.8863 32.7236C45.8863 32.6608 45.8795 32.5964 45.8863 32.5336C45.9321 32.1486 45.7947 31.9552 45.3757 31.9213C44.85 31.8789 44.3326 31.7398 43.8085 31.6957C43.1606 31.6414 42.8893 31.2785 42.6806 30.6916C42.2498 29.4874 41.7681 28.295 41.2152 27.1434C40.9421 26.5735 40.9014 26.1291 41.2932 25.6304C41.7206 25.0877 42.1192 24.5195 42.4703 24.0463C42.0751 23.6087 41.7291 23.2237 41.3712 22.8251C40.7963 23.2474 40.2399 23.6324 39.7107 24.0514C39.2121 24.4482 38.7711 24.4025 38.2012 24.1294C37.0496 23.5748 35.8589 23.0914 34.6529 22.6639C34.0593 22.4536 33.7133 22.167 33.6404 21.5343C33.5607 20.8508 33.4368 20.1707 33.3317 19.4973C32.7584 19.4973 32.2563 19.4973 31.7221 19.4973C31.605 20.2317 31.4727 20.9373 31.3845 21.648C31.315 22.2162 30.9995 22.5249 30.467 22.6283C29.1423 22.8861 27.9228 23.395 26.8017 24.1413C26.3149 24.4652 25.8671 24.4516 25.4041 24.0938C24.8376 23.6579 24.2558 23.244 23.7232 22.8522C23.3026 23.2338 22.9159 23.5832 22.5156 23.9462C22.9532 24.5415 23.3348 25.0996 23.7571 25.6253C24.1557 26.1223 24.1981 26.5904 23.8318 27.1264C23.0855 28.2221 22.5987 29.4331 22.3409 30.734C22.2273 31.3073 21.9033 31.6126 21.3198 31.6872C20.6126 31.7788 19.9087 31.9043 19.1929 32.0163C19.1929 32.5692 19.1929 33.0713 19.1929 33.6208C19.9155 33.7344 20.6193 33.86 21.3266 33.9498C21.9118 34.0245 22.229 34.3349 22.3426 34.9081C22.6004 36.2074 23.0906 37.4167 23.8352 38.5141C24.1795 39.0212 24.1693 39.4792 23.7911 39.9642C23.3535 40.524 22.9447 41.1057 22.5275 41.6722C22.9362 42.0946 23.2856 42.4558 23.6571 42.8375Z" fill="url(#paint1_linear_32_990)"/>
<path d="M25.7861 32.8508C25.8574 29.2195 28.6 26.3666 32.2941 26.1427C35.7168 25.9358 38.7325 28.5749 39.1837 32.1724C39.5992 35.4747 37.1484 38.7584 33.7731 39.3859C32.2025 39.6777 30.7015 39.4402 29.2954 38.6651C28.695 38.3344 28.4829 37.812 28.7289 37.3099C28.985 36.7892 29.5481 36.6654 30.196 36.9876C33.3559 38.5599 36.7684 36.8163 37.2722 33.3681C37.6453 30.824 35.6931 28.3918 33.0302 28.0814C30.4759 27.7829 28.0029 29.7249 27.8147 32.2419C27.7638 32.9221 27.8808 33.6277 28.008 34.3061C28.142 35.0236 27.969 35.5358 27.4042 35.7037C26.8649 35.8648 26.3526 35.5375 26.1678 34.8319C25.9998 34.184 25.9116 33.5123 25.7861 32.8508Z" fill="url(#paint2_linear_32_990)"/>
<defs>
<linearGradient id="paint0_linear_32_990" x1="-4.84278e-07" y1="65.3262" x2="67.9941" y2="62.0252" gradientUnits="userSpaceOnUse">
<stop stop-color="#9914B3"/>
<stop offset="1" stop-color="#7023BC"/>
</linearGradient>
<linearGradient id="paint1_linear_32_990" x1="17.2534" y1="48.0854" x2="49.2106" y2="46.5326" gradientUnits="userSpaceOnUse">
<stop stop-color="#9914B3"/>
<stop offset="1" stop-color="#7023BC"/>
</linearGradient>
<linearGradient id="paint2_linear_32_990" x1="25.7861" y1="39.5064" x2="39.8488" y2="38.8201" gradientUnits="userSpaceOnUse">
<stop stop-color="#9914B3"/>
<stop offset="1" stop-color="#7023BC"/>
</linearGradient>
</defs>
</svg>
