<svg width="65" height="57" viewBox="0 0 65 57" fill="none" xmlns="http://www.w3.org/2000/svg">
<path d="M0.00678078 2.11805C0.527193 0.770397 1.52395 0.268631 2.9394 0.331351C4.41758 0.397462 5.89914 0.344913 7.38071 0.346608C8.23167 0.348304 8.66563 0.680553 8.65546 1.31793C8.64529 1.93497 8.23167 2.24857 7.41122 2.25027C5.82455 2.25366 4.23789 2.26552 2.65292 2.24349C2.11216 2.23671 1.89179 2.41809 1.90196 2.97749C1.92909 4.34887 1.91044 5.72194 1.91044 7.14079C2.1342 7.15605 2.31728 7.17808 2.49866 7.17978C3.44964 7.18317 4.4074 7.11536 5.3516 7.20012C6.4026 7.29335 7.13999 7.13231 7.46716 5.9474C7.65702 5.26086 8.32999 4.91166 9.06908 4.90827C11.9034 4.89471 14.7377 4.89132 17.5703 4.90827C18.5416 4.91336 19.1417 5.4931 19.418 6.37628C19.6214 7.02552 19.9791 7.20012 20.6521 7.20012C34.4845 7.17808 48.3153 7.18317 62.1478 7.18317C62.4207 7.18317 62.6953 7.18317 63.0072 7.18317C63.0326 7.02382 63.0733 6.88482 63.0733 6.74752C63.0784 5.47784 63.0649 4.20987 63.0818 2.9402C63.0886 2.46216 62.9208 2.21636 62.4207 2.25196C62.2529 2.26383 62.0817 2.25366 61.9139 2.25366C45.3318 2.25366 28.7515 2.25366 12.1695 2.25366C11.9373 2.25366 11.7034 2.26722 11.4728 2.24518C10.9304 2.19263 10.6303 1.86886 10.5795 1.34166C10.532 0.850069 10.9287 0.424585 11.4609 0.360169C11.6271 0.339827 11.7983 0.349998 11.9678 0.349998C28.76 0.349998 45.5539 0.349998 62.3461 0.349998C64.0684 0.349998 64.9787 1.25182 64.9787 2.95884C64.9804 11.8432 64.9787 20.7275 64.9787 29.6118C64.9787 29.7389 64.9855 29.866 64.9736 29.9915C64.9228 30.5373 64.5363 30.9187 64.0362 30.9255C63.5361 30.9323 63.1327 30.5526 63.0818 30.0118C63.0632 29.8237 63.075 29.6321 63.075 29.4406C63.075 22.9261 63.075 16.4099 63.075 9.89542C63.075 9.64792 63.075 9.39874 63.075 9.08513C62.7462 9.08513 62.4766 9.08513 62.2088 9.08513C48.2509 9.08513 34.2913 9.08513 20.3334 9.08513C18.823 9.08513 18.3568 8.79526 17.7991 7.37981C17.6245 6.93737 17.4059 6.78311 16.9261 6.7882C14.5156 6.81362 12.1034 6.81193 9.6929 6.78989C9.26741 6.7865 9.02162 6.8933 8.90126 7.31031C8.51307 8.65626 7.59599 9.16311 6.22122 9.10039C4.81085 9.03428 3.3954 9.08513 1.94434 9.08513C1.93078 9.31567 1.90875 9.49875 1.90875 9.68352C1.90705 20.3664 1.90705 31.0476 1.90705 41.7304C1.90705 42.4983 1.96129 42.5543 2.74107 42.5543C11.1592 42.556 19.5757 42.556 27.9938 42.5543C28.1599 42.5543 28.326 42.5373 28.5532 42.5238C28.5668 42.3017 28.5905 42.1 28.5905 41.8983C28.5939 40.1641 28.5803 38.4283 28.6007 36.6941C28.6057 36.2873 28.482 36.0449 28.1413 35.816C25.8087 34.248 23.4999 32.641 21.164 31.0798C20.4605 30.6102 20.1215 30.0288 20.1588 29.1778C20.1978 28.2912 20.1554 27.4013 20.1723 26.513C20.1927 25.5044 20.8352 24.845 21.8455 24.828C23.2592 24.8043 24.673 24.823 26.1393 24.823C25.6935 22.4582 26.1495 20.385 27.8022 18.6695C29.099 17.3236 30.701 16.6896 32.5758 16.6726C35.9237 16.6404 39.787 19.7171 38.8716 24.8179C40.0192 24.8179 41.155 24.8179 42.2924 24.8179C42.6094 24.8179 42.9281 24.8094 43.2434 24.8314C44.1469 24.8891 44.7809 25.5197 44.8046 26.43C44.8318 27.4657 44.8148 28.5031 44.8114 29.5389C44.8097 30.222 44.4249 30.6662 43.8876 31.0306C41.5788 32.5969 39.2852 34.187 36.9629 35.733C36.5136 36.0313 36.3713 36.3466 36.3797 36.8653C36.4102 38.7232 36.3916 40.5828 36.3916 42.5136C36.6543 42.5289 36.8764 42.5526 37.0985 42.5526C45.4522 42.5543 53.8059 42.5543 62.1613 42.5543C63.0564 42.5543 63.0767 42.5305 63.0784 41.6219C63.0784 39.1046 63.0683 36.5873 63.0903 34.07C63.0937 33.7547 63.17 33.3411 63.3768 33.1546C63.5971 32.9546 64.0752 32.8207 64.3261 32.9275C64.6091 33.0478 64.9058 33.4496 64.9482 33.7615C65.0414 34.4464 64.9804 35.1532 64.9804 35.8516C64.9804 37.84 64.9821 39.8285 64.9804 41.8169C64.9787 43.5714 64.087 44.4579 62.3139 44.4579C54.6789 44.4596 47.0439 44.4681 39.409 44.4427C38.7546 44.441 38.5512 44.6631 38.4393 45.2648C37.8681 48.3653 39.0581 50.8927 40.9533 53.1999C41.0567 53.3253 41.2736 53.3762 41.4482 53.4202C42.9654 53.7932 44.4877 54.1424 46.0014 54.5289C46.7219 54.7119 47.01 55.1832 46.8354 55.7731C46.6778 56.3071 46.1777 56.5342 45.4963 56.3444C40.8668 55.0459 36.1543 54.4068 31.34 54.5238C27.4513 54.6187 23.644 55.2188 19.8977 56.2359C19.735 56.2799 19.5723 56.3291 19.4078 56.3681C18.7772 56.5207 18.2907 56.285 18.1416 55.7578C17.9805 55.1917 18.2636 54.7187 18.9332 54.5407C20.0961 54.2305 21.2522 53.8237 22.4371 53.6931C23.7034 53.5541 24.4594 52.9015 25.0256 51.8725C25.1273 51.6878 25.2426 51.5081 25.368 51.3403C25.7087 50.8877 26.2122 50.7741 26.6495 51.0419C27.0784 51.303 27.2174 51.8251 26.9818 52.3201C26.9021 52.4879 26.7953 52.6438 26.6258 52.9371C30.5687 52.5031 34.4066 52.4896 38.1359 52.9202C37.6172 51.5488 37.0222 50.2215 36.6204 48.8382C36.217 47.4414 36.334 45.9904 36.6493 44.5139C33.8828 44.5139 31.1468 44.5139 28.4328 44.5139C28.4752 45.5208 28.5244 46.5209 28.5549 47.5228C28.5617 47.7516 28.5295 47.9889 28.4752 48.2127C28.3396 48.767 27.9311 49.0586 27.4056 48.9654C26.8648 48.8704 26.6343 48.5178 26.6207 47.9788C26.597 47.0515 26.5563 46.126 26.5156 45.2004C26.4902 44.6342 26.2173 44.4478 25.624 44.4495C18.0941 44.4715 10.5659 44.4427 3.03602 44.4834C1.61548 44.4918 0.571267 44.0918 0 42.7424C0.00678062 29.1965 0.00678078 15.6573 0.00678078 2.11805ZM34.4913 42.5085C34.4913 40.4184 34.5151 38.3893 34.4795 36.3619C34.4642 35.4855 34.7998 34.8973 35.522 34.4141C37.8596 32.8546 40.1735 31.2578 42.4891 29.6643C42.662 29.5457 42.884 29.3405 42.8925 29.1659C42.9366 28.3709 42.9112 27.5742 42.9112 26.7588C35.9356 26.7588 29.0329 26.7588 22.0726 26.7588C22.0726 27.3826 22.1184 27.9759 22.0608 28.5574C22.0014 29.1575 22.215 29.5067 22.7168 29.8406C25.0052 31.3595 27.2581 32.9326 29.5381 34.4667C30.1687 34.8922 30.5213 35.4177 30.5026 36.1974C30.4789 37.1908 30.4975 38.1859 30.4975 39.1792C30.4975 40.2743 30.4975 41.3694 30.4975 42.5085C31.8418 42.5085 33.1199 42.5085 34.4913 42.5085ZM32.4995 24.8162C33.5539 24.8162 34.61 24.8162 35.6644 24.8162C37.0205 24.8162 37.0358 24.8009 37.1036 23.4228C37.1053 23.4024 37.1069 23.3804 37.1069 23.36C37.1256 21.4564 36.3221 19.9968 34.6422 19.1171C32.942 18.2254 31.2383 18.3661 29.7025 19.5256C28.182 20.6732 27.6751 22.2599 27.9531 24.1245C28.0311 24.65 28.2582 24.8552 28.8261 24.8331C30.05 24.7806 31.2756 24.8162 32.4995 24.8162Z" fill="url(#paint0_linear_32_996)"/>
<path d="M26.312 16.951C26.2984 19.987 23.8404 22.4331 20.8112 22.4229C17.7904 22.4127 15.3426 19.9395 15.3511 16.9052C15.3596 13.8776 17.843 11.4078 20.8553 11.4298C23.8913 11.4536 26.3255 13.9149 26.312 16.951ZM24.4083 16.8984C24.3947 14.9134 22.7708 13.3098 20.801 13.3352C18.8177 13.3606 17.2446 14.9693 17.2548 16.9594C17.2649 18.936 18.8821 20.5328 20.862 20.5193C22.8352 20.504 24.4236 18.8834 24.4083 16.8984Z" fill="url(#paint1_linear_32_996)"/>
<path d="M38.6783 16.9028C38.6935 13.8685 41.1719 11.4054 44.1825 11.4309C47.2202 11.4563 49.6476 13.9143 49.6392 16.9537C49.6307 19.9795 47.1608 22.4341 44.1333 22.4239C41.1125 22.4104 38.663 19.9338 38.6783 16.9028ZM47.7355 16.9486C47.744 14.9619 46.1573 13.3515 44.1791 13.3345C42.2093 13.3176 40.5921 14.9229 40.5819 16.9079C40.5718 18.8929 42.1635 20.5084 44.1384 20.5186C46.1166 20.5271 47.7287 18.9285 47.7355 16.9486Z" fill="url(#paint2_linear_32_996)"/>
<path d="M9.46251 39.832C8.29963 39.832 7.13676 39.8405 5.97219 39.8303C4.91611 39.8202 4.32958 39.2302 4.3211 38.1742C4.31093 36.9265 4.31093 35.6772 4.3211 34.4296C4.33128 33.4057 4.90932 32.8158 5.93998 32.809C8.28777 32.7954 10.6356 32.7954 12.9833 32.809C14.0123 32.8141 14.5921 33.4057 14.6022 34.4296C14.6141 35.6992 14.6158 36.9672 14.6005 38.2369C14.5887 39.2184 13.9954 39.8151 13.0156 39.8269C11.8306 39.8422 10.6457 39.8303 9.46251 39.832ZM12.6613 37.9046C12.6613 36.8079 12.6613 35.7823 12.6613 34.7567C10.5016 34.7567 8.381 34.7567 6.26375 34.7567C6.26375 35.8315 6.26375 36.857 6.26375 37.9046C8.40813 37.9046 10.5152 37.9046 12.6613 37.9046Z" fill="url(#paint3_linear_32_996)"/>
<path d="M55.4655 39.832C54.3229 39.832 53.1804 39.8405 52.0396 39.8303C50.9835 39.8202 50.397 39.2319 50.3885 38.1742C50.3783 36.9265 50.3783 35.6789 50.3885 34.4296C50.3987 33.4057 50.9767 32.8158 52.0057 32.809C54.3535 32.7954 56.7012 32.7954 59.049 32.809C60.078 32.8141 60.6577 33.4057 60.6679 34.4296C60.6798 35.6992 60.6815 36.9672 60.6662 38.2369C60.6543 39.2201 60.061 39.8151 59.0812 39.8286C57.8777 39.8422 56.6707 39.8303 55.4655 39.832ZM52.3227 37.8894C54.4755 37.8894 56.5961 37.8894 58.7354 37.8894C58.7354 36.8248 58.7354 35.8009 58.7354 34.7483C56.5826 34.7483 54.4636 34.7483 52.3227 34.7483C52.3227 35.8145 52.3227 36.8384 52.3227 37.8894Z" fill="url(#paint4_linear_32_996)"/>
<path d="M48.0477 3.76914C48.2579 3.76914 48.4698 3.75389 48.6766 3.77253C49.2089 3.82169 49.6073 4.22853 49.5768 4.72351C49.5429 5.24901 49.2462 5.59143 48.7173 5.65076C48.3223 5.69484 47.9189 5.67958 47.5222 5.66263C46.9289 5.63551 46.5458 5.26257 46.534 4.73368C46.5221 4.17259 46.912 3.79796 47.5443 3.76745C47.7121 3.75897 47.8799 3.76575 48.0477 3.76575C48.0477 3.76745 48.0477 3.76914 48.0477 3.76914Z" fill="url(#paint5_linear_32_996)"/>
<path d="M56.9267 3.77592C57.1572 3.77592 57.3929 3.7454 57.6183 3.7827C58.115 3.86237 58.4083 4.17089 58.4286 4.67943C58.4489 5.18968 58.1743 5.55922 57.6878 5.62872C57.1742 5.70161 56.6334 5.69992 56.1215 5.62194C55.6333 5.54735 55.3655 5.15747 55.3994 4.6574C55.4316 4.16072 55.7316 3.84881 56.2351 3.781C56.4622 3.75049 56.6962 3.77592 56.9267 3.77592C56.9267 3.77422 56.9267 3.77422 56.9267 3.77592Z" fill="url(#paint6_linear_32_996)"/>
<path d="M52.4314 5.66433C51.4177 5.66772 50.9566 5.36598 50.96 4.70657C50.9634 4.05054 51.4143 3.76406 52.4432 3.76406C52.6534 3.76406 52.8636 3.75389 53.0738 3.76915C53.6265 3.80983 53.996 4.17938 54.0096 4.68623C54.0248 5.21342 53.64 5.61517 53.062 5.66094C52.8535 5.67959 52.6416 5.66433 52.4314 5.66433Z" fill="url(#paint7_linear_32_996)"/>
<path d="M33.4658 48.9788C33.4421 49.211 33.5014 49.5094 33.3794 49.6569C33.1488 49.9366 32.8183 50.301 32.5199 50.3095C32.2199 50.318 31.7368 49.9908 31.6452 49.7094C31.4961 49.2551 31.4961 48.6839 31.6402 48.2296C31.73 47.9431 32.2029 47.6057 32.5013 47.6074C32.7996 47.6091 33.1471 47.9634 33.3743 48.2431C33.5048 48.4075 33.4421 48.7279 33.4658 48.9788Z" fill="url(#paint8_linear_32_996)"/>
<path d="M32.4743 27.8489C32.8116 27.8489 33.1523 27.8166 33.4846 27.8556C33.9948 27.9167 34.2745 28.237 34.2847 28.7507C34.2949 29.2643 34.0321 29.6355 33.5253 29.6762C32.8353 29.7322 32.1335 29.7339 31.4453 29.6711C30.9385 29.6254 30.6859 29.2406 30.7062 28.7303C30.7266 28.215 31.0164 27.9065 31.5267 27.8505C31.8386 27.8166 32.159 27.8438 32.4743 27.8438C32.4743 27.8472 32.4743 27.8489 32.4743 27.8489Z" fill="url(#paint9_linear_32_996)"/>
<defs>
<linearGradient id="paint0_linear_32_996" x1="-4.84288e-07" y1="56.4138" x2="67.9406" y2="52.5912" gradientUnits="userSpaceOnUse">
<stop stop-color="#9914B3"/>
<stop offset="1" stop-color="#7023BC"/>
</linearGradient>
<linearGradient id="paint1_linear_32_996" x1="15.3511" y1="22.4229" x2="26.8173" y2="21.8679" gradientUnits="userSpaceOnUse">
<stop stop-color="#9914B3"/>
<stop offset="1" stop-color="#7023BC"/>
</linearGradient>
<linearGradient id="paint2_linear_32_996" x1="38.6782" y1="22.424" x2="50.1445" y2="21.8689" gradientUnits="userSpaceOnUse">
<stop stop-color="#9914B3"/>
<stop offset="1" stop-color="#7023BC"/>
</linearGradient>
<linearGradient id="paint3_linear_32_996" x1="4.31348" y1="39.8353" x2="15.0573" y2="39.072" gradientUnits="userSpaceOnUse">
<stop stop-color="#9914B3"/>
<stop offset="1" stop-color="#7023BC"/>
</linearGradient>
<linearGradient id="paint4_linear_32_996" x1="50.3809" y1="39.8353" x2="61.1229" y2="39.0722" gradientUnits="userSpaceOnUse">
<stop stop-color="#9914B3"/>
<stop offset="1" stop-color="#7023BC"/>
</linearGradient>
<linearGradient id="paint5_linear_32_996" x1="46.5337" y1="5.6796" x2="49.7073" y2="5.43481" gradientUnits="userSpaceOnUse">
<stop stop-color="#9914B3"/>
<stop offset="1" stop-color="#7023BC"/>
</linearGradient>
<linearGradient id="paint6_linear_32_996" x1="55.3965" y1="5.68195" x2="58.5583" y2="5.43917" gradientUnits="userSpaceOnUse">
<stop stop-color="#9914B3"/>
<stop offset="1" stop-color="#7023BC"/>
</linearGradient>
<linearGradient id="paint7_linear_32_996" x1="50.96" y1="5.67021" x2="54.139" y2="5.42368" gradientUnits="userSpaceOnUse">
<stop stop-color="#9914B3"/>
<stop offset="1" stop-color="#7023BC"/>
</linearGradient>
<linearGradient id="paint8_linear_32_996" x1="31.5327" y1="50.3097" x2="33.5572" y2="50.2394" gradientUnits="userSpaceOnUse">
<stop stop-color="#9914B3"/>
<stop offset="1" stop-color="#7023BC"/>
</linearGradient>
<linearGradient id="paint9_linear_32_996" x1="30.7051" y1="29.7182" x2="34.4271" y2="29.375" gradientUnits="userSpaceOnUse">
<stop stop-color="#9914B3"/>
<stop offset="1" stop-color="#7023BC"/>
</linearGradient>
</defs>
</svg>
