<svg width="65" height="63" viewBox="0 0 65 63" fill="none" xmlns="http://www.w3.org/2000/svg">
<path d="M0 8.8914C0.033916 8.85748 0.067832 8.84053 0.08479 8.78965C0.695278 7.16168 1.56014 6.5512 3.34072 6.5512C11.8876 6.5512 20.4344 6.5512 28.9812 6.5512C29.2525 6.5512 29.5239 6.5512 29.9139 6.5512C29.9139 6.1442 29.9139 5.77113 29.9139 5.39805C29.9139 4.5332 29.8969 3.66834 29.9139 2.80348C29.9478 1.32813 31.0671 0.191947 32.4746 0.174989C33.899 0.158031 35.0352 1.31117 35.0691 2.82044C35.1031 4.02445 35.0691 5.22847 35.0691 6.50032C37.8842 6.50032 40.6653 6.50032 43.4633 6.50032C43.5312 6.17812 43.5651 5.83896 43.6668 5.51676C44.0399 4.27882 45.0065 3.43092 46.2953 3.39701C48.2794 3.34613 50.2805 3.32918 52.2645 3.39701C53.689 3.44788 54.7404 4.48232 54.9778 5.88983C55.0117 6.07637 55.0457 6.26291 55.0796 6.51728C55.3 6.53424 55.5374 6.5512 55.7579 6.5512C57.742 6.5512 59.743 6.5512 61.7271 6.5512C63.8469 6.5512 65 7.7213 65 9.85801C65 20.6772 65 31.4795 65 42.2987C65 44.4354 63.8469 45.5885 61.7101 45.6055C60.4553 45.6055 59.2173 45.6055 57.9624 45.6055C57.2332 45.6055 56.8432 45.2833 56.8262 44.7067C56.8093 44.1132 57.2332 43.7231 57.9624 43.7062C59.2512 43.6892 60.5401 43.7062 61.8289 43.7062C62.7276 43.7062 63.0837 43.3501 63.0837 42.4343C63.0837 31.5303 63.0837 20.6433 63.0837 9.7393C63.0837 8.85748 62.7276 8.50137 61.8797 8.46745C61.3879 8.45049 60.9131 8.46745 60.4213 8.46745C60.3705 8.46745 60.3026 8.50137 60.1839 8.53528C60.1839 8.77269 60.1839 9.02706 60.1839 9.26447C60.1839 18.6762 60.1839 28.1048 60.1839 37.5165C60.1839 39.8228 58.9969 41.0098 56.7245 41.0098C51.7558 41.0098 46.7871 41.0098 41.8015 41.0098C39.58 41.0098 38.359 39.7889 38.359 37.5504C38.359 28.1557 38.359 18.761 38.359 9.36622C38.359 9.09489 38.359 8.82357 38.359 8.50137C38.0877 8.48441 37.8672 8.46745 37.6298 8.46745C26.234 8.46745 14.8213 8.46745 3.42551 8.46745C2.17062 8.46745 1.8993 8.73878 1.8993 9.99367C1.8993 20.7281 1.8993 31.4455 1.8993 42.1799C1.8993 43.4348 2.17062 43.7062 3.42551 43.7062C19.8069 43.7062 36.1714 43.7062 52.5528 43.7062C52.7563 43.7062 52.9768 43.6892 53.1803 43.7062C53.7738 43.757 54.1469 44.164 54.1299 44.6897C54.113 45.2324 53.7399 45.5885 53.1294 45.6055C51.4506 45.6224 49.7887 45.6055 48.1098 45.6055C47.8894 45.6055 47.652 45.6055 47.3467 45.6055C47.652 46.3347 47.9063 46.996 48.1777 47.6574C49.7039 51.3712 51.2471 55.068 52.7733 58.7818C53.282 60.0198 52.909 61.3255 51.8915 62.0547C50.9249 62.75 49.5513 62.7161 48.6695 61.8851C48.2794 61.529 47.9911 61.0203 47.7876 60.5285C45.8035 55.7803 43.8364 51.0151 41.8863 46.2329C41.6997 45.7581 41.4793 45.5546 40.9366 45.5716C39.2238 45.6224 37.5111 45.5885 35.7983 45.5885C35.5948 45.5885 35.3913 45.5885 35.1031 45.5885C35.1031 45.8937 35.1031 46.1481 35.1031 46.4025C35.1031 50.8455 35.1031 55.2885 35.1031 59.7315C35.1031 61.2577 34.2382 62.3091 32.8646 62.5126C31.508 62.7161 30.1513 61.7156 29.9817 60.3589C29.9478 60.0537 29.9478 59.7315 29.9478 59.4093C29.9478 55.068 29.9478 50.7268 29.9478 46.4025C29.9478 46.1481 29.9478 45.9107 29.9478 45.6055C27.8111 45.6055 25.7592 45.5885 23.7073 45.6224C23.5547 45.6224 23.3172 45.8937 23.2494 46.0972C22.4015 48.0813 21.5875 50.0654 20.7566 52.0665C20.7057 52.2021 20.6548 52.3378 20.587 52.4735C20.3326 52.9822 19.8578 53.1857 19.383 53.0161C18.8743 52.8296 18.6368 52.3208 18.8403 51.7612C19.0947 51.0659 19.4 50.3876 19.6882 49.7093C20.2478 48.3696 20.7905 47.0299 21.3332 45.6903C21.2653 45.6394 21.2484 45.6224 21.2314 45.6224C19.8069 45.4868 19.8069 45.4868 19.2643 46.7925C17.5685 50.9133 15.8557 55.0341 14.1599 59.1549C14.1091 59.2906 14.0582 59.4262 13.9903 59.5619C13.8038 60.0198 13.9564 60.3759 14.3973 60.5455C14.8382 60.715 15.1944 60.5624 15.3809 60.1215C15.9066 58.8666 16.4153 57.6287 16.9241 56.3738C16.9919 56.2042 17.0597 56.0177 17.1615 55.8651C17.4328 55.4411 17.8229 55.2715 18.3146 55.475C18.8064 55.6955 19.0608 56.1025 18.8573 56.6112C18.2468 58.1544 17.6533 59.7315 16.9241 61.2238C16.3306 62.4448 14.7365 62.8857 13.5155 62.2921C12.2437 61.6816 11.6671 60.2063 12.2267 58.8497C13.6342 55.4072 15.0587 51.9817 16.4832 48.5392C16.8732 47.5896 17.2632 46.6399 17.6872 45.6055C17.365 45.6055 17.1445 45.6055 16.9071 45.6055C12.532 45.6055 8.13984 45.5546 3.76467 45.6224C1.93321 45.6563 0.661362 45.0628 0.0169577 43.2992C-2.59011e-07 31.8356 0 20.355 0 8.8914ZM55.0965 8.48441C55.0626 8.67095 55.0117 8.84053 54.9948 9.01011C54.7404 10.5872 53.6381 11.6047 52.0611 11.6386C50.1957 11.6725 48.3303 11.6725 46.4819 11.6386C45.2948 11.6216 44.413 11.062 43.9043 9.99367C43.6838 9.55276 43.599 9.04402 43.4464 8.50137C42.4459 8.50137 41.4114 8.50137 40.3261 8.50137C40.3092 8.72182 40.2922 8.90836 40.2922 9.0949C40.2922 18.5914 40.2922 28.1048 40.2922 37.6013C40.2922 38.7375 40.6822 39.1105 41.8354 39.1105C46.7871 39.1105 51.7388 39.1105 56.6906 39.1105C57.9794 39.1105 58.3186 38.7714 58.3186 37.4995C58.3186 28.0539 58.3186 18.6253 58.3186 9.17968C58.3186 8.95923 58.3186 8.72182 58.3186 8.48441C57.1824 8.48441 56.1479 8.48441 55.0965 8.48441ZM49.263 5.26239C48.3812 5.26239 47.4824 5.24543 46.6006 5.26239C45.8035 5.27935 45.4474 5.66938 45.4305 6.44945C45.4135 7.14473 45.4135 7.84 45.4305 8.53528C45.4474 9.31535 45.8205 9.70538 46.6006 9.72234C48.3812 9.7393 50.1448 9.7393 51.9254 9.72234C52.7224 9.72234 53.1124 9.31535 53.1294 8.50137C53.1464 7.82305 53.1464 7.14473 53.1294 6.46641C53.1124 5.65242 52.7224 5.27935 51.9084 5.26239C51.0266 5.24543 50.1448 5.26239 49.263 5.26239ZM43.7177 45.6563C43.7855 45.8768 43.8534 46.0803 43.9382 46.3007C45.2779 49.5397 46.6175 52.7787 47.9572 56.0177C48.4999 57.3234 49.0425 58.6292 49.5682 59.935C49.7717 60.4268 50.043 60.749 50.6196 60.5624C51.0944 60.4098 51.1962 59.9858 50.9418 59.3414C50.9249 59.2906 50.8909 59.2227 50.874 59.1719C49.1782 55.0511 47.4654 50.9303 45.7696 46.8095C45.227 45.5207 45.227 45.5207 43.8195 45.6224C43.8025 45.6224 43.7855 45.6394 43.7177 45.6563ZM31.8641 45.6394C31.8471 45.8429 31.8302 46.0125 31.8302 46.182C31.8302 50.6589 31.8302 55.1359 31.8302 59.6297C31.8302 59.7993 31.7793 60.0198 31.881 60.1215C32.0506 60.325 32.305 60.5794 32.5254 60.5794C32.7459 60.5794 33.0003 60.325 33.1529 60.1045C33.2546 59.9519 33.2038 59.6976 33.2038 59.4771C33.2038 55.1019 33.2038 50.7268 33.2038 46.3516C33.2038 46.1312 33.2038 45.8938 33.2038 45.6394C32.712 45.6394 32.3219 45.6394 31.8641 45.6394ZM33.1698 6.50032C33.1698 5.21151 33.1868 3.97358 33.1698 2.73565C33.1698 2.32865 32.8985 2.12516 32.5085 2.12516C32.1184 2.12516 31.8471 2.32865 31.8471 2.73565C31.8302 3.97358 31.8471 5.22847 31.8471 6.51728C32.288 6.50032 32.712 6.50032 33.1698 6.50032Z" fill="url(#paint0_linear_32_1387)"/>
<path d="M14.9738 20.7112C14.9908 20.4908 14.9908 20.3551 14.9908 20.2364C15.0247 17.9979 16.11 16.9126 18.3824 16.9126C20.0782 16.9126 21.774 16.9126 23.4528 16.9126C25.4369 16.9126 26.624 18.0997 26.624 20.0668C26.624 20.8977 26.6409 21.7117 26.624 22.5427C26.5901 24.3741 25.403 25.5442 23.5715 25.5442C21.8418 25.5442 20.0951 25.4764 18.3654 25.5612C16.517 25.646 15.1773 24.6285 14.9399 22.6105C14.7195 22.6105 14.499 22.6105 14.2785 22.6105C12.5488 22.6105 10.8022 22.6275 9.07244 22.6105C7.22402 22.5766 5.73172 21.1182 5.6978 19.2528C5.66388 17.8792 5.66388 16.5056 5.6978 15.132C5.74867 13.3175 7.22402 11.8422 9.05548 11.8252C11.7348 11.8083 14.4312 11.8083 17.1105 11.8252C18.1111 11.8252 18.942 12.2661 19.6034 13.0292C20.0104 13.5041 19.9764 14.0128 19.5864 14.3859C19.2133 14.742 18.6368 14.742 18.2298 14.3011C17.8058 13.8602 17.2971 13.6906 16.6866 13.7076C14.2616 13.7245 11.8196 13.7076 9.39464 13.7076C8.19063 13.7076 7.61405 14.3011 7.5971 15.5051C7.5971 16.6752 7.58014 17.8284 7.5971 18.9985C7.61405 20.0838 8.22454 20.6943 9.2929 20.7112C11.1752 20.7112 13.0406 20.7112 14.9738 20.7112ZM20.4852 18.8289C20.2647 21.0504 19.2133 22.4579 16.907 22.6614C17.0088 23.3227 17.331 23.6449 17.9754 23.6449C19.8747 23.6449 21.774 23.6449 23.6733 23.6449C24.3346 23.6449 24.7077 23.3058 24.7247 22.6275C24.7586 21.6948 24.7416 20.7621 24.7247 19.8464C24.7077 19.2867 24.4025 18.8797 23.8429 18.8628C22.7406 18.795 21.6214 18.8289 20.4852 18.8289ZM16.9579 20.6603C17.9754 20.6434 18.6537 19.8124 18.4333 18.8289C17.1105 18.7441 16.7205 19.2359 16.9579 20.6603Z" fill="url(#paint1_linear_32_1387)"/>
<path d="M7.73277 38.6019C8.07193 38.6019 8.3263 38.6019 8.56371 38.6019C14.6516 38.6019 20.7396 38.6019 26.8275 38.6019C27.031 38.6019 27.2514 38.5849 27.4549 38.6019C27.9976 38.6528 28.3198 38.958 28.3367 39.5007C28.3707 40.0433 28.0485 40.3655 27.5397 40.4842C27.3532 40.5182 27.1666 40.5012 26.9631 40.5012C20.3665 40.5012 13.7698 40.5012 7.17316 40.5012C6.07089 40.5012 5.79956 40.2299 5.79956 39.1106C5.79956 36.3804 5.79956 33.6502 5.79956 30.9199C5.79956 30.1399 6.24047 29.7159 6.91879 29.8177C7.44449 29.9025 7.69886 30.2925 7.69886 31.0217C7.69886 33.2771 7.69886 35.5495 7.69886 37.8049C7.73277 38.0423 7.73277 38.2627 7.73277 38.6019Z" fill="url(#paint2_linear_32_1387)"/>
<path d="M25.5558 31.1404C25.4371 31.1404 25.3014 31.1235 25.1827 31.1404C23.8091 31.293 22.5373 31.0217 21.418 30.1908C21.0958 29.9364 20.8415 29.9873 20.5701 30.2925C20.0614 30.8521 19.4848 31.3609 18.9761 31.9205C18.603 32.3275 18.1621 32.5649 17.6364 32.4631C16.178 32.2088 15.1097 32.7684 14.1939 33.9046C13.4478 34.8203 12.549 35.6004 11.7011 36.4313C11.1754 36.957 10.6158 37.0079 10.1918 36.6179C9.76789 36.1939 9.81876 35.6173 10.3784 35.0747C11.7011 33.735 13.0238 32.3953 14.3805 31.0896C14.6687 30.8182 15.1775 30.5639 15.5336 30.6147C17.0937 30.8352 18.1791 30.1908 19.1965 29.0546C20.6549 27.4266 20.5193 27.4097 22.3846 28.5798C23.436 29.2411 24.5213 29.1733 25.6575 29.275C26.8785 29.3768 27.7434 29.0037 28.5743 28.088C29.8122 26.6805 31.2198 25.4086 32.5425 24.0689C33.153 23.4584 33.6956 23.3906 34.1365 23.8485C34.5605 24.2894 34.4926 24.7981 33.9161 25.3917C32.1694 27.1383 30.4058 28.885 28.6761 30.6486C28.3199 31.0048 27.9469 31.1913 27.4381 31.1574C26.7768 31.1235 26.1663 31.1404 25.5558 31.1404Z" fill="url(#paint3_linear_32_1387)"/>
<path d="M28.8795 14.996C27.3194 14.996 25.7593 14.996 24.1822 14.996C23.436 14.996 22.9951 14.6229 22.9951 14.0463C22.9951 13.4698 23.436 13.0967 24.1652 13.0967C27.3194 13.0967 30.4566 13.0967 33.6108 13.0967C34.357 13.0967 34.7809 13.4528 34.7809 14.0463C34.7809 14.6399 34.3739 14.996 33.6108 14.996C32.0507 15.0129 30.4566 14.996 28.8795 14.996Z" fill="url(#paint4_linear_32_1387)"/>
<path d="M32.1184 17.5905C32.661 17.5905 33.2207 17.5736 33.7633 17.5905C34.3908 17.6075 34.7638 17.9467 34.7808 18.4893C34.7977 19.032 34.4586 19.4559 33.8481 19.4729C32.695 19.5068 31.5249 19.5068 30.3717 19.4729C29.7612 19.4559 29.4051 19.032 29.456 18.4893C29.5069 17.9127 29.863 17.6414 30.4226 17.6075C30.4565 17.6075 30.5074 17.6075 30.5413 17.6075C31.067 17.5905 31.5927 17.5905 32.1184 17.5905Z" fill="url(#paint5_linear_32_1387)"/>
<path d="M45.0742 24.5101C45.5999 24.5101 46.1256 24.4932 46.6513 24.5101C47.2448 24.5271 47.6009 24.8662 47.6009 25.4598C47.6179 26.5281 47.6179 27.6134 47.6009 28.6987C47.584 29.3092 47.2448 29.6823 46.6004 29.6823C45.549 29.7162 44.4807 29.7162 43.4293 29.6823C42.8018 29.6654 42.4457 29.3092 42.4288 28.6818C42.3948 27.6304 42.3948 26.562 42.4288 25.5106C42.4457 24.8493 42.8018 24.5101 43.4801 24.4932C44.0228 24.4932 44.5485 24.5101 45.0742 24.5101ZM44.3789 26.4264C44.3789 26.9012 44.3789 27.3082 44.3789 27.7491C44.8198 27.7491 45.2438 27.7491 45.6847 27.7491C45.6847 27.2912 45.6847 26.8673 45.6847 26.4264C45.2438 26.4264 44.8368 26.4264 44.3789 26.4264Z" fill="url(#paint6_linear_32_1387)"/>
<path d="M45.0235 18.8122C44.5147 18.8122 44.006 18.8292 43.4972 18.8122C42.8189 18.7953 42.4628 18.49 42.4458 17.8117C42.4119 16.7603 42.4119 15.6919 42.4458 14.6405C42.4628 13.9792 42.8359 13.64 43.4972 13.6231C44.5317 13.6061 45.5661 13.6061 46.6006 13.6231C47.2789 13.64 47.6011 13.9792 47.618 14.6575C47.635 15.6919 47.635 16.7264 47.618 17.7608C47.6011 18.4561 47.2619 18.7783 46.5497 18.7953C46.0409 18.8122 45.5322 18.8122 45.0235 18.8122ZM45.6848 15.5902C45.2439 15.5902 44.82 15.5902 44.3791 15.5902C44.3791 16.0481 44.3791 16.4551 44.3791 16.879C44.8369 16.879 45.2439 16.879 45.6848 16.879C45.6848 16.4381 45.6848 16.0311 45.6848 15.5902Z" fill="url(#paint7_linear_32_1387)"/>
<path d="M47.6179 34.1926C47.6179 34.7013 47.6349 35.2101 47.6179 35.7188C47.6009 36.3971 47.2787 36.7363 46.6004 36.7533C45.549 36.7702 44.4976 36.7702 43.4293 36.7533C42.8018 36.7363 42.4457 36.3971 42.4288 35.7527C42.3948 34.7013 42.3948 33.65 42.4288 32.5816C42.4457 31.9372 42.7849 31.598 43.4123 31.5811C44.4637 31.5641 45.5151 31.5641 46.5835 31.5811C47.2618 31.598 47.584 31.9372 47.6009 32.6155C47.6349 33.1412 47.6179 33.6669 47.6179 34.1926ZM45.6847 34.8201C45.6847 34.3622 45.6847 33.9382 45.6847 33.5312C45.2268 33.5312 44.8198 33.5312 44.3959 33.5312C44.3959 33.9891 44.3959 34.3961 44.3959 34.8201C44.8368 34.8201 45.2268 34.8201 45.6847 34.8201Z" fill="url(#paint8_linear_32_1387)"/>
<path d="M47.6519 22.6102C46.2953 22.6102 44.9556 22.6102 43.5989 22.6102C42.8697 22.6102 42.4288 22.2202 42.4458 21.6436C42.4627 21.084 42.8867 20.7109 43.582 20.7109C46.3122 20.7109 49.0255 20.7109 51.7557 20.7109C52.434 20.7109 52.875 21.084 52.875 21.6606C52.875 22.2372 52.468 22.6102 51.7727 22.6102C50.3991 22.6102 49.0255 22.6102 47.6519 22.6102Z" fill="url(#paint9_linear_32_1387)"/>
<path d="M52.6547 28.0536C51.8237 28.0536 51.0097 28.0705 50.1788 28.0536C49.5005 28.0366 49.0596 27.6636 49.0596 27.1039C49.0596 26.5274 49.4835 26.1543 50.1618 26.1543C51.8237 26.1543 53.5026 26.1543 55.1644 26.1543C55.8767 26.1543 56.2667 26.5104 56.2667 27.087C56.2667 27.6636 55.8597 28.0366 55.1644 28.0536C54.3335 28.0705 53.4856 28.0536 52.6547 28.0536Z" fill="url(#paint10_linear_32_1387)"/>
<path d="M52.7055 17.1665C51.8407 17.1665 50.9758 17.1835 50.111 17.1665C49.4666 17.1496 49.0596 16.7765 49.0596 16.2338C49.0596 15.7082 49.4496 15.2842 50.0431 15.2842C51.7898 15.2672 53.5534 15.2672 55.3001 15.2842C55.9276 15.3012 56.3006 15.7421 56.2667 16.3017C56.2328 16.8443 55.8767 17.1665 55.2323 17.1665C54.4013 17.1835 53.5534 17.1665 52.7055 17.1665Z" fill="url(#paint11_linear_32_1387)"/>
<path d="M54.2657 33.2426C54.6727 33.2426 55.0627 33.2087 55.4697 33.2426C55.9784 33.2935 56.2667 33.6326 56.2667 34.1414C56.2837 34.6501 56.0124 35.0402 55.5036 35.0741C54.6896 35.1249 53.8587 35.1249 53.0447 35.0741C52.536 35.0402 52.2646 34.6671 52.2646 34.1583C52.2646 33.6496 52.536 33.3104 53.0617 33.2596C53.4687 33.2087 53.8757 33.2426 54.2657 33.2426Z" fill="url(#paint12_linear_32_1387)"/>
<path d="M55.3509 20.6943C55.8935 20.6943 56.3344 21.1013 56.3514 21.627C56.3684 22.1697 55.9105 22.6275 55.3509 22.6275C54.8082 22.6106 54.3843 22.1866 54.3843 21.6609C54.3843 21.1352 54.8252 20.6943 55.3509 20.6943Z" fill="url(#paint13_linear_32_1387)"/>
<path d="M50.9758 34.2096C50.9419 34.7353 50.4671 35.1592 49.9583 35.1253C49.4326 35.0914 49.0087 34.6335 49.0256 34.1078C49.0426 33.5652 49.5513 33.1073 50.077 33.1582C50.6027 33.209 51.0097 33.6839 50.9758 34.2096Z" fill="url(#paint14_linear_32_1387)"/>
<defs>
<linearGradient id="paint0_linear_32_1387" x1="-4.84288e-07" y1="62.5539" x2="67.9817" y2="59.1147" gradientUnits="userSpaceOnUse">
<stop stop-color="#9914B3"/>
<stop offset="1" stop-color="#7023BC"/>
</linearGradient>
<linearGradient id="paint1_linear_32_1387" x1="5.67236" y1="25.5661" x2="27.5294" y2="23.949" gradientUnits="userSpaceOnUse">
<stop stop-color="#9914B3"/>
<stop offset="1" stop-color="#7023BC"/>
</linearGradient>
<linearGradient id="paint2_linear_32_1387" x1="5.79956" y1="40.5054" x2="29.189" y2="38.114" gradientUnits="userSpaceOnUse">
<stop stop-color="#9914B3"/>
<stop offset="1" stop-color="#7023BC"/>
</linearGradient>
<linearGradient id="paint3_linear_32_1387" x1="9.91089" y1="36.8738" x2="35.3956" y2="34.5987" gradientUnits="userSpaceOnUse">
<stop stop-color="#9914B3"/>
<stop offset="1" stop-color="#7023BC"/>
</linearGradient>
<linearGradient id="paint4_linear_32_1387" x1="22.9951" y1="15.0035" x2="34.3323" y2="11.6015" gradientUnits="userSpaceOnUse">
<stop stop-color="#9914B3"/>
<stop offset="1" stop-color="#7023BC"/>
</linearGradient>
<linearGradient id="paint5_linear_32_1387" x1="29.4512" y1="19.4983" x2="34.94" y2="18.7567" gradientUnits="userSpaceOnUse">
<stop stop-color="#9914B3"/>
<stop offset="1" stop-color="#7023BC"/>
</linearGradient>
<linearGradient id="paint6_linear_32_1387" x1="42.4033" y1="29.7077" x2="47.8538" y2="29.4433" gradientUnits="userSpaceOnUse">
<stop stop-color="#9914B3"/>
<stop offset="1" stop-color="#7023BC"/>
</linearGradient>
<linearGradient id="paint7_linear_32_1387" x1="42.4204" y1="18.8198" x2="47.8709" y2="18.5551" gradientUnits="userSpaceOnUse">
<stop stop-color="#9914B3"/>
<stop offset="1" stop-color="#7023BC"/>
</linearGradient>
<linearGradient id="paint8_linear_32_1387" x1="42.4033" y1="36.766" x2="47.866" y2="36.4995" gradientUnits="userSpaceOnUse">
<stop stop-color="#9914B3"/>
<stop offset="1" stop-color="#7023BC"/>
</linearGradient>
<linearGradient id="paint9_linear_32_1387" x1="42.4453" y1="22.6102" x2="52.6556" y2="19.8882" gradientUnits="userSpaceOnUse">
<stop stop-color="#9914B3"/>
<stop offset="1" stop-color="#7023BC"/>
</linearGradient>
<linearGradient id="paint10_linear_32_1387" x1="49.0596" y1="28.0611" x2="56.3704" y2="26.7196" gradientUnits="userSpaceOnUse">
<stop stop-color="#9914B3"/>
<stop offset="1" stop-color="#7023BC"/>
</linearGradient>
<linearGradient id="paint11_linear_32_1387" x1="49.0596" y1="17.1741" x2="56.3714" y2="15.829" gradientUnits="userSpaceOnUse">
<stop stop-color="#9914B3"/>
<stop offset="1" stop-color="#7023BC"/>
</linearGradient>
<linearGradient id="paint12_linear_32_1387" x1="52.2646" y1="35.1122" x2="56.4177" y2="34.684" gradientUnits="userSpaceOnUse">
<stop stop-color="#9914B3"/>
<stop offset="1" stop-color="#7023BC"/>
</linearGradient>
<linearGradient id="paint13_linear_32_1387" x1="54.3843" y1="22.6275" x2="56.4424" y2="22.5259" gradientUnits="userSpaceOnUse">
<stop stop-color="#9914B3"/>
<stop offset="1" stop-color="#7023BC"/>
</linearGradient>
<linearGradient id="paint14_linear_32_1387" x1="49.0251" y1="35.1272" x2="51.0679" y2="35.029" gradientUnits="userSpaceOnUse">
<stop stop-color="#9914B3"/>
<stop offset="1" stop-color="#7023BC"/>
</linearGradient>
</defs>
</svg>
