<svg width="65" height="71" viewBox="0 0 65 71" fill="none" xmlns="http://www.w3.org/2000/svg">
<path d="M19.5995 70.1747C18.5022 69.529 18.3353 69.0538 18.7815 67.824C18.9194 67.4413 19.0481 67.055 19.2041 66.6795C19.712 65.4588 20.6951 64.9183 21.952 64.7841C22.7519 64.6988 23.5863 64.9582 24.2719 64.1855C25.1806 63.1607 25.9279 62.0761 26.0893 60.6994C26.1764 59.9485 26.1057 59.1776 26.1057 58.3414C25.7012 58.3414 25.4345 58.3414 25.1679 58.3414C18.0378 58.3414 10.9078 58.3414 3.7777 58.3414C1.30186 58.3414 0.00136035 57.05 0.00136035 54.5832C-0.000453451 42.6792 -0.000453451 30.7752 0.00136035 18.8712C0.00136035 16.4208 1.27647 15.1457 3.71603 15.1438C5.5897 15.142 7.46517 15.1438 9.44222 15.1438C9.44222 14.8228 9.44222 14.5616 9.44222 14.3004C9.44222 10.8143 9.4404 7.32997 9.44222 3.84383C9.44403 1.74889 10.5359 0.647906 12.6091 0.647906C18.8559 0.646092 25.1044 0.658789 31.3512 0.640651C33.3826 0.635209 34.8573 1.49677 35.8186 3.27792C36.1922 3.9708 36.457 4.90128 37.0502 5.25134C37.6433 5.5996 38.5846 5.36924 39.3736 5.37287C41.1838 5.38013 42.9958 5.37106 44.806 5.3765C45.566 5.37831 46.014 5.73926 46.0376 6.34144C46.063 6.95814 45.5787 7.40252 44.8114 7.40615C42.0726 7.41703 39.3337 7.41159 36.5949 7.41159C28.5144 7.41159 20.4339 7.41159 12.3516 7.41159C12.0867 7.41159 11.8219 7.41159 11.4791 7.41159C11.4791 7.73082 11.4791 7.97387 11.4791 8.21692C11.4791 18.8984 11.4791 29.5817 11.4791 40.2632C11.4791 41.308 11.548 41.3751 12.5964 41.3751C25.8608 41.3751 39.1252 41.3751 52.3895 41.3751C53.447 41.3751 53.5195 41.3062 53.5195 40.2741C53.5195 29.6833 53.5195 19.0907 53.5195 8.49987C53.5195 7.46237 53.4705 7.4134 52.4603 7.41159C51.4191 7.40977 50.378 7.42066 49.3369 7.40796C48.5297 7.39708 48.0944 7.02162 48.0962 6.37409C48.098 5.71749 48.5134 5.38194 49.3478 5.3765C50.4796 5.37106 51.6114 5.37106 52.7432 5.3765C54.5298 5.38194 55.5473 6.40311 55.5546 8.20966C55.5637 10.2466 55.5564 12.2835 55.5564 14.3204C55.5564 14.5652 55.5564 14.8101 55.5564 15.1438C56.2475 15.1438 56.8732 15.1438 57.5008 15.1438C58.814 15.1438 60.1272 15.1402 61.4386 15.1457C63.6569 15.1547 64.9937 16.4697 64.9955 18.6898C65.0027 26.248 64.9991 33.8079 64.9991 41.366C64.9991 45.779 65.0009 50.192 64.9973 54.605C64.9955 57.0282 63.6841 58.3414 61.2681 58.3433C57.1707 58.3451 53.0733 58.3433 48.9777 58.3433C48.8417 58.3433 48.7057 58.3487 48.5696 58.3396C47.9022 58.2943 47.4523 57.8644 47.4668 57.2912C47.4814 56.7108 47.9276 56.3136 48.6186 56.3118C51.1997 56.3027 53.7789 56.3082 56.3599 56.3082C58.0341 56.3082 59.71 56.3136 61.3842 56.3063C62.5069 56.3027 62.9531 55.862 62.9567 54.7428C62.964 52.55 62.9586 50.3552 62.9586 48.1061C42.6512 48.1061 22.3874 48.1061 2.03282 48.1061C2.03282 48.6466 2.03282 49.1817 2.03282 49.7168C2.03282 51.3456 2.03101 52.9762 2.03464 54.605C2.03826 55.9019 2.44274 56.3045 3.74506 56.3045C17.0548 56.3063 30.3645 56.3045 43.6742 56.3045C43.9009 56.3045 44.1276 56.2973 44.3525 56.3082C45.0091 56.3408 45.4045 56.7145 45.4118 57.2985C45.4191 57.8789 45.0273 58.2997 44.3834 58.3306C43.6832 58.3632 42.9795 58.3414 42.2794 58.3414C41.2183 58.3414 40.1554 58.3414 39.0272 58.3414C38.7334 59.5821 38.7769 60.7701 39.2285 61.9364C39.6294 62.9739 40.2896 63.8282 41.1566 64.5138C41.3471 64.6644 41.6373 64.7278 41.8894 64.7569C42.4716 64.8222 43.072 64.7768 43.6433 64.8929C44.6573 65.0979 45.4009 65.6946 45.7945 66.6741C45.9469 67.0513 46.0793 67.4359 46.2171 67.8186C46.6633 69.0501 46.4983 69.5272 45.4009 70.1747C36.8035 70.1747 28.2024 70.1747 19.5995 70.1747ZM55.56 20.7576C55.56 21.1022 55.56 21.3706 55.56 21.6409C55.56 27.8858 55.56 34.1308 55.56 40.3757C55.56 42.4253 54.5715 43.412 52.5256 43.412C39.1741 43.412 25.8209 43.412 12.4695 43.412C10.4289 43.412 9.44585 42.4235 9.44585 40.3648C9.44403 34.0963 9.44585 27.8296 9.44585 21.5611C9.44585 21.2999 9.44585 21.0387 9.44585 20.7703C8.11451 20.7703 6.88294 20.7703 5.63141 20.7703C5.63141 29.1936 5.63141 37.5734 5.63141 45.9568C23.579 45.9568 41.4849 45.9568 59.3582 45.9568C59.3582 37.5189 59.3582 29.1374 59.3582 20.7576C58.083 20.7576 56.866 20.7576 55.56 20.7576ZM28.0936 58.3741C28.4346 60.7302 27.9684 62.8324 26.5301 64.7079C30.5658 64.7079 34.4818 64.7079 38.4958 64.7079C36.983 62.7889 36.5985 60.6649 36.896 58.3741C33.9268 58.3741 31.0628 58.3741 28.0936 58.3741ZM9.4005 18.6916C9.4005 18.1656 9.4005 17.7067 9.4005 17.1807C7.48694 17.1807 5.61509 17.1789 3.74143 17.1807C2.42098 17.1826 2.04008 17.5562 2.04008 18.8658C2.03826 27.6682 2.03826 36.4706 2.04008 45.273C2.04008 45.5106 2.06184 45.7464 2.07091 45.9713C2.59873 45.9713 3.0413 45.9713 3.55098 45.9713C3.55098 45.6666 3.55098 45.3999 3.55098 45.1333C3.55098 36.8061 3.55098 28.4789 3.55098 20.1518C3.55098 18.9492 3.81217 18.6916 5.02923 18.6916C6.47302 18.6916 7.91499 18.6916 9.4005 18.6916ZM55.6126 18.6916C57.0764 18.6916 58.5184 18.6916 59.9622 18.6916C61.2046 18.6916 61.4549 18.9456 61.4549 20.2062C61.4549 28.5334 61.4549 36.8605 61.4549 45.1859C61.4549 45.4489 61.4549 45.7101 61.4549 45.9785C62.0009 45.9785 62.4453 45.9785 62.9314 45.9785C62.944 45.7953 62.9658 45.643 62.9658 45.4906C62.9676 36.5522 62.9694 27.6156 62.964 18.6771C62.964 17.6233 62.5232 17.188 61.4821 17.1826C59.6937 17.1735 57.9071 17.1789 56.1187 17.1826C55.9464 17.1826 55.7741 17.217 55.5619 17.2406C55.5619 17.5979 55.5582 17.9117 55.5637 18.2255C55.5655 18.3579 55.5891 18.4867 55.6126 18.6916ZM44.1004 68.1142C43.841 67.0604 43.5835 66.8083 42.6856 66.8083C35.9002 66.801 29.1148 66.801 22.3293 66.8083C21.397 66.8083 21.0959 67.1094 20.9309 68.1142C28.6432 68.1142 36.3518 68.1142 44.1004 68.1142ZM11.4864 5.33115C15.3988 5.33115 19.1987 5.33115 23.1401 5.33115C22.7338 4.66911 22.478 3.998 22.0065 3.56088C21.5603 3.14552 20.8946 2.75011 20.3142 2.73016C17.6533 2.64128 14.987 2.68844 12.3225 2.68844C11.802 2.68844 11.5154 2.97139 11.4936 3.47382C11.4664 4.076 11.4864 4.68 11.4864 5.33115ZM23.998 2.72653C24.4714 3.57902 24.9212 4.39704 25.3856 5.20781C25.4309 5.28762 25.5615 5.3638 25.654 5.36561C26.697 5.3765 27.7399 5.37287 28.8227 5.37287C27.7889 2.90791 27.0271 2.49255 23.998 2.72653ZM34.5362 5.37468C33.769 3.03306 32.5465 2.36739 29.775 2.75555C30.2176 3.55544 30.6347 4.34263 31.09 5.10805C31.1716 5.24409 31.4074 5.35836 31.5743 5.36199C32.541 5.38738 33.5078 5.37468 34.5362 5.37468Z" fill="url(#paint0_linear_32_1377)"/>
<path d="M16.5958 21.8754C16.6085 20.2665 18.1139 19.1619 19.7028 19.5519C20.0057 19.6262 20.4157 19.5827 20.6805 19.4285C22.1823 18.5507 23.6642 17.6365 25.1297 16.6969C25.3456 16.5591 25.5306 16.2344 25.5632 15.9769C25.712 14.8033 26.5155 13.92 27.6818 13.7368C28.7301 13.5718 29.7531 14.1866 30.261 15.2187C30.3771 15.4545 30.6528 15.6975 30.9013 15.7665C32.0549 16.0821 33.2211 16.3614 34.3947 16.5954C34.6395 16.6443 35.0041 16.5283 35.1891 16.3559C35.9545 15.6431 36.798 15.4128 37.8101 15.7012C38.015 15.7592 38.3433 15.6921 38.5029 15.5524C40.1263 14.1431 41.7315 12.7156 43.3222 11.27C43.4836 11.1231 43.5907 10.813 43.5743 10.588C43.4982 9.45442 44.0242 8.48947 45.0109 8.05597C45.9813 7.62791 47.084 7.86915 47.7969 8.6636C48.4952 9.43991 48.6131 10.5989 48.0853 11.504C47.5448 12.4309 46.5435 12.8335 45.4063 12.6449C45.1669 12.605 44.8277 12.7029 44.6427 12.8626C43.003 14.2864 41.3778 15.7284 39.7762 17.1921C39.5803 17.3717 39.4552 17.7163 39.4407 17.9938C39.379 19.1293 38.6825 20.0652 37.6251 20.3427C36.5404 20.6275 35.512 20.1758 34.879 19.2127C34.7175 18.966 34.4128 18.7375 34.1298 18.6613C32.9092 18.3312 31.6776 18.0392 30.4388 17.7852C30.1848 17.7326 29.8275 17.8269 29.6153 17.9847C28.8227 18.5779 28.001 18.7212 27.0596 18.4037C26.8093 18.3203 26.4411 18.3276 26.2217 18.4563C24.7597 19.3143 23.3286 20.223 21.8758 21.0972C21.5584 21.2895 21.4205 21.4745 21.426 21.8899C21.4423 23.2883 20.3413 24.3385 18.9682 24.3167C17.626 24.2986 16.5849 23.2285 16.5958 21.8754ZM46.5363 10.2652C46.266 10.0911 46.0955 9.8988 45.974 9.92419C45.8343 9.95321 45.6711 10.1691 45.6457 10.3232C45.6312 10.4157 45.8652 10.6425 45.9813 10.637C46.13 10.6316 46.2715 10.4538 46.5363 10.2652ZM28.5506 16.1292C28.2803 15.9605 28.108 15.7683 27.9774 15.7955C27.8396 15.8227 27.6818 16.0458 27.6509 16.2072C27.6346 16.287 27.8849 16.5138 28.0028 16.5047C28.1552 16.4938 28.2966 16.3142 28.5506 16.1292ZM36.9975 17.4479C36.8161 17.7199 36.6402 17.8687 36.6402 18.0192C36.6383 18.1389 36.8741 18.3729 36.9612 18.3548C37.1172 18.3221 37.3276 18.1516 37.353 18.0101C37.3747 17.885 37.1789 17.7199 36.9975 17.4479Z" fill="url(#paint1_linear_32_1377)"/>
<path d="M49.6325 28.1671C49.6325 31.1327 49.6343 34.0965 49.6325 37.062C49.6306 38.4478 49.0357 39.0445 47.6518 39.0536C46.52 39.059 45.3882 39.0627 44.2563 39.0518C42.9903 39.0409 42.3391 38.4333 42.3355 37.1944C42.3246 31.1508 42.3228 25.109 42.3373 19.0654C42.3391 17.8883 42.9867 17.268 44.1584 17.2535C45.3809 17.2371 46.6034 17.2371 47.8259 17.2535C48.9994 17.268 49.627 17.8992 49.6306 19.0691C49.6379 22.1018 49.6325 25.1344 49.6325 28.1671ZM44.4105 36.9732C45.4807 36.9732 46.5055 36.9732 47.5448 36.9732C47.5448 31.0674 47.5448 25.2052 47.5448 19.3448C46.4692 19.3448 45.4462 19.3448 44.4105 19.3448C44.4105 25.2487 44.4105 31.0946 44.4105 36.9732Z" fill="url(#paint2_linear_32_1377)"/>
<path d="M24.3535 29.8502C24.3535 27.4306 24.3517 25.0128 24.3553 22.5932C24.3571 21.2619 24.9684 20.6524 26.3069 20.6452C27.4605 20.6397 28.6123 20.6361 29.7659 20.6452C31.0174 20.6561 31.6649 21.2818 31.6667 22.5152C31.674 27.398 31.674 32.2807 31.6667 37.1635C31.6649 38.3969 31.0174 39.0354 29.7749 39.048C28.5996 39.0607 27.4243 39.0607 26.2471 39.048C24.972 39.0354 24.3571 38.3969 24.3553 37.1036C24.3499 34.6877 24.3535 32.268 24.3535 29.8502ZM29.5881 36.9767C29.5881 32.2082 29.5881 27.4796 29.5881 22.7184C28.5162 22.7184 27.4877 22.7184 26.4303 22.7184C26.4303 27.4868 26.4303 32.2173 26.4303 36.9767C27.4986 36.9767 28.5252 36.9767 29.5881 36.9767Z" fill="url(#paint3_linear_32_1377)"/>
<path d="M20.5899 28.143C19.5216 28.143 18.5131 28.143 17.4085 28.143C17.4085 29.2259 17.4139 30.2815 17.4048 31.3353C17.403 31.6038 17.4429 31.9557 17.296 32.1189C17.0348 32.4073 16.663 32.7229 16.3075 32.7646C15.8305 32.8227 15.4115 32.4599 15.4006 31.9448C15.3661 30.4303 15.3534 28.9121 15.4151 27.3976C15.4441 26.6757 16.1316 26.1134 16.9278 26.0916C18.3081 26.0535 19.6902 26.0445 21.0687 26.0916C22.079 26.1261 22.654 26.8081 22.6667 27.9109C22.6866 29.585 22.6721 31.261 22.6721 32.9351C22.6721 34.2937 22.6776 35.6504 22.6703 37.0089C22.6631 38.4418 22.0681 39.044 20.6552 39.0495C19.5234 39.0549 18.3916 39.0603 17.2597 39.0476C15.9973 39.0349 15.3825 38.4183 15.3698 37.1722C15.3661 36.7423 15.3571 36.3124 15.3752 35.8826C15.4024 35.2659 15.7724 34.8795 16.3238 34.8541C16.906 34.8269 17.3395 35.2114 17.394 35.8426C17.4248 36.2 17.3994 36.5627 17.3994 36.9654C18.4841 36.9654 19.5107 36.9654 20.5863 36.9654C20.5899 34.0415 20.5899 31.134 20.5899 28.143Z" fill="url(#paint4_linear_32_1377)"/>
<path d="M40.6506 33.2349C40.6506 34.5463 40.656 35.8559 40.6488 37.1673C40.6415 38.3771 40.023 39.0301 38.8314 39.0482C37.6107 39.0681 36.39 39.0663 35.1711 39.0482C33.9794 39.0301 33.3428 38.3789 33.3373 37.1763C33.3264 34.5554 33.3283 31.9344 33.3373 29.3135C33.341 28.0765 33.983 27.4471 35.2291 27.4362C36.4045 27.4253 37.5798 27.4271 38.7552 27.4362C40.0339 27.4471 40.6452 28.0747 40.6506 29.3715C40.6542 30.6593 40.6506 31.9471 40.6506 33.2349ZM35.4087 36.9659C36.5224 36.9659 37.549 36.9659 38.5575 36.9659C38.5575 34.4466 38.5575 31.9798 38.5575 29.5239C37.4728 29.5239 36.448 29.5239 35.4087 29.5239C35.4087 32.0288 35.4087 34.4792 35.4087 36.9659Z" fill="url(#paint5_linear_32_1377)"/>
<path d="M32.5029 51.1643C32.9092 51.1643 33.3155 51.1407 33.7181 51.1698C34.3022 51.2097 34.6885 51.6305 34.6885 52.1782C34.6885 52.726 34.3022 53.1631 33.7163 53.1849C32.9074 53.2157 32.093 53.2157 31.284 53.1849C30.6981 53.1613 30.3154 52.726 30.3154 52.1764C30.3154 51.6268 30.7 51.226 31.2858 51.1643C31.3312 51.1589 31.3765 51.1607 31.42 51.1607C31.781 51.1607 32.1401 51.1607 32.5011 51.1607C32.5029 51.1607 32.5029 51.1625 32.5029 51.1643Z" fill="url(#paint6_linear_32_1377)"/>
<defs>
<linearGradient id="paint0_linear_32_1377" x1="-4.84288e-07" y1="70.1747" x2="68.0156" y2="67.0879" gradientUnits="userSpaceOnUse">
<stop stop-color="#9914B3"/>
<stop offset="1" stop-color="#7023BC"/>
</linearGradient>
<linearGradient id="paint1_linear_32_1377" x1="16.5957" y1="24.3171" x2="49.6673" y2="21.2153" gradientUnits="userSpaceOnUse">
<stop stop-color="#9914B3"/>
<stop offset="1" stop-color="#7023BC"/>
</linearGradient>
<linearGradient id="paint2_linear_32_1377" x1="42.3269" y1="39.0588" x2="49.9872" y2="38.9343" gradientUnits="userSpaceOnUse">
<stop stop-color="#9914B3"/>
<stop offset="1" stop-color="#7023BC"/>
</linearGradient>
<linearGradient id="paint3_linear_32_1377" x1="24.3523" y1="39.0576" x2="32.0247" y2="38.9095" gradientUnits="userSpaceOnUse">
<stop stop-color="#9914B3"/>
<stop offset="1" stop-color="#7023BC"/>
</linearGradient>
<linearGradient id="paint4_linear_32_1377" x1="15.3643" y1="39.0554" x2="23.0266" y2="38.8461" gradientUnits="userSpaceOnUse">
<stop stop-color="#9914B3"/>
<stop offset="1" stop-color="#7023BC"/>
</linearGradient>
<linearGradient id="paint5_linear_32_1377" x1="33.3298" y1="39.0625" x2="41.0009" y2="38.8281" gradientUnits="userSpaceOnUse">
<stop stop-color="#9914B3"/>
<stop offset="1" stop-color="#7023BC"/>
</linearGradient>
<linearGradient id="paint6_linear_32_1377" x1="30.3154" y1="53.208" x2="34.8523" y2="52.7388" gradientUnits="userSpaceOnUse">
<stop stop-color="#9914B3"/>
<stop offset="1" stop-color="#7023BC"/>
</linearGradient>
</defs>
</svg>
