<svg width="65" height="66" viewBox="0 0 65 66" fill="none" xmlns="http://www.w3.org/2000/svg">
<path d="M0 13.3491C0.338784 12.4514 0.558994 11.4858 1.05023 10.6727C2.28679 8.57228 4.18399 7.3696 6.64017 7.25102C8.85921 7.14939 11.0782 7.2002 13.2973 7.2002C13.9579 7.2002 14.3475 7.57287 14.3475 8.1488C14.3475 8.70779 13.9749 9.06352 13.3142 9.11434C13.1448 9.13128 12.9754 9.11434 12.806 9.11434C11.0105 9.11434 9.21493 9.0974 7.41938 9.11434C6.87732 9.11434 6.31833 9.16515 5.79321 9.30067C3.57417 9.85966 1.93107 11.8585 1.93107 14.1453C1.91413 24.0208 1.91413 33.8964 1.91413 43.755C1.91413 43.8397 1.93107 43.9244 1.94801 44.0769C2.2021 44.0769 2.45619 44.0769 2.69334 44.0769C6.26751 44.0769 9.84168 44.0769 13.4159 44.0769C13.5852 44.0769 13.7546 44.0769 13.924 44.0769C14.7371 44.0938 15.1437 44.4326 15.1267 45.0593C15.1098 45.6692 14.7202 45.9741 13.941 45.9741C10.2482 45.9741 6.53854 45.9741 2.84579 45.9741C2.5917 45.9741 2.35455 45.9741 2.10046 45.9741C2.2021 47.7866 3.96378 49.6668 5.94566 50.0903C6.47078 50.2089 7.02977 50.2258 7.58877 50.2427C15.5333 50.2597 23.4778 50.2427 31.4222 50.2427C31.5916 50.2427 31.761 50.2427 31.9304 50.2427C32.608 50.2597 33.0145 50.6493 33.0145 51.2252C32.9976 51.7842 32.608 52.1399 31.9474 52.1399C30.4736 52.1569 28.983 52.1399 27.5093 52.1399C27.2721 52.1399 27.0519 52.1399 26.7301 52.1399C26.7301 53.1902 26.6962 54.1896 26.747 55.2059C26.7809 55.9513 26.5776 56.5441 26.0525 57.0862C25.4596 57.6791 24.9345 58.3566 24.3247 59.0681C29.8469 59.0681 35.2844 59.0681 40.8235 59.0681C40.1629 58.3058 39.5869 57.5774 38.9433 56.8829C38.5536 56.4594 38.4012 56.019 38.4181 55.46C38.452 54.3929 38.4181 53.3087 38.4181 52.1569C37.7067 52.1569 37.063 52.1569 36.4193 52.1569C35.6401 52.1569 35.1827 51.8012 35.1997 51.1913C35.2166 50.5985 35.657 50.2597 36.4532 50.2597C43.5507 50.2597 50.6483 50.2597 57.7627 50.2597C60.2697 50.2597 62.2686 48.7182 62.9122 46.3467C62.9292 46.262 62.9292 46.1773 62.9631 45.991C62.6751 45.991 62.4041 45.991 62.15 45.991C47.7516 45.991 33.3703 45.991 18.9719 45.991C18.7009 45.991 18.4129 45.991 18.1419 45.9571C17.6507 45.8894 17.3796 45.5675 17.3627 45.0932C17.3288 44.602 17.5829 44.2293 18.0911 44.1277C18.379 44.0769 18.684 44.0769 18.9719 44.0769C33.3703 44.0769 47.7516 44.0769 62.15 44.0769C62.4379 44.0769 62.7259 44.0769 63.0816 44.0769C63.0816 43.7889 63.0816 43.5518 63.0816 43.3315C63.0816 33.7778 63.0816 24.2241 63.0816 14.6704C63.0816 11.2995 60.8965 9.11434 57.5425 9.11434C55.747 9.11434 53.9514 9.11434 52.1558 9.11434C51.9017 9.11434 51.5799 9.16515 51.4275 9.02964C51.1564 8.79249 50.8515 8.43677 50.8346 8.11492C50.8346 7.84389 51.2072 7.53899 51.4444 7.2849C51.5291 7.2002 51.7324 7.21714 51.8679 7.21714C54.07 7.23408 56.2721 7.16633 58.4572 7.26796C61.9467 7.43735 64.8264 10.4356 64.9788 13.942C65.0127 14.8228 64.9958 15.7206 64.9958 16.6015C64.9958 26.0366 64.9958 35.4548 64.9958 44.89C64.9958 48.3794 62.8275 51.1913 59.5244 51.9705C58.8976 52.123 58.237 52.1738 57.5764 52.1738C52.105 52.1908 46.6337 52.1908 41.1623 52.1908C40.9251 52.1908 40.7049 52.1908 40.3831 52.1908C40.3831 53.3257 40.3831 54.4437 40.4 55.5447C40.4 55.6633 40.5355 55.7988 40.6372 55.9004C41.4841 56.8829 42.2972 57.8654 43.1781 58.814C43.3474 59.0003 43.6693 59.102 43.9234 59.1358C44.3807 59.2205 44.855 59.1528 45.2955 59.2713C46.3965 59.5593 47.091 60.2877 47.2773 61.4226C47.379 62.0155 47.379 62.6423 47.2943 63.2521C47.1249 64.658 46.0238 65.6066 44.6179 65.6236C42.4835 65.6405 40.3492 65.6236 38.2149 65.6236C32.4386 65.6236 26.6793 65.6066 20.903 65.6405C19.6156 65.6405 18.5484 65.2678 18.0572 64.0482C17.5321 62.7778 17.4982 61.4396 18.3452 60.2369C18.9042 59.4407 19.7511 59.0681 20.7167 59.1528C21.5297 59.2375 22.0549 58.9495 22.5292 58.3228C23.139 57.5097 23.8674 56.7982 24.4941 56.0021C24.6974 55.748 24.8329 55.3753 24.8498 55.0535C24.9006 54.1218 24.8668 53.1902 24.8668 52.1738C24.5788 52.1738 24.3417 52.1738 24.0876 52.1738C18.5993 52.1738 13.094 52.1738 7.60571 52.1738C3.65887 52.1738 0.982474 49.9887 0.169392 46.1096C0.152453 46.0588 0.118575 46.0079 0.0846961 45.9402C0 35.0821 0 24.2072 0 13.3491ZM32.4047 63.7094C36.3346 63.7094 40.2645 63.7094 44.1944 63.6925C44.5163 63.6925 45.0752 63.54 45.1261 63.3706C45.2785 62.7778 45.3463 62.1341 45.2446 61.5412C45.143 60.9991 44.5501 61.033 44.0758 61.033C38.9094 61.033 33.726 61.033 28.5595 61.033C25.9678 61.033 23.3592 61.0161 20.7675 61.05C20.4456 61.05 19.8866 61.2024 19.8358 61.3888C19.6834 61.9816 19.6156 62.6253 19.7172 63.2182C19.8189 63.7602 20.4118 63.7094 20.8861 63.7094C24.7143 63.7094 28.5595 63.7094 32.4047 63.7094Z" fill="url(#paint0_linear_32_1368)"/>
<path d="M32.5232 14.7207C35.8433 14.7207 38.6383 17.1938 38.9432 20.5139C39.0109 21.1745 39.2481 21.4964 39.824 21.7844C42.9069 23.3428 45.9899 24.952 49.0389 26.5612C49.4455 26.7645 49.6996 26.7306 50.0384 26.4765C51.0378 25.7312 52.0711 25.0367 53.0705 24.2914C53.6972 23.834 54.324 23.7662 55.0185 24.1389C56.8818 25.1214 58.762 26.07 60.6423 27.0525C61.7772 27.6453 61.9636 28.7125 61.0997 29.6611C60.5237 30.3048 59.9309 30.9485 59.338 31.5752C59.0839 31.8293 59.0161 32.0156 59.2194 32.3883C60.2188 34.2516 59.1178 36.3182 57.0173 36.5723C56.6785 36.6062 56.543 36.7417 56.4922 37.0466C56.3228 37.9444 56.1195 38.8252 55.9163 39.706C55.6452 40.9087 54.6628 41.383 53.5617 40.824C51.6645 39.8585 49.7843 38.8591 47.8871 37.8935C47.2095 37.5548 46.9046 37.0296 46.9215 36.2674C46.9385 34.98 46.9215 33.6926 46.9385 32.4052C46.9385 32.0495 46.8368 31.8462 46.515 31.6769C43.2627 30.0168 40.0273 28.3229 36.7749 26.6628C36.5886 26.5612 36.2329 26.5782 36.0635 26.6798C31.7271 29.2715 26.5098 26.6459 26.0694 21.615C25.7475 17.973 28.7796 14.7207 32.5232 14.7207ZM57.6949 33.7434C57.6779 33.2014 57.3053 32.9473 56.8649 32.7271C49.4963 28.9158 42.1447 25.1044 34.7931 21.2931C34.1832 20.9713 33.5734 20.6325 32.9297 20.3445C32.4216 20.1074 31.9134 20.3106 31.6932 20.768C31.456 21.2254 31.6085 21.7166 32.0828 22.0215C32.2014 22.1062 32.3369 22.157 32.4724 22.2248C38.8585 25.5279 45.2446 28.8311 51.6306 32.1512C53.1552 32.9304 54.6628 33.7265 56.1873 34.5057C56.9326 34.8953 57.6949 34.5057 57.6949 33.7434ZM36.9782 20.2768C36.5886 18.3288 34.9455 16.855 33.0822 16.6518C31.0326 16.4316 29.1184 17.5496 28.3223 19.4129C27.5431 21.2423 28.0682 23.4105 29.5758 24.7148C30.8123 25.782 32.9975 26.1716 34.2171 25.3755C34.1832 25.3416 34.1663 25.3077 34.1324 25.2908C33.2347 24.8165 32.3199 24.3761 31.4391 23.8679C31.0326 23.6307 30.6091 23.3428 30.3042 22.987C29.4233 21.9537 29.4572 20.48 30.3042 19.4129C31.1172 18.3965 32.5232 18.0577 33.7428 18.6337C34.7931 19.1249 35.8263 19.6839 36.9782 20.2768ZM54.7983 35.9455C52.8164 34.9122 50.8684 33.9128 48.8357 32.8626C48.8357 33.9637 48.8187 34.9292 48.8526 35.8947C48.8526 36.0472 48.9712 36.2674 49.1067 36.3351C50.7667 37.216 52.4268 38.0629 54.1546 38.9607C54.3579 37.9444 54.5611 36.9958 54.7983 35.9455ZM59.5074 28.6109C57.7796 27.7131 56.1195 26.8492 54.4425 26.0022C54.324 25.9345 54.1038 25.9345 53.9852 26.0192C53.1552 26.5782 52.3421 27.171 51.4612 27.7978C53.4939 28.848 55.442 29.8644 57.4069 30.8807C58.1014 30.1184 58.779 29.3901 59.5074 28.6109Z" fill="url(#paint1_linear_32_1368)"/>
<path d="M14.0426 21.1916C14.1103 30.6098 21.2926 38.5543 30.6769 39.5029C35.2166 39.9603 39.3498 38.8592 43.0933 36.2675C43.9403 35.6746 44.4654 35.6577 44.855 36.2167C45.2277 36.7587 45.0244 37.25 44.2113 37.809C32.0659 46.3633 15.1267 39.3504 12.535 24.6811C10.5023 13.1794 18.7178 2.25357 30.3381 1.01701C41.1453 -0.134861 50.9531 7.36921 52.5962 18.0917C52.7826 19.2605 52.7995 20.4463 52.8334 21.632C52.8503 22.2418 52.4099 22.6145 51.8848 22.5976C51.3258 22.5976 50.987 22.208 50.9531 21.5473C50.9531 21.4457 50.9531 21.3441 50.9531 21.2255C50.9193 18.4813 50.3772 15.8558 49.1915 13.3826C45.8544 6.35286 38.5706 2.15193 30.8124 2.88032C22.7155 3.64258 16.1092 9.62213 14.5 17.5497C14.2628 18.7524 14.195 19.972 14.0426 21.1916Z" fill="url(#paint2_linear_32_1368)"/>
<path d="M32.4555 5.54004C41.4672 5.57392 48.5986 13.1627 48.0735 22.1743C48.0226 22.9027 47.65 23.3093 47.0402 23.2754C46.4642 23.2415 46.1424 22.835 46.1763 22.1066C46.3626 17.6008 44.8719 13.7725 41.4333 10.842C37.3848 7.38641 32.7096 6.50557 27.7464 8.35195C22.6816 10.2322 19.7342 14.0096 18.9041 19.3794C18.5315 21.8356 18.8872 24.224 19.8358 26.5108C19.9374 26.7649 20.0391 27.0359 20.0221 27.29C19.9882 27.7643 19.6664 28.0692 19.1921 28.12C18.6839 28.1708 18.3621 27.8998 18.1588 27.4424C17.4474 25.8163 17.0069 24.1224 16.9053 22.3607C16.3971 14.1452 21.8516 7.20008 29.9485 5.76025C30.7616 5.64167 31.6085 5.6078 32.4555 5.54004Z" fill="url(#paint3_linear_32_1368)"/>
<path d="M21.6145 21.4626C21.6145 15.5508 26.0018 10.7739 31.6086 10.3166C37.3341 9.85923 42.4328 13.8908 43.3136 19.5654C43.4153 20.2091 43.0934 20.7173 42.5344 20.802C42.0093 20.8867 41.5689 20.5479 41.4503 19.9042C40.7728 16.2961 38.757 13.7722 35.2506 12.6373C31.8288 11.5362 28.6951 12.3154 26.1542 14.8732C23.5794 17.4819 22.8511 20.6664 24.0368 24.1051C25.2056 27.4929 27.6957 29.5087 31.2529 30.1016C33.0993 30.4065 34.861 30.0846 36.538 29.2546C36.9953 29.0344 37.4357 28.9836 37.8084 29.3732C38.2827 29.8475 38.1133 30.5928 37.4357 30.9316C35.5724 31.8633 33.6075 32.2867 31.5409 32.0496C26.4083 31.4906 22.6647 27.9503 21.75 22.8855C21.6653 22.3434 21.6484 21.7675 21.6145 21.4626Z" fill="url(#paint4_linear_32_1368)"/>
<path d="M32.0999 36.8262C27.7804 36.7246 23.8675 34.9968 20.7507 31.5242C20.1747 30.8975 20.1578 30.3385 20.6321 29.9319C21.0894 29.5423 21.6146 29.644 22.1566 30.2368C25.0702 33.4384 28.6782 35.0306 33.0147 34.8951C35.9282 34.8104 38.5368 33.828 40.8575 32.0493C41.6367 31.4565 42.1788 31.4057 42.5684 31.88C42.9918 32.3881 42.8055 32.9641 42.0263 33.5569C39.1805 35.7252 35.996 36.8093 32.0999 36.8262Z" fill="url(#paint5_linear_32_1368)"/>
<defs>
<linearGradient id="paint0_linear_32_1368" x1="-4.84288e-07" y1="65.6405" x2="67.9576" y2="61.9717" gradientUnits="userSpaceOnUse">
<stop stop-color="#9914B3"/>
<stop offset="1" stop-color="#7023BC"/>
</linearGradient>
<linearGradient id="paint1_linear_32_1368" x1="26.0459" y1="41.0573" x2="63.208" y2="38.6189" gradientUnits="userSpaceOnUse">
<stop stop-color="#9914B3"/>
<stop offset="1" stop-color="#7023BC"/>
</linearGradient>
<linearGradient id="paint2_linear_32_1368" x1="12.2256" y1="41.5186" x2="54.7053" y2="39.4568" gradientUnits="userSpaceOnUse">
<stop stop-color="#9914B3"/>
<stop offset="1" stop-color="#7023BC"/>
</linearGradient>
<linearGradient id="paint3_linear_32_1368" x1="16.8726" y1="28.1261" x2="49.4699" y2="25.938" gradientUnits="userSpaceOnUse">
<stop stop-color="#9914B3"/>
<stop offset="1" stop-color="#7023BC"/>
</linearGradient>
<linearGradient id="paint4_linear_32_1368" x1="21.6145" y1="32.1144" x2="44.3337" y2="31.0172" gradientUnits="userSpaceOnUse">
<stop stop-color="#9914B3"/>
<stop offset="1" stop-color="#7023BC"/>
</linearGradient>
<linearGradient id="paint5_linear_32_1368" x1="20.2959" y1="36.8262" x2="43.3405" y2="33.2946" gradientUnits="userSpaceOnUse">
<stop stop-color="#9914B3"/>
<stop offset="1" stop-color="#7023BC"/>
</linearGradient>
</defs>
</svg>
