<svg width="55" height="66" viewBox="0 0 55 66" fill="none" xmlns="http://www.w3.org/2000/svg">
<path d="M21.7402 65.5193C19.7561 64.7223 19.2304 63.9422 19.2304 61.7716C19.2304 60.805 19.2304 59.8384 19.2304 58.787C19.1965 58.77 19.0947 58.7361 18.976 58.7022C17.5515 58.2443 16.7376 57.1929 16.7036 55.7006C16.6867 54.8188 16.6867 53.9201 16.7036 53.0382C16.7545 51.1729 18.0433 49.918 19.9087 49.918C24.8604 49.918 29.8122 49.918 34.7639 49.918C36.5954 49.918 37.8842 51.1559 37.952 52.9874C37.9859 53.9201 37.9859 54.8527 37.952 55.7854C37.9011 57.3456 37.1041 58.2613 35.4253 58.8209C35.4253 59.8214 35.4253 60.805 35.4253 61.8055C35.4253 63.9592 34.8996 64.7562 32.9155 65.5532C29.1847 65.5193 25.454 65.5193 21.7402 65.5193ZM27.2685 56.6164C29.7274 56.6164 32.1693 56.6164 34.6282 56.6164C35.4253 56.6164 35.6966 56.3281 35.7136 55.548C35.7136 54.8358 35.7136 54.1066 35.7136 53.3944C35.7136 52.343 35.5101 52.1395 34.4587 52.1225C31.3893 52.1225 28.3199 52.1225 25.2674 52.1225C23.5547 52.1225 21.8419 52.1225 20.1292 52.1225C19.1965 52.1225 18.9591 52.3599 18.9591 53.2756C18.9591 53.9709 18.9591 54.6662 18.9591 55.3615C18.9591 56.345 19.1965 56.5994 20.197 56.5994C22.5372 56.6164 24.8943 56.6164 27.2685 56.6164ZM27.3024 63.2978C28.9134 63.2978 30.5074 63.2978 32.1185 63.2978C32.9155 63.2978 33.1699 63.0265 33.1699 62.2295C33.1699 61.4324 33.1868 60.6185 33.1699 59.8214C33.1529 59.1431 32.8816 58.8379 32.2202 58.8379C28.9473 58.8209 25.6744 58.8209 22.4015 58.8379C21.7741 58.8379 21.4858 59.1601 21.4688 59.7875C21.4519 60.5845 21.4688 61.3985 21.4688 62.1956C21.4688 63.0435 21.7062 63.2978 22.5541 63.2978C24.1312 63.2978 25.7253 63.2978 27.3024 63.2978Z" fill="url(#paint0_linear_32_1405)"/>
<path d="M27.3195 39.7273C25.7763 41.1178 24.0805 41.457 22.1981 40.5752C21.1976 40.1004 20.5193 39.3033 20.1462 38.2689C20.0445 37.9806 19.9258 37.8449 19.5866 37.811C16.1611 37.5567 14.2448 33.8937 15.4828 31.1974C15.5506 31.0448 15.4658 30.7565 15.3471 30.6208C12.9221 28.0771 13.1765 24.6516 15.9746 22.4301C16.1272 22.3114 16.2459 22.057 16.2459 21.8705C16.3307 19.5303 17.399 18.038 19.6205 17.1562C19.7731 17.1053 19.9427 16.9527 19.9936 16.8001C21.3333 13.3746 24.4027 12.5436 27.3195 14.8838C27.4721 14.7651 27.6417 14.6464 27.7943 14.5107C30.2023 12.6114 33.6617 13.6628 34.5605 16.5966C34.6623 16.9357 34.8318 17.1053 35.171 17.224C37.1551 17.9363 38.3421 19.649 38.393 21.7688C38.393 22.0062 38.5626 22.3284 38.7491 22.464C41.3946 24.482 41.6829 28.1619 39.3257 30.5191C39.1053 30.7395 39.0205 30.8922 39.1392 31.2144C40.2923 34.2668 38.3761 37.3871 35.1201 37.7771C34.8488 37.811 34.6453 37.811 34.5096 38.1502C33.3226 41.1518 29.9649 41.9488 27.506 39.829C27.4721 39.846 27.4212 39.8121 27.3195 39.7273ZM19.2814 25.6521C19.2135 25.4317 19.1796 25.2451 19.0948 25.0756C18.62 24.0411 17.6195 23.8546 16.8225 24.6516C15.398 26.0761 15.7032 28.3315 17.4499 29.4338C18.4674 30.0782 18.5691 30.553 17.8569 31.5366C17.0259 32.7067 17.2803 34.2838 18.4674 35.1147C19.0439 35.5217 19.7731 35.8609 20.3497 35.4539C20.8924 35.0638 20.8754 34.3007 20.621 33.6394C20.6041 33.6054 20.621 33.5546 20.638 33.4698C21.2146 33.1137 21.8081 32.7406 22.4355 32.3675C23.2834 33.8259 23.1478 35.2164 22.3677 36.5731C22.1133 36.997 22.1473 37.3532 22.3508 37.7601C22.7747 38.5741 23.7074 39.032 24.5892 38.8285C25.5389 38.625 26.1833 37.8619 26.2172 36.9122C26.2341 36.5053 26.2172 36.1152 26.2172 35.7082C26.2172 34.9282 25.8611 34.4025 25.1319 34.1142C24.9962 34.0633 24.8605 34.0294 24.7249 33.9785C24.657 33.2663 24.6062 32.571 24.5214 31.7909C25.1488 31.8927 25.6576 31.9605 26.1833 32.0453C26.1833 31.8588 26.2002 31.6722 26.2002 31.4857C26.2002 29.4338 26.1324 27.3819 26.2341 25.3299C26.2681 24.4142 25.2336 23.685 24.5214 23.8037C24.3857 23.8207 24.2331 23.8376 24.0635 23.8715C23.8431 23.1593 23.6396 22.498 23.3852 21.684C24.3688 21.684 25.2675 21.684 26.2002 21.684C26.2002 20.463 26.2172 19.1403 26.2002 17.8006C26.1833 16.6644 25.3014 15.8165 24.1653 15.7995C23.046 15.7995 22.1642 16.6474 22.1303 17.7836C22.0964 18.7672 21.8251 19.0555 20.8585 19.1742C19.8071 19.3098 19.0439 19.8525 18.6539 20.8361C18.3148 21.684 18.3826 21.8196 19.1966 22.2266C20.6889 22.9558 21.5198 24.2277 21.4011 25.6182C20.7058 25.6521 20.0106 25.6521 19.2814 25.6521ZM33.1869 25.6352C33.2717 23.8376 34.2214 22.7523 35.7476 22.1249C36.1206 21.9723 36.2054 21.7857 36.1546 21.4126C35.968 20.2595 35.0862 19.3946 33.9331 19.2081C32.746 19.0216 32.6273 18.8859 32.5425 17.6819C32.4577 16.6474 31.6268 15.8504 30.5584 15.8165C29.5579 15.7826 28.5404 16.5287 28.4896 17.4953C28.4217 18.9198 28.4726 20.3612 28.4726 21.8366C29.4053 21.5483 30.3041 21.4635 31.2537 21.8196C31.0163 22.5319 30.7958 23.2102 30.5923 23.8715C29.117 23.6681 28.4556 24.2277 28.4556 25.6521C28.4556 26.2287 28.4556 26.7883 28.4556 27.3649C28.4556 28.925 28.4556 30.4852 28.4556 32.0453C29.0322 31.9605 29.5579 31.8927 30.1684 31.8079C30.0836 32.6219 30.0158 33.3172 29.9479 33.9955C28.7778 34.3686 28.4556 34.7925 28.4556 35.9626C28.4556 36.3187 28.4387 36.6748 28.4726 37.0479C28.5235 37.828 29.0661 38.5063 29.8462 38.7776C30.6263 39.049 31.4911 38.8115 32.0507 38.2011C32.5934 37.5736 32.5425 36.997 32.1525 36.2678C31.4572 35.013 31.4572 33.7072 32.2542 32.4014C32.8986 32.7915 33.4752 33.1645 33.967 33.4698C33.967 33.9955 33.9161 34.4364 33.9839 34.8603C34.0687 35.4369 34.3909 35.7082 35.0353 35.6234C36.8838 35.4199 37.9352 33.2324 36.9007 31.6892C36.0867 30.4682 36.1376 30.2138 37.3755 29.3829C38.9865 28.2976 39.207 26.0591 37.8504 24.7025C37.0533 23.9055 35.985 24.1259 35.561 25.1773C35.4932 25.3469 35.4593 25.5165 35.4084 25.6861C34.6283 25.6352 33.95 25.6352 33.1869 25.6352Z" fill="url(#paint1_linear_32_1405)"/>
<path d="M20.4344 47.7988C19.7052 48.0023 19.0438 48.1889 18.3824 48.3754C18.3316 48.2906 18.2807 48.2567 18.2637 48.1889C17.5685 45.5943 15.9405 43.6271 14.0412 41.8296C11.0396 38.9976 9.02164 35.606 8.1059 31.5531C5.69787 20.9034 12.4641 10.4234 23.1985 8.26973C31.5249 6.59089 39.7834 9.99944 44.0569 16.8844C48.8899 24.6512 47.6519 34.8429 41.1062 41.2361C39.8682 42.4401 38.5455 43.5932 37.7146 45.1534C37.1719 46.1708 36.714 47.2392 36.2053 48.3584C35.6118 48.1889 34.9335 48.0023 34.2043 47.7988C34.7639 45.7299 35.6626 43.8815 37.0362 42.2875C37.8672 41.3209 38.7999 40.473 39.6817 39.5572C44.4469 34.5885 45.9222 28.7041 43.9721 22.1753C42.0558 15.7312 37.4772 11.8309 30.9483 10.4573C23.3681 8.86326 15.8557 12.2549 12.1249 18.6819C8.56377 24.7868 9.20817 33.3506 14.1938 38.6245C15.4657 39.9812 16.7375 41.3548 17.9246 42.7793C19.1456 44.2037 19.9256 45.8995 20.4344 47.7988Z" fill="url(#paint2_linear_32_1405)"/>
<path d="M28.9304 5.30195C28.2182 5.30195 27.5399 5.30195 26.7937 5.30195C26.7937 3.72486 26.7937 2.16472 26.7937 0.553711C27.5059 0.553711 28.2012 0.553711 28.9304 0.553711C28.9304 2.1308 28.9304 3.69094 28.9304 5.30195Z" fill="url(#paint3_linear_32_1405)"/>
<path d="M49.9243 29.433C49.9243 28.6868 49.9243 28.0085 49.9243 27.2793C51.5014 27.2793 53.0276 27.2793 54.6217 27.2793C54.6217 27.9915 54.6217 28.6868 54.6217 29.433C53.0785 29.433 51.5184 29.433 49.9243 29.433Z" fill="url(#paint4_linear_32_1405)"/>
<path d="M4.73128 26.1943C4.73128 26.9405 4.73128 27.6358 4.73128 28.365C3.15419 28.365 1.59405 28.365 0 28.365C0 27.6358 0 26.9235 0 26.1943C1.57709 26.1943 3.12027 26.1943 4.73128 26.1943Z" fill="url(#paint5_linear_32_1405)"/>
<path d="M7.71582 8.79512C8.13977 8.38812 8.63155 7.89634 9.08942 7.43848C10.1917 8.5577 11.3109 9.67693 12.4301 10.8131C11.9723 11.2371 11.4805 11.7288 11.0396 12.1528C9.97123 11.0675 8.86896 9.94826 7.71582 8.79512Z" fill="url(#paint6_linear_32_1405)"/>
<path d="M46.2614 8.23535C46.7702 8.72713 47.2619 9.20196 47.7198 9.64287C46.6175 10.7621 45.5153 11.8813 44.43 12.9836C43.9551 12.5088 43.4633 12.017 42.9885 11.5252C44.0569 10.4229 45.1591 9.32066 46.2614 8.23535Z" fill="url(#paint7_linear_32_1405)"/>
<path d="M19.9426 30.298C20.1631 29.6197 20.3666 28.9922 20.587 28.263C21.6215 28.5344 22.3507 28.1104 22.8255 27.1777C23.4868 27.4491 24.1143 27.6865 24.7248 27.9408C24.7248 29.6875 21.8589 31.1289 19.9426 30.298Z" fill="url(#paint8_linear_32_1405)"/>
<path d="M23.063 17.5629C24.4027 17.4781 25.4032 18.2582 25.8102 19.6827C25.1828 19.8183 24.5553 20.0388 23.9279 20.0388C23.6396 20.0388 23.1817 19.6318 23.1139 19.3435C22.9613 18.7839 23.063 18.1734 23.063 17.5629Z" fill="url(#paint9_linear_32_1405)"/>
<path d="M34.0516 28.263C34.2721 28.9583 34.4926 29.6197 34.696 30.2641C33.0002 31.1798 30.4396 29.9758 29.8291 27.9917C30.4565 27.7373 31.101 27.466 31.7962 27.1777C32.2711 28.0765 32.9833 28.5344 34.0516 28.263Z" fill="url(#paint10_linear_32_1405)"/>
<path d="M28.8286 19.5124C29.2865 18.2575 30.4735 17.4435 31.6945 17.5622C31.6945 18.2406 31.6945 18.9358 31.6945 19.5972C31.3893 19.8177 31.084 20.0212 30.7279 20.2755C30.1513 20.0381 29.5069 19.7837 28.8286 19.5124Z" fill="url(#paint11_linear_32_1405)"/>
<defs>
<linearGradient id="paint0_linear_32_1405" x1="16.6909" y1="65.5532" x2="38.9138" y2="64.0844" gradientUnits="userSpaceOnUse">
<stop stop-color="#9914B3"/>
<stop offset="1" stop-color="#7023BC"/>
</linearGradient>
<linearGradient id="paint1_linear_32_1405" x1="13.6882" y1="41.0611" x2="42.184" y2="39.6911" gradientUnits="userSpaceOnUse">
<stop stop-color="#9914B3"/>
<stop offset="1" stop-color="#7023BC"/>
</linearGradient>
<linearGradient id="paint2_linear_32_1405" x1="7.61938" y1="48.3754" x2="48.8124" y2="46.4325" gradientUnits="userSpaceOnUse">
<stop stop-color="#9914B3"/>
<stop offset="1" stop-color="#7023BC"/>
</linearGradient>
<linearGradient id="paint3_linear_32_1405" x1="26.7937" y1="5.30195" x2="29.0331" y2="5.25303" gradientUnits="userSpaceOnUse">
<stop stop-color="#9914B3"/>
<stop offset="1" stop-color="#7023BC"/>
</linearGradient>
<linearGradient id="paint4_linear_32_1405" x1="49.9243" y1="29.433" x2="54.7951" y2="28.9172" gradientUnits="userSpaceOnUse">
<stop stop-color="#9914B3"/>
<stop offset="1" stop-color="#7023BC"/>
</linearGradient>
<linearGradient id="paint5_linear_32_1405" x1="-3.52508e-08" y1="28.365" x2="4.90604" y2="27.8458" gradientUnits="userSpaceOnUse">
<stop stop-color="#9914B3"/>
<stop offset="1" stop-color="#7023BC"/>
</linearGradient>
<linearGradient id="paint6_linear_32_1405" x1="7.71582" y1="12.1528" x2="12.6474" y2="11.9134" gradientUnits="userSpaceOnUse">
<stop stop-color="#9914B3"/>
<stop offset="1" stop-color="#7023BC"/>
</linearGradient>
<linearGradient id="paint7_linear_32_1405" x1="42.9885" y1="12.9836" x2="47.9379" y2="12.7442" gradientUnits="userSpaceOnUse">
<stop stop-color="#9914B3"/>
<stop offset="1" stop-color="#7023BC"/>
</linearGradient>
<linearGradient id="paint8_linear_32_1405" x1="19.9426" y1="30.5396" x2="24.9332" y2="30.195" gradientUnits="userSpaceOnUse">
<stop stop-color="#9914B3"/>
<stop offset="1" stop-color="#7023BC"/>
</linearGradient>
<linearGradient id="paint9_linear_32_1405" x1="23.0298" y1="20.0388" x2="25.9366" y2="19.8807" gradientUnits="userSpaceOnUse">
<stop stop-color="#9914B3"/>
<stop offset="1" stop-color="#7023BC"/>
</linearGradient>
<linearGradient id="paint10_linear_32_1405" x1="29.8291" y1="30.5759" x2="34.9078" y2="30.2228" gradientUnits="userSpaceOnUse">
<stop stop-color="#9914B3"/>
<stop offset="1" stop-color="#7023BC"/>
</linearGradient>
<linearGradient id="paint11_linear_32_1405" x1="28.8286" y1="20.2755" x2="31.8258" y2="20.1225" gradientUnits="userSpaceOnUse">
<stop stop-color="#9914B3"/>
<stop offset="1" stop-color="#7023BC"/>
</linearGradient>
</defs>
</svg>
