<svg width="76" height="76" viewBox="0 0 76 76" fill="none" xmlns="http://www.w3.org/2000/svg">
<path d="M0.499023 8.17546C0.88256 6.76655 1.29545 5.38112 2.18776 4.17767C5.01732 0.359912 10.2968 -0.585233 14.187 2.05452C18.1593 4.74906 19.2591 10.0423 16.6839 14.087C16.5684 14.269 16.4471 14.449 16.3591 14.586C17.8228 16.0477 19.2532 17.4762 20.758 18.9791C21.5251 18.2022 22.3352 17.3666 23.161 16.5467C24.0905 15.6251 24.8693 15.6329 25.8046 16.5702C26.5619 17.3295 27.3075 18.0985 28.0158 18.8206C29.0999 18.3842 30.1018 18.0026 31.0783 17.5662C31.2505 17.4899 31.407 17.1807 31.4148 16.9733C31.4501 16.0223 31.4227 15.0693 31.4325 14.1183C31.4462 12.9247 31.9901 12.3689 33.1897 12.365C36.4126 12.3552 39.6355 12.3533 42.8583 12.365C44.007 12.3689 44.5666 12.9364 44.5843 14.0753C44.598 15.0517 44.5627 16.0301 44.6077 17.0046C44.6175 17.2179 44.8367 17.5115 45.0363 17.6073C45.8503 17.9928 46.6839 18.3411 47.5312 18.6445C47.7347 18.7169 48.0928 18.6464 48.2513 18.5016C48.9382 17.8793 49.5741 17.2023 50.2336 16.5487C51.1631 15.629 51.9399 15.6329 52.8773 16.5683C53.705 17.394 54.519 18.2335 55.2861 19.0123C56.7635 17.5349 58.1881 16.1084 59.6753 14.6212C58.0609 12.3533 57.4758 9.74678 58.2859 6.91135C58.8788 4.83908 60.1018 3.1973 61.9041 2.01343C65.6201 -0.428687 70.4123 0.248374 73.375 3.61802C76.1791 6.80568 76.2104 11.7173 73.4611 14.9813C70.7959 18.1455 65.7962 19.482 61.3014 16.2982C60.6008 17.0066 59.8866 17.7326 59.1665 18.4507C58.4444 19.1708 57.7126 19.8812 56.924 20.6561C57.8476 21.5621 58.7047 22.3898 59.5461 23.2352C60.4345 24.1275 60.4286 24.9258 59.5285 25.8279C58.7693 26.5872 57.9924 27.3249 57.2449 28.0509C57.6852 29.1448 58.0746 30.1623 58.5129 31.1603C58.5814 31.3168 58.8671 31.4616 59.0549 31.4675C60.0314 31.4988 61.0079 31.4734 61.9843 31.4851C63.129 31.4988 63.7063 32.0448 63.7122 33.1954C63.7298 36.4417 63.7298 39.6881 63.7122 42.9364C63.7063 44.0714 63.1134 44.6154 61.9628 44.6271C61.0098 44.6369 60.0568 44.6056 59.1078 44.6486C58.8867 44.6584 58.5677 44.8502 58.4816 45.042C58.0491 45.9949 57.6813 46.9753 57.2488 48.0477C57.9807 48.7638 58.7732 49.5231 59.5461 50.2999C60.4365 51.1942 60.4325 51.9906 59.5324 52.8927C58.7223 53.7029 57.8926 54.4934 57.1177 55.2488C58.6186 56.7399 60.0608 58.1722 61.5499 59.6496C63.0351 58.6184 64.8002 57.9589 66.7629 58.0059C67.1366 58.0157 67.618 58.2799 67.8332 58.5812C68.0035 58.82 67.982 59.409 67.7941 59.6379C67.5573 59.9275 67.072 60.1408 66.6846 60.1565C63.401 60.2973 60.8141 62.4949 60.2349 65.6962C59.6029 69.1911 61.9921 72.5764 65.5555 73.2359C69.0504 73.8836 72.5081 71.5647 73.1695 68.109C73.6274 65.7217 72.9503 63.6846 71.244 61.9606C70.9524 61.6652 70.6295 61.2562 70.608 60.8824C70.5904 60.5635 70.9192 60.0312 71.2088 59.9353C71.5688 59.814 72.1598 59.904 72.4533 60.1447C74.0364 61.446 75.0148 63.1465 75.3592 65.164C76.2006 70.0736 73.1401 74.4491 68.2227 75.4197C68.1092 75.4412 68.0054 75.5077 67.8978 75.5527C67.117 75.5527 66.3343 75.5527 65.5536 75.5527C65.397 75.5019 65.2424 75.4334 65.082 75.4021C59.8435 74.3375 56.7263 69.0815 58.3955 64.0388C58.7184 63.0623 59.28 62.1661 59.6772 61.3462C58.2546 59.9216 56.834 58.4971 55.3703 57.0314C54.5621 57.8474 53.7109 58.7202 52.846 59.5792C51.9419 60.4754 51.1533 60.4754 50.2532 59.5831C49.4744 58.8121 48.7092 58.0274 47.9833 57.2975C46.9716 57.7046 46.0558 58.1077 45.1146 58.4384C44.688 58.5871 44.5647 58.8043 44.5784 59.2309C44.6077 60.1584 44.596 61.086 44.5843 62.0135C44.5706 63.1582 44.0266 63.7531 42.8838 63.7629C39.6374 63.7864 36.3891 63.7864 33.1427 63.7629C31.9941 63.7551 31.4481 63.1661 31.4344 62.0233C31.4227 61.0468 31.4481 60.0704 31.4168 59.0939C31.4109 58.9061 31.2622 58.6243 31.1057 58.5538C30.1077 58.1155 29.0901 57.7261 28.0021 57.2878C27.2899 58.0216 26.5658 58.7808 25.8262 59.5224C24.8595 60.4911 24.0905 60.493 23.1297 59.5342C22.3039 58.7104 21.484 57.8787 20.5858 56.9747C19.8246 57.7535 19.1162 58.4893 18.3961 59.2133C17.6799 59.9353 16.9539 60.6457 16.2338 61.3599C16.3923 61.5889 16.4902 61.7278 16.5841 61.8687C19.2591 65.8919 18.2807 71.279 14.2594 73.956C13.1381 74.7035 11.737 75.0322 10.4651 75.5527C9.68434 75.5527 8.90161 75.5527 8.12084 75.5527C7.9643 75.5019 7.81167 75.4353 7.65121 75.4021C5.0682 74.8444 3.02137 73.4844 1.73182 71.1734C1.17413 70.1773 0.904085 69.0209 0.502936 67.9368C0.502936 67.156 0.502936 66.3752 0.502936 65.5925C0.553814 65.436 0.620347 65.2814 0.653613 65.1209C1.6105 60.4148 5.93703 57.3876 10.6745 58.0979C12.1499 58.319 13.4551 58.9374 14.5881 59.7377C16.0616 58.2642 17.4862 56.8377 18.9871 55.3368C18.1828 54.5502 17.3238 53.7244 16.4823 52.883C15.5822 51.9848 15.5842 51.1962 16.4784 50.296C17.2514 49.5192 18.0341 48.7521 18.764 48.0281C18.355 47.0144 17.9519 46.1006 17.6232 45.1594C17.4744 44.7348 17.2631 44.6076 16.8326 44.6213C15.9051 44.6506 14.9775 44.6369 14.05 44.6271C12.9014 44.6154 12.3124 44.0694 12.3045 42.9325C12.2869 39.6862 12.2869 36.4398 12.3045 33.1934C12.3104 32.0448 12.8896 31.4969 14.0344 31.4851C15.0108 31.4753 15.9873 31.4988 16.9637 31.4675C17.1535 31.4616 17.4353 31.3149 17.5058 31.1583C17.9441 30.1603 18.3335 29.1428 18.7738 28.045C18.0458 27.3386 17.2866 26.6165 16.543 25.8788C15.5685 24.9102 15.5626 24.1451 16.5234 23.1862C17.3844 22.3252 18.2572 21.476 19.1554 20.5934C17.7601 19.2041 16.4295 17.8774 15.0989 16.5526C14.9971 16.4509 14.8856 16.3589 14.7682 16.2513C14.4277 16.4724 14.1068 16.6935 13.7721 16.8911C12.24 17.7991 10.5806 18.212 8.80377 18.1142C8.11889 18.077 7.6786 17.6034 7.69034 16.9968C7.70208 16.3882 8.16389 15.9597 8.84682 15.9323C9.04251 15.9245 9.23819 15.9362 9.43191 15.9323C12.4004 15.8716 14.9932 13.7915 15.6977 10.9052C16.406 8.01304 15.0773 5.01519 12.4474 3.56127C9.87415 2.14062 6.6317 2.63178 4.57117 4.75689C2.05665 7.34968 2.08405 11.3455 4.63379 13.9911C5.28736 14.6682 5.36955 15.2728 4.8823 15.7738C4.3794 16.2884 3.66907 16.2395 3.05855 15.5038C2.42649 14.7406 1.81792 13.9285 1.3659 13.0519C0.960833 12.2672 0.782762 11.367 0.504894 10.5158C0.499023 9.73896 0.499023 8.95819 0.499023 8.17546ZM51.4527 18.3529C50.7443 19.0867 50.0614 19.8146 49.3569 20.523C48.5605 21.3233 48.0752 21.3664 47.0694 20.9105C45.9619 20.4075 44.8386 19.936 43.7017 19.5055C42.692 19.1219 42.3926 18.7619 42.3867 17.6758C42.3828 16.6583 42.3867 15.6407 42.3867 14.6173C39.4222 14.6173 36.5554 14.6173 33.6261 14.6173C33.6261 15.6446 33.628 16.6172 33.6261 17.5878C33.6221 18.7697 33.3384 19.1258 32.2582 19.5348C31.1448 19.9575 30.0431 20.4173 28.9571 20.9085C27.9415 21.3683 27.4562 21.3214 26.6637 20.5328C25.9416 19.8146 25.2313 19.0847 24.5875 18.4312C22.478 20.525 20.441 22.5464 18.3218 24.648C19.0516 25.3485 19.8187 26.0608 20.5584 26.8024C21.2511 27.4971 21.2903 28.0078 20.8871 28.9158C20.3823 30.0488 19.899 31.1935 19.4567 32.352C19.0673 33.3715 18.7072 33.6709 17.631 33.6748C16.6115 33.6787 15.5939 33.6748 14.5412 33.6748C14.5412 36.6257 14.5412 39.4905 14.5412 42.4335C15.6096 42.4335 16.6291 42.4277 17.6467 42.4355C18.6877 42.4433 19.0673 42.7525 19.4352 43.7113C19.8794 44.8698 20.3549 46.0165 20.8637 47.1475C21.2981 48.1161 21.255 48.619 20.4958 49.3783C19.7737 50.1004 19.0301 50.8029 18.3413 51.4682C20.441 53.5835 22.4663 55.6205 24.5523 57.7202C25.2372 57.0255 25.9494 56.2937 26.6735 55.5736C27.4464 54.8046 27.9258 54.7537 28.9003 55.1881C30.0098 55.6851 31.1331 56.1567 32.27 56.5892C33.3286 56.9923 33.6202 57.3504 33.6241 58.4716C33.628 59.4853 33.6241 60.4969 33.6241 61.5243C36.6004 61.5243 39.4672 61.5243 42.3867 61.5243C42.3867 60.4245 42.3809 59.3776 42.3887 58.3307C42.3965 57.3876 42.7253 56.9844 43.598 56.6459C44.778 56.19 45.9501 55.7106 47.1046 55.194C48.0733 54.7595 48.5644 54.8026 49.3315 55.5697C50.0536 56.2917 50.758 57.0334 51.4312 57.7241C53.5387 55.6186 55.5698 53.5874 57.6813 51.478C57.0062 50.8244 56.2821 50.1375 55.5757 49.435C54.7402 48.6053 54.6951 48.1337 55.1726 47.0908C55.6579 46.0302 56.1099 44.95 56.5169 43.8561C56.9396 42.7212 57.2782 42.4433 58.5012 42.4414C59.4894 42.4394 60.4795 42.4414 61.4521 42.4414C61.4521 39.4592 61.4521 36.5963 61.4521 33.6826C60.3621 33.6826 59.3406 33.6905 58.3192 33.6807C57.3369 33.6728 56.9396 33.3461 56.5854 32.4303C56.1491 31.2953 55.6951 30.1643 55.1902 29.0587C54.6912 27.9687 54.7304 27.5226 55.6031 26.6557C56.3056 25.9571 57.0218 25.2722 57.7087 24.6049C55.5914 22.4896 53.5758 20.4741 51.4527 18.3529ZM73.3123 9.32411C73.3026 5.71573 70.3478 2.76485 66.7355 2.75898C63.0938 2.75311 60.1214 5.72943 60.1312 9.37107C60.141 12.9775 63.0997 15.9323 66.7081 15.9382C70.3497 15.944 73.3221 12.9658 73.3123 9.32411ZM9.31842 73.3572C12.9268 73.3435 15.8757 70.3848 15.8796 66.7744C15.8816 63.1328 12.9033 60.1662 9.25971 60.178C5.62394 60.1897 2.67109 63.1856 2.69849 66.8331C2.72589 70.4317 5.70808 73.3709 9.31842 73.3572Z" fill="white"/>
<path d="M71.1147 66.7368C71.1284 69.1456 69.1697 71.1376 66.7686 71.1592C64.3265 71.1807 62.3247 69.1965 62.3286 66.7583C62.3325 64.3475 64.2991 62.3789 66.7099 62.375C69.1227 62.3711 71.101 64.3318 71.1147 66.7368ZM66.7452 64.5725C65.5593 64.5588 64.5496 65.5372 64.5261 66.725C64.5026 67.9089 65.4752 68.9284 66.6591 68.9617C67.8684 68.9969 68.9114 67.9852 68.9153 66.772C68.9192 65.5881 67.931 64.5862 66.7452 64.5725Z" fill="white"/>
<path d="M13.6822 9.37275C13.6705 11.7757 11.6902 13.7423 9.28131 13.7384C6.84506 13.7345 4.86868 11.7268 4.89803 9.28274C4.92542 6.87976 6.91942 4.93468 9.3361 4.95425C11.7391 4.97577 13.6939 6.96195 13.6822 9.37275ZM11.4847 9.38058C11.5023 8.1967 10.5258 7.18111 9.34001 7.15372C8.15613 7.12632 7.13272 8.09299 7.09554 9.27882C7.0564 10.4901 8.06221 11.535 9.27544 11.5429C10.4574 11.5507 11.4671 10.5645 11.4847 9.38058Z" fill="white"/>
<path d="M51.2297 41.6448C50.6153 43.6173 49.7601 45.3041 48.496 46.756C45.6351 50.0435 42.0248 51.6676 37.6572 51.5717C36.7786 51.5522 36.2913 51.151 36.2854 50.4877C36.2796 49.7969 36.8216 49.3742 37.71 49.3782C42.8408 49.4016 47.0675 46.5447 48.8169 41.8679C48.9343 41.5567 49.0165 41.2319 49.1731 40.7251C48.4882 41.316 47.9618 41.7837 47.4198 42.2338C46.8092 42.7406 46.1713 42.7308 45.7389 42.226C45.3103 41.725 45.3964 41.1008 46.0011 40.5646C47.2241 39.4805 48.451 38.4023 49.6897 37.3359C50.5331 36.6079 51.2179 36.7508 51.7345 37.7566C52.4684 39.187 53.1904 40.6233 53.9066 42.0616C54.2902 42.8306 54.1395 43.4529 53.5231 43.7562C52.9106 44.0576 52.3373 43.7993 51.9381 43.0322C51.7248 42.6252 51.5193 42.2123 51.2297 41.6448Z" fill="white"/>
<path d="M38.1189 43.9623C34.7923 43.978 32.1134 41.3265 32.0977 38.0018C32.0821 34.687 34.7394 31.9983 38.0602 31.9709C41.3515 31.9435 44.0656 34.6302 44.093 37.9431C44.1224 41.2384 41.4337 43.9486 38.1189 43.9623ZM38.0641 41.7648C40.1774 41.7785 41.8936 40.0839 41.8994 37.9803C41.9053 35.8865 40.1774 34.1606 38.0797 34.1665C36.0016 34.1723 34.3207 35.8435 34.2972 37.9275C34.2737 40.0545 35.939 41.7511 38.0641 41.7648Z" fill="white"/>
<path d="M27.2448 35.0189C27.734 34.6002 28.2213 34.1775 28.7144 33.7607C29.3367 33.2382 29.9531 33.2167 30.4012 33.6922C30.8649 34.1873 30.7828 34.8565 30.1566 35.4122C28.9336 36.4963 27.7027 37.5765 26.4621 38.641C25.6441 39.3435 24.9651 39.2046 24.4642 38.232C23.7167 36.7801 22.9809 35.3203 22.253 33.8585C21.891 33.1306 22.0377 32.5279 22.6209 32.2148C23.2275 31.888 23.8243 32.1346 24.2215 32.886C24.4446 33.3067 24.656 33.7352 24.9182 34.2538C25.2136 33.5161 25.4211 32.8664 25.7224 32.2657C28.1802 27.3482 32.1525 24.6928 37.6532 24.3621C38.4829 24.3112 38.9721 24.681 39.0327 25.3405C39.0953 26.0293 38.659 26.5009 37.7941 26.5478C33.8706 26.7592 30.8004 28.4831 28.5735 31.706C27.8964 32.6883 27.3975 33.7587 27.2448 35.0189Z" fill="white"/>
<path d="M51.0182 33.8394C50.7873 34.0918 50.5525 34.5673 50.2277 34.6416C49.8578 34.7258 49.398 34.4734 48.9988 34.3129C48.8794 34.264 48.8207 34.0331 48.7581 33.8765C47.5938 30.9589 45.5802 28.8495 42.733 27.5286C41.9738 27.1764 41.6998 26.5717 41.9895 25.9631C42.2751 25.3663 42.9013 25.2117 43.6801 25.5581C45.6037 26.4152 47.2944 27.6206 48.5526 29.2995C49.4038 30.4364 50.0398 31.7377 50.7541 32.9744C50.8695 33.1779 50.8969 33.4323 51.0182 33.8394Z" fill="white"/>
<path d="M33.5107 48.8815C33.5381 50.0126 32.6634 50.4998 31.7985 50.0497C29.2389 48.7171 27.2919 46.7642 25.973 44.1949C25.7186 43.6979 25.4838 43.1872 25.3018 42.6608C25.0748 42.0092 25.3449 41.4456 25.9241 41.2167C26.4896 40.9936 27.0786 41.2362 27.333 41.8898C28.4132 44.6567 30.2408 46.7427 32.8591 48.1555C33.18 48.3297 33.3796 48.7289 33.5107 48.8815Z" fill="white"/>
<path d="M66.6884 4.95613C69.1031 4.94243 71.0913 6.89142 71.1148 9.29636C71.1382 11.7365 69.154 13.7423 66.7178 13.7403C64.3109 13.7383 62.3345 11.7678 62.3286 9.36093C62.3228 6.94817 64.2796 4.96982 66.6884 4.95613ZM68.9172 9.32179C68.9016 8.13792 67.8977 7.14972 66.7139 7.15364C65.528 7.15755 64.532 8.15162 64.5261 9.33745C64.5203 10.5507 65.5515 11.5682 66.7647 11.5428C67.9506 11.5173 68.9309 10.5037 68.9172 9.32179Z" fill="white"/>
<path d="M9.28123 71.1593C6.87434 71.1554 4.90187 69.1829 4.89795 66.776C4.89404 64.3339 6.89 62.3556 9.33603 62.3751C11.741 62.3947 13.6958 64.3809 13.6841 66.7936C13.6704 69.1966 11.6901 71.1632 9.28123 71.1593ZM11.4846 66.7389C11.469 65.555 10.4632 64.5668 9.27928 64.5727C8.09344 64.5785 7.09938 65.5726 7.09546 66.7604C7.09155 67.9736 8.12475 68.9912 9.33603 68.9638C10.5199 68.9344 11.5003 67.9208 11.4846 66.7389Z" fill="white"/>
</svg>
