<svg width="76" height="76" viewBox="0 0 76 76" fill="none" xmlns="http://www.w3.org/2000/svg">
<path d="M36.0624 75.5526C34.5358 75.3569 33.0092 75.2199 31.5021 74.9654C27.1571 74.2413 23.0666 72.7538 19.25 70.5421C18.4867 70.1116 18.2714 69.5244 18.6041 68.9177C18.9564 68.2914 19.5827 68.1739 20.3852 68.6241C24.4562 70.9532 28.8207 72.4406 33.4789 73.0082C40.7793 73.9085 47.7273 72.6951 54.2644 69.3287C54.4601 69.2308 54.6558 69.1134 54.8515 69.0155C55.654 68.6045 56.2999 68.7415 56.613 69.3678C56.9262 69.9746 56.6913 70.5617 55.928 70.9727C53.3445 72.3819 50.6631 73.5562 47.786 74.2021C45.4178 74.7306 42.9909 75.0241 40.5835 75.4351C40.3878 75.4743 40.2117 75.5134 40.0159 75.5526C38.7046 75.5526 37.3933 75.5526 36.0624 75.5526Z" fill="white"/>
<path d="M0.460938 35.7038C0.656658 34.3337 0.813234 32.9441 1.02853 31.5741C1.75269 27.2095 3.27931 23.0994 5.47138 19.2633C5.92153 18.4804 6.52826 18.2259 7.135 18.5782C7.74173 18.9305 7.85916 19.596 7.40901 20.3593C5.11908 24.3324 3.65118 28.5991 3.04444 33.1398C2.06584 40.3815 3.18145 47.2708 6.41083 53.8275C6.48912 53.984 6.56741 54.1406 6.6457 54.2776C6.99799 55.0214 6.84142 55.6868 6.23468 55.9608C5.62795 56.2544 5.02122 56 4.64935 55.2366C4.16005 54.2385 3.67075 53.2207 3.24016 52.1834C1.77226 48.6017 0.87195 44.8635 0.578369 40.9882C0.558797 40.7729 0.500082 40.5576 0.460938 40.3423C0.460937 38.8353 0.460938 37.2695 0.460938 35.7038Z" fill="white"/>
<path d="M44.8699 32.8861C45.4766 32.9252 46.005 32.9252 46.5335 33.0231C48.1384 33.2971 49.2736 34.5497 49.2736 36.1546C49.3127 41.4782 49.3127 46.8018 49.2736 52.1254C49.254 53.9456 47.8644 55.3352 46.0637 55.3548C40.5444 55.3743 35.0251 55.3743 29.5058 55.3548C27.7052 55.3548 26.296 53.9456 26.2764 52.1254C26.2373 46.8214 26.2373 41.5369 26.2764 36.2329C26.296 34.3931 27.7248 33.0427 29.5645 32.9644C29.8973 32.9448 30.2496 32.9644 30.6606 32.9644C30.6801 32.6512 30.6997 32.3968 30.6997 32.1424C30.6997 29.8329 30.6997 27.5038 30.6997 25.1943C30.7193 21.4169 33.1071 19.0291 36.8845 19.0291C38.0001 19.0291 39.1548 18.99 40.2313 19.1661C42.8931 19.6163 44.8111 21.9453 44.8307 24.6463C44.8699 27.1319 44.8307 29.6176 44.8503 32.1228C44.8699 32.3381 44.8699 32.6121 44.8699 32.8861ZM37.7456 53.1431C40.3487 53.1431 42.9714 53.1431 45.5744 53.1431C46.6705 53.1431 47.0423 52.7908 47.0423 51.7144C47.0423 46.6844 47.0423 41.6544 47.0423 36.6243C47.0423 35.5675 46.6901 35.1956 45.6527 35.1956C40.4074 35.1956 35.1621 35.1956 29.8973 35.1956C28.8404 35.1956 28.4881 35.5479 28.4881 36.6048C28.4881 41.6348 28.4881 46.6648 28.4881 51.6948C28.4881 52.7713 28.8599 53.1236 29.956 53.1236C32.5786 53.1431 35.1621 53.1431 37.7456 53.1431ZM42.6191 32.9057C42.6191 30.009 42.6974 27.1906 42.5799 24.3723C42.5016 22.5521 40.975 21.2995 39.1353 21.2212C38.3132 21.182 37.4716 21.2016 36.6496 21.2212C34.3988 21.2407 32.9505 22.6891 32.9505 24.9398C32.9309 27.3276 32.9505 29.7154 32.9505 32.1032C32.9505 32.3576 32.9505 32.6121 32.9505 32.9057C36.219 32.9057 39.3897 32.9057 42.6191 32.9057Z" fill="white"/>
<path d="M73.269 37.8961C73.2102 31.8679 71.7228 26.055 68.6695 20.6532C68.5325 20.4183 68.3955 20.1834 68.2781 19.9486C67.9454 19.3027 68.0824 18.6764 68.6304 18.3632C69.1784 18.0501 69.8439 18.2262 70.1961 18.833C70.8029 19.8898 71.4096 20.9467 71.9185 22.0623C77.1051 33.649 76.7136 45.0595 70.7833 56.2742C70.6854 56.47 70.568 56.6657 70.431 56.8223C70.0591 57.2724 69.5698 57.3899 69.061 57.1158C68.513 56.8223 68.3564 56.333 68.5521 55.7458C68.6304 55.5109 68.7674 55.3152 68.8848 55.0999C71.7619 49.7959 73.2102 44.1004 73.269 37.8961Z" fill="white"/>
<path d="M38.685 0.552734C44.263 0.591878 50.1933 2.04021 55.7518 5.01516C55.8497 5.07387 55.9671 5.13259 56.065 5.1913C56.7108 5.58274 56.9066 6.16991 56.5934 6.73749C56.2802 7.30508 55.6931 7.46166 55.0081 7.16808C53.4032 6.44391 51.857 5.58274 50.2129 4.99558C40.1529 1.43347 30.3669 2.13807 20.9332 7.14851C19.8567 7.71609 19.2891 7.69652 18.8977 7.03107C18.4867 6.34605 18.7802 5.79804 19.8763 5.1913C25.3369 2.15764 31.6586 0.552734 38.685 0.552734Z" fill="white"/>
<path d="M4.66903 11.7477C4.68861 7.7354 7.91799 4.56473 11.9303 4.60387C15.9034 4.64302 19.0936 7.8724 19.0545 11.8064C19.0153 15.7404 15.7859 18.9697 11.852 18.9697C7.85927 18.9697 4.64946 15.7208 4.66903 11.7477ZM6.90025 11.7477C6.90025 14.5073 9.11188 16.7385 11.852 16.719C14.5725 16.6994 16.7645 14.5269 16.7841 11.7868C16.8037 9.04672 14.6116 6.83509 11.8911 6.81551C9.13146 6.81551 6.90025 8.98801 6.90025 11.7477Z" fill="white"/>
<path d="M63.4633 4.60449C67.456 4.60449 70.6658 7.83388 70.6462 11.8266C70.6267 15.7605 67.3777 18.9899 63.4437 18.9704C59.4706 18.9704 56.2608 15.7214 56.2804 11.7287C56.2999 7.75559 59.4706 4.60449 63.4633 4.60449ZM63.4829 6.8357C60.7232 6.8357 58.492 9.04734 58.492 11.7874C58.492 14.5079 60.7036 16.7 63.4242 16.7391C66.1642 16.7587 68.415 14.5079 68.415 11.7679C68.3954 9.04734 66.1838 6.8357 63.4829 6.8357Z" fill="white"/>
<path d="M4.66904 63.3989C4.64946 59.4258 7.82013 56.216 11.7933 56.1964C15.8055 56.1768 19.0545 59.3866 19.0349 63.3793C19.0349 67.3329 15.8055 70.5622 11.852 70.5622C7.89842 70.5622 4.68861 67.372 4.66904 63.3989ZM16.7841 63.3793C16.7841 60.6588 14.5921 58.4276 11.8911 58.4276C9.13146 58.408 6.90025 60.6197 6.90025 63.3793C6.90025 66.139 9.15103 68.3702 11.8715 68.3506C14.5921 68.3115 16.7841 66.0998 16.7841 63.3793Z" fill="white"/>
<path d="M63.4633 56.1963C67.4364 56.1963 70.6462 59.4061 70.6462 63.3597C70.6462 67.3132 67.4364 70.5426 63.4829 70.5622C59.4902 70.5817 56.2608 67.3523 56.2804 63.3401C56.2804 59.367 59.4706 56.1963 63.4633 56.1963ZM58.492 63.3401C58.4724 66.0802 60.7036 68.3309 63.4437 68.3309C66.1447 68.3309 68.3759 66.1193 68.415 63.3988C68.4542 60.6979 66.223 58.4471 63.522 58.4079C60.7819 58.3884 58.5116 60.6 58.492 63.3401Z" fill="white"/>
<path d="M37.6872 49.5217C37.1 49.5217 36.5128 49.5413 35.9257 49.5217C35.2015 49.4826 34.8101 49.0911 34.7709 48.367C34.7514 47.7798 34.7318 47.1927 34.7709 46.6055C34.7905 46.0379 34.6731 45.5682 34.2816 45.0984C33.029 43.5523 33.3422 40.4794 34.8492 39.0507C36.415 37.5436 38.8419 37.4654 40.5251 38.8354C42.404 40.3816 42.6389 43.5523 41.034 45.3529C40.8383 45.5682 40.7013 45.94 40.6817 46.2336C40.623 46.8208 40.6621 47.4079 40.6621 47.9951C40.6621 49.2281 40.349 49.5217 39.0964 49.5413C38.6071 49.5217 38.1569 49.5217 37.6872 49.5217ZM38.3135 47.2514C38.3526 47.1927 38.3918 47.1731 38.3918 47.1535C38.3918 46.4881 38.3526 45.8226 38.4309 45.1767C38.4701 44.8049 38.6462 44.3547 38.9202 44.1198C39.7031 43.4348 40.0554 42.3779 39.6835 41.3993C39.3899 40.6165 38.5875 40.088 37.7459 40.1076C36.8651 40.1272 36.1018 40.7143 35.8474 41.5559C35.5538 42.4954 35.8474 43.5523 36.3758 44.0416C36.6694 44.3156 36.9043 44.7853 36.9826 45.1963C37.0804 45.8618 37.0021 46.5468 37.0021 47.2514C37.4914 47.2514 37.9025 47.2514 38.3135 47.2514Z" fill="white"/>
</svg>
