<svg width="76" height="76" viewBox="0 0 76 76" fill="none" xmlns="http://www.w3.org/2000/svg">
<path d="M0.498298 62.957C0.938583 62.2506 1.62738 62.1684 2.35336 62.2584C3.1087 62.3523 3.58616 62.1273 3.96969 61.4092C4.56652 60.2938 5.51362 59.4582 6.63097 58.8614C7.03799 58.6442 7.19258 58.3898 7.15735 57.9436C7.12604 57.5307 7.12996 57.112 7.16518 56.701C7.22388 55.9986 7.59764 55.6307 8.29818 55.6209C9.7384 55.6033 11.1786 55.6033 12.6188 55.6189C13.3507 55.6268 13.8614 56.0299 13.7714 56.7382C13.6031 58.0708 14.1275 58.8262 15.239 59.5326C16.0413 60.0413 16.6029 60.965 17.1939 61.7594C17.4385 62.0901 17.6342 62.2545 18.0549 62.2584C20.4383 62.2741 20.4383 62.2858 20.4383 64.6673C20.4383 65.6437 20.4461 66.6202 20.4344 67.5966C20.4246 68.4752 20.0508 68.9644 19.2094 68.8646C17.9551 68.7179 17.2624 69.2129 16.5892 70.2442C16.0511 71.0661 15.147 71.6766 14.3252 72.2695C13.9319 72.5532 13.746 72.7939 13.7968 73.2557C13.8242 73.4964 13.7812 73.7449 13.8047 73.9876C13.8712 74.6529 13.6423 75.1734 13.0924 75.5511C11.3352 75.5511 9.57794 75.5511 7.81876 75.5511C7.28063 75.1558 7.09082 74.6157 7.14561 73.9641C7.16714 73.698 7.128 73.426 7.15344 73.1598C7.19453 72.7411 7.03212 72.5102 6.65054 72.3047C5.46666 71.6668 4.50195 70.7627 3.85816 69.5808C3.55485 69.0231 3.20066 68.8333 2.59209 68.8862C1.81915 68.9527 1.02077 68.9918 0.494385 68.2287C0.498298 66.4714 0.498298 64.7142 0.498298 62.957ZM9.34508 73.3007C10.1709 73.3007 10.8636 73.3007 11.6072 73.3007C11.6072 72.835 11.6209 72.4241 11.6032 72.0132C11.5778 71.3948 11.8576 70.9956 12.4232 70.7745C13.9867 70.164 15.0629 69.0564 15.6813 67.5086C15.9004 66.9626 16.284 66.7043 16.8593 66.7043C17.2937 66.7043 17.7281 66.7043 18.1723 66.7043C18.1723 65.9079 18.1723 65.1976 18.1723 64.4461C17.6948 64.4461 17.2819 64.4403 16.869 64.4481C16.2898 64.4579 15.9043 64.2015 15.6871 63.6575C15.059 62.0784 13.9514 60.9728 12.3684 60.3505C11.8185 60.1353 11.5876 59.7302 11.6032 59.1529C11.615 58.7244 11.6052 58.2939 11.6052 57.8614C10.8049 57.8614 10.1102 57.8614 9.34312 57.8614C9.34312 58.3193 9.33725 58.7303 9.34508 59.1412C9.35486 59.7459 9.09265 60.1509 8.51734 60.3799C6.96363 60.9982 5.87368 62.0901 5.26119 63.6497C5.03616 64.2231 4.6174 64.4735 4.00687 64.452C3.58029 64.4363 3.15175 64.4501 2.74473 64.4501C2.74473 65.2641 2.74473 65.9568 2.74473 66.7063C3.21045 66.7063 3.62334 66.7121 4.03427 66.7043C4.6448 66.6926 5.05182 66.9665 5.27489 67.534C5.88934 69.0955 6.99298 70.1698 8.54474 70.7882C9.08286 71.0034 9.34899 71.3928 9.34116 71.974C9.34116 72.4065 9.34508 72.8409 9.34508 73.3007Z" fill="white"/>
<path d="M0.498291 7.88229C0.893568 7.34025 1.43561 7.21306 2.08527 7.19544C2.75059 7.17979 3.41591 7.04477 4.0734 6.91758C4.67023 6.80212 5.26314 7.16609 5.38643 7.78053C5.53123 8.49282 5.03028 9.27554 4.3454 9.37926C4.08123 9.41839 3.81118 9.40665 3.5431 9.41056C3.28089 9.41448 3.01867 9.41056 2.73689 9.41056C2.73689 10.1952 2.73689 10.8899 2.73689 11.6648C3.20849 11.6648 3.64094 11.6726 4.0734 11.6629C4.65653 11.6492 5.04789 11.9094 5.26119 12.4495C5.88541 14.0345 6.99884 15.1303 8.578 15.7585C9.09264 15.962 9.34311 16.3357 9.34703 16.8837C9.34898 17.32 9.34703 17.7544 9.34703 18.2456C10.1063 18.2456 10.799 18.2456 11.613 18.2456C11.613 17.8073 11.6189 17.3552 11.6111 16.9032C11.6032 16.3514 11.8439 15.9718 12.3586 15.7702C13.9671 15.1362 15.0844 14.013 15.7165 12.4045C15.92 11.8879 16.3113 11.6589 16.8593 11.6668C17.2917 11.6726 17.7261 11.6687 18.2016 11.6687C18.2016 10.8958 18.2016 10.1992 18.2016 9.41056C17.7496 9.41056 17.3152 9.41056 16.8827 9.41056C16.3113 9.41056 15.9122 9.16987 15.6949 8.62001C15.0688 7.04086 13.9651 5.9333 12.3801 5.31103C11.8361 5.09773 11.5915 4.69659 11.6091 4.11541C11.6228 3.70252 11.6111 3.28963 11.6111 2.81608C10.8616 2.81608 10.1493 2.81608 9.34703 2.81608C9.34703 3.28181 9.34703 3.7397 9.34703 4.1976C9.34507 4.78856 9.03198 5.14861 8.49777 5.34625C8.00465 5.52824 7.52914 5.53215 7.15147 5.11339C6.77968 4.70246 6.83838 4.27 7.01645 3.75731C7.17104 3.31703 7.1456 2.80434 7.14952 2.32297C7.16517 0.822085 7.41369 0.559872 8.8813 0.559872C10.0534 0.559872 11.2236 0.555958 12.3957 0.561828C13.3937 0.567699 13.8614 0.94928 13.787 1.91008C13.7009 3.00394 13.9906 3.68491 14.9964 4.31305C15.8828 4.86879 16.5246 5.85111 17.19 6.71015C17.46 7.06042 17.6772 7.25611 18.1214 7.22284C18.5343 7.19153 18.953 7.1974 19.364 7.23067C20.0626 7.28937 20.4265 7.66508 20.4363 8.37149C20.4559 9.81171 20.4559 11.25 20.4363 12.6902C20.4265 13.422 20.0176 13.9269 19.3072 13.833C17.9668 13.6529 17.2232 14.2048 16.5168 15.3065C16.0041 16.1088 15.0844 16.6704 14.288 17.2594C13.9534 17.5079 13.7714 17.7094 13.8007 18.1282C13.8321 18.5411 13.8281 18.9579 13.7988 19.3708C13.7479 20.0987 13.3526 20.4842 12.6227 20.494C11.1825 20.5096 9.74426 20.5116 8.30404 20.492C7.60546 20.4822 7.09277 20.0889 7.19648 19.4177C7.41369 17.9912 6.74641 17.2515 5.63103 16.5216C4.87178 16.0246 4.31604 15.1656 3.78379 14.3887C3.50592 13.9836 3.25936 13.8075 2.79951 13.8584C2.55882 13.8839 2.3103 13.8428 2.06766 13.8662C1.4043 13.9328 0.87987 13.7136 0.504161 13.1559C0.498291 11.3967 0.498291 9.63951 0.498291 7.88229Z" fill="white"/>
<path d="M62.8972 75.5524C62.228 75.1317 62.1008 74.4781 62.1947 73.7697C62.3023 72.9616 62.0694 72.4469 61.2926 72.034C60.1752 71.4411 59.4003 70.4529 58.7389 69.3708C58.5981 69.1399 58.24 68.9677 57.9562 68.9149C57.5316 68.8366 57.0796 68.9149 56.6432 68.8796C55.9407 68.8229 55.5728 68.4491 55.563 67.7466C55.5435 66.3064 55.5435 64.8682 55.5611 63.4279C55.5709 62.6648 55.9759 62.3145 56.7567 62.2421C57.5668 62.1658 58.375 62.0562 59.1812 61.9388C59.7506 61.8566 60.324 62.2421 60.4257 62.8135C60.5568 63.5453 60.0676 64.3457 59.3925 64.4161C58.8896 64.467 58.3769 64.4259 57.8095 64.4259C57.8095 65.1891 57.8095 65.8818 57.8095 66.6997C58.2223 66.6997 58.6489 66.7037 59.0755 66.6978C59.6782 66.69 60.0872 66.9443 60.3161 67.5216C60.9228 69.0479 61.9853 70.1379 63.5194 70.7445C64.1456 70.991 64.4333 71.4274 64.3883 72.1045C64.3628 72.488 64.3844 72.8755 64.3844 73.306C65.1436 73.306 65.8383 73.306 66.6445 73.306C66.6445 72.9302 66.6621 72.5467 66.6406 72.1671C66.5975 71.4372 66.9028 70.9852 67.5935 70.7112C69.022 70.1457 70.0533 69.1301 70.6266 67.7095C70.9299 66.958 71.4035 66.6352 72.1901 66.6939C72.5267 66.7193 72.8652 66.6978 73.2488 66.6978C73.2488 65.9385 73.2488 65.2439 73.2488 64.4435C72.8222 64.4435 72.3917 64.4318 71.9631 64.4455C71.3487 64.467 70.9436 64.1989 70.7186 63.6295C70.1041 62.0699 69.0122 60.98 67.4566 60.3675C66.8754 60.1385 66.6327 59.7217 66.6445 59.121C66.6504 58.712 66.6464 58.3011 66.6464 57.851C65.8715 57.851 65.1769 57.851 64.3844 57.851C64.3844 58.3265 64.3805 58.7824 64.3844 59.2364C64.3883 59.8313 64.0771 60.1835 63.539 60.3792C63.042 60.5592 62.5763 60.5671 62.1927 60.1503C61.817 59.7393 61.8972 59.3127 62.0518 58.7961C62.2143 58.2561 62.1712 57.6494 62.1849 57.0702C62.2103 55.9725 62.5469 55.6163 63.6271 55.6124C64.944 55.6085 66.2629 55.6026 67.5798 55.6144C68.4115 55.6222 68.8968 55.9959 68.8087 56.8021C68.6737 58.0702 69.1336 58.802 70.2176 59.483C71.0434 60.0015 71.6226 60.9408 72.2351 61.7509C72.4797 62.0738 72.6578 62.2773 73.0863 62.2538C75.6635 62.1227 75.5226 62.6589 75.4952 64.7234C75.4815 65.6744 75.501 66.6273 75.4913 67.5783C75.4815 68.4746 75.0882 68.9599 74.1998 68.8659C73.0159 68.7407 72.331 69.1477 71.6892 70.1653C71.1647 70.993 70.2685 71.6153 69.4545 72.218C69.0396 72.5252 68.7539 72.7659 68.8361 73.304C68.8655 73.4938 68.8263 73.6954 68.844 73.8891C68.9066 74.5622 68.7324 75.1317 68.1708 75.5485C66.4116 75.5524 64.6544 75.5524 62.8972 75.5524Z" fill="white"/>
<path d="M24.7333 33.7909C25.1129 32.924 25.475 32.1021 25.8663 31.2118C25.0445 30.4036 24.203 29.5915 23.3792 28.7599C22.7002 28.075 22.6943 27.5467 23.3655 26.8676C24.6179 25.5996 25.8781 24.3394 27.1441 23.0871C27.8368 22.4002 28.3789 22.41 29.0931 23.1106C29.825 23.8287 30.5607 24.5449 31.2613 25.2924C31.5646 25.6153 31.8131 25.6485 32.2103 25.4548C32.8404 25.1476 33.5116 24.9206 34.2102 24.6427C34.2102 23.5078 34.2043 22.363 34.2121 21.2183C34.22 20.1792 34.5957 19.7937 35.625 19.7879C37.3587 19.7781 39.0905 19.78 40.8242 19.7879C41.875 19.7937 42.2449 20.1616 42.2508 21.1909C42.2566 22.2398 42.2703 23.2906 42.2429 24.3394C42.2331 24.723 42.423 24.8345 42.7145 25.0263C43.9277 25.8247 44.8201 25.4998 45.6341 24.404C46.0215 23.8796 46.544 23.451 47.0234 22.999C47.5968 22.457 48.1584 22.4218 48.7043 22.952C50.0682 24.2807 51.4145 25.627 52.7432 26.9909C53.2911 27.5525 53.2481 28.122 52.6532 28.7266C51.8313 29.5602 50.986 30.3704 50.1426 31.202C50.4772 32.0004 50.7727 32.7675 51.1288 33.5052C51.2032 33.6578 51.5006 33.7752 51.7002 33.7791C52.7491 33.8065 53.7999 33.787 54.8488 33.7928C55.8624 33.7987 56.2459 34.1509 56.2537 35.1372C56.2694 37.0901 56.2694 39.043 56.2537 40.9959C56.2459 41.9469 55.8565 42.3128 54.9016 42.3206C53.6825 42.3304 52.4634 42.3226 51.2619 42.3226C50.8823 43.1875 50.5222 44.0094 50.1367 44.886C50.9429 45.6844 51.7629 46.4848 52.5691 47.2968C53.3107 48.0443 53.3146 48.559 52.5808 49.2987C51.3617 50.5295 50.1367 51.7564 48.9039 52.9755C48.1467 53.7269 47.6261 53.7132 46.8512 52.9462C46.1233 52.2241 45.4149 51.4805 44.6596 50.7878C44.4972 50.6391 44.145 50.5667 43.9317 50.6313C43.3759 50.7995 42.8476 51.0617 42.2547 51.3103C42.2547 52.5098 42.2605 53.7269 42.2527 54.946C42.2468 55.9381 41.875 56.3197 40.8771 56.3256C39.1198 56.3373 37.3626 56.3373 35.6034 56.3256C34.6172 56.3197 34.2239 55.9244 34.2141 54.9441C34.2024 53.7974 34.2121 52.6526 34.2121 51.4864C33.4353 51.1635 32.6858 50.825 31.9129 50.5549C31.7583 50.5001 31.4648 50.6586 31.3141 50.8015C30.5549 51.5255 29.8289 52.2848 29.0775 53.0186C28.373 53.7074 27.831 53.7054 27.1285 53.0088C25.88 51.7721 24.6355 50.5295 23.3988 49.281C22.6943 48.5707 22.6982 48.0424 23.3949 47.334C24.0974 46.6198 24.7998 45.9075 25.5219 45.2148C25.7861 44.9604 25.8683 44.7588 25.6765 44.4047C25.3986 43.8939 25.156 43.3538 24.974 42.8001C24.839 42.3872 24.612 42.305 24.2226 42.3128C23.1737 42.3363 22.1229 42.3285 21.0741 42.3187C20.1544 42.3089 19.7552 41.9488 19.7473 41.0448C19.7278 39.043 19.7278 37.0411 19.7473 35.0393C19.7571 34.1744 20.1583 33.8007 21.0251 33.7928C22.2658 33.7811 23.5083 33.7909 24.7333 33.7909ZM28.2106 50.8269C28.9542 50.0677 29.7467 49.2752 30.5157 48.4631C31.0304 47.9191 31.5567 47.8897 32.2279 48.195C33.2435 48.6568 34.2826 49.0854 35.3451 49.4219C36.0966 49.6607 36.4331 50.0618 36.4136 50.8426C36.3862 51.9091 36.4077 52.9775 36.4077 54.0752C37.664 54.0752 38.84 54.0752 40.0552 54.0752C40.0552 52.9442 40.0513 51.8719 40.0552 50.7976C40.0591 49.8583 40.2705 49.6235 41.1315 49.3084C42.0199 48.9836 42.9004 48.6196 43.7516 48.2048C44.413 47.8839 44.9492 47.9093 45.4658 48.4533C46.2388 49.2654 47.0313 50.0559 47.767 50.8074C48.6613 49.9151 49.5008 49.0815 50.4126 48.1715C49.6847 47.469 48.9059 46.7333 48.1467 45.9799C47.5205 45.3596 47.5185 45.0034 47.9001 44.2246C48.3815 43.2443 48.8315 42.2443 49.2249 41.2248C49.5614 40.354 49.7806 40.1329 50.7042 40.129C51.7961 40.1231 52.888 40.127 54.0151 40.127C54.0151 38.7162 54.0151 37.3875 54.0151 35.9884C52.9017 35.9884 51.8333 35.9903 50.7629 35.9884C49.7786 35.9845 49.5653 35.781 49.2209 34.8769C48.8394 33.8789 48.405 32.8986 47.9294 31.9436C47.5166 31.112 47.5087 30.7695 48.1584 30.1277C48.9196 29.3782 49.7004 28.6483 50.4087 27.9713C49.4812 27.0418 48.6476 26.2062 47.767 25.3237C47.0626 26.0399 46.3151 26.807 45.5558 27.5643C44.8631 28.255 44.5344 28.2726 43.6773 27.8617C42.8906 27.4821 42.0805 27.1377 41.2567 26.8461C40.2352 26.4861 40.0572 26.2982 40.0552 25.2278C40.0532 24.1653 40.0552 23.1008 40.0552 22.0323C38.7911 22.0323 37.6327 22.0323 36.4077 22.0323C36.4077 23.1751 36.396 24.269 36.4116 25.3628C36.4214 26.083 36.0809 26.4528 35.3999 26.6739C34.3628 27.0105 33.3374 27.4058 32.3414 27.8519C31.4452 28.2531 31.1419 28.2629 30.459 27.5799C29.686 26.8089 28.9268 26.0243 28.054 25.1359C27.5961 25.6466 27.2322 26.1104 26.8095 26.5115C26.3731 26.9263 25.882 27.2805 25.3849 27.6856C26.3183 28.6092 27.0482 29.3274 27.7723 30.0533C28.4963 30.7813 28.4963 31.0885 28.0403 31.9867C27.5785 32.8946 27.1617 33.832 26.8075 34.7869C26.4357 35.7888 26.2401 35.9845 25.1795 35.9864C24.1169 35.9884 23.0544 35.9864 21.9957 35.9864C21.9957 37.4266 21.9957 38.7514 21.9957 40.1251C23.1268 40.1251 24.1991 40.1212 25.2714 40.127C26.2029 40.131 26.4338 40.3501 26.7625 41.2053C27.1441 42.2013 27.5727 43.1856 28.0501 44.1405C28.4845 45.0093 28.4904 45.3361 27.8114 46.019C27.06 46.7724 26.2968 47.514 25.5865 48.2126C26.4925 49.1167 27.3183 49.9385 28.2106 50.8269Z" fill="white"/>
<path d="M65.5176 20.4957C64.8092 20.4957 64.1028 20.5074 63.3944 20.4918C62.6274 20.4742 62.1245 20.073 62.2164 19.3196C62.371 18.0536 61.9131 17.3237 60.833 16.6349C59.9915 16.0987 59.4534 15.0949 58.747 14.3317C58.5474 14.1165 58.2421 13.9306 57.9604 13.8797C57.5338 13.8034 57.0837 13.8816 56.6473 13.8484C55.9605 13.7975 55.573 13.4022 55.5633 12.7115C55.5437 11.2712 55.5456 9.83102 55.5613 8.39276C55.5711 7.64917 55.9566 7.15605 56.6786 7.24606C58.0132 7.41239 58.7666 6.88209 59.473 5.76866C59.9818 4.96637 60.9034 4.40085 61.6998 3.81184C62.0305 3.56724 62.1969 3.37743 62.1988 2.95672C62.2164 0.553742 62.2262 0.555698 64.5998 0.555698C65.5763 0.555698 66.5527 0.547871 67.5292 0.557656C68.4254 0.56744 68.9088 0.96076 68.8148 1.85111C68.6896 3.03695 69.1123 3.70618 70.1142 4.36171C70.9752 4.92528 71.5974 5.87825 72.2451 6.72163C72.4956 7.04842 72.6932 7.2128 73.1081 7.21867C75.4974 7.24606 75.4974 7.25585 75.4974 9.62947C75.4974 10.5805 75.5032 11.5335 75.4954 12.4845C75.4876 13.4374 75.1021 13.909 74.1824 13.8366C73.0631 13.7466 72.3625 14.0558 71.7207 15.0773C71.163 15.9637 70.1748 16.5977 69.3158 17.265C68.9851 17.5213 68.8383 17.7327 68.8344 18.1416C68.8129 20.4957 68.8051 20.4957 66.4706 20.4957C66.1516 20.4957 65.8346 20.4957 65.5176 20.4957ZM73.2705 9.40639C72.7715 9.40639 72.3371 9.40443 71.9007 9.40639C71.3196 9.4103 70.9341 9.13439 70.7208 8.60018C70.1044 7.04451 69.0242 5.94869 67.4627 5.33621C66.8932 5.11313 66.6271 4.70024 66.6408 4.09167C66.6506 3.66117 66.6428 3.23067 66.6428 2.80213C65.8405 2.80213 65.1438 2.80213 64.3826 2.80213C64.3826 3.18371 64.3572 3.52224 64.3885 3.85489C64.459 4.64545 64.138 5.119 63.3866 5.42231C61.9679 5.99761 60.9504 7.02298 60.3809 8.45342C60.1246 9.09917 59.7137 9.44553 59.0014 9.41422C58.6002 9.39661 58.1971 9.4103 57.8058 9.4103C57.8058 10.2263 57.8058 10.919 57.8058 11.6646C58.2734 11.6646 58.6863 11.6704 59.0973 11.6626C59.6745 11.6509 60.0757 11.8876 60.2909 12.4355C60.9152 14.0186 62.0227 15.1223 63.6019 15.7524C64.1478 15.9696 64.3983 16.357 64.3846 16.9382C64.3748 17.3687 64.3826 17.8011 64.3826 18.259C65.1712 18.259 65.8659 18.259 66.6486 18.259C66.6486 17.762 66.5528 17.2748 66.676 16.8521C66.7915 16.4568 67.0596 15.952 67.3961 15.8032C68.9753 15.1046 70.1142 14.0245 70.7482 12.416C70.9497 11.9033 71.3293 11.6567 71.8831 11.6646C72.3371 11.6704 72.793 11.6665 73.2686 11.6665C73.2705 10.8838 73.2705 10.2048 73.2705 9.40639Z" fill="white"/>
<path d="M55.8217 21.8109C56.2776 21.852 56.5711 21.852 56.8549 21.9088C57.4419 22.0281 57.7472 22.4352 57.7237 23.0066C57.7022 23.5388 57.3969 23.985 56.8353 24.0045C55.5203 24.0495 54.2034 24.0515 52.8884 24.0026C52.3307 23.981 52.0215 23.5486 52.0118 22.9987C51.9902 21.7796 51.9863 20.5586 52.0176 19.3414C52.0333 18.7094 52.4501 18.3435 53.0547 18.3258C53.6614 18.3063 54.0605 18.6565 54.1564 19.2808C54.1975 19.543 54.2014 19.8111 54.2347 20.2494C54.6593 19.8306 54.992 19.5038 55.3227 19.1751C55.9802 18.5215 56.624 17.8542 57.2952 17.2144C57.8137 16.7193 58.4066 16.7095 58.8645 17.1381C59.34 17.5842 59.3459 18.2241 58.8313 18.7603C58.0368 19.588 57.2149 20.3864 56.4068 21.2004C56.2404 21.3667 56.08 21.5409 55.8217 21.8109Z" fill="white"/>
<path d="M21.7376 20.2101C21.7767 19.8207 21.7885 19.5389 21.8335 19.2649C21.9391 18.6427 22.3422 18.3022 22.9488 18.3276C23.5163 18.3511 23.9429 18.6916 23.9605 19.2884C23.9957 20.5545 24.0016 21.8245 23.9566 23.0905C23.9331 23.7226 23.4772 24.0337 22.8627 24.0435C21.716 24.0611 20.5694 24.0689 19.4227 24.0435C18.726 24.0298 18.2662 23.5817 18.2505 22.9888C18.2329 22.3959 18.6849 21.9399 19.3679 21.8695C19.5831 21.8479 19.8003 21.8421 20.1976 21.8186C19.7005 21.3176 19.3013 20.9165 18.9021 20.5154C18.3171 19.9283 17.7183 19.353 17.1488 18.7503C16.6577 18.2298 16.6479 17.6369 17.0784 17.1809C17.5265 16.7074 18.1625 16.7015 18.6986 17.2181C19.5244 18.0126 20.3248 18.8344 21.1388 19.6426C21.309 19.8109 21.4851 19.9694 21.7376 20.2101Z" fill="white"/>
<path d="M20.1683 54.0106C19.7378 53.9695 19.4462 53.9636 19.1625 53.9108C18.5754 53.8012 18.2565 53.404 18.2663 52.8326C18.278 52.2631 18.6048 51.8189 19.1997 51.7994C20.4912 51.7563 21.7846 51.7505 23.0761 51.8053C23.7101 51.8326 23.9841 52.3277 23.99 52.9324C24.0017 54.0556 24.0115 55.1768 23.988 56.3001C23.9724 57.0358 23.5047 57.5133 22.8863 57.5015C22.2934 57.4898 21.8727 57.0397 21.8081 56.3392C21.7885 56.1318 21.7748 55.9224 21.7435 55.531C20.6927 56.5936 19.7789 57.5642 18.8064 58.476C18.5324 58.7324 18.0804 58.9574 17.7321 58.93C17.4248 58.9046 16.9787 58.5484 16.9043 58.2588C16.8143 57.9047 16.9259 57.3626 17.1646 57.0887C17.914 56.2238 18.7633 55.4469 19.5734 54.6348C19.7417 54.4626 19.9041 54.2885 20.1683 54.0106Z" fill="white"/>
<path d="M55.7532 54.0161C56.6827 54.928 57.4967 55.7244 58.3088 56.5208C58.5006 56.7087 58.6982 56.8907 58.8743 57.0942C59.3322 57.6206 59.3283 58.2291 58.8763 58.6655C58.4242 59.1019 57.8196 59.1038 57.3069 58.6107C56.4968 57.8339 55.7101 57.0335 54.9255 56.2312C54.7415 56.0414 54.6085 55.8027 54.4519 55.5874C54.3834 55.6246 54.3149 55.6618 54.2445 55.699C54.2171 55.971 54.2014 56.243 54.1623 56.513C54.0723 57.1353 53.6848 57.4953 53.0763 57.4875C52.4716 57.4797 52.0391 57.1235 52.0215 56.4915C51.9863 55.2489 51.9863 54.0044 52.0235 52.7618C52.0431 52.1317 52.4677 51.7892 53.086 51.7755C54.2562 51.7521 55.4284 51.7482 56.5985 51.7716C57.2795 51.7853 57.7413 52.2628 57.7355 52.8596C57.7296 53.4271 57.301 53.8596 56.6553 53.9398C56.4244 53.9691 56.1876 53.9809 55.7532 54.0161Z" fill="white"/>
<path d="M65.5115 62.252C67.3176 62.248 68.8126 63.7333 68.8302 65.5512C68.8478 67.3632 67.3763 68.8641 65.5584 68.8895C63.7249 68.9149 62.181 67.3886 62.1927 65.5609C62.2025 63.7626 63.7151 62.2539 65.5115 62.252ZM65.5212 66.6802C66.1416 66.6783 66.6249 66.1891 66.621 65.5668C66.6171 64.9602 66.1044 64.4495 65.5075 64.4553C64.9146 64.4612 64.3922 64.9896 64.3961 65.5805C64.398 66.1773 64.9166 66.6822 65.5212 66.6802Z" fill="white"/>
<path d="M10.5012 13.858C8.70287 13.8776 7.1922 12.3943 7.16089 10.5784C7.12959 8.76831 8.58937 7.2596 10.4112 7.22047C12.2408 7.18133 13.7926 8.69591 13.7984 10.5275C13.8043 12.3199 12.3015 13.8384 10.5012 13.858ZM10.4562 9.42972C9.83587 9.43754 9.3584 9.93262 9.37014 10.5529C9.38188 11.1595 9.90044 11.6664 10.4953 11.6546C11.0863 11.6409 11.6068 11.1048 11.595 10.5177C11.5833 9.91892 11.0628 9.41993 10.4562 9.42972Z" fill="white"/>
<path d="M10.4996 68.8893C8.6915 68.9108 7.18866 67.4393 7.16127 65.6175C7.13387 63.8094 8.59953 62.2929 10.4135 62.2518C12.2314 62.2107 13.791 63.739 13.7988 65.5686C13.8066 67.3689 12.3175 68.8678 10.4996 68.8893ZM10.48 66.6801C11.0866 66.6762 11.5993 66.1654 11.5954 65.5686C11.5915 64.9796 11.0612 64.4532 10.4702 64.4552C9.87342 64.4571 9.36856 64.9698 9.37051 65.5784C9.37051 66.2006 9.85972 66.684 10.48 66.6801Z" fill="white"/>
<path d="M34.6588 37.8488C34.5649 39.7626 36.0678 41.3789 37.962 41.4024C39.8111 41.4259 41.3883 39.833 41.3414 37.9897C41.2944 36.119 39.7074 34.6396 37.8308 34.714C37.5647 34.7238 37.2125 34.8177 37.0481 34.6866C36.7213 34.4224 36.3593 34.0643 36.2693 33.6847C36.1441 33.1622 36.5119 32.7572 37.054 32.6241C38.142 32.358 39.1947 32.5537 40.1986 32.9822C42.7209 34.0585 44.0633 36.8841 43.3275 39.5121C42.5879 42.1558 39.9873 43.9247 37.3866 43.5569C34.4945 43.1479 32.4339 40.8349 32.4535 38.0152C32.4555 37.796 32.475 37.5749 32.5122 37.3596C32.6414 36.6102 33.0993 36.2207 33.7431 36.2971C34.3751 36.3714 34.7156 36.8548 34.6784 37.6297C34.6745 37.7021 34.6667 37.7764 34.6588 37.8488Z" fill="white"/>
<path d="M68.8302 10.516C68.84 12.3261 67.3646 13.8308 65.5526 13.8582C63.7347 13.8837 62.179 12.3358 62.1927 10.514C62.2064 8.7079 63.7034 7.22267 65.5174 7.21876C67.3294 7.21484 68.8185 8.69811 68.8302 10.516ZM66.621 10.5199C66.6151 9.8996 66.122 9.42018 65.4997 9.42996C64.8931 9.43975 64.3844 9.95635 64.3961 10.5512C64.4059 11.1422 64.942 11.6627 65.531 11.6549C66.1259 11.647 66.6269 11.1265 66.621 10.5199Z" fill="white"/>
</svg>
