<svg width="74" height="76" viewBox="0 0 74 76" fill="none" xmlns="http://www.w3.org/2000/svg">
<path d="M62.7856 75.5527C45.5949 75.5527 28.4042 75.5527 11.2154 75.5527C11.1626 75.5077 11.1176 75.4432 11.057 75.4197C9.02013 74.6644 7.99292 73.0796 8.30402 71.1641C8.60729 69.2955 10.1863 68.0726 12.3248 68.0648C14.254 68.057 16.1833 68.0492 18.1105 68.0746C18.5684 68.0805 18.8012 67.9279 19.0008 67.5209C20.4545 64.5703 21.9357 61.6295 23.4051 58.6868C23.4892 58.5186 23.5616 58.3425 23.6907 58.0568C23.317 58.0568 23.0353 58.0568 22.7535 58.0568C18.0655 58.0568 13.3775 58.047 8.69142 58.0627C6.87765 58.0685 5.21063 57.6479 3.76274 56.5248C1.66526 54.8988 0.733922 52.7407 0.741748 50.0973C0.765227 42.0909 0.749575 34.0845 0.749575 26.0781C0.749575 20.22 0.741747 14.3619 0.75153 8.50192C0.7574 3.75129 3.96036 0.554202 8.69142 0.554202C27.5883 0.552245 46.4852 0.552245 65.382 0.554202C69.9292 0.554202 73.2261 3.6965 73.2378 8.21039C73.275 22.2705 73.2495 36.3307 73.2534 50.3908C73.2534 52.1068 72.7839 53.6662 71.7332 55.0299C70.1131 57.1313 67.9491 58.0764 65.3096 58.0646C60.6216 58.0431 55.9336 58.0588 51.2475 58.0588C50.9658 58.0588 50.684 58.0588 50.3358 58.0588C50.4023 58.2525 50.4238 58.3444 50.4649 58.4266C51.9989 61.5024 53.525 64.5801 55.0923 67.6402C55.2057 67.8613 55.6147 68.0433 55.8906 68.0492C57.99 68.0863 60.0894 68.0433 62.1889 68.0902C63.94 68.1294 65.4231 69.4736 65.697 71.168C65.9827 72.9309 65.0122 74.637 63.3609 75.2866C63.1632 75.361 62.9774 75.4627 62.7856 75.5527ZM30.2493 45.3839C30.2571 45.423 30.2649 45.4621 30.2708 45.4993C43.7361 45.4993 57.1995 45.4993 70.704 45.4993C70.7196 45.2489 70.7431 45.0356 70.7431 44.8223C70.7451 32.6914 70.747 20.5605 70.7392 8.42953C70.7392 7.92081 70.7177 7.39644 70.5944 6.90729C69.9781 4.47132 68.0606 3.05083 65.4035 3.05083C46.4597 3.04691 27.5159 3.04887 8.57207 3.05278C8.15923 3.05278 7.74247 3.09192 7.3355 3.1604C5.26737 3.51063 3.41447 5.34201 3.33425 7.35535C3.22663 10.0105 3.2912 12.6734 3.28729 15.3324C3.28729 15.3716 3.33816 15.4107 3.3812 15.4694C4.05623 15.3696 4.51603 15.7159 4.91714 16.2285C5.3515 16.7862 5.89935 17.2695 6.26328 17.8662C7.07723 19.2006 8.20423 19.7563 9.72647 19.4452C10.0708 19.3748 10.4661 19.2202 10.6911 18.9717C11.5598 18.0149 12.3757 17.0092 13.2014 16.0133C13.626 15.5007 14.1543 15.3422 14.7725 15.5379C16.1656 15.9801 17.5529 16.4418 18.9421 16.8977C19.5388 17.0934 19.8695 17.4984 19.9184 18.1284C19.9869 19.005 20.1689 19.8893 20.0984 20.7542C19.981 22.2275 20.57 23.1764 21.83 23.8749C22.2742 24.1215 22.6263 24.2232 23.1096 24.0941C24.2855 23.7752 25.4791 23.5208 26.653 23.198C27.3848 22.9964 27.9405 23.1667 28.3807 23.7791C29.2064 24.9276 30.0419 26.0703 30.8754 27.2129C31.2824 27.7705 31.2941 28.334 30.9321 28.9152C30.4919 29.6176 30.126 30.3826 29.5997 31.0126C28.6331 32.1729 28.5001 33.3371 29.1653 34.6871C29.3668 35.0961 29.5664 35.3563 29.9812 35.5148C31.118 35.9531 32.2352 36.4422 33.3759 36.8687C34.1664 37.1642 34.5342 37.6729 34.5127 38.5279C34.4794 39.8447 34.4853 41.1635 34.5108 42.4822C34.5284 43.3021 34.182 43.8049 33.4151 44.0925C32.3507 44.4975 31.3039 44.9515 30.2493 45.3839ZM70.8429 48.0899C48.2187 48.0899 25.7745 48.0899 3.2912 48.0899C3.2912 49.0819 3.27163 50.0289 3.29707 50.9739C3.32446 51.9835 3.72361 52.8659 4.34581 53.6486C5.50803 55.1082 7.07331 55.5582 8.87926 55.5582C27.4318 55.5426 45.9843 55.5504 64.5368 55.5465C65.0729 55.5465 65.611 55.5406 66.1451 55.4995C68.1995 55.3449 69.9898 54.0223 70.4712 52.0305C70.7783 50.7802 70.7294 49.4419 70.8429 48.0899ZM3.31272 18.2321C3.31272 22.294 3.31272 26.1877 3.31272 30.1067C8.30989 27.8332 12.9959 28.1814 17.0031 31.942C21.0278 35.7183 21.6598 40.4004 19.6719 45.5385C21.9768 45.5385 24.1975 45.5502 26.4163 45.5169C26.6061 45.513 26.9094 45.2234 26.9602 45.016C27.1754 44.1434 27.6959 43.6249 28.5392 43.3608C29.0029 43.216 29.449 43.0105 29.8971 42.8207C30.5897 42.5272 31.5445 42.4001 31.8928 41.8757C32.245 41.3455 31.9593 40.4122 32.018 39.6608C32.0572 39.1482 31.8498 38.9349 31.3919 38.7666C30.3628 38.391 29.3649 37.9292 28.3377 37.5496C27.6333 37.2894 27.2244 36.8355 27.0209 36.1155C26.7567 35.1782 26.4476 34.2528 26.1208 33.3351C25.89 32.6836 25.9663 32.1103 26.3419 31.5331C27.0581 30.4296 27.7409 29.3045 28.457 28.156C27.9464 27.4516 27.4631 26.7492 26.9348 26.084C26.8233 25.9431 26.5259 25.8492 26.3439 25.8844C25.6023 26.0272 24.8432 26.1505 24.1466 26.4224C22.5755 27.0388 21.3076 26.7335 19.9888 25.6535C17.6155 23.7067 17.8718 24.6243 17.6429 21.3079C17.592 20.58 17.7564 19.6702 17.3827 19.1771C17.0148 18.6919 16.0874 18.6332 15.4045 18.3867C15.336 18.3612 15.2637 18.3417 15.1991 18.3084C14.798 18.0971 14.5475 18.2575 14.2834 18.5882C13.5516 19.5019 12.7768 20.3824 12.0333 21.2864C11.6498 21.754 11.1861 21.981 10.5737 21.9653C9.59733 21.9418 8.61903 21.9183 7.64464 21.9712C6.80917 22.0162 6.20458 21.7344 5.69195 21.0751C4.96801 20.1398 4.17754 19.2554 3.31272 18.2321ZM52.4019 68.0276C52.3471 67.8652 52.3217 67.7518 52.2708 67.652C50.7486 64.5997 49.2342 61.5435 47.6787 58.5068C47.5633 58.2818 47.1621 58.0783 46.8921 58.0783C40.3023 58.0548 33.7125 58.0646 27.1246 58.0509C26.6706 58.0509 26.4339 58.1957 26.2324 58.6046C24.7786 61.5552 23.2994 64.494 21.832 67.4367C21.742 67.6187 21.6813 67.8144 21.5972 68.0296C31.9046 68.0276 42.12 68.0276 52.4019 68.0276ZM3.25403 45.4798C3.44186 45.513 3.5123 45.5345 3.58273 45.5345C7.82661 45.5365 12.0724 45.5443 16.3163 45.5208C16.5374 45.5189 16.8485 45.3076 16.9659 45.106C18.0225 43.304 18.3923 41.3689 18.134 39.2793C17.3063 32.5603 9.53276 28.9758 3.88014 32.7188C3.42621 33.0182 3.23446 33.3312 3.23837 33.8947C3.26772 37.5046 3.25403 41.1146 3.25403 44.7245C3.25403 44.9652 3.25403 45.2058 3.25403 45.4798ZM37.0367 70.5614C28.907 70.5614 20.7754 70.5614 12.6457 70.5614C12.3777 70.5614 12.1037 70.5438 11.8416 70.5869C11.2135 70.6906 10.828 71.0702 10.7791 71.71C10.7302 72.3517 11.053 72.7978 11.6674 72.9681C11.9883 73.0561 12.3424 73.0542 12.6809 73.0542C28.8933 73.0581 45.1058 73.0581 61.3182 73.0581C61.5373 73.0581 61.7584 73.0698 61.9775 73.0502C62.7504 72.9778 63.2415 72.477 63.2317 71.7863C63.2219 71.0917 62.7191 70.6123 61.9423 70.5693C61.7232 70.5575 61.5021 70.5654 61.2829 70.5654C53.2002 70.5614 45.1195 70.5614 37.0367 70.5614Z" fill="white"/>
<path d="M64.4916 39.3259C65.4034 39.3259 66.1723 39.3259 66.9784 39.3259C66.9784 40.1751 66.9784 40.944 66.9784 41.7619C57.8274 41.7619 48.7097 41.7619 39.543 41.7619C39.543 40.9734 39.543 40.2064 39.543 39.3377C40.3237 39.3377 41.1102 39.3377 41.9829 39.3377C41.9829 37.6198 41.9829 35.9997 41.9829 34.3385C42.8379 34.3385 43.6088 34.3385 44.4677 34.3385C44.4677 35.9723 44.4677 37.5924 44.4677 39.2574C45.3267 39.2574 46.0976 39.2574 46.9604 39.2574C46.9604 36.8019 46.9604 34.3542 46.9604 31.8497C47.839 31.8497 48.6255 31.8497 49.4786 31.8497C49.4786 34.3151 49.4786 36.7491 49.4786 39.2437C50.3317 39.2437 51.1202 39.2437 51.9831 39.2437C51.9831 37.205 51.9831 35.1877 51.9831 33.1176C52.84 33.1176 53.6266 33.1176 54.4875 33.1176C54.4875 35.1525 54.4875 37.1678 54.4875 39.2437C55.3445 39.2437 56.1291 39.2437 57.0017 39.2437C57.0017 35.1055 57.0017 30.9927 57.0017 26.835C57.8568 26.835 58.6277 26.835 59.4866 26.835C59.4866 30.9517 59.4866 35.0644 59.4866 39.2418C60.3553 39.2418 61.1399 39.2418 62.0145 39.2418C62.0145 35.9351 62.0145 32.6539 62.0145 29.3335C62.8735 29.3335 63.6424 29.3335 64.4936 29.3335C64.4916 32.6402 64.4916 35.9234 64.4916 39.3259Z" fill="white"/>
<path d="M66.9769 11.8691C66.9769 12.6616 66.9769 13.4325 66.9769 14.2562C55.7519 14.2562 44.5405 14.2562 33.2842 14.2562C33.2842 13.4638 33.2842 12.6929 33.2842 11.8691C44.5151 11.8691 55.7264 11.8691 66.9769 11.8691Z" fill="white"/>
<path d="M66.9942 6.8584C66.9942 7.69582 66.9942 8.4452 66.9942 9.25524C59.1091 9.25524 51.2475 9.25524 43.3232 9.25524C43.3232 8.4726 43.3232 7.688 43.3232 6.8584C51.2005 6.8584 59.0641 6.8584 66.9942 6.8584Z" fill="white"/>
<path d="M33.2783 19.2415C33.2783 18.4472 33.2783 17.6782 33.2783 16.8584C40.3397 16.8584 47.3698 16.8584 54.4507 16.8584C54.4507 17.641 54.4507 18.41 54.4507 19.2415C47.4265 19.2415 40.3964 19.2415 33.2783 19.2415Z" fill="white"/>
<path d="M54.4546 21.8418C54.4546 22.6401 54.4546 23.411 54.4546 24.2367C47.4226 24.2367 40.3905 24.2367 33.2998 24.2367C33.2998 23.4619 33.2998 22.6734 33.2998 21.8418C40.3475 21.8418 47.3776 21.8418 54.4546 21.8418Z" fill="white"/>
<path d="M23.1839 14.6885C22.3895 14.4264 21.6577 14.1857 20.8164 13.9079C21.646 11.4112 22.4619 8.95178 23.3072 6.41211C24.0937 6.67234 24.8431 6.92083 25.6786 7.19475C24.8431 9.70311 24.0252 12.1626 23.1839 14.6885Z" fill="white"/>
<path d="M27.9189 13.9511C27.2948 13.3172 26.7489 12.7634 26.1052 12.1099C26.6608 11.6619 27.2263 11.2079 27.9248 10.6444C27.1617 10.0516 26.5885 9.60547 25.9976 9.14372C26.7763 8.43934 27.3652 7.90714 27.9209 7.4043C28.6996 8.13802 29.6427 8.94219 30.4782 9.84418C30.9556 10.3588 30.7873 10.9986 30.3197 11.4936C29.5507 12.3095 28.7564 13.098 27.9189 13.9511Z" fill="white"/>
<path d="M20.4175 12.0731C19.7327 12.7677 19.1868 13.3214 18.6214 13.8947C17.78 13.0671 16.9289 12.2727 16.1306 11.4255C15.5984 10.86 15.6063 10.2319 16.1463 9.65474C16.927 8.81927 17.7585 8.03271 18.5842 7.20898C19.1595 7.79792 19.7132 8.36534 20.3236 8.98949C19.813 9.45321 19.2788 9.93845 18.6801 10.4785C19.3277 11.0733 19.8599 11.5605 20.4175 12.0731Z" fill="white"/>
<path d="M40.7113 6.87793C40.7113 7.70166 40.7113 8.46669 40.7113 9.27281C39.8973 9.27281 39.1323 9.27281 38.3105 9.27281C38.3105 8.47647 38.3105 7.70949 38.3105 6.87793C39.0795 6.87793 39.866 6.87793 40.7113 6.87793Z" fill="white"/>
<path d="M38.2128 50.5889C38.2128 51.4243 38.2128 52.1913 38.2128 53.0014C37.4027 53.0014 36.6358 53.0014 35.8062 53.0014C35.8062 52.2011 35.8062 51.4185 35.8062 50.5889C36.6025 50.5889 37.3675 50.5889 38.2128 50.5889Z" fill="white"/>
</svg>
