<svg width="88" height="76" viewBox="0 0 88 76" fill="none" xmlns="http://www.w3.org/2000/svg">
<path d="M1.03219 13.9944C1.1893 13.2762 1.32397 12.5804 1.50352 11.8846C3.18683 5.24118 9.06718 0.595253 15.9126 0.572809C27.606 0.550365 39.3218 0.52792 51.0152 0.617697C52.7434 0.640141 54.4716 1.1788 56.1774 1.58279C57.0976 1.80723 57.4118 2.57034 57.12 3.33343C56.8507 4.00676 56.1549 4.16387 55.2796 3.98431C53.7085 3.64765 52.115 3.17633 50.5214 3.15388C39.1198 3.08655 27.7407 3.10899 16.3391 3.13144C10.3465 3.13144 5.45368 6.85716 4.01726 12.4906C3.74793 13.5679 3.61326 14.6901 3.61326 15.8124C3.56838 20.2338 3.56838 24.6553 3.59082 29.0768C3.63571 33.7227 5.5659 37.3811 9.49362 39.9398C10.6383 40.6804 11.1769 41.6455 11.1545 43.0146C11.1096 44.8326 11.1545 46.6506 11.1545 48.4685C11.1545 48.7379 11.1545 49.0072 11.1545 49.4561C11.4911 49.1418 11.6931 48.9847 11.8727 48.7827C13.7131 46.9423 15.5984 45.1468 17.3715 43.239C18.3815 42.1842 19.5037 41.6455 20.9401 41.7802C21.2768 41.8026 21.6134 41.7802 22.0848 41.7802C22.0848 41.3313 22.0848 40.9273 22.0848 40.5233C22.1072 38.032 21.9501 35.5407 22.6683 33.0943C24.5087 26.7426 30.232 22.2763 36.8305 22.2314C45.2471 22.1865 53.6861 22.2089 62.1026 22.2089C62.4393 22.2089 62.7535 22.2089 63.2024 22.2089C63.2024 21.6478 63.2024 21.1541 63.2024 20.6603C63.1575 18.2812 63.2248 15.9021 63.0004 13.5455C62.7984 11.1664 61.6537 9.14646 60.1051 7.32848C59.8133 6.99182 59.5215 6.49805 59.5664 6.09406C59.6113 5.71251 59.9928 5.21874 60.352 5.03919C60.9355 4.72497 61.4742 5.01674 61.9006 5.51051C63.7859 7.62026 65.1774 10.0442 65.4692 12.8722C65.761 15.5655 65.6936 18.2812 65.761 20.9969C65.7834 21.3785 65.761 21.76 65.761 22.2538C67.0627 22.2538 68.2523 22.2538 69.4418 22.2538C71.5965 22.2538 73.7511 22.164 75.8608 22.7476C82.3472 24.4982 86.9258 30.3561 86.9707 37.0669C87.0155 41.7353 87.038 46.4261 86.9707 51.0945C86.9033 56.3913 84.614 60.5659 80.2374 63.551C79.7212 63.9101 79.5641 64.2692 79.5641 64.8527C79.5866 67.5011 79.5641 70.172 79.5866 72.8428C79.5866 73.9875 79.2499 74.8852 78.1501 75.3566C77.0279 75.8279 76.1526 75.4014 75.3446 74.5935C72.7187 71.9675 70.0703 69.3415 67.4667 66.6931C67.0179 66.2443 66.5465 66.0647 65.9181 66.0647C56.4916 66.0871 47.0426 66.0647 37.6161 66.0871C33.9128 66.0871 30.5462 65.0772 27.6285 62.743C27.3142 62.4961 27.0225 62.2492 26.7756 61.935C26.3491 61.3963 26.3716 60.8352 26.8205 60.319C27.2693 59.8252 27.8305 59.7355 28.414 60.0721C28.5935 60.1619 28.7282 60.2966 28.8853 60.4312C31.3093 62.4961 34.1148 63.4836 37.3019 63.4836C46.8182 63.4612 56.3345 63.4836 65.8508 63.4612C67.2423 63.4612 68.3196 63.8652 69.2847 64.8752C71.574 67.2542 73.9531 69.566 76.2873 71.9002C76.4668 72.0797 76.6688 72.2593 76.983 72.5286C77.0055 72.1022 77.0279 71.8328 77.0279 71.5635C77.0279 69.1844 77.0504 66.8054 77.0279 64.4263C77.0279 63.1919 77.5441 62.2941 78.5541 61.6208C82.5716 59.0173 84.4569 55.2691 84.4569 50.5109C84.4569 46.1119 84.4794 41.7128 84.4569 37.3138C84.412 31.2315 80.3272 26.2713 74.3795 25.0593C73.5715 24.9022 72.7187 24.8349 71.8882 24.8349C60.3295 24.8124 48.7708 24.8124 37.1896 24.8349C30.1871 24.8349 24.7107 30.2664 24.6658 37.2465C24.6434 41.87 24.5985 46.4934 24.6883 51.0945C24.7332 52.5982 25.1596 54.1244 25.5187 55.6058C25.7656 56.6157 25.6534 57.2891 24.8903 57.5808C24.1272 57.895 23.4987 57.5359 23.1172 56.5484C22.3541 54.6631 22.0623 52.6656 22.0623 50.6456C22.0623 48.6032 22.0623 46.5608 22.0623 44.4959C20.8503 44.3388 19.8404 44.3388 18.8977 45.3488C16.8777 47.5259 14.7455 49.5907 12.6133 51.6556C11.1994 53.0471 9.06718 52.5309 8.6183 50.7129C8.55097 50.4212 8.55097 50.1069 8.55097 49.7927C8.55097 47.5708 8.52852 45.3712 8.55097 43.1493C8.55097 42.6555 8.4163 42.3413 7.96742 42.0495C4.10704 39.5133 1.81774 35.9672 1.12197 31.3886C1.09953 31.209 1.03219 31.0295 0.987305 30.8275C1.03219 25.194 1.03219 19.6054 1.03219 13.9944Z" fill="white"/>
<path d="M53.0802 38.3247C52.0702 33.791 48.2098 30.8059 43.6761 30.9855C39.5464 31.1426 35.8206 34.3521 35.2147 38.3472C37.4142 39.3123 38.0426 41.1527 37.9304 43.3971C37.8631 44.5193 37.9304 45.6415 37.9079 46.7637C37.8406 49.3223 36.0675 51.1403 33.666 51.1403C31.2869 51.1403 29.4914 49.2774 29.4465 46.7413C29.4241 45.3048 29.4241 43.8909 29.4465 42.4544C29.469 40.5691 30.3443 39.2225 32.05 38.3696C32.3418 38.2125 32.6111 37.7861 32.7009 37.4494C33.8231 32.8035 37.4815 29.3471 42.1499 28.5615C48.2771 27.5516 54.0004 31.3222 55.4817 37.3821C55.6163 37.9432 55.8408 38.2798 56.3794 38.5267C57.9281 39.2674 58.7136 40.5691 58.7585 42.2749C58.8034 43.8235 58.8034 45.3497 58.7585 46.8984C58.6912 48.7837 57.771 50.1079 56.0428 50.871C55.7286 51.0056 55.4143 51.3199 55.2797 51.6341C54.5615 53.1603 53.5066 54.3274 52.0477 55.1578C51.7335 55.3374 51.4417 55.6291 51.2846 55.9433C50.5215 57.4695 49.2422 58.2102 47.6038 58.3224C45.8756 58.4346 44.3943 57.8735 43.4292 56.3473C42.5763 55.0231 42.8681 53.3398 44.0801 52.2176C45.7858 50.6241 48.726 50.6241 50.4318 52.2401C50.6113 52.4196 50.746 52.6441 50.9704 52.9583C51.6886 52.1952 52.2722 51.5443 52.8782 50.9159C52.2946 50.4221 51.6886 50.1079 51.3968 49.6141C50.948 48.8061 50.5215 47.9084 50.4093 47.0106C50.2522 45.6864 50.4093 44.3173 50.342 42.9931C50.2522 40.8609 51.0602 39.2674 53.0802 38.3247ZM52.9455 44.6315C52.9455 45.3946 52.923 46.1353 52.9455 46.8984C52.9679 47.8635 53.6861 48.5817 54.5839 48.5817C55.4368 48.5817 56.1774 47.9308 56.1999 46.9881C56.2448 45.3946 56.2448 43.8011 56.1999 42.2076C56.155 41.2425 55.4592 40.6589 54.539 40.6814C53.6413 40.7038 52.9904 41.3547 52.9455 42.2973C52.923 43.0604 52.9455 43.846 52.9455 44.6315ZM35.3269 44.6315C35.3269 43.846 35.3493 43.0604 35.3269 42.2749C35.282 41.3098 34.6536 40.6814 33.7558 40.6589C32.8131 40.6365 32.1174 41.2649 32.0949 42.2749C32.05 43.8235 32.0725 45.3497 32.0949 46.8984C32.1174 47.8859 32.8131 48.5817 33.7109 48.5817C34.6087 48.5817 35.3044 47.8859 35.3493 46.8984C35.3493 46.1577 35.3269 45.3946 35.3269 44.6315ZM47.2896 53.654C46.3469 53.6316 45.5389 54.1478 45.5389 54.7314C45.5389 55.3149 46.3694 55.8311 47.2896 55.8311C48.1873 55.8087 48.9504 55.3149 48.9504 54.7314C48.9504 54.1478 48.2098 53.654 47.2896 53.654Z" fill="white"/>
<path d="M67.2199 35.6758C65.6264 35.6758 64.0329 35.6758 62.4393 35.6758C61.4294 35.6758 60.8234 35.1596 60.8458 34.3516C60.8683 33.5885 61.4518 33.1172 62.4393 33.1172C65.6489 33.1172 68.8808 33.1172 72.0903 33.1172C73.0779 33.1172 73.6165 33.5885 73.6165 34.3965C73.6165 35.182 73.0554 35.6758 72.0903 35.6758C70.4743 35.6983 68.8584 35.6758 67.2199 35.6758Z" fill="white"/>
<path d="M66.0973 41.4209C64.8404 41.4209 63.5835 41.4209 62.3267 41.4209C61.4289 41.4209 60.8678 40.9272 60.8454 40.1865C60.8229 39.401 61.4065 38.8848 62.3491 38.8848C64.8404 38.8848 67.3093 38.8848 69.8005 38.8848C70.7208 38.8848 71.2594 39.3561 71.2594 40.1416C71.2819 40.9496 70.7432 41.4209 69.7557 41.4434C68.5661 41.4209 67.3317 41.4209 66.0973 41.4209Z" fill="white"/>
<path d="M21.3663 17.3158C21.3887 18.3931 20.5583 19.2235 19.481 19.246C18.4037 19.246 17.5508 18.4155 17.5508 17.3607C17.5508 16.3282 18.3588 15.4978 19.4136 15.4754C20.491 15.4305 21.3438 16.2609 21.3663 17.3158Z" fill="white"/>
<path d="M13.6909 19.2472C12.6136 19.2696 11.7607 18.4392 11.7607 17.3619C11.7607 16.2845 12.5912 15.4541 13.6685 15.4541C14.7009 15.4541 15.5314 16.2621 15.5762 17.2945C15.6211 18.3718 14.7683 19.2247 13.6909 19.2472Z" fill="white"/>
<path d="M27.1343 17.3604C27.1343 18.4377 26.3039 19.2681 25.2266 19.2457C24.1493 19.2457 23.3413 18.3928 23.3637 17.3155C23.3862 16.2606 24.1717 15.4751 25.2266 15.4751C26.3039 15.4526 27.1343 16.2606 27.1343 17.3604Z" fill="white"/>
</svg>
