<svg width="65" height="65" viewBox="0 0 65 65" fill="none" xmlns="http://www.w3.org/2000/svg">
<path d="M0 48.2332C0 33.0435 0 17.8554 0 2.66559C0.87666 0.523961 1.66006 0 3.97803 0C23.1052 0 42.2323 0 61.3594 0C63.7062 0 65 1.29888 65 3.65586C65 18.1877 65 32.7213 65 47.2532C65 49.6084 63.7079 50.9022 61.356 50.9022C55.6009 50.9039 49.8458 50.9022 44.0907 50.9022C43.8482 50.9022 43.6058 50.9022 43.3582 50.9022C43.3582 52.3961 43.3582 53.7849 43.3582 55.1906C43.6397 55.2245 43.8906 55.2533 44.1399 55.2872C47.7364 55.7722 50.268 58.236 50.8463 61.8105C51.1159 63.4773 50.7411 64.2268 49.2574 64.9864C38.0847 64.9864 26.9136 64.9864 15.7409 64.9864C14.3301 64.2658 13.9503 63.6384 14.113 62.1258C14.3453 59.9622 15.3119 58.1851 17.0296 56.8354C18.3709 55.7807 19.9224 55.294 21.6367 55.2143C21.6367 53.7696 21.6367 52.3656 21.6367 50.9022C21.3484 50.9022 21.0992 50.9022 20.8499 50.9022C15.1169 50.9022 9.38382 50.9039 3.65077 50.8988C3.29298 50.8988 2.92503 50.8988 2.57911 50.8242C1.1734 50.5173 0.396786 49.5593 0 48.2332ZM2.16198 42.2526C2.16198 43.9161 2.16198 45.5185 2.16198 47.1192C2.16198 48.4554 2.45193 48.7419 3.81016 48.7419C22.9356 48.7419 42.061 48.7419 61.1881 48.7419C61.4001 48.7419 61.6138 48.7589 61.8223 48.7318C62.3972 48.6606 62.8024 48.3231 62.8143 47.7534C62.8516 45.9407 62.8279 44.128 62.8279 42.2526C62.1208 42.2526 61.4696 42.2645 60.8202 42.2492C60.0741 42.2323 59.5891 41.7948 59.5857 41.164C59.5823 40.5315 60.0639 40.1025 60.8151 40.0907C61.4662 40.0805 62.1157 40.089 62.838 40.089C62.838 39.7973 62.838 39.5701 62.838 39.3446C62.838 27.4783 62.838 15.612 62.838 3.74573C62.838 2.48246 62.5243 2.16537 61.2729 2.16537C42.0831 2.16537 22.8949 2.16537 3.70503 2.16537C2.49093 2.16537 2.16367 2.49263 2.16367 3.70673C2.16367 15.595 2.16367 27.4817 2.16367 39.37C2.16367 39.5938 2.16367 39.816 2.16367 40.0907C2.52485 40.0907 2.79615 40.0907 3.06746 40.0907C14.8303 40.0907 26.5931 40.0907 38.3577 40.0907C38.612 40.0907 38.8681 40.0788 39.119 40.1059C39.682 40.167 40.0076 40.518 40.0669 41.0538C40.1263 41.593 39.8702 42.0118 39.3327 42.1695C39.0563 42.2509 38.7494 42.2526 38.456 42.2526C26.6508 42.256 14.8456 42.256 3.04033 42.256C2.76902 42.2526 2.49941 42.2526 2.16198 42.2526ZM48.7165 62.799C48.8216 59.8706 46.3222 57.4119 43.2039 57.4034C36.0753 57.3831 28.945 57.3763 21.8165 57.4238C20.9381 57.4305 20.0021 57.6713 19.2 58.0393C17.3433 58.8922 16.0987 61.061 16.3225 62.799C27.1018 62.799 37.8829 62.799 48.7165 62.799ZM41.103 55.2075C41.103 53.7391 41.103 52.3368 41.103 50.948C35.3292 50.948 29.608 50.948 23.897 50.948C23.897 52.3944 23.897 53.7984 23.897 55.2075C29.6555 55.2075 35.3614 55.2075 41.103 55.2075Z" fill="url(#paint0_linear_32_1192)"/>
<path d="M22.5506 26.9138C19.3441 30.1203 16.1698 33.2879 13.0057 36.4621C12.2664 37.2031 11.422 37.7085 10.3707 37.8611C8.61055 38.1154 6.86401 37.2693 5.98057 35.7093C5.12086 34.1933 5.27517 32.2365 6.37057 30.8885C6.57066 30.6426 6.79618 30.4188 7.02001 30.1933C9.97895 27.2309 12.9413 24.2703 15.9002 21.308C16.063 21.1452 16.219 20.9756 16.509 20.6738C15.4305 19.787 14.4148 18.8815 13.3245 18.0794C12.631 17.5707 11.834 17.2011 11.071 16.7907C9.79582 16.1057 9.16333 14.1675 10.5673 12.8262C12.9972 10.5032 15.3712 8.11907 17.7027 5.69596C18.9965 4.3496 20.9007 4.88713 21.6316 6.17923C21.6519 6.21653 21.6791 6.25044 21.696 6.28775C22.7473 8.62438 24.4108 10.4743 26.2472 12.2243C28.4973 14.3676 30.6695 16.594 32.8467 18.8136C33.5657 19.5462 34.3406 20.1702 35.2529 20.6382C35.9294 20.9858 36.5992 21.3521 37.2368 21.7624C38.6713 22.6832 38.8562 24.3975 37.6556 25.6014C35.2529 28.0143 32.845 30.4222 30.4304 32.8232C29.2366 34.0102 27.4935 33.8016 26.5982 32.362C26.2421 31.7889 25.9352 31.1852 25.5994 30.5968C25.3078 30.083 25.0772 29.5133 24.6973 29.0741C24.0479 28.328 23.3035 27.6633 22.5506 26.9138ZM16.5751 17.7064C19.59 20.7196 22.6235 23.7497 25.5943 26.7188C27.5868 24.7298 29.6131 22.7069 31.5868 20.7365C28.5957 17.7454 25.5621 14.7118 22.5642 11.7156C20.5837 13.6978 18.5692 15.7123 16.5751 17.7064ZM17.9215 22.3355C16.7786 23.4784 15.6459 24.6128 14.5115 25.7489C12.436 27.8261 10.3537 29.8982 8.28668 31.9839C7.28284 32.9962 7.37271 34.4918 8.45624 35.3074C9.36682 35.9924 10.5199 35.867 11.4287 34.9598C14.5098 31.8838 17.5857 28.8045 20.6617 25.7235C20.777 25.6082 20.8736 25.4759 20.9635 25.3708C19.9461 24.3568 18.9609 23.3733 17.9215 22.3355ZM36.4585 23.7904C35.4055 23.2037 34.5153 22.6933 33.6047 22.2202C33.5131 22.1728 33.2672 22.322 33.1519 22.4373C31.1884 24.3856 29.2383 26.3475 27.2731 28.2958C27.034 28.5332 27.0051 28.7146 27.1781 29.0012C27.5698 29.6506 27.9496 30.3103 28.2955 30.9868C28.555 31.4938 28.7805 31.4396 29.1349 31.075C30.254 29.9237 31.3901 28.7909 32.5296 27.6616C33.7844 26.4119 35.0511 25.1741 36.4585 23.7904ZM11.8204 14.7135C12.8073 15.2765 13.7416 15.8106 14.5776 16.2871C16.7955 14.0641 18.9507 11.9038 21.1297 9.71978C20.7464 9.03812 20.3056 8.29372 19.9071 7.52559C19.6443 7.01858 19.4289 7.0118 19.0287 7.41876C16.7769 9.70621 14.4996 11.9699 12.2342 14.2421C12.1189 14.3574 12.0171 14.4897 11.8204 14.7135Z" fill="url(#paint1_linear_32_1192)"/>
<path d="M52.9354 35.9649C54.1902 37.3943 55.3873 38.761 56.5861 40.126C57.6086 41.2893 57.5781 42.4288 56.4861 43.5377C56.0707 43.9599 55.6552 44.3805 55.2262 44.7891C54.1952 45.7743 52.8879 45.7285 51.9332 44.662C50.7073 43.2919 49.4949 41.9099 48.274 40.533C48.1366 40.377 47.9925 40.2278 47.8212 40.0447C47.1854 40.5517 46.58 41.04 45.9679 41.5199C44.4723 42.6933 42.7987 42.1473 42.2781 40.3126C41.237 36.6381 40.2111 32.9585 39.1581 29.289C38.8817 28.3293 38.9749 27.4815 39.7414 26.7998C40.5112 26.1147 41.3743 26.1266 42.2832 26.5302C45.9306 28.1462 49.5847 29.7452 53.2287 31.3645C55.0566 32.1768 55.2957 34.0318 53.7527 35.3002C53.4949 35.5138 53.2321 35.7241 52.9354 35.9649ZM55.1482 41.7776C53.673 40.0938 52.2232 38.4439 50.7819 36.7907C50.0595 35.9632 50.1053 35.4579 50.943 34.7762C51.4737 34.3455 52.0044 33.9148 52.5844 33.4434C48.7606 31.7596 45.0319 30.1165 41.1657 28.4124C42.2798 32.3497 43.3481 36.126 44.4367 39.9751C45.3761 39.2256 46.2154 38.5525 47.0599 37.8861C47.8433 37.2672 48.3096 37.3062 48.9607 38.037C49.6068 38.7627 50.2477 39.4936 50.8921 40.2227C51.7976 41.2469 52.7048 42.2728 53.6001 43.2851C54.124 42.773 54.6073 42.3033 55.1482 41.7776Z" fill="url(#paint2_linear_32_1192)"/>
<path d="M48.7844 5.42795C51.9366 5.42795 55.0872 5.43304 58.2394 5.42287C58.8176 5.42117 59.2975 5.55513 59.5146 6.14353C59.7265 6.71836 59.4213 7.33219 58.8278 7.50854C58.5701 7.58484 58.2869 7.59163 58.0139 7.59163C51.8383 7.59671 45.661 7.59502 39.4853 7.59502C39.2954 7.59502 39.1021 7.60349 38.9156 7.57636C38.295 7.48819 37.9169 7.04393 37.9389 6.45214C37.9609 5.86205 38.3645 5.45678 39.0123 5.43813C39.794 5.41439 40.5774 5.42795 41.3591 5.42795C43.8347 5.42626 46.3087 5.42795 48.7844 5.42795Z" fill="url(#paint3_linear_32_1192)"/>
<path d="M32.5023 46.5785C31.8071 46.5785 31.1102 46.5921 30.4167 46.5752C29.7214 46.5565 29.2568 46.1105 29.2534 45.4967C29.25 44.8829 29.718 44.4284 30.4099 44.4217C31.8003 44.4081 33.1925 44.4098 34.5829 44.4217C35.2764 44.4284 35.7444 44.8761 35.7444 45.4899C35.7461 46.1038 35.2815 46.5565 34.5897 46.5752C33.8945 46.5921 33.1993 46.5785 32.5023 46.5785Z" fill="url(#paint4_linear_32_1192)"/>
<path d="M50.5072 21.0598C50.2783 21.4464 50.1664 21.7516 49.9595 21.9669C49.1269 22.8334 48.274 23.6796 47.4143 24.5189C46.8904 25.0293 46.2324 25.0395 45.7916 24.5749C45.3609 24.1204 45.3829 23.5134 45.8865 22.9979C46.7411 22.1229 47.6093 21.2632 48.4809 20.4052C48.8234 20.0678 49.266 19.8931 49.6848 20.1645C50.0036 20.373 50.2206 20.7376 50.5072 21.0598Z" fill="url(#paint5_linear_32_1192)"/>
<path d="M43.3175 20.041C43.3175 20.5904 43.3379 21.1398 43.3125 21.6892C43.2836 22.2979 42.8868 22.693 42.3273 22.7286C41.744 22.7659 41.2166 22.3895 41.1912 21.7791C41.142 20.6192 41.142 19.4543 41.1912 18.2962C41.2166 17.6891 41.7474 17.3144 42.3324 17.3534C42.8953 17.3907 43.2853 17.7841 43.3142 18.3945C43.3362 18.9422 43.3175 19.4916 43.3175 20.041Z" fill="url(#paint6_linear_32_1192)"/>
<path d="M33.5795 5.43585C33.9593 5.43585 34.3409 5.4172 34.719 5.43924C35.3091 5.47316 35.6465 5.81398 35.7296 6.38542C35.8059 6.91278 35.4854 7.46217 34.9428 7.50965C34.0458 7.58765 33.1319 7.58935 32.2349 7.51304C31.6872 7.46726 31.3735 6.93482 31.4413 6.3939C31.5125 5.81568 31.8516 5.47655 32.44 5.43924C32.8182 5.4155 33.198 5.43585 33.5795 5.43585Z" fill="url(#paint7_linear_32_1192)"/>
<defs>
<linearGradient id="paint0_linear_32_1192" x1="-4.84288e-07" y1="64.9864" x2="67.9954" y2="61.6846" gradientUnits="userSpaceOnUse">
<stop stop-color="#9914B3"/>
<stop offset="1" stop-color="#7023BC"/>
</linearGradient>
<linearGradient id="paint1_linear_32_1192" x1="5.42822" y1="37.9058" x2="39.9688" y2="36.2276" gradientUnits="userSpaceOnUse">
<stop stop-color="#9914B3"/>
<stop offset="1" stop-color="#7023BC"/>
</linearGradient>
<linearGradient id="paint2_linear_32_1192" x1="39.0161" y1="45.4963" x2="58.178" y2="44.6111" gradientUnits="userSpaceOnUse">
<stop stop-color="#9914B3"/>
<stop offset="1" stop-color="#7023BC"/>
</linearGradient>
<linearGradient id="paint3_linear_32_1192" x1="37.938" y1="7.59627" x2="56.3329" y2="-1.29719" gradientUnits="userSpaceOnUse">
<stop stop-color="#9914B3"/>
<stop offset="1" stop-color="#7023BC"/>
</linearGradient>
<linearGradient id="paint4_linear_32_1192" x1="29.2534" y1="46.5837" x2="35.9192" y2="45.6164" gradientUnits="userSpaceOnUse">
<stop stop-color="#9914B3"/>
<stop offset="1" stop-color="#7023BC"/>
</linearGradient>
<linearGradient id="paint5_linear_32_1192" x1="45.4873" y1="24.913" x2="50.7378" y2="24.6508" gradientUnits="userSpaceOnUse">
<stop stop-color="#9914B3"/>
<stop offset="1" stop-color="#7023BC"/>
</linearGradient>
<linearGradient id="paint6_linear_32_1192" x1="41.1543" y1="22.7312" x2="43.4298" y2="22.6866" gradientUnits="userSpaceOnUse">
<stop stop-color="#9914B3"/>
<stop offset="1" stop-color="#7023BC"/>
</linearGradient>
<linearGradient id="paint7_linear_32_1192" x1="31.4321" y1="7.56923" x2="35.9073" y2="7.13209" gradientUnits="userSpaceOnUse">
<stop stop-color="#9914B3"/>
<stop offset="1" stop-color="#7023BC"/>
</linearGradient>
</defs>
</svg>
