<svg width="65" height="64" viewBox="0 0 65 64" fill="none" xmlns="http://www.w3.org/2000/svg">
<path d="M17.1381 63.9171C15.5832 63.9 14.5751 62.909 14.558 61.3882C14.558 60.6535 14.558 59.9188 14.558 59.2011C14.558 58.2443 14.558 57.2532 14.5409 56.2793C14.5409 55.9375 14.3188 55.4933 14.0454 55.3053C10.4059 52.5373 7.7745 49.0003 6.2196 44.814C6.09999 44.5065 5.89495 44.1476 5.34817 44.1476C5.33108 44.1476 5.29691 44.1476 5.27983 44.1476C5.02352 44.1647 4.75014 44.1647 4.45966 44.1647C4.08375 44.1647 3.72493 44.1476 3.33193 44.1476C1.74286 44.0964 0.615123 43.242 0.136692 41.7384C0.102519 41.6359 0.0512615 41.5504 0.0170879 41.465C1.04264e-06 38.3552 0 35.1941 0 32.1356C0.0341736 32.1014 0.0683473 32.0502 0.0854341 31.9818C0.649299 30.239 1.70868 29.453 3.53697 29.4188H3.60532C3.79327 29.4188 3.98123 29.4359 4.20336 29.453C4.4084 29.4701 4.63053 29.4871 4.83557 29.4871C5.09187 29.4871 5.48487 29.4701 5.79243 29.265C6.16834 29.0258 6.33921 28.5303 6.49299 28.0689C6.57842 27.8126 6.66386 27.5563 6.78346 27.3513C7.29607 26.4628 7.82576 25.5743 8.33836 24.7199C8.71427 24.1048 9.10727 23.4555 9.48318 22.8062C9.65405 22.5328 9.84201 22.1056 9.84201 21.6956C9.85909 19.8673 9.85909 17.9877 9.85909 16.1765C9.85909 15.5614 9.85909 14.9633 9.85909 14.3482C9.85909 12.9471 10.6451 12.0073 11.8412 12.0073C12.2854 12.0073 12.7468 12.144 13.2081 12.4003L18.0779 15.2196C18.2145 15.3051 18.3683 15.3734 18.4879 15.4418L18.5905 15.493L18.9151 15.6468L18.9664 15.288C19.0176 14.8437 19.0689 14.3995 19.1031 13.9552C19.1885 13.0496 19.2739 12.1782 19.4619 11.3239C20.1112 8.38492 21.7857 5.75355 24.1778 3.874C26.57 2.01154 29.5602 0.986328 32.6358 0.986328C32.7383 0.986328 32.8579 0.986328 32.9605 0.986328C39.1801 1.14011 44.6308 5.87316 45.6731 11.9732C45.8439 12.9813 45.8439 14.0407 45.8268 15.0659C45.8268 15.3222 45.8268 15.5614 45.8268 15.8177C45.8268 16.279 45.9635 16.5182 46.3565 16.7233C52.6445 20.414 56.5061 25.916 57.8047 33.1095C57.873 33.4855 57.9243 33.8785 57.9585 34.2885C58.0097 34.6815 58.0439 35.0745 58.0781 35.5188L58.0952 35.758H58.3344C58.6078 35.758 58.8812 35.758 59.1546 35.7751C59.4279 35.7751 59.6843 35.7922 59.9576 35.7922C60.3677 35.7922 60.7095 35.7751 61.017 35.758C62.0593 35.6897 62.9137 34.7499 62.9649 33.6563C62.9991 32.5799 62.2644 31.6401 61.1879 31.4179C61.0854 31.4009 60.9828 31.3838 60.8803 31.3667C60.7949 31.3496 60.6924 31.3496 60.6069 31.3325C60.0431 31.23 59.7013 30.8541 59.7013 30.3415C59.6843 29.8801 59.9576 29.3846 60.5044 29.3504C60.5899 29.3504 60.6924 29.3334 60.7949 29.3334C61.2221 29.3334 61.6321 29.3846 61.991 29.5042C63.9218 30.0681 65.2375 32.0843 64.9641 34.0664C64.6736 36.1681 62.9478 37.7401 60.8632 37.8084C60.5899 37.8084 60.3165 37.8084 60.0431 37.8084C59.7697 37.8084 59.4963 37.8084 59.2229 37.8084C58.9324 37.8084 58.642 37.8084 58.3515 37.8084H58.1293L58.0952 38.0305C58.0439 38.3723 58.0097 38.6969 57.9585 39.0216C57.873 39.6367 57.8047 40.2177 57.7022 40.7986C56.6257 46.6423 53.6697 51.4608 48.9366 55.1174C48.4582 55.4933 48.2703 55.8521 48.2703 56.4331C48.3044 57.595 48.2873 58.791 48.2873 59.9358C48.2873 60.3288 48.2873 60.7048 48.2873 61.0977C48.2703 62.909 47.3134 63.8829 45.5022 63.9C45.0408 63.9 44.5624 63.9 44.1011 63.9C43.6226 63.9 43.1613 63.9 42.6829 63.9C42.2044 63.9 41.7431 63.9 41.2817 63.9H41.2305C40.0857 63.9 39.3168 63.4216 38.8042 62.3793C38.6846 62.14 38.5649 61.9008 38.4453 61.6787C38.2061 61.2174 37.9669 60.756 37.7448 60.2947C37.5227 59.7991 37.1467 59.7308 36.7879 59.7308C35.0109 59.7308 33.2168 59.7479 31.4568 59.7479C29.6798 59.7479 27.8857 59.7479 26.1087 59.7308C25.7327 59.7308 25.3739 59.7992 25.1347 60.3118C24.9126 60.7731 24.6734 61.2344 24.4512 61.6958C24.3145 61.9521 24.1778 62.2255 24.0582 62.4818C23.5456 63.4728 22.7596 63.9512 21.649 63.9512H17.1381V63.9171ZM6.32212 42.0972C7.2619 42.0972 7.50111 42.2681 7.7745 43.1395C9.24397 47.6675 11.9608 51.3412 15.8737 54.058C16.3863 54.4168 16.6084 54.8269 16.6084 55.4591C16.5913 57.2532 16.5913 59.0986 16.6084 60.8927C16.6084 61.0807 16.6255 61.2686 16.6426 61.4907L16.6596 61.8496H16.8989C17.3089 61.8496 17.7019 61.8496 18.112 61.8496C18.505 61.8496 18.898 61.8496 19.2739 61.8496C20.2137 61.8496 20.9484 61.8496 21.6148 61.8325C21.9395 61.8325 22.2129 61.4395 22.2983 61.2515C22.828 60.2776 23.3406 59.2524 23.8361 58.2613C24.0924 57.7487 24.4341 57.5779 25.1176 57.5779C27.1851 57.595 29.3039 57.595 31.3714 57.595C33.456 57.595 35.5577 57.5779 37.6423 57.5779C38.377 57.5779 38.6504 57.6633 38.975 58.2784C39.2313 58.7739 39.5047 59.2865 39.7439 59.7821C40.0002 60.2776 40.2565 60.7902 40.5299 61.2857C40.6325 61.4737 40.8717 61.8154 41.1792 61.8154C41.8456 61.8325 42.5803 61.8325 43.5372 61.8325C43.9302 61.8325 44.3232 61.8325 44.7333 61.8325C45.1434 61.8325 45.5364 61.8325 45.9464 61.8325H46.1857L46.2028 61.4566C46.2198 61.2174 46.2369 61.0294 46.2369 60.8244C46.2369 60.3288 46.2369 59.8504 46.2369 59.3549C46.2369 58.1588 46.254 56.9115 46.2198 55.6983C46.1857 54.8782 46.4591 54.3485 47.1767 53.8529C55.9422 47.6163 58.5736 35.8434 53.2767 26.4628C51.4484 23.2163 48.8683 20.5849 45.6047 18.637L45.3655 18.5003L45.0067 19.2692C44.6991 19.9356 44.4086 20.5678 44.1011 21.2342L44.0156 21.4222L44.2549 21.6101C44.3745 21.6956 44.477 21.781 44.5795 21.8835C44.7333 22.0202 44.8871 22.1569 45.0409 22.2765C45.5022 22.6524 45.9635 23.0625 46.3907 23.4726C46.8691 23.9339 46.9033 24.532 46.4761 24.9933C46.2882 25.1983 46.049 25.3009 45.7927 25.3009C45.5193 25.3009 45.2288 25.1813 44.9554 24.942C44.8187 24.8054 44.6649 24.6687 44.5112 24.5149L44.4941 24.4978C40.9913 21.4051 37.01 19.8331 32.67 19.8331C31.5081 19.8331 30.2778 19.9527 29.0647 20.1748C25.7498 20.7729 22.7426 22.3278 20.1454 24.8054C19.7865 25.1471 19.4277 25.335 19.1201 25.335C18.8809 25.335 18.6417 25.2325 18.4538 25.0104C18.2316 24.7541 18.1291 24.5149 18.1633 24.2415C18.2145 23.951 18.4025 23.6434 18.7613 23.3188C19.0689 23.0283 19.4106 22.7549 19.7353 22.4815C19.9916 22.2594 20.2479 22.0544 20.5042 21.8152C20.675 21.6785 20.863 21.3367 20.7776 21.0975V21.0804C20.4871 20.3799 20.1624 19.6793 19.8891 19.0642C19.7353 18.7395 19.5986 18.432 19.479 18.1415L19.4277 18.039L19.3252 18.0048C19.1201 17.9365 18.9322 17.8681 18.7442 17.8168C18.3342 17.6972 17.9924 17.5776 17.6849 17.4068C16.3863 16.6891 15.1047 15.9373 13.8403 15.1855L12.9347 14.6558C12.7468 14.5533 12.5246 14.4507 12.2683 14.314L11.8924 14.1261L11.8753 14.5362C11.8753 15.2196 11.8753 15.9031 11.8753 16.5695C11.8753 18.5857 11.8753 20.4995 11.8583 22.4474C11.8583 22.8404 11.6874 23.3017 11.4482 23.6264C9.73949 25.8135 8.52632 28.0689 7.75741 30.5465C7.50111 31.3496 7.26189 31.5376 6.35629 31.5376H3.41736C2.64846 31.5376 2.11877 31.9135 2.06751 32.5457C1.99916 33.2462 2.01624 33.9468 2.03333 34.6303C2.03333 34.9378 2.05042 35.2454 2.05042 35.553V35.8093H3.91288C4.63053 35.8263 5.09187 36.2193 5.09187 36.8345C5.09187 37.4496 4.63052 37.8255 3.8787 37.8426H2.01624V40.679C2.01624 41.653 2.47759 42.1143 3.43445 42.1143C3.74201 42.1143 4.06666 42.1143 4.39131 42.1143C4.71596 42.1143 5.02352 42.1143 5.34817 42.1143C5.68991 42.0972 5.99747 42.0972 6.32212 42.0972ZM32.4479 9.03422C32.072 9.03422 31.679 9.13674 31.3543 9.3247C30.8246 9.64935 30.5171 10.1619 30.5171 10.7258C30.5341 11.2726 30.8417 11.7681 31.3714 12.0415C31.7986 12.2636 32.3112 12.332 32.7042 12.3661C34.5837 12.4858 36.0703 13.716 36.3266 15.3734C36.412 15.886 36.3437 16.4328 36.2924 16.9625C36.2582 17.2188 36.2411 17.4922 36.2241 17.7485V17.9365L36.3949 18.0048C38.2574 18.6883 40.3078 19.4059 42.0677 20.0381L42.2557 20.1065L42.3582 19.9356C45.1263 15.5101 43.9131 9.06839 39.6243 5.58268C37.591 3.92526 35.0451 3.01966 32.4479 3.01966C29.5089 3.01966 26.7067 4.14739 24.5708 6.19781C20.3333 10.2474 20.2137 16.3645 22.5546 19.9356L22.6571 20.1065L24.5025 19.4401C25.8524 18.9446 27.2535 18.4491 28.6033 17.9706L28.8255 17.9023L28.7742 17.6801C28.7571 17.5605 28.7229 17.458 28.6888 17.3384C28.6033 16.9796 28.5179 16.6037 28.4837 16.2107C28.4325 15.5785 28.7913 15.1 29.3722 15.0488C29.4064 15.0488 29.4406 15.0488 29.4748 15.0488C29.9874 15.0488 30.3804 15.4247 30.4829 16.0398C30.6537 17.0479 31.4568 17.7485 32.4479 17.7485C32.8409 17.7485 33.2509 17.6289 33.6098 17.3897C34.1053 17.065 34.3787 16.5524 34.3616 16.0056C34.3445 15.493 34.054 15.0317 33.5756 14.7412C33.1313 14.502 32.6016 14.4337 32.1916 14.3995C30.312 14.2457 28.7913 12.9471 28.5008 11.2555C28.2103 9.59809 29.133 8.06027 30.893 7.2401C31.1664 7.1205 31.3543 6.79585 31.4227 6.53954C31.5764 6.02694 31.9523 5.70229 32.4308 5.70229H32.465C32.9776 5.71938 33.3535 6.02694 33.4389 6.50537C33.5072 6.9838 33.7806 7.15467 34.0882 7.30845C35.5748 7.97484 36.3266 9.03422 36.412 10.5208C36.4462 11.1701 36.0874 11.6314 35.5064 11.6827C35.4722 11.6827 35.4381 11.6827 35.4039 11.6827C35.1476 11.6827 34.9084 11.5802 34.7204 11.4093C34.5837 11.2897 34.4299 11.0676 34.4299 10.7087C34.4128 9.80313 33.5243 9.03422 32.4479 9.03422Z" fill="url(#paint0_linear_32_1203)"/>
<path d="M15.532 30.1368C14.9853 30.1368 14.5581 29.7097 14.541 29.1458C14.5239 28.599 14.9682 28.1377 15.532 28.1035H15.5491C16.113 28.1035 16.5743 28.5649 16.5743 29.1287C16.5743 29.6755 16.113 30.1368 15.5662 30.1368H15.532Z" fill="url(#paint1_linear_32_1203)"/>
<defs>
<linearGradient id="paint0_linear_32_1203" x1="-4.84288e-07" y1="63.9512" x2="67.9849" y2="60.5439" gradientUnits="userSpaceOnUse">
<stop stop-color="#9914B3"/>
<stop offset="1" stop-color="#7023BC"/>
</linearGradient>
<linearGradient id="paint1_linear_32_1203" x1="14.5405" y1="30.1368" x2="16.6681" y2="30.0335" gradientUnits="userSpaceOnUse">
<stop stop-color="#9914B3"/>
<stop offset="1" stop-color="#7023BC"/>
</linearGradient>
</defs>
</svg>
