<svg width="65" height="64" viewBox="0 0 65 64" fill="none" xmlns="http://www.w3.org/2000/svg">
<path d="M22.952 14.5241C23.4862 14.7825 23.986 14.9376 24.3823 15.2478C25.4334 16.0922 26.4156 16.1783 27.6046 15.4029C28.3628 14.9032 29.3105 14.7136 30.1894 14.4207C30.534 14.3001 30.7235 14.145 30.8097 13.7831C30.9648 13.0938 31.1543 12.4046 31.3611 11.7325C31.6024 10.9226 32.0676 10.5608 32.912 10.5608C34.1354 10.5435 35.3589 10.5435 36.5823 10.5608C37.4439 10.5608 37.9264 10.9399 38.1676 11.7842C38.3572 12.4735 38.5123 13.1628 38.7363 13.8348C38.8052 14.0416 39.0465 14.2656 39.2532 14.369C40.5112 14.9204 41.7691 15.4373 43.0442 15.9371C43.2682 16.0232 43.5784 16.0405 43.7852 15.9371C44.4228 15.6269 45.0259 15.2478 45.6462 14.9032C46.4216 14.4724 47.0075 14.5413 47.6278 15.1444C48.5067 16.006 49.3682 16.8676 50.2298 17.7464C50.8329 18.3667 50.9019 18.9698 50.4711 19.728C50.1437 20.3312 49.7646 20.8998 49.4716 21.5201C49.3682 21.7442 49.351 22.0888 49.4372 22.33C49.9369 23.6052 50.4538 24.8803 51.0053 26.121C51.0914 26.3278 51.3327 26.569 51.5394 26.638C52.2287 26.8792 52.9524 27.0171 53.6417 27.2238C54.4516 27.4651 54.8135 27.9476 54.8135 28.7747C54.8307 29.9981 54.8307 31.2216 54.8135 32.445C54.8135 33.3066 54.4344 33.7719 53.59 34.0304C52.918 34.2199 52.2115 34.375 51.5394 34.599C51.3154 34.6679 51.0914 34.9092 51.0053 35.116C50.4538 36.3739 49.9369 37.6318 49.4372 38.9069C49.351 39.1482 49.351 39.4928 49.4716 39.7168C49.7646 40.3372 50.1437 40.9058 50.4711 41.5089C50.9019 42.2843 50.8329 42.8875 50.2298 43.5078C49.3682 44.3866 48.5067 45.2482 47.6278 46.1098C46.9903 46.7301 46.4216 46.799 45.6462 46.3683C44.9397 45.9719 44.2504 45.2827 43.5095 45.231C42.803 45.1965 42.062 45.8341 41.3038 46.1442C40.6318 46.4199 39.9253 46.6095 39.2532 46.8852C39.0292 46.9886 38.7708 47.2298 38.7018 47.4538C38.4778 48.1259 38.3227 48.8152 38.1332 49.5044C37.8919 50.3143 37.4267 50.6762 36.5823 50.6762C35.3416 50.6934 34.0837 50.6934 32.843 50.6762C32.0332 50.6762 31.5679 50.3143 31.3267 49.5389C31.0854 48.7118 31.0854 47.6951 30.5685 47.1264C30.086 46.575 29.0521 46.5406 28.2766 46.2132C27.6391 45.9547 27.0532 45.5928 26.4156 45.3344C26.1916 45.2482 25.847 45.2482 25.623 45.3516C24.9854 45.6618 24.3823 46.0409 23.7619 46.3855C23.0037 46.799 22.4351 46.7301 21.832 46.1442C20.9359 45.2654 20.0571 44.3866 19.1783 43.5078C18.6097 42.9219 18.5235 42.3533 18.9026 41.6295C19.2645 40.9747 19.6608 40.3372 20.0054 39.6651C20.0916 39.4756 20.0916 39.1826 20.0227 38.9759C19.5057 37.6835 18.9715 36.3911 18.4201 35.116C18.334 34.9092 18.1099 34.6679 17.8859 34.599C17.2139 34.375 16.5246 34.2199 15.8354 34.0304C15.0082 33.7891 14.6464 33.3411 14.6291 32.514C14.6119 31.2733 14.6119 30.0154 14.6291 28.7747C14.6464 27.8959 15.0082 27.4478 15.8698 27.2066C16.5246 27.0343 17.2139 26.8792 17.8515 26.6552C18.0755 26.569 18.3167 26.3278 18.4201 26.0865C18.9715 24.8286 19.5057 23.5707 20.0054 22.2956C20.0916 22.0888 20.0916 21.7614 19.9882 21.5546C19.678 20.917 19.2989 20.3139 18.9543 19.6936C18.5235 18.9009 18.5924 18.3495 19.2128 17.7119C20.0744 16.8331 20.9187 15.9543 21.8148 15.1272C22.1422 14.9032 22.5557 14.7481 22.952 14.5241ZM48.8341 19.056C47.9897 18.2117 47.1971 17.4018 46.3699 16.5746C45.6634 16.971 44.888 17.4018 44.147 17.8498C43.6473 18.1427 43.1993 18.16 42.7168 17.8326C41.321 16.9537 39.8219 16.3162 38.2193 15.9715C37.6507 15.8509 37.3233 15.5235 37.1854 14.9721C36.9787 14.1105 36.7202 13.2489 36.4789 12.3873C35.3072 12.3873 34.1871 12.3873 33.0326 12.3873C32.7914 13.2662 32.5329 14.1277 32.3089 15.0066C32.171 15.558 31.8608 15.8509 31.3267 15.9715C29.7241 16.3162 28.2077 16.9537 26.8292 17.8153C26.3122 18.1427 25.847 18.1427 25.33 17.8153C24.5891 17.3501 23.8136 16.9365 23.1588 16.5746C22.3145 17.419 21.5046 18.2117 20.6775 19.0388C21.1083 19.7797 21.5563 20.5896 22.0215 21.3823C22.2628 21.7958 22.2628 22.1922 22.0043 22.5885C21.091 24.036 20.4362 25.5868 20.0571 27.2583C19.9365 27.7925 19.6436 28.0682 19.1266 28.206C18.3856 28.3956 17.6447 28.6196 16.8865 28.8091C16.5763 28.8953 16.4212 29.0332 16.4385 29.3778C16.4557 30.2221 16.4729 31.0493 16.4385 31.8936C16.4212 32.2727 16.5763 32.4106 16.921 32.4967C17.6447 32.6691 18.3684 32.8931 19.0921 33.0826C19.6263 33.2205 19.9193 33.5134 20.0571 34.0648C20.419 35.6846 21.0393 37.2182 21.9526 38.614C22.2628 39.0965 22.2455 39.51 21.9698 39.9925C21.5046 40.768 21.0738 41.5434 20.6775 42.2499C21.5218 43.0942 22.3317 43.8869 23.1588 44.714C23.8998 44.2832 24.7097 43.8352 25.5023 43.3699C25.9159 43.1287 26.3122 43.1287 26.7086 43.3872C28.1733 44.3177 29.7586 44.9553 31.4473 45.3516C31.9298 45.455 32.1882 45.7307 32.3089 46.1959C32.4984 46.9714 32.7397 47.7296 32.9292 48.4878C33.0154 48.8152 33.1704 48.9358 33.5151 48.9358C34.3594 48.9185 35.1866 48.9185 36.0309 48.9358C36.41 48.953 36.5479 48.7807 36.634 48.4361C36.8063 47.7468 37.0304 47.0748 37.1682 46.3855C37.3061 45.7651 37.6335 45.4205 38.271 45.2827C39.8563 44.938 41.3383 44.3177 42.7168 43.4389C43.2165 43.1287 43.6473 43.1115 44.147 43.4044C44.9052 43.8697 45.6979 44.3004 46.3872 44.6795C47.2315 43.818 48.0414 43.0253 48.8685 42.1982C48.455 41.4917 48.0242 40.699 47.5589 39.9236C47.2832 39.4583 47.3004 39.0448 47.5762 38.5968C48.4722 37.1665 49.127 35.6329 49.4716 33.9787C49.5923 33.4617 49.8852 33.1688 50.4021 33.0481C51.1603 32.8758 51.9013 32.669 52.6423 32.4278C52.8146 32.3761 53.0558 32.1521 53.0558 31.997C53.0903 30.9631 53.0731 29.9464 53.0731 28.8781C52.1598 28.6368 51.2982 28.3956 50.4366 28.1716C49.9024 28.0337 49.5923 27.7236 49.4716 27.1894C49.127 25.5524 48.4894 24.036 47.5934 22.623C47.3004 22.1405 47.3004 21.7097 47.5762 21.2444C48.0069 20.5379 48.4377 19.7453 48.8341 19.056Z" fill="url(#paint0_linear_32_1270)"/>
<path d="M7.09888 25.8628C6.97826 27.293 6.78871 28.706 6.75425 30.1363C6.34069 43.6804 16.1283 55.9149 29.4656 58.4479C31.0337 58.7409 32.6535 58.827 34.256 58.9994C34.4284 59.0166 34.6007 58.9994 34.773 59.0338C35.2899 59.12 35.5829 59.4129 35.6001 59.9471C35.6174 60.4296 35.2038 60.8259 34.6524 60.7915C33.3083 60.7225 31.9298 60.7225 30.6029 60.4813C18.6441 58.3273 10.528 51.5553 6.46131 40.079C4.8243 35.4609 4.56582 30.6704 5.37571 25.8283C5.41018 25.6388 5.41018 25.4492 5.44464 25.1735C5.23786 25.2597 5.08277 25.3114 4.96215 25.3803C3.82486 26.0351 2.68757 26.6899 1.55027 27.3447C0.947165 27.6894 0.412983 27.6032 0.137276 27.1552C-0.155663 26.6555 0.016653 26.173 0.688689 25.7939C2.56695 24.691 4.42797 23.6054 6.30622 22.5198C6.85764 22.1924 7.35736 22.3303 7.66753 22.8817C8.75313 24.7772 9.85596 26.6727 10.9416 28.5854C11.2862 29.1885 11.1828 29.7055 10.7003 29.9812C10.2178 30.2569 9.75257 30.0846 9.3907 29.4642C8.78759 28.4475 8.20171 27.4136 7.61583 26.397C7.51244 26.2247 7.39182 26.0523 7.28843 25.88C7.21951 25.8456 7.16781 25.8456 7.09888 25.8628Z" fill="url(#paint1_linear_32_1270)"/>
<path d="M54.693 8.09651C54.693 6.52842 54.693 5.06373 54.693 3.59903C54.693 2.82361 54.9859 2.44451 55.589 2.44451C56.1749 2.44451 56.4851 2.84084 56.4851 3.61626C56.4851 5.73576 56.5023 7.8725 56.5023 9.992C56.5023 10.733 56.1404 11.0948 55.3995 11.0948C53.2972 11.0948 51.1777 11.0948 49.0755 11.0948C48.9548 11.0948 48.817 11.0948 48.6964 11.0948C48.1622 11.0259 47.8175 10.6468 47.8692 10.1298C47.9209 9.59566 48.2483 9.31996 48.7653 9.31996C49.9887 9.30273 51.2122 9.31996 52.4356 9.31996C52.6596 9.31996 52.9009 9.31996 53.1938 9.18211C52.4012 8.59623 51.6257 7.95865 50.7986 7.40724C44.8537 3.46118 38.3401 1.85863 31.2751 2.82361C22.7971 3.97813 16.1974 8.23436 11.3725 15.2821C11.338 15.3338 11.3036 15.3855 11.2691 15.4372C10.8728 15.9886 10.4075 16.1265 9.95949 15.8335C9.49423 15.5406 9.40807 15.0237 9.78717 14.4895C10.4764 13.5073 11.1485 12.5078 11.9239 11.5945C16.8694 5.73576 23.1417 2.15157 30.7237 1.10044C39.5808 -0.123015 47.4901 2.20327 54.4001 7.88973C54.4517 7.94142 54.5207 7.97589 54.693 8.09651Z" fill="url(#paint2_linear_32_1270)"/>
<path d="M44.7674 59.1715C45.5945 59.654 46.3182 60.0676 47.042 60.4984C47.5589 60.7913 48.0931 61.1015 48.61 61.3944C49.3165 61.808 49.5405 62.2732 49.2476 62.7729C48.9547 63.3071 48.4377 63.3588 47.6795 62.928C47.4038 62.7729 47.1281 62.6006 46.8352 62.4455C45.2843 61.5495 43.7507 60.6707 42.1998 59.7746C41.5795 59.4128 41.4589 58.9475 41.8035 58.3272C42.8547 56.5006 43.923 54.6913 44.9742 52.8647C45.0086 52.813 45.0431 52.7441 45.0775 52.6924C45.4394 52.1065 45.9391 51.917 46.4216 52.2099C46.8696 52.4856 46.973 52.9853 46.6456 53.5712C46.077 54.5534 45.5083 55.5356 44.9397 56.5351C44.8191 56.7591 44.6812 56.9831 44.4917 57.3277C44.7674 57.2416 44.9225 57.2071 45.0948 57.1554C48.2826 55.9319 51.1431 54.1915 53.6934 51.9342C53.8657 51.7791 54.038 51.6068 54.2276 51.4689C54.6411 51.1415 55.0547 51.1415 55.451 51.5206C55.8129 51.8653 55.8301 52.3994 55.4166 52.7785C54.7445 53.3989 54.038 54.002 53.3143 54.5706C50.7468 56.5523 47.938 58.0514 44.7674 59.1715Z" fill="url(#paint3_linear_32_1270)"/>
<path d="M64.9456 29.05C64.9628 29.2568 64.98 29.4808 64.9973 29.6876C65.0317 30.4286 64.7216 30.8593 64.1185 30.8593C63.5498 30.8766 63.2396 30.5147 63.2052 29.7738C63.0501 26.1034 62.2747 22.5881 60.7583 19.2452C60.3964 18.4525 59.9828 17.6599 59.5693 16.8844C59.1902 16.1607 59.2247 15.661 59.7416 15.3681C60.2413 15.0751 60.7238 15.2819 61.1201 15.9884C63.3947 20.0551 64.6699 24.4147 64.9456 29.05Z" fill="url(#paint4_linear_32_1270)"/>
<path d="M64.3768 36.9765C64.1873 37.7002 63.9633 38.648 63.6875 39.5612C63.5325 40.061 63.1017 40.2505 62.6019 40.1127C62.1022 39.9576 61.8782 39.5785 61.9988 39.0615C62.2056 38.1827 62.4296 37.3211 62.6709 36.4423C62.8087 35.9426 63.1706 35.6841 63.6875 35.7703C64.1873 35.8737 64.4285 36.2355 64.3768 36.9765Z" fill="url(#paint5_linear_32_1270)"/>
<path d="M59.1903 48.1263C58.3804 48.1263 57.9324 47.4371 58.2598 46.834C58.6906 46.0241 59.1903 45.2486 59.7073 44.4904C59.983 44.0941 60.4138 43.9907 60.8446 44.2492C61.2926 44.5249 61.4477 44.9557 61.1892 45.4037C60.7412 46.2136 60.2587 46.989 59.7417 47.7472C59.5866 47.954 59.2937 48.0574 59.1903 48.1263Z" fill="url(#paint6_linear_32_1270)"/>
<path d="M22.78 30.6363C22.8489 23.8815 28.2252 18.6258 34.98 18.712C41.5453 18.7809 46.7837 24.2434 46.7148 30.912C46.6459 37.3739 41.149 42.7157 34.6698 42.6124C28.0012 42.5262 22.711 37.1844 22.78 30.6363ZM34.6354 40.8375C40.0117 40.9753 44.7676 36.4951 44.9055 31.1016C45.0606 25.3634 40.7354 20.6592 35.1351 20.4868C29.3625 20.3145 24.6755 24.7431 24.5548 30.4985C24.4342 36.0988 28.9145 40.6824 34.6354 40.8375Z" fill="url(#paint7_linear_32_1270)"/>
<defs>
<linearGradient id="paint0_linear_32_1270" x1="14.6162" y1="50.6891" x2="56.6791" y2="48.6435" gradientUnits="userSpaceOnUse">
<stop stop-color="#9914B3"/>
<stop offset="1" stop-color="#7023BC"/>
</linearGradient>
<linearGradient id="paint1_linear_32_1270" x1="-2.65245e-07" y1="60.7935" x2="37.2537" y2="59.1189" gradientUnits="userSpaceOnUse">
<stop stop-color="#9914B3"/>
<stop offset="1" stop-color="#7023BC"/>
</linearGradient>
<linearGradient id="paint2_linear_32_1270" x1="9.54932" y1="15.9836" x2="57.699" y2="8.76285" gradientUnits="userSpaceOnUse">
<stop stop-color="#9914B3"/>
<stop offset="1" stop-color="#7023BC"/>
</linearGradient>
<linearGradient id="paint3_linear_32_1270" x1="41.6138" y1="63.2165" x2="56.3615" y2="62.3736" gradientUnits="userSpaceOnUse">
<stop stop-color="#9914B3"/>
<stop offset="1" stop-color="#7023BC"/>
</linearGradient>
<linearGradient id="paint4_linear_32_1270" x1="59.3149" y1="30.8599" x2="65.274" y2="30.7546" gradientUnits="userSpaceOnUse">
<stop stop-color="#9914B3"/>
<stop offset="1" stop-color="#7023BC"/>
</linearGradient>
<linearGradient id="paint5_linear_32_1270" x1="61.9668" y1="40.1563" x2="64.4992" y2="40.0889" gradientUnits="userSpaceOnUse">
<stop stop-color="#9914B3"/>
<stop offset="1" stop-color="#7023BC"/>
</linearGradient>
<linearGradient id="paint6_linear_32_1270" x1="58.1519" y1="48.1263" x2="61.463" y2="47.9998" gradientUnits="userSpaceOnUse">
<stop stop-color="#9914B3"/>
<stop offset="1" stop-color="#7023BC"/>
</linearGradient>
<linearGradient id="paint7_linear_32_1270" x1="22.7793" y1="42.6138" x2="47.8184" y2="41.3965" gradientUnits="userSpaceOnUse">
<stop stop-color="#9914B3"/>
<stop offset="1" stop-color="#7023BC"/>
</linearGradient>
</defs>
</svg>
