<svg width="65" height="57" viewBox="0 0 65 57" fill="none" xmlns="http://www.w3.org/2000/svg">
<path d="M64.9983 0.81376C64.4893 2.32946 63.9661 3.84038 63.4762 5.36244C62.1418 9.50396 60.8202 13.6503 59.4921 17.7934C59.4301 17.989 59.3442 18.1783 59.2265 18.4852C58.4599 15.9023 57.6377 13.461 57.0349 10.9672C56.6961 9.56758 56.0409 8.88369 54.627 8.55288C52.2858 8.00576 50.0003 7.22485 47.691 6.54096C47.532 6.49325 47.3761 6.4344 47.0962 6.33897C48.9936 5.73301 50.7765 5.16522 52.5578 4.59266C56.4592 3.34098 60.3605 2.08453 64.2635 0.836026C64.5005 0.759684 64.7549 0.735827 64.9999 0.686523C64.9983 0.729466 64.9983 0.770818 64.9983 0.81376ZM62.0209 3.57796C60.5196 4.05509 59.174 4.47974 57.8285 4.91075C56.4878 5.34176 55.1486 5.77914 53.8079 6.21333C54.3645 6.51074 54.8894 6.66342 55.4126 6.82247C56.2588 7.08171 57.3355 7.11352 57.8826 7.66859C58.4488 8.24433 58.4997 9.32583 58.7717 10.1879C58.9434 10.7334 59.1072 11.2821 59.3267 11.9962C60.2508 9.10635 61.116 6.40418 62.0209 3.57796Z" fill="url(#paint0_linear_32_1248)"/>
<path d="M0 46.3451C0 34.4724 0 22.6475 0 10.7764C18.3522 10.7764 36.6853 10.7764 55.0613 10.7764C55.0613 22.6204 55.0613 34.4597 55.0613 46.3451C36.7314 46.3451 18.3967 46.3451 0 46.3451ZM20.7331 27.2932C14.9518 33.0776 9.23891 38.7921 3.61986 44.4143C19.5227 44.4143 35.5926 44.4143 51.6386 44.4143C45.9162 38.6871 40.2081 32.9774 34.4714 27.2359C34.3425 27.3234 34.166 27.4363 33.9974 27.5588C32.0141 29.0013 30.0213 30.4327 28.0555 31.8991C27.6563 32.1965 27.405 32.1679 27.0217 31.8832C24.9 30.3087 22.7561 28.7659 20.7331 27.2932ZM51.1106 12.6897C35.3556 12.6897 19.7486 12.6897 3.99361 12.6897C4.25604 12.8996 4.40713 13.03 4.56777 13.1477C12.0238 18.5759 19.4862 23.9962 26.931 29.4419C27.4114 29.7934 27.6929 29.7902 28.1716 29.4419C35.6149 23.9962 43.0773 18.5743 50.5333 13.1461C50.6955 13.0268 50.8514 12.8948 51.1106 12.6897ZM1.94353 13.6201C1.94353 23.4665 1.94353 33.1969 1.94353 42.7841C7.53395 37.1937 13.1721 31.5556 18.8229 25.9047C13.2786 21.8681 7.65641 17.7759 1.94353 13.6201ZM53.1337 42.8955C53.1337 33.1683 53.1337 23.4379 53.1337 13.6344C47.4256 17.7871 41.789 21.8888 36.2049 25.9508C41.8733 31.6224 47.5035 37.2589 53.1337 42.8955Z" fill="url(#paint1_linear_32_1248)"/>
<path d="M25.5776 2.36626C25.5776 1.72372 25.5776 1.15593 25.5776 0.529297C32.9048 0.529297 40.2082 0.529297 47.5608 0.529297C47.5608 1.12094 47.5608 1.72213 47.5608 2.36626C40.2559 2.36626 32.9478 2.36626 25.5776 2.36626Z" fill="url(#paint2_linear_32_1248)"/>
<path d="M25.5938 56.4747C25.5938 55.829 25.5938 55.2469 25.5938 54.625C32.9416 54.625 40.2497 54.625 47.5817 54.625C47.5817 55.25 47.5817 55.8385 47.5817 56.4747C40.2624 56.4747 32.9575 56.4747 25.5938 56.4747Z" fill="url(#paint3_linear_32_1248)"/>
<path d="M27.828 6.87363C23.5528 6.87363 19.3493 6.87363 15.0996 6.87363C15.0996 6.25017 15.0996 5.65217 15.0996 5.01758C19.3413 5.01758 23.5608 5.01758 27.828 5.01758C27.828 5.62831 27.828 6.22791 27.828 6.87363Z" fill="url(#paint4_linear_32_1248)"/>
<path d="M15.0947 50.126C19.3508 50.126 23.5702 50.126 27.8326 50.126C27.8326 50.751 27.8326 51.3506 27.8326 51.9836C23.575 51.9836 19.3555 51.9836 15.0947 51.9836C15.0947 51.3554 15.0947 50.7574 15.0947 50.126Z" fill="url(#paint5_linear_32_1248)"/>
<path d="M17.8989 2.36788C17.8989 1.73966 17.8989 1.15119 17.8989 0.516602C18.5176 0.516602 19.1172 0.516602 19.755 0.516602C19.755 1.13529 19.755 1.73648 19.755 2.36788C19.1283 2.36788 18.5256 2.36788 17.8989 2.36788Z" fill="url(#paint6_linear_32_1248)"/>
<path d="M17.9053 56.4763C17.9053 55.829 17.9053 55.2421 17.9053 54.625C18.5399 54.625 19.1426 54.625 19.7677 54.625C19.7677 55.2532 19.7677 55.8417 19.7677 56.4763C19.1554 56.4763 18.5542 56.4763 17.9053 56.4763Z" fill="url(#paint7_linear_32_1248)"/>
<path d="M23.5814 2.36799C22.9627 2.36799 22.3631 2.36799 21.7349 2.36799C21.7349 1.74136 21.7349 1.15766 21.7349 0.521484C22.3408 0.521484 22.9388 0.521484 23.5814 0.521484C23.5814 1.13222 23.5814 1.73182 23.5814 2.36799Z" fill="url(#paint8_linear_32_1248)"/>
<path d="M13.0863 6.8719C12.4628 6.8719 11.8775 6.8719 11.2397 6.8719C11.2397 6.26753 11.2397 5.66952 11.2397 5.02539C11.8473 5.02539 12.4469 5.02539 13.0863 5.02539C13.0863 5.6393 13.0863 6.24049 13.0863 6.8719Z" fill="url(#paint9_linear_32_1248)"/>
<path d="M11.2222 50.1172C11.8695 50.1172 12.4548 50.1172 13.083 50.1172C13.083 50.7422 13.083 51.345 13.083 51.9748C12.4548 51.9748 11.8552 51.9748 11.2222 51.9748C11.2222 51.3514 11.2222 50.7693 11.2222 50.1172Z" fill="url(#paint10_linear_32_1248)"/>
<path d="M21.7383 56.4836C21.7383 55.8585 21.7383 55.2749 21.7383 54.6387C22.3411 54.6387 22.9391 54.6387 23.5816 54.6387C23.5816 55.2446 23.5816 55.8442 23.5816 56.4836C22.9661 56.4836 22.3681 56.4836 21.7383 56.4836Z" fill="url(#paint11_linear_32_1248)"/>
<path d="M9.22156 6.88253C8.59493 6.88253 8.02873 6.88253 7.40527 6.88253C7.40527 6.28134 7.40527 5.68333 7.40527 5.03125C7.98102 5.03125 8.57902 5.03125 9.22156 5.03125C9.22156 5.6229 9.22156 6.2225 9.22156 6.88253Z" fill="url(#paint12_linear_32_1248)"/>
<path d="M7.37793 51.965C7.37793 51.3384 7.37793 50.7547 7.37793 50.1328C7.98707 50.1328 8.56918 50.1328 9.20853 50.1328C9.20853 50.7165 9.20853 51.3145 9.20853 51.965C8.63279 51.965 8.03478 51.965 7.37793 51.965Z" fill="url(#paint13_linear_32_1248)"/>
<path d="M26.6162 40.8276C26.6162 40.1898 26.6162 39.6077 26.6162 38.9795C27.2428 38.9795 27.8377 38.9795 28.477 38.9795C28.477 39.5982 28.477 40.1946 28.477 40.8276C27.8568 40.8276 27.2747 40.8276 26.6162 40.8276Z" fill="url(#paint14_linear_32_1248)"/>
<path d="M24.6123 38.9814C24.6123 39.5985 24.6123 40.1934 24.6123 40.828C23.9968 40.828 23.4163 40.828 22.7817 40.828C22.7817 40.222 22.7817 39.6256 22.7817 38.9814C23.3766 38.9814 23.973 38.9814 24.6123 38.9814Z" fill="url(#paint15_linear_32_1248)"/>
<path d="M30.4697 40.8308C30.4697 40.1898 30.4697 39.6077 30.4697 38.9795C31.0884 38.9795 31.6864 38.9795 32.321 38.9795C32.321 39.5998 32.321 40.1994 32.321 40.8308C31.7039 40.8308 31.1218 40.8308 30.4697 40.8308Z" fill="url(#paint16_linear_32_1248)"/>
<path d="M18.1611 16.8516C18.1611 16.2107 18.1611 15.6238 18.1611 15.002C21.1241 15.002 24.0569 15.002 27.0486 15.002C27.0486 15.6047 27.0486 16.2011 27.0486 16.8516C24.1015 16.8516 21.1559 16.8516 18.1611 16.8516Z" fill="url(#paint17_linear_32_1248)"/>
<path d="M14.1855 16.8451C14.1855 16.2217 14.1855 15.6396 14.1855 15.0098C14.8567 15.0098 15.4961 15.0098 16.1736 15.0098C16.1736 15.6221 16.1736 16.2042 16.1736 16.8451C15.5374 16.8451 14.8997 16.8451 14.1855 16.8451Z" fill="url(#paint18_linear_32_1248)"/>
<defs>
<linearGradient id="paint0_linear_32_1248" x1="47.0962" y1="18.4852" x2="65.8244" y2="17.5706" gradientUnits="userSpaceOnUse">
<stop stop-color="#9914B3"/>
<stop offset="1" stop-color="#7023BC"/>
</linearGradient>
<linearGradient id="paint1_linear_32_1248" x1="-4.10239e-07" y1="46.3451" x2="57.4102" y2="42.0304" gradientUnits="userSpaceOnUse">
<stop stop-color="#9914B3"/>
<stop offset="1" stop-color="#7023BC"/>
</linearGradient>
<linearGradient id="paint2_linear_32_1248" x1="25.5776" y1="2.36626" x2="42.8109" y2="-7.64616" gradientUnits="userSpaceOnUse">
<stop stop-color="#9914B3"/>
<stop offset="1" stop-color="#7023BC"/>
</linearGradient>
<linearGradient id="paint3_linear_32_1248" x1="25.5937" y1="56.4747" x2="42.8887" y2="46.4933" gradientUnits="userSpaceOnUse">
<stop stop-color="#9914B3"/>
<stop offset="1" stop-color="#7023BC"/>
</linearGradient>
<linearGradient id="paint4_linear_32_1248" x1="15.0996" y1="6.87363" x2="27.1141" y2="2.87353" gradientUnits="userSpaceOnUse">
<stop stop-color="#9914B3"/>
<stop offset="1" stop-color="#7023BC"/>
</linearGradient>
<linearGradient id="paint5_linear_32_1248" x1="15.0947" y1="51.9836" x2="27.1185" y2="47.9809" gradientUnits="userSpaceOnUse">
<stop stop-color="#9914B3"/>
<stop offset="1" stop-color="#7023BC"/>
</linearGradient>
<linearGradient id="paint6_linear_32_1248" x1="17.8989" y1="2.36788" x2="19.8405" y2="2.27338" gradientUnits="userSpaceOnUse">
<stop stop-color="#9914B3"/>
<stop offset="1" stop-color="#7023BC"/>
</linearGradient>
<linearGradient id="paint7_linear_32_1248" x1="17.9053" y1="56.4763" x2="19.8535" y2="56.3811" gradientUnits="userSpaceOnUse">
<stop stop-color="#9914B3"/>
<stop offset="1" stop-color="#7023BC"/>
</linearGradient>
<linearGradient id="paint8_linear_32_1248" x1="21.7349" y1="2.36799" x2="23.6665" y2="2.27422" gradientUnits="userSpaceOnUse">
<stop stop-color="#9914B3"/>
<stop offset="1" stop-color="#7023BC"/>
</linearGradient>
<linearGradient id="paint9_linear_32_1248" x1="11.2397" y1="6.8719" x2="13.1713" y2="6.77812" gradientUnits="userSpaceOnUse">
<stop stop-color="#9914B3"/>
<stop offset="1" stop-color="#7023BC"/>
</linearGradient>
<linearGradient id="paint10_linear_32_1248" x1="11.2222" y1="51.9748" x2="13.1687" y2="51.8802" gradientUnits="userSpaceOnUse">
<stop stop-color="#9914B3"/>
<stop offset="1" stop-color="#7023BC"/>
</linearGradient>
<linearGradient id="paint11_linear_32_1248" x1="21.7383" y1="56.4836" x2="23.6666" y2="56.3901" gradientUnits="userSpaceOnUse">
<stop stop-color="#9914B3"/>
<stop offset="1" stop-color="#7023BC"/>
</linearGradient>
<linearGradient id="paint12_linear_32_1248" x1="7.40527" y1="6.88253" x2="9.30543" y2="6.79202" gradientUnits="userSpaceOnUse">
<stop stop-color="#9914B3"/>
<stop offset="1" stop-color="#7023BC"/>
</linearGradient>
<linearGradient id="paint13_linear_32_1248" x1="7.37793" y1="51.965" x2="9.2929" y2="51.8721" gradientUnits="userSpaceOnUse">
<stop stop-color="#9914B3"/>
<stop offset="1" stop-color="#7023BC"/>
</linearGradient>
<linearGradient id="paint14_linear_32_1248" x1="26.6162" y1="40.8276" x2="28.5627" y2="40.7324" gradientUnits="userSpaceOnUse">
<stop stop-color="#9914B3"/>
<stop offset="1" stop-color="#7023BC"/>
</linearGradient>
<linearGradient id="paint15_linear_32_1248" x1="22.7817" y1="40.828" x2="24.6968" y2="40.7358" gradientUnits="userSpaceOnUse">
<stop stop-color="#9914B3"/>
<stop offset="1" stop-color="#7023BC"/>
</linearGradient>
<linearGradient id="paint16_linear_32_1248" x1="30.4697" y1="40.8308" x2="32.4063" y2="40.7368" gradientUnits="userSpaceOnUse">
<stop stop-color="#9914B3"/>
<stop offset="1" stop-color="#7023BC"/>
</linearGradient>
<linearGradient id="paint17_linear_32_1248" x1="18.1611" y1="16.8516" x2="26.9991" y2="14.79" gradientUnits="userSpaceOnUse">
<stop stop-color="#9914B3"/>
<stop offset="1" stop-color="#7023BC"/>
</linearGradient>
<linearGradient id="paint18_linear_32_1248" x1="14.1855" y1="16.8451" x2="16.2644" y2="16.7358" gradientUnits="userSpaceOnUse">
<stop stop-color="#9914B3"/>
<stop offset="1" stop-color="#7023BC"/>
</linearGradient>
</defs>
</svg>
