<svg width="65" height="66" viewBox="0 0 65 66" fill="none" xmlns="http://www.w3.org/2000/svg">
<path d="M30.4645 65.8837C30.1761 65.6123 29.769 65.3918 29.5994 65.0695C29.3789 64.6115 29.7182 64.0857 30.2101 63.9161C30.685 63.7465 31.2278 64.0009 31.4144 64.4589C31.6179 64.9169 31.4313 65.4597 30.9734 65.7141C30.8546 65.7819 30.702 65.8328 30.5832 65.9007C30.5493 65.8837 30.5154 65.8837 30.4645 65.8837Z" fill="url(#paint0_linear_32_1208)"/>
<path d="M0 33.1284C0.0678492 33.0267 0.135698 32.9079 0.203547 32.8231C0.610642 32.3651 1.23825 32.3143 1.6623 32.7214C2.03548 33.0776 2.05244 33.7221 1.69623 34.0953C1.28913 34.5194 0.678492 34.5194 0.237472 34.0614C0.152661 33.9766 0.0848114 33.8748 0 33.773C0 33.5525 0 33.332 0 33.1284Z" fill="url(#paint1_linear_32_1208)"/>
<path d="M17.0131 47.9204C16.4363 47.191 15.8766 46.5634 15.3847 45.8679C11.8904 40.9828 10.6352 35.5718 11.636 29.635C11.7887 28.753 12.2127 28.3798 12.8403 28.4986C13.4679 28.6173 13.7224 29.1262 13.5697 30.0082C12.993 33.2819 13.1626 36.5217 14.333 39.6258C17.0639 46.9026 22.2714 51.3128 29.9892 52.3984C40.3532 53.8741 49.8012 46.75 51.5313 36.3691C53.2275 26.1747 46.1203 16.15 35.943 14.4199C27.2752 12.9441 19.1333 17.0829 15.1811 24.9534C15.0285 25.2588 14.7401 25.6319 14.4348 25.7167C14.1464 25.8016 13.6036 25.6659 13.451 25.4284C13.2644 25.14 13.1965 24.5633 13.3662 24.275C14.2821 22.7144 15.2999 21.2048 16.2837 19.6782C16.3685 19.5425 16.4872 19.4237 16.5551 19.3389C15.3847 18.1516 14.2143 16.9981 13.01 15.7768C11.3137 16.8115 9.39699 17.1508 7.36152 16.4553C5.83491 15.9465 4.66451 14.9796 3.83336 13.6057C2.18802 10.8747 2.7817 7.32963 5.2073 5.26023C7.64987 3.19083 11.2459 3.19083 13.6715 5.24327C15.8766 7.10912 17.1148 10.8408 14.6553 14.2842C15.7918 15.4206 16.9113 16.5571 18.0986 17.7445C22.1696 14.0806 26.9699 12.113 32.5166 12.113C38.0463 12.113 42.8297 14.0637 46.8667 17.6936C48.0201 16.5402 49.1736 15.4037 50.3609 14.2163C49.2414 12.6897 48.7495 10.8747 49.1905 8.85624C49.5298 7.29571 50.3609 6.00657 51.65 5.03972C54.2114 3.08906 57.8074 3.30957 60.1482 5.54859C62.4211 7.71976 62.7943 11.2818 61.0472 13.911C59.5375 16.167 55.9245 18.0837 51.9893 15.7768C50.8189 16.9472 49.6485 18.1007 48.4611 19.305C51.9554 23.3929 53.8043 28.1593 53.7364 33.6042C53.6686 39.0321 51.7009 43.7307 48.1389 47.6999C49.3092 48.8703 50.4457 50.0237 51.5992 51.1771C55.0425 48.7176 58.8251 49.9728 60.6909 52.2797C62.7434 54.8071 62.6077 58.4709 60.3856 60.8796C58.1975 63.2373 54.5336 63.6275 51.8706 61.7955C49.4789 60.1502 47.8844 56.5033 50.0726 52.8394C48.9022 51.669 47.7318 50.5156 46.5953 49.3791C37.266 56.3676 27.8689 56.3846 18.4718 49.3961C17.3693 50.4986 16.1989 51.669 15.0115 52.8564C17.2845 56.7408 15.4016 60.3707 13.0608 61.8973C10.3299 63.6614 6.71695 63.1864 4.5797 60.7778C2.42549 58.3352 2.3746 54.6883 4.444 52.2288C6.36074 49.9389 10.1094 48.8024 13.6036 51.3128C14.1634 50.7361 14.7231 50.1424 15.2999 49.5657C15.8427 49.0229 16.4194 48.4801 17.0131 47.9204ZM55.5514 14.8778C58.0957 14.8778 60.1651 12.8084 60.1651 10.2811C60.1482 7.78761 58.0788 5.71821 55.5853 5.70125C53.0579 5.68429 50.9885 7.77065 50.9885 10.315C51.0055 12.8593 53.024 14.8778 55.5514 14.8778ZM51.0055 56.4524C51.0055 58.9628 53.041 61.0322 55.5514 61.0492C58.0618 61.0662 60.1821 58.9798 60.1821 56.4694C60.1821 53.942 58.1127 51.8726 55.5683 51.8896C53.024 51.8896 51.0055 53.9081 51.0055 56.4524ZM14.0107 56.3676C13.9598 53.8063 11.8904 51.8047 9.32914 51.8726C6.81872 51.9404 4.80021 54.0268 4.8511 56.5203C4.90198 59.0137 6.98835 61.0662 9.4818 61.0322C12.0092 61.0153 14.0447 58.9119 14.0107 56.3676ZM14.0107 10.315C14.0107 7.80457 11.9922 5.73518 9.4818 5.71821C6.97138 5.68429 4.8511 7.77065 4.8511 10.298C4.8511 12.8254 6.9205 14.8948 9.46484 14.8778C11.9753 14.8778 14.0107 12.8424 14.0107 10.315Z" fill="url(#paint2_linear_32_1208)"/>
<path d="M27.1903 34.0791C26.7323 32.9087 26.2574 31.8231 25.8673 30.7036C25.7146 30.2795 25.7485 29.7876 25.7485 29.3127C25.7316 27.0906 25.7316 24.8686 25.7485 22.6465C25.7655 19.9325 27.5805 18.1176 30.2775 18.1006C31.7532 18.0837 33.2459 18.0837 34.7216 18.1006C37.4016 18.1176 39.2166 19.9325 39.2335 22.5956C39.2505 24.6311 39.1996 26.6496 39.2505 28.6851C39.3014 30.6188 38.9113 32.3829 37.5882 33.9095C37.8087 34.0282 37.9783 34.13 38.148 34.2317C41.1503 35.9449 43.101 38.4554 43.9491 41.8139C44.3901 43.544 43.7116 45.2403 42.168 46.1053C39.2166 47.7677 36.0446 48.5988 32.6522 48.6158C31.9398 48.6158 31.4987 48.2256 31.4987 47.632C31.5157 47.0722 31.9398 46.6821 32.6183 46.6651C35.5358 46.5973 38.3006 45.9357 40.8959 44.5618C41.9814 43.9851 42.3376 43.2557 41.9984 42.0514C41.1333 38.9981 39.2336 36.827 36.333 35.5378C36.0955 35.4361 35.7054 35.453 35.4679 35.5718C33.4833 36.4708 31.5157 36.4708 29.5142 35.5718C29.2597 35.453 28.8866 35.453 28.6491 35.5548C25.6298 36.8948 23.7131 39.1678 22.9158 42.3736C22.6953 43.2387 23.0515 44.0699 23.9336 44.477C25.1379 45.0367 26.3931 45.4947 27.6144 45.9866C27.784 46.0545 27.9876 46.0884 28.1572 46.1562C28.666 46.3598 28.9205 46.8347 28.7848 47.3266C28.6491 47.8355 28.1402 48.1578 27.5974 48.0221C25.8503 47.5811 24.171 46.9535 22.6275 46.0036C21.2196 45.1385 20.592 43.4932 20.9991 41.8648C21.8302 38.5062 23.7809 35.9789 26.7663 34.2657C26.9189 34.1809 27.0716 34.113 27.2073 34.0282C27.2751 34.0282 27.3091 33.9943 27.1903 34.0791ZM37.3677 28.719C37.3507 28.719 37.3338 28.719 37.2998 28.719C37.2998 28.3628 37.3168 27.9896 37.2829 27.6334C37.2659 27.4638 37.1811 27.2602 37.0624 27.1585C35.5697 26.005 33.9244 25.5131 32.0755 26.0559C30.7354 26.4461 29.4293 26.904 28.1063 27.379C27.9367 27.4468 27.7331 27.7013 27.7162 27.8879C27.6653 28.4985 27.6822 29.1091 27.7162 29.7198C27.8519 32.0945 29.6668 34.0452 31.9058 34.2657C34.3823 34.5031 36.5365 33.0613 37.1302 30.7206C37.2829 30.076 37.2998 29.3805 37.3677 28.719ZM27.7162 25.4114C27.9876 25.3265 28.2081 25.2587 28.4116 25.1908C29.4124 24.8686 30.4132 24.5293 31.4309 24.207C33.2459 23.6303 35.0099 23.7999 36.7231 24.6141C36.8928 24.6989 37.0793 24.7838 37.3168 24.9025C37.3168 24.0035 37.3507 23.2232 37.3168 22.443C37.2659 21.086 36.2651 20.0852 34.9082 20.0682C33.2967 20.0343 31.6853 20.0343 30.0909 20.0682C28.8187 20.1022 27.8179 21.0181 27.7501 22.2903C27.6653 23.308 27.7162 24.3088 27.7162 25.4114Z" fill="url(#paint3_linear_32_1208)"/>
<path d="M64.9994 33.3842C64.9824 33.944 64.5923 34.3171 64.0155 34.3171C63.4219 34.3171 63.0317 33.91 63.0317 33.3164C63.0487 32.7227 63.4728 32.3156 64.0325 32.3325C64.6092 32.3665 65.0163 32.8075 64.9994 33.3842Z" fill="url(#paint4_linear_32_1208)"/>
<path d="M60.0972 17.1504C60.64 17.1504 61.098 17.6084 61.081 18.1681C61.0641 18.694 60.64 19.118 60.1142 19.135C59.5714 19.1519 59.1304 18.694 59.1304 18.1172C59.1473 17.5914 59.5714 17.1674 60.0972 17.1504Z" fill="url(#paint5_linear_32_1208)"/>
<path d="M30.4812 2.90291C29.9554 2.90291 29.4974 2.46189 29.4805 1.95302C29.4635 1.42719 29.9045 0.986169 30.4303 0.969207C30.9901 0.952244 31.465 1.41023 31.4481 1.95302C31.465 2.46189 31.0071 2.90291 30.4812 2.90291Z" fill="url(#paint6_linear_32_1208)"/>
<path d="M37.3851 2.35918C37.419 1.85031 37.877 1.40929 38.3858 1.42625C38.9286 1.44322 39.3866 1.91816 39.3527 2.46095C39.3188 2.96982 38.8608 3.41084 38.3519 3.39388C37.8091 3.37692 37.3511 2.88501 37.3851 2.35918Z" fill="url(#paint7_linear_32_1208)"/>
<path d="M19.0826 3.90282C19.6084 3.91978 20.0494 4.34384 20.0324 4.86967C20.0324 5.41246 19.5575 5.85348 19.0147 5.83652C18.4889 5.81956 18.0479 5.3955 18.0479 4.86967C18.0648 4.32688 18.5228 3.88585 19.0826 3.90282Z" fill="url(#paint8_linear_32_1208)"/>
<path d="M3.15495 22.7827C2.62912 22.7657 2.1881 22.3078 2.20506 21.7989C2.20506 21.2731 2.66305 20.832 3.18888 20.832C3.73167 20.832 4.20661 21.3239 4.17269 21.8498C4.13876 22.3586 3.66382 22.7997 3.15495 22.7827Z" fill="url(#paint9_linear_32_1208)"/>
<path d="M43.2367 63.322C43.2536 63.8478 42.8296 64.3058 42.3037 64.3397C41.761 64.3736 41.269 63.9156 41.269 63.3559C41.269 62.8301 41.6931 62.389 42.2359 62.3721C42.7617 62.3721 43.2197 62.7961 43.2367 63.322Z" fill="url(#paint10_linear_32_1208)"/>
<path d="M27.5805 64.3228C27.5975 64.8656 27.1904 65.3066 26.6645 65.3236C26.1048 65.3575 25.6468 64.9165 25.6299 64.3567C25.6129 63.7969 26.0709 63.339 26.6137 63.3559C27.1395 63.3729 27.5636 63.7969 27.5805 64.3228Z" fill="url(#paint11_linear_32_1208)"/>
<path d="M62.7944 44.9864C62.7944 45.5292 62.3703 45.9532 61.8445 45.9702C61.2847 45.9872 60.8268 45.5292 60.8437 44.9694C60.8607 44.4436 61.3017 44.0195 61.8275 44.0195C62.3703 44.0195 62.7944 44.4436 62.7944 44.9864Z" fill="url(#paint12_linear_32_1208)"/>
<path d="M61.8278 20.729C62.3706 20.746 62.7947 21.204 62.7777 21.7807C62.7607 22.3065 62.3027 22.7306 61.7769 22.7136C61.2341 22.6966 60.7931 22.2217 60.827 21.6619C60.844 21.1361 61.302 20.712 61.8278 20.729Z" fill="url(#paint13_linear_32_1208)"/>
<path d="M1.96783 42.238C1.442 42.238 1.01794 41.797 1.00098 41.2542C1.00098 40.6944 1.45896 40.2364 2.00175 40.2534C2.52758 40.2703 2.93468 40.7114 2.93468 41.2542C2.93468 41.797 2.49366 42.238 1.96783 42.238Z" fill="url(#paint14_linear_32_1208)"/>
<path d="M2.18805 29.4651C2.18805 30.0079 1.76399 30.4489 1.23816 30.4489C0.712329 30.4489 0.271309 30.0079 0.254347 29.482C0.237385 28.9223 0.712329 28.4473 1.25512 28.4643C1.78095 28.4813 2.18805 28.9223 2.18805 29.4651Z" fill="url(#paint15_linear_32_1208)"/>
<path d="M38.4024 63.3559C38.9282 63.339 39.3692 63.78 39.3862 64.3058C39.4032 64.8486 38.9961 65.2896 38.4533 65.3236C37.8935 65.3575 37.4355 64.8995 37.4355 64.3398C37.4525 63.8139 37.8766 63.3729 38.4024 63.3559Z" fill="url(#paint16_linear_32_1208)"/>
<path d="M34.4335 2.90229C33.9077 2.90229 33.4667 2.46127 33.4497 1.93544C33.4327 1.39265 33.8568 0.968591 34.3996 0.951628C34.9593 0.934666 35.4173 1.39265 35.4173 1.93544C35.4173 2.46127 34.9594 2.90229 34.4335 2.90229Z" fill="url(#paint17_linear_32_1208)"/>
<path d="M27.5465 2.42766C27.5465 2.9535 27.0885 3.39451 26.5627 3.39451C26.0199 3.39451 25.5449 2.91957 25.5789 2.37678C25.5958 1.85095 26.0538 1.42689 26.5796 1.44385C27.1055 1.46081 27.5465 1.9188 27.5465 2.42766Z" fill="url(#paint18_linear_32_1208)"/>
<path d="M45.8659 3.85205C46.4087 3.83509 46.8497 4.25915 46.8667 4.78498C46.8836 5.34474 46.4426 5.80272 45.8829 5.80272C45.357 5.80272 44.933 5.3617 44.916 4.83587C44.916 4.29307 45.3231 3.86902 45.8659 3.85205Z" fill="url(#paint19_linear_32_1208)"/>
<path d="M3.22282 45.9693C2.66306 45.9863 2.20508 45.5453 2.20508 45.0025C2.20508 44.4766 2.62914 44.0526 3.15497 44.0356C3.71472 44.0187 4.1727 44.4597 4.1727 45.0025C4.18967 45.5283 3.74865 45.9693 3.22282 45.9693Z" fill="url(#paint20_linear_32_1208)"/>
<path d="M22.7463 4.39536C22.2375 4.41232 21.7625 3.95434 21.7456 3.44547C21.7286 2.91964 22.2035 2.42773 22.7463 2.42773C23.2552 2.42773 23.7301 2.88572 23.7301 3.41155C23.7132 3.90345 23.2552 4.3784 22.7463 4.39536Z" fill="url(#paint21_linear_32_1208)"/>
<path d="M22.7634 62.3887C23.3062 62.3887 23.7302 62.7958 23.7472 63.3386C23.7641 63.8983 23.3062 64.3563 22.7634 64.3563C22.2375 64.3393 21.8135 63.8983 21.8135 63.3725C21.7965 62.8127 22.2206 62.3887 22.7634 62.3887Z" fill="url(#paint22_linear_32_1208)"/>
<path d="M63.812 38.3191C63.2862 38.336 62.8282 37.895 62.8282 37.3692C62.8112 36.8264 63.2013 36.3854 63.7441 36.3514C64.3039 36.3175 64.7788 36.7585 64.7788 37.3183C64.7619 37.8611 64.3209 38.3021 63.812 38.3191Z" fill="url(#paint23_linear_32_1208)"/>
<path d="M1.95086 24.5977C2.49366 24.5977 2.91772 25.0047 2.93468 25.5475C2.95164 26.1243 2.51062 26.5483 1.95086 26.5483C1.40807 26.5483 1.00098 26.1243 1.00098 25.5645C1.00098 25.0217 1.40807 24.5977 1.95086 24.5977Z" fill="url(#paint24_linear_32_1208)"/>
<path d="M64.0157 41.2032C64.0157 41.746 63.6086 42.187 63.0828 42.204C62.54 42.2209 62.099 41.8138 62.082 41.271C62.0651 40.7113 62.4891 40.2363 63.0489 40.2363C63.5747 40.2363 63.9988 40.6604 64.0157 41.2032Z" fill="url(#paint25_linear_32_1208)"/>
<path d="M63.9986 25.4954C63.9986 26.0382 63.5576 26.4622 63.0318 26.4622C62.489 26.4622 62.0819 26.0382 62.0649 25.4954C62.0649 24.9356 62.506 24.4776 63.0657 24.4946C63.5915 24.5116 63.9986 24.9526 63.9986 25.4954Z" fill="url(#paint26_linear_32_1208)"/>
<path d="M5.85214 48.5819C5.85214 49.1247 5.44505 49.5488 4.90226 49.5488C4.35946 49.5488 3.9354 49.1417 3.91844 48.5989C3.90148 48.0391 4.3425 47.5812 4.90226 47.5981C5.42809 47.6151 5.85214 48.0561 5.85214 48.5819Z" fill="url(#paint27_linear_32_1208)"/>
<path d="M45.8996 62.8808C45.3568 62.8639 44.9327 62.4398 44.9497 61.897C44.9497 61.3373 45.4247 60.9132 45.9844 60.9302C46.5102 60.9641 46.9173 61.4051 46.9004 61.9479C46.8834 62.4907 46.4594 62.8808 45.8996 62.8808Z" fill="url(#paint28_linear_32_1208)"/>
<path d="M61.0982 48.5479C61.1152 49.0907 60.7081 49.5148 60.1653 49.5317C59.6055 49.5487 59.1476 49.1077 59.1645 48.5479C59.1645 48.0221 59.6055 47.5811 60.1314 47.5811C60.6572 47.598 61.0813 48.0051 61.0982 48.5479Z" fill="url(#paint29_linear_32_1208)"/>
<path d="M43.1689 3.36041C43.1859 3.9032 42.7788 4.32726 42.236 4.34422C41.6763 4.36118 41.2522 3.98801 41.2352 3.42826C41.2013 2.8685 41.6423 2.39355 42.2021 2.39355C42.7279 2.39355 43.1689 2.81761 43.1689 3.36041Z" fill="url(#paint30_linear_32_1208)"/>
<path d="M64.7452 29.3633C64.7452 29.9061 64.3212 30.3302 63.7953 30.3471C63.2356 30.3641 62.7945 29.9231 62.8115 29.3464C62.8285 28.8036 63.2356 28.3965 63.7953 28.3965C64.3212 28.3965 64.7452 28.8205 64.7452 29.3633Z" fill="url(#paint31_linear_32_1208)"/>
<path d="M19.0997 62.8808C18.5569 62.8808 18.1328 62.4737 18.1328 61.9309C18.1159 61.3881 18.5399 60.9471 19.0657 60.9302C19.6255 60.9132 20.0835 61.3542 20.0835 61.914C20.0665 62.4568 19.6425 62.8808 19.0997 62.8808Z" fill="url(#paint32_linear_32_1208)"/>
<path d="M35.4682 64.8315C35.4682 65.3743 35.0611 65.7983 34.5183 65.7983C33.9755 65.8153 33.5345 65.3912 33.5176 64.8654C33.5006 64.3056 33.9416 63.8477 34.5014 63.8477C35.0272 63.8646 35.4682 64.2887 35.4682 64.8315Z" fill="url(#paint33_linear_32_1208)"/>
<path d="M2.20507 37.3861C2.1881 37.9288 1.76405 38.3359 1.23822 38.3359C0.678461 38.3359 0.237441 37.861 0.271365 37.3012C0.30529 36.7754 0.746309 36.3683 1.2891 36.3853C1.81493 36.4022 2.20507 36.8263 2.20507 37.3861Z" fill="url(#paint34_linear_32_1208)"/>
<path d="M4.86811 17.252C5.41091 17.252 5.83496 17.676 5.83496 18.2018C5.83496 18.7616 5.39394 19.2026 4.81723 19.1857C4.27443 19.1687 3.86734 18.7446 3.8843 18.2018C3.90126 17.659 4.32532 17.252 4.86811 17.252Z" fill="url(#paint35_linear_32_1208)"/>
<defs>
<linearGradient id="paint0_linear_32_1208" x1="29.5308" y1="65.9007" x2="31.5872" y2="65.8044" gradientUnits="userSpaceOnUse">
<stop stop-color="#9914B3"/>
<stop offset="1" stop-color="#7023BC"/>
</linearGradient>
<linearGradient id="paint1_linear_32_1208" x1="-1.45519e-08" y1="34.4092" x2="2.04318" y2="34.3106" gradientUnits="userSpaceOnUse">
<stop stop-color="#9914B3"/>
<stop offset="1" stop-color="#7023BC"/>
</linearGradient>
<linearGradient id="paint2_linear_32_1208" x1="2.90527" y1="62.9592" x2="64.8756" y2="59.9512" gradientUnits="userSpaceOnUse">
<stop stop-color="#9914B3"/>
<stop offset="1" stop-color="#7023BC"/>
</linearGradient>
<linearGradient id="paint3_linear_32_1208" x1="20.877" y1="48.6158" x2="45.1748" y2="47.7191" gradientUnits="userSpaceOnUse">
<stop stop-color="#9914B3"/>
<stop offset="1" stop-color="#7023BC"/>
</linearGradient>
<linearGradient id="paint4_linear_32_1208" x1="63.0317" y1="34.3171" x2="65.0907" y2="34.218" gradientUnits="userSpaceOnUse">
<stop stop-color="#9914B3"/>
<stop offset="1" stop-color="#7023BC"/>
</linearGradient>
<linearGradient id="paint5_linear_32_1208" x1="59.1304" y1="19.1354" x2="61.1716" y2="19.038" gradientUnits="userSpaceOnUse">
<stop stop-color="#9914B3"/>
<stop offset="1" stop-color="#7023BC"/>
</linearGradient>
<linearGradient id="paint6_linear_32_1208" x1="29.48" y1="2.90291" x2="31.5391" y2="2.80116" gradientUnits="userSpaceOnUse">
<stop stop-color="#9914B3"/>
<stop offset="1" stop-color="#7023BC"/>
</linearGradient>
<linearGradient id="paint7_linear_32_1208" x1="37.3833" y1="3.39435" x2="39.4453" y2="3.29411" gradientUnits="userSpaceOnUse">
<stop stop-color="#9914B3"/>
<stop offset="1" stop-color="#7023BC"/>
</linearGradient>
<linearGradient id="paint8_linear_32_1208" x1="18.0479" y1="5.83699" x2="20.1241" y2="5.73356" gradientUnits="userSpaceOnUse">
<stop stop-color="#9914B3"/>
<stop offset="1" stop-color="#7023BC"/>
</linearGradient>
<linearGradient id="paint9_linear_32_1208" x1="2.20459" y1="22.7832" x2="4.26508" y2="22.6822" gradientUnits="userSpaceOnUse">
<stop stop-color="#9914B3"/>
<stop offset="1" stop-color="#7023BC"/>
</linearGradient>
<linearGradient id="paint10_linear_32_1208" x1="41.269" y1="64.3415" x2="43.3279" y2="64.2416" gradientUnits="userSpaceOnUse">
<stop stop-color="#9914B3"/>
<stop offset="1" stop-color="#7023BC"/>
</linearGradient>
<linearGradient id="paint11_linear_32_1208" x1="25.6294" y1="65.3254" x2="27.6711" y2="65.2272" gradientUnits="userSpaceOnUse">
<stop stop-color="#9914B3"/>
<stop offset="1" stop-color="#7023BC"/>
</linearGradient>
<linearGradient id="paint12_linear_32_1208" x1="60.8433" y1="45.9707" x2="62.8843" y2="45.8716" gradientUnits="userSpaceOnUse">
<stop stop-color="#9914B3"/>
<stop offset="1" stop-color="#7023BC"/>
</linearGradient>
<linearGradient id="paint13_linear_32_1208" x1="60.8252" y1="22.7141" x2="62.8683" y2="22.6165" gradientUnits="userSpaceOnUse">
<stop stop-color="#9914B3"/>
<stop offset="1" stop-color="#7023BC"/>
</linearGradient>
<linearGradient id="paint14_linear_32_1208" x1="1.00098" y1="42.238" x2="3.02403" y2="42.1423" gradientUnits="userSpaceOnUse">
<stop stop-color="#9914B3"/>
<stop offset="1" stop-color="#7023BC"/>
</linearGradient>
<linearGradient id="paint15_linear_32_1208" x1="0.253906" y1="30.4489" x2="2.27742" y2="30.3532" gradientUnits="userSpaceOnUse">
<stop stop-color="#9914B3"/>
<stop offset="1" stop-color="#7023BC"/>
</linearGradient>
<linearGradient id="paint16_linear_32_1208" x1="37.4355" y1="65.3253" x2="39.4767" y2="65.2272" gradientUnits="userSpaceOnUse">
<stop stop-color="#9914B3"/>
<stop offset="1" stop-color="#7023BC"/>
</linearGradient>
<linearGradient id="paint17_linear_32_1208" x1="33.4492" y1="2.90229" x2="35.5079" y2="2.80147" gradientUnits="userSpaceOnUse">
<stop stop-color="#9914B3"/>
<stop offset="1" stop-color="#7023BC"/>
</linearGradient>
<linearGradient id="paint18_linear_32_1208" x1="25.5771" y1="3.39451" x2="27.6371" y2="3.29357" gradientUnits="userSpaceOnUse">
<stop stop-color="#9914B3"/>
<stop offset="1" stop-color="#7023BC"/>
</linearGradient>
<linearGradient id="paint19_linear_32_1208" x1="44.916" y1="5.80272" x2="46.9571" y2="5.70363" gradientUnits="userSpaceOnUse">
<stop stop-color="#9914B3"/>
<stop offset="1" stop-color="#7023BC"/>
</linearGradient>
<linearGradient id="paint20_linear_32_1208" x1="2.20508" y1="45.9698" x2="4.26371" y2="45.8681" gradientUnits="userSpaceOnUse">
<stop stop-color="#9914B3"/>
<stop offset="1" stop-color="#7023BC"/>
</linearGradient>
<linearGradient id="paint21_linear_32_1208" x1="21.7451" y1="4.39582" x2="23.8215" y2="4.29414" gradientUnits="userSpaceOnUse">
<stop stop-color="#9914B3"/>
<stop offset="1" stop-color="#7023BC"/>
</linearGradient>
<linearGradient id="paint22_linear_32_1208" x1="21.813" y1="64.3563" x2="23.837" y2="64.2597" gradientUnits="userSpaceOnUse">
<stop stop-color="#9914B3"/>
<stop offset="1" stop-color="#7023BC"/>
</linearGradient>
<linearGradient id="paint23_linear_32_1208" x1="62.8276" y1="38.3195" x2="64.8688" y2="38.2214" gradientUnits="userSpaceOnUse">
<stop stop-color="#9914B3"/>
<stop offset="1" stop-color="#7023BC"/>
</linearGradient>
<linearGradient id="paint24_linear_32_1208" x1="1.00098" y1="26.5483" x2="3.02436" y2="26.4509" gradientUnits="userSpaceOnUse">
<stop stop-color="#9914B3"/>
<stop offset="1" stop-color="#7023BC"/>
</linearGradient>
<linearGradient id="paint25_linear_32_1208" x1="62.0815" y1="42.2045" x2="64.105" y2="42.1079" gradientUnits="userSpaceOnUse">
<stop stop-color="#9914B3"/>
<stop offset="1" stop-color="#7023BC"/>
</linearGradient>
<linearGradient id="paint26_linear_32_1208" x1="62.0649" y1="26.4622" x2="64.0879" y2="26.3657" gradientUnits="userSpaceOnUse">
<stop stop-color="#9914B3"/>
<stop offset="1" stop-color="#7023BC"/>
</linearGradient>
<linearGradient id="paint27_linear_32_1208" x1="3.91797" y1="49.5488" x2="5.94136" y2="49.4514" gradientUnits="userSpaceOnUse">
<stop stop-color="#9914B3"/>
<stop offset="1" stop-color="#7023BC"/>
</linearGradient>
<linearGradient id="paint28_linear_32_1208" x1="44.9492" y1="62.8808" x2="46.9908" y2="62.7817" gradientUnits="userSpaceOnUse">
<stop stop-color="#9914B3"/>
<stop offset="1" stop-color="#7023BC"/>
</linearGradient>
<linearGradient id="paint29_linear_32_1208" x1="59.1641" y1="49.5322" x2="61.188" y2="49.4348" gradientUnits="userSpaceOnUse">
<stop stop-color="#9914B3"/>
<stop offset="1" stop-color="#7023BC"/>
</linearGradient>
<linearGradient id="paint30_linear_32_1208" x1="41.2334" y1="4.34477" x2="43.2587" y2="4.24721" gradientUnits="userSpaceOnUse">
<stop stop-color="#9914B3"/>
<stop offset="1" stop-color="#7023BC"/>
</linearGradient>
<linearGradient id="paint31_linear_32_1208" x1="62.811" y1="30.3476" x2="64.8344" y2="30.2502" gradientUnits="userSpaceOnUse">
<stop stop-color="#9914B3"/>
<stop offset="1" stop-color="#7023BC"/>
</linearGradient>
<linearGradient id="paint32_linear_32_1208" x1="18.1323" y1="62.8808" x2="20.1734" y2="62.7817" gradientUnits="userSpaceOnUse">
<stop stop-color="#9914B3"/>
<stop offset="1" stop-color="#7023BC"/>
</linearGradient>
<linearGradient id="paint33_linear_32_1208" x1="33.5171" y1="65.7988" x2="35.5581" y2="65.6997" gradientUnits="userSpaceOnUse">
<stop stop-color="#9914B3"/>
<stop offset="1" stop-color="#7023BC"/>
</linearGradient>
<linearGradient id="paint34_linear_32_1208" x1="0.269531" y1="38.3359" x2="2.29434" y2="38.2384" gradientUnits="userSpaceOnUse">
<stop stop-color="#9914B3"/>
<stop offset="1" stop-color="#7023BC"/>
</linearGradient>
<linearGradient id="paint35_linear_32_1208" x1="3.88379" y1="19.1861" x2="5.9248" y2="19.0862" gradientUnits="userSpaceOnUse">
<stop stop-color="#9914B3"/>
<stop offset="1" stop-color="#7023BC"/>
</linearGradient>
</defs>
</svg>
